<svg xmlns="http://www.w3.org/2000/svg" viewBox="0 0 492.8 266.8"><defs><style>.cls-1{fill:#afdbfc;}.cls-2{fill:#666;}.cls-3{fill:#2a7eb9;}.cls-4{fill:#b0dcfc;}.cls-5{fill:none;}.cls-6{fill:#38a6f7;}</style></defs><g id="Layer_2" data-name="Layer 2"><g id="Layer_1-2" data-name="Layer 1"><path class="cls-1" d="M320.6,140.22c0,.23,0,.46-.05.68l-.51-.41C320.23,140.39,320.41,140.3,320.6,140.22Z"/><path class="cls-1" d="M430.63,140.45l-.57.45c0-.23,0-.46-.05-.69Z"/><path class="cls-1" d="M320,140.49l-.82.41c0-.33,0-.66.07-1Z"/><path class="cls-1" d="M430.85,140.54h0l0,0h0l-.05,0"/><path class="cls-2" d="M14.51,192.59a42.2,42.2,0,0,1,11.76-11.76,28.77,28.77,0,0,1,16.42-4.75q10.35,0,16.85,4.92a27.1,27.1,0,0,1,9.33,13.42,53.92,53.92,0,0,1,12.26-13q7.09-5.34,17.59-5.34A29.86,29.86,0,0,1,111,178.42a23.58,23.58,0,0,1,8.76,6.58A28.7,28.7,0,0,1,125,195.17a46,46,0,0,1,1.75,13.1V264.8h-15V209.43q0-9-4.17-14.59a13.57,13.57,0,0,0-11.5-5.59,18.44,18.44,0,0,0-7.34,1.51,27.88,27.88,0,0,0-6.67,4.08,44.17,44.17,0,0,0-6,6,68.13,68.13,0,0,0-5.17,7.09V264.8h-15V209.43q0-9-4.17-14.59a13.58,13.58,0,0,0-11.51-5.59A19.09,19.09,0,0,0,33,190.67a29.16,29.16,0,0,0-6.75,3.92,39.79,39.79,0,0,0-6.09,5.84,63.79,63.79,0,0,0-5.17,7V264.8H0V178.08H14.51Z"/><path class="cls-2" d="M230.13,265.63q-8,0-12.67-3.17a16.46,16.46,0,0,1-6.5-9.17,48.83,48.83,0,0,1-13.43,9.76,36.93,36.93,0,0,1-16.59,3.75A34.21,34.21,0,0,1,170,265.05a25.09,25.09,0,0,1-9.34-5.59,26.8,26.8,0,0,1-6.51-10,41.32,41.32,0,0,1-2.41-15V178.08h15v54.37q0,10.17,4.26,15.59t12.75,5.42a33.27,33.27,0,0,0,13.35-2.75,39.74,39.74,0,0,0,11.33-7.42V178.08h15v64.21a17.33,17.33,0,0,0,.84,5.92,8.84,8.84,0,0,0,2.17,3.5,7.37,7.37,0,0,0,3.17,1.75,14,14,0,0,0,3.66.5Z"/><path class="cls-2" d="M245.81,221.94a53.48,53.48,0,0,1,3-18.09,44.54,44.54,0,0,1,8.42-14.6,38.75,38.75,0,0,1,13-9.67,39.19,39.19,0,0,1,16.59-3.5,34.27,34.27,0,0,1,13.59,2.59,40.76,40.76,0,0,1,10.6,6.42v-7h13.67v65.71c0,4.22,1,7,3.08,8.25a12.47,12.47,0,0,0,6.76,1.82l0,10.86c-10.67,0-20.26-3.42-22.49-12.09a48.58,48.58,0,0,1-4.58,5.25,30.81,30.81,0,0,1-5.92,4.58,30.47,30.47,0,0,1-7.51,3.17,33.79,33.79,0,0,1-9.17,1.17,37,37,0,0,1-15.26-3.17,36.45,36.45,0,0,1-12.34-9,43.74,43.74,0,0,1-8.34-14.09A53,53,0,0,1,245.81,221.94Zm42.36,31.52a25.37,25.37,0,0,0,12-3,29.74,29.74,0,0,0,9.5-7.84V196.09a41.29,41.29,0,0,0-9.92-5.09,34.28,34.28,0,0,0-11.43-1.91,25.76,25.76,0,0,0-11,2.33,24.81,24.81,0,0,0-8.59,6.59,30.85,30.85,0,0,0-5.59,10.26,41.53,41.53,0,0,0-2,13.17,40.19,40.19,0,0,0,2,12.92,30.41,30.41,0,0,0,5.67,10.18,26.11,26.11,0,0,0,8.59,6.59A24.84,24.84,0,0,0,288.17,253.46Z"/><path class="cls-2" d="M367.61,252.5c-2.22,8.67-11.81,12.09-22.48,12.09l0-10.85a12.42,12.42,0,0,0,6.75-1.83q3.09-1.91,3.09-8.25V128.08a3,3,0,0,1,3-3h7.67a3,3,0,0,1,3,3V185"/><path class="cls-2" d="M368.81,209.45,408,173.94l8.67,9.5-33.52,29.68L424,254l-10.33,10-44.86-46.2"/><path class="cls-2" d="M447.25,163.24A5.26,5.26,0,0,1,442,158a4.88,4.88,0,0,1,5.25-5.25,5.28,5.28,0,0,1,5.26,5.25,4.9,4.9,0,0,1-5.26,5.25Zm7.51,101.56h-15V178.08h15Z"/><path class="cls-2" d="M364.46,0a4.35,4.35,0,0,1,3,1.06,3.27,3.27,0,0,1,1.23,2.56,3.32,3.32,0,0,1-1.13,2.65,4.5,4.5,0,0,1-3.05,1,4.35,4.35,0,0,1-3-1.06,3.27,3.27,0,0,1-1.23-2.56A3.29,3.29,0,0,1,361.4,1a4.52,4.52,0,0,1,3.06-1"/><path class="cls-3" d="M364.51,6.27c-15.44,6.35-37.85,54.62-41.93,66.22a257.08,257.08,0,0,0-13.89,66.84c-6.38-4.9-21.58-14.68-42.53-14.13-18.23.49-24.93,10.29-30,13.86,1.24-11.88,13.22-71.76,41.64-101.25C296.59,18.36,315.52,7.59,364.5,6.24Z"/><path class="cls-4" d="M364.51,6.27c15.44,6.35,37.85,54.62,41.92,66.22a257.08,257.08,0,0,1,13.89,66.84c6.38-4.9,21.58-14.68,42.53-14.13,18.23.49,24.93,10.29,29.95,13.86-1.24-11.88-13.22-71.76-41.64-101.25C432.42,18.36,413.49,7.59,364.51,6.24Z"/><line class="cls-5" x1="323.36" y1="5.42" x2="323.33" y2="5.42"/><path class="cls-6" d="M364.6,6.25c16.57,6.58,35.79,46.78,44.95,76a245.3,245.3,0,0,1,10.68,57.5,1.56,1.56,0,0,0-.2.16l-.62-.24c-31.33-12.24-46-12.95-51.23-13.09h-6.13a102.31,102.31,0,0,0-12.79.58c-4.31.5-20.46,3.24-39.26,12.52-.19.08-.37.17-.56.27l-.75-.58a257.08,257.08,0,0,1,13.89-66.84c.65-1.85,1.77-4.64,3.26-8,.4-.93.83-1.89,1.28-2.9l1.21-2.64c.19-.39.37-.79.56-1.19l.12-.27c.22-.48.45-1,.69-1.45l.09-.19a.61.61,0,0,1,0-.12c.31-.66.63-1.32,1-2l.19-.38.64-1.32c.62-1.26,1.27-2.55,1.93-3.86.91-1.79,1.86-3.61,2.84-5.44.69-1.29,1.4-2.59,2.11-3.89a.05.05,0,0,0,0,0c.72-1.28,1.44-2.55,2.17-3.82q.12-.22.24-.42l.17-.28c.42-.73.85-1.44,1.27-2.16l.87-1.45c.59-1,1.19-1.94,1.79-2.89l.85-1.32c.3-.48.61-1,.93-1.43.72-1.1,1.45-2.18,2.17-3.21l.06-.08,1.09-1.52c.16-.23.33-.46.5-.68.46-.63.91-1.23,1.38-1.83s1.08-1.38,1.62-2l.81-1c.54-.63,1.07-1.24,1.61-1.81l.8-.85c.27-.28.54-.56.81-.82q.78-.77,1.56-1.44a25.67,25.67,0,0,1,2.4-1.89c.22-.15.44-.3.67-.44s.5-.3.74-.44.48-.26.72-.38l0,0c.24-.12.48-.22.71-.32Z"/></g></g></svg>