<svg xmlns="http://www.w3.org/2000/svg" viewBox="0 0 193.46 210"><defs><style>.cls-1{fill:#d5f0f0;}.cls-2{fill:#f9803b;}</style></defs><g id="Layer_2" data-name="Layer 2"><g id="Textos_y_botones" data-name="Textos y botones"><rect class="cls-1" width="193.46" height="210" rx="44.98"/><path class="cls-2" d="M56.53,103.93c0-48.28,23.56-68.4,49.24-68.4a45.26,45.26,0,0,1,33.48,14.09L127,63.32a27.74,27.74,0,0,0-20-9.4c-16.27,0-29.54,12.6-29.54,50,0,30.76,9.89,43.59,24.1,43.59,10.4,0,18.75-8.41,18.75-23.63,0-14.68-7.32-22.23-19.77-22.23-7.33,0-16,4.23-23.16,15.5l-.94-15.81c7.16-9.94,18.86-16,28.28-16,21.58,0,36.55,12.53,36.55,38.51,0,24.88-18,40.85-39.39,40.85C77.41,164.74,56.53,145.8,56.53,103.93Z" transform="translate(0 -4.37)"/></g></g></svg>