<svg xmlns="http://www.w3.org/2000/svg" viewBox="0 0 193.46 210"><defs><style>.cls-1{fill:#d5f0f0;}.cls-2{fill:#f9803b;}</style></defs><g id="Layer_2" data-name="Layer 2"><g id="Textos_y_botones" data-name="Textos y botones"><rect class="cls-1" width="193.46" height="210" rx="44.98"/><path class="cls-2" d="M55.9,130.54c0-15.57,10.72-25.75,22.53-32v-.78c-9.53-6.81-17.17-16-17.17-29,0-20.2,16.07-33.19,37.81-33.19,22.46,0,36.79,13.62,36.79,33.66,0,12.44-8.66,22.85-16.82,28.6v.78c11.58,6.54,21.71,15.69,21.71,32.28,0,19.18-17,33.89-42.38,33.89C74,164.74,55.9,150.58,55.9,130.54Zm63.54-.39c0-13.54-13.24-18.47-30.13-25.36-7.76,5.72-13.51,13.86-13.51,23.4,0,12.29,10.12,20.51,23,20.51C110.89,148.7,119.44,141.73,119.44,130.15ZM117,70.59c0-11-6.78-19-18.44-19-9.65,0-17.09,6.34-17.09,17.14,0,12.44,11.26,18,25.13,23.47C113.33,85.54,117,78.42,117,70.59Z" transform="translate(0 -4.37)"/></g></g></svg>