<svg xmlns="http://www.w3.org/2000/svg" viewBox="0 0 588.72 93.95"><defs><style>.cls-1{fill:#0071ba;}</style></defs><g id="Layer_2" data-name="Layer 2"><g id="Textos_y_botones" data-name="Textos y botones"><path class="cls-1" d="M4.49,46.48c0-19.69,12.33-31.39,27.56-31.39a23.92,23.92,0,0,1,17.33,7.62l-5.7,6.88c-3.09-3.09-6.7-5.22-11.41-5.22-9.79,0-16.81,8.27-16.81,21.78,0,13.73,6.47,22,16.55,22,5.34,0,9.46-2.46,12.85-6.18l5.7,6.7a24,24,0,0,1-19,8.75C16.49,77.46,4.49,66.39,4.49,46.48Z" transform="translate(-4.49 -2.4)"/><path class="cls-1" d="M60.42,53.8c0-15,10.23-23.73,21.49-23.73S103.4,38.75,103.4,53.8,93.17,77.46,81.91,77.46,60.42,68.78,60.42,53.8Zm32.09,0c0-9-4-15.08-10.6-15.08s-10.59,6-10.59,15.08,4,15,10.59,15S92.51,62.86,92.51,53.8Z" transform="translate(-4.49 -2.4)"/><path class="cls-1" d="M117.59,31.17h8.69l.81,6.11h.29c4.05-3.94,8.65-7.21,14.83-7.21,9.68,0,13.91,6.55,13.91,18V76.36h-10.6v-27c0-7.44-2.13-10.23-7-10.23-4,0-6.58,2-10.3,5.63V76.36h-10.6Z" transform="translate(-4.49 -2.4)"/><path class="cls-1" d="M168.52,31.65l6.63-.48H194V39.6H168.52Zm6.08-5.15c0-9.37,4.3-16.23,15-16.23a22.94,22.94,0,0,1,8.28,1.58l-2,7.92a12.65,12.65,0,0,0-4.9-1.07c-3.75,0-5.74,2.37-5.74,7.62v50H174.6Z" transform="translate(-4.49 -2.4)"/><path class="cls-1" d="M204.42,17.26c0-3.57,2.8-6,6.55-6s6.55,2.43,6.55,6-2.8,6-6.55,6S204.42,20.76,204.42,17.26Zm1.21,13.91h10.6V76.36h-10.6Z" transform="translate(-4.49 -2.4)"/><path class="cls-1" d="M230.33,84.57c0-3.81,2.35-7.14,6.51-9.64v-.37A8.57,8.57,0,0,1,232.76,67c0-3.49,2.39-6.58,5-8.42v-.37a15,15,0,0,1-6-11.92c0-10.38,8.39-16.23,17.85-16.23a20.27,20.27,0,0,1,6.69,1.1H272.5v7.88h-8.25a11.82,11.82,0,0,1,2.58,7.58c0,10-7.62,15.42-17.18,15.42a17.22,17.22,0,0,1-6.11-1.2,5.2,5.2,0,0,0-2.21,4.32c0,2.54,1.84,4.09,7.32,4.09h8c10.8,0,16.54,3.35,16.54,11.15,0,8.9-9.34,15.93-24.1,15.93C238.35,96.34,230.33,92.48,230.33,84.57ZM263,82.14c0-3.5-2.79-4.53-8-4.53h-6.2a24.67,24.67,0,0,1-6.11-.62c-2.43,1.84-3.5,3.86-3.5,6,0,4.12,4.42,6.51,11.52,6.51C258,89.46,263,86,263,82.14ZM257.48,46.3c0-5.67-3.42-8.91-7.83-8.91s-7.84,3.2-7.84,8.91,3.49,9.09,7.84,9.09S257.48,52,257.48,46.3Z" transform="translate(-4.49 -2.4)"/><path class="cls-1" d="M284.42,59.51V31.17H295v27c0,7.43,2.13,10.23,7,10.23,4,0,6.59-1.84,10-6.26V31.17h10.6V76.36H314l-.81-6.66h-.29c-4,4.71-8.36,7.76-14.54,7.76C288.65,77.46,284.42,70.91,284.42,59.51Z" transform="translate(-4.49 -2.4)"/><path class="cls-1" d="M339.77,31.17h8.68l.81,8.06h.3c3.22-5.89,8-9.16,12.84-9.16a11.49,11.49,0,0,1,5.12.92l-1.84,9.2a15.4,15.4,0,0,0-4.64-.74c-3.61,0-8,2.47-10.67,9.35V76.36h-10.6Z" transform="translate(-4.49 -2.4)"/><path class="cls-1" d="M372.94,64.22c0-9.68,8-14.72,26.57-16.71-.14-4.86-2.09-8.9-8.2-8.9-4.49,0-8.72,2-12.7,4.45L374.71,36c5-3.12,11.37-5.92,18.55-5.92,11.29,0,16.85,7,16.85,19.54V76.36h-8.68l-.81-5h-.3c-4.05,3.46-8.68,6.1-14,6.1C378.39,77.46,372.94,72.09,372.94,64.22Zm26.57,0V54.1c-12.25,1.54-16.34,4.74-16.34,9.31,0,4,2.73,5.74,6.52,5.74S396.16,67.34,399.51,64.25Z" transform="translate(-4.49 -2.4)"/><path class="cls-1" d="M423.54,53.8c0-15,10.64-23.73,22.67-23.73a19.32,19.32,0,0,1,13.21,5.08L454.27,42c-2.39-2.1-4.67-3.31-7.51-3.31-7.28,0-12.32,6-12.32,15.08s5,15,12,15a14.89,14.89,0,0,0,9.35-3.9l4.3,7a22.3,22.3,0,0,1-14.75,5.55C433,77.46,423.54,68.78,423.54,53.8Z" transform="translate(-4.49 -2.4)"/><path class="cls-1" d="M471.49,17.26c0-3.57,2.8-6,6.55-6s6.55,2.43,6.55,6-2.79,6-6.55,6S471.49,20.76,471.49,17.26Zm1.22,13.91h10.6V76.36h-10.6Z" transform="translate(-4.49 -2.4)"/><path class="cls-1" d="M497.51,53.8c0-15,10.23-23.73,21.49-23.73s21.49,8.68,21.49,23.73S530.26,77.46,519,77.46,497.51,68.78,497.51,53.8Zm32.09,0c0-9-4-15.08-10.6-15.08s-10.6,6-10.6,15.08,4,15,10.6,15S529.6,62.86,529.6,53.8ZM513.55,18.44l13.58-16,7.29,7L518.85,23.67Z" transform="translate(-4.49 -2.4)"/><path class="cls-1" d="M554.68,31.17h8.68l.81,6.11h.3c4-3.94,8.65-7.21,14.83-7.21,9.68,0,13.91,6.55,13.91,18V76.36h-10.6v-27c0-7.44-2.14-10.23-7-10.23-4,0-6.59,2-10.3,5.63V76.36h-10.6Z" transform="translate(-4.49 -2.4)"/></g></g></svg>