<svg xmlns="http://www.w3.org/2000/svg" viewBox="0 0 213.99 48.82"><defs><style>.cls-1{fill:#0071ba;}</style></defs><g id="Layer_2" data-name="Layer 2"><g id="Textos_y_botones" data-name="Textos y botones"><path class="cls-1" d="M3.51,36.37C3.51,21,13.16,11.8,25.09,11.8a18.7,18.7,0,0,1,13.56,6l-4.46,5.38a12.29,12.29,0,0,0-8.93-4.09c-7.66,0-13.16,6.48-13.16,17.05,0,10.75,5.07,17.26,13,17.26,4.17,0,7.4-1.93,10.05-4.84l4.47,5.24a18.78,18.78,0,0,1-14.84,6.85C12.9,60.62,3.51,52,3.51,36.37Z" transform="translate(-3.51 -11.8)"/><path class="cls-1" d="M47.46,12.67h8.36V59.76H47.46Z" transform="translate(-3.51 -11.8)"/><path class="cls-1" d="M67.77,12.67H96.22v7H76.12V33.06H93.23v7H76.12V59.76H67.77Z" transform="translate(-3.51 -11.8)"/><path class="cls-1" d="M104.49,12.67h15.87c9.79,0,17.34,3.45,17.34,14,0,10.12-7.55,14.72-17.34,14.72h-7.52v18.4h-8.35Zm15,22c6.45,0,10-2.67,10-8s-3.52-7.29-10-7.29h-6.65V34.67Zm-.7,4.45,6-5,14.71,25.62h-9.39Z" transform="translate(-3.51 -11.8)"/><path class="cls-1" d="M155.89,12.67h9.8L181,59.76H172.2L165,34.7c-1.5-5-2.89-10.35-4.27-15.52h-.29c-1.29,5.21-2.67,10.54-4.17,15.52l-7.23,25.06h-8.53Zm-6.27,27.78h22.17V47H149.62Z" transform="translate(-3.51 -11.8)"/><path class="cls-1" d="M183.63,53.73,188.5,48a18.49,18.49,0,0,0,12.27,5.37c5.29,0,8.2-2.41,8.2-6.08,0-3.87-3-5.11-7.31-6.93l-6.44-2.79c-4.64-1.93-9.52-5.6-9.52-12.49,0-7.5,6.63-13.28,15.81-13.28a20.65,20.65,0,0,1,14.52,6l-4.29,5.3a15.17,15.17,0,0,0-10.23-4.05c-4.46,0-7.37,2.09-7.37,5.53,0,3.7,3.59,5.07,7.49,6.67L208,33.92c5.6,2.34,9.52,5.88,9.52,12.71,0,7.63-6.34,14-16.91,14A24.25,24.25,0,0,1,183.63,53.73Z" transform="translate(-3.51 -11.8)"/></g></g></svg>