<svg xmlns="http://www.w3.org/2000/svg" viewBox="0 0 282.21 66.2"><defs><style>.cls-1{fill:#0071ba;}</style></defs><g id="Layer_2" data-name="Layer 2"><g id="Textos_y_botones" data-name="Textos y botones"><path class="cls-1" d="M7.65,16.2H18.33V76.36H7.65Z" transform="translate(-7.65 -11.26)"/><path class="cls-1" d="M33.6,53.8c0-14.72,9.23-23.73,19.13-23.73,5.12,0,8.36,1.91,11.85,5l-.4-7.29V11.38h10.6v65H66.09l-.81-4.89H65c-3.35,3.35-8,6-12.85,6C40.88,77.46,33.6,68.71,33.6,53.8Zm30.58,9.83V42.58A13.35,13.35,0,0,0,55,38.83c-5.74,0-10.49,5.44-10.49,14.86,0,9.83,3.75,15,10.27,15C58.25,68.71,61.2,67.16,64.18,63.63Z" transform="translate(-7.65 -11.26)"/><path class="cls-1" d="M90.71,17.26c0-3.57,2.8-6,6.55-6s6.55,2.43,6.55,6-2.8,6-6.55,6S90.71,20.76,90.71,17.26Zm1.22,13.91h10.59V76.36H91.93Z" transform="translate(-7.65 -11.26)"/><path class="cls-1" d="M116.73,53.8c0-15,10.23-23.73,21.49-23.73s21.49,8.68,21.49,23.73-10.23,23.66-21.49,23.66S116.73,68.78,116.73,53.8Zm32.09,0c0-9-4-15.08-10.6-15.08s-10.6,6-10.6,15.08,4,15,10.6,15S148.82,62.86,148.82,53.8Z" transform="translate(-7.65 -11.26)"/><path class="cls-1" d="M173.9,31.17h8.68l.81,6.17h.3c3.82-4,8.2-7.27,13.87-7.27,6.62,0,10.39,3,12.47,8.09,4.33-4.6,8.8-8.09,14.54-8.09,9.53,0,13.94,6.55,13.94,18V76.36H227.92v-27c0-7.44-2.21-10.23-7-10.23-2.87,0-6,1.84-9.46,5.63V76.36H200.91v-27c0-7.44-2.21-10.23-7-10.23-2.8,0-6,1.84-9.46,5.63V76.36H173.9Z" transform="translate(-7.65 -11.26)"/><path class="cls-1" d="M252.7,64.22c0-9.68,8-14.72,26.57-16.71-.15-4.86-2.1-8.9-8.21-8.9-4.48,0-8.72,2-12.69,4.45L254.47,36c5-3.12,11.37-5.92,18.55-5.92,11.29,0,16.85,7,16.85,19.54V76.36h-8.69l-.81-5h-.29c-4.05,3.46-8.68,6.1-14,6.1C258.15,77.46,252.7,72.09,252.7,64.22Zm26.57,0V54.1c-12.25,1.54-16.34,4.74-16.34,9.31,0,4,2.73,5.74,6.52,5.74S275.92,67.34,279.27,64.25Z" transform="translate(-7.65 -11.26)"/></g></g></svg>