<svg xmlns="http://www.w3.org/2000/svg" viewBox="0 0 322.94 232.23"><defs><style>.cls-1{fill:#00c1dc;}.cls-2{fill:#fff;}.cls-3{fill:#0071ba;}</style></defs><g id="Layer_2" data-name="Layer 2"><g id="Layer_3" data-name="Layer 3"><path class="cls-1" d="M218.67,54.51c-6.75-30.29-35.51-53-70-53C111.48,1.47,80.91,28,77.55,62a64.29,64.29,0,0,0-9.77-.74C31.17,61.21,1.5,91.63,1.5,129.16s29.67,68,66.28,68c1.93,0,3.85-.09,5.74-.26,11.35,20.31,32.13,33.92,55.89,33.92,24.37,0,45.6-14.31,56.74-35.47a130,130,0,0,0,21.69,1.81c53.38,0,96.66-32,96.66-71.53C304.5,88.79,267,58.49,218.67,54.51ZM122.24,92.35l.67-.93.51.8C123,92.25,122.63,92.3,122.24,92.35Z"/><path class="cls-2" d="M220.12,54.11c-5.88-26-27.51-45.8-53.07-52C140.78-4.2,111.73,3.69,93.33,23.76A66.57,66.57,0,0,0,76.05,62L78,60.5a67.18,67.18,0,0,0-45.34,9.28A69.73,69.73,0,0,0,5.18,102.5a71.37,71.37,0,0,0-2.8,45A69.87,69.87,0,0,0,25.7,183.6a66.31,66.31,0,0,0,47.82,14.75l-1.29-.74c9.08,16.13,24.38,28.59,42.51,32.92a63.75,63.75,0,0,0,52.68-11,70.47,70.47,0,0,0,20-23.49l-1.69.68c21.48,3.6,44,2.07,64.59-5.31,16.65-6,32.28-15.85,43.09-30.06,9.73-12.8,14.42-28.87,11.81-44.85-2.69-16.5-12.95-30.78-25.89-41-15.17-11.95-33.88-19-52.91-21.67-2.58-.36-5.17-.66-7.77-.87-1.92-.17-1.91,2.83,0,3,19,1.59,37.81,7.37,53.63,18.08,13.3,9,24.52,21.9,28.82,37.61,4.08,14.89,1.17,30.58-7.05,43.52-9,14.21-23.34,24.48-38.66,31-18.69,8-39.56,10.69-59.74,8.8q-4.57-.42-9.12-1.19a1.56,1.56,0,0,0-1.7.69c-8.26,15.59-22.38,27.85-39.52,32.58a60.78,60.78,0,0,1-50.68-8.91A66.85,66.85,0,0,1,74.82,196.1a1.49,1.49,0,0,0-1.3-.75A64.24,64.24,0,0,1,32,184.54,66.48,66.48,0,0,1,6.91,152,68.63,68.63,0,0,1,6,109.06a66.63,66.63,0,0,1,23.7-33.68A64.07,64.07,0,0,1,69.53,62.74a63,63,0,0,1,7.63.65A1.52,1.52,0,0,0,79.05,62C81.6,37,99.59,16.18,122.76,7.59,147.26-1.48,176.1,3,196,20.14a64.89,64.89,0,0,1,21.2,34.76C217.65,56.79,220.55,56,220.12,54.11Z"/><path class="cls-2" d="M123.54,93.1l.66-.92h-2.59l.51.79,1.3-2.25c-.4,0-.79.08-1.18.13a1.11,1.11,0,0,0-.57.12,1.32,1.32,0,0,0-.49.31,1.21,1.21,0,0,0-.31.49,1.27,1.27,0,0,0-.13.58l.06.39a1.54,1.54,0,0,0,.38.67l.31.23a1.51,1.51,0,0,0,.75.21c.39,0,.78-.1,1.18-.13a1.51,1.51,0,0,0,.75-.21,1.4,1.4,0,0,0,.54-.54,1.51,1.51,0,0,0,0-1.51c-.17-.27-.33-.53-.51-.79a1.4,1.4,0,0,0-.54-.54,1.51,1.51,0,0,0-.75-.21,1.52,1.52,0,0,0-1.3.75l-.66.92a1.12,1.12,0,0,0-.18.56,1.07,1.07,0,0,0,0,.59,1,1,0,0,0,.27.51,1,1,0,0,0,.42.39l.35.15a1.55,1.55,0,0,0,.8,0l.36-.15A1.4,1.4,0,0,0,123.54,93.1Z"/><path class="cls-3" d="M237.11,55.88c-6.75-30.28-35.51-53-70-53C129.92,2.84,99.34,29.4,96,63.32a65.6,65.6,0,0,0-9.77-.73c-36.61,0-66.28,30.42-66.28,67.94s29.67,67.95,66.28,67.95c1.93,0,3.85-.08,5.74-.25,11.35,20.31,32.13,33.91,55.89,33.91,24.37,0,45.6-14.3,56.74-35.47a128.94,128.94,0,0,0,21.69,1.81c53.38,0,96.66-32,96.66-71.52C322.94,90.17,285.39,59.86,237.11,55.88ZM140.68,93.72l.67-.92c.17.26.34.52.5.79Z"/></g></g></svg>