<svg xmlns="http://www.w3.org/2000/svg" xmlns:xlink="http://www.w3.org/1999/xlink" viewBox="0 0 668.19 438.01"><defs><style>.cls-1,.cls-6{fill:none;}.cls-2{font-size:158.52px;fill:#fff;stroke:#d7de21;stroke-width:0.25px;font-family:GrandHotel-Regular, Grand Hotel;}.cls-2,.cls-6{stroke-miterlimit:10;}.cls-3{font-size:165.53px;font-family:JustMeAgainDownHere, Just Me Again Down Here;letter-spacing:0em;}.cls-4{clip-path:url(#clip-path);}.cls-5{fill:#fc9232;}.cls-6{stroke:#fc9232;stroke-width:0.72px;}.cls-7{fill:#202020;}</style><clipPath id="clip-path" transform="translate(0 0)"><rect class="cls-1" x="514.79" width="153.4" height="438.01"/></clipPath></defs><g id="Layer_2" data-name="Layer 2"><g id="Textos_y_botones" data-name="Textos y botones"><text class="cls-2" transform="translate(0.13 342.98) scale(1.01 1)"><tspan xml:space="preserve">   </tspan><tspan class="cls-3" x="104.72" y="0">N</tspan><tspan x="176.23" y="0">úmeros</tspan></text><g id="globo"><g class="cls-4"><g class="cls-4"><path class="cls-5" d="M622.45,172.05a112.51,112.51,0,0,1-25.36,15.69v5.31H585.5V187.4a122.47,122.47,0,0,1-27.52-19c-5.27-4.83-56.9-53.59-39.12-108.66C527.44,33.16,553.75.35,591.3.36c37.91,0,63.78,33.46,72.44,59.4,15.26,45.71-15.3,90.91-41.29,112.29" transform="translate(0 0)"/><path class="cls-6" d="M622.45,172.05a112.51,112.51,0,0,1-25.36,15.69v5.31H585.5V187.4a122.47,122.47,0,0,1-27.52-19c-5.27-4.83-56.9-53.59-39.12-108.66C527.44,33.16,553.75.35,591.3.36c37.91,0,63.78,33.46,72.44,59.4C679,105.47,648.44,150.67,622.45,172.05Z" transform="translate(0 0)"/><path class="cls-7" d="M553,437.89c-.07.14.09.2.37-.07l.06-.37Z" transform="translate(0 0)"/><path class="cls-7" d="M555.26,436.53c.27-.39.53-.9.16-.86-.19.47-.33.47-.53,1-.27.27-.56.39-.57.27-.06.14-.5.36-.56.61a3.23,3.23,0,0,0,1.41-1.16c.15-.05.08.09.09.14" transform="translate(0 0)"/><path class="cls-7" d="M578.92,406.59l-.14.2.14-.2" transform="translate(0 0)"/><path class="cls-7" d="M587.92,384.56c0,.17,0,.25,0,.27,0-.17.06-.3,0-.27" transform="translate(0 0)"/><path class="cls-7" d="M589.18,380.67a2,2,0,0,1-.07.23.49.49,0,0,0,.07-.23" transform="translate(0 0)"/><path class="cls-7" d="M578.92,406.59l.36-.53c0-.08-.2.26-.36.53" transform="translate(0 0)"/><path class="cls-7" d="M558.73,432.53a2,2,0,0,0-.19.29l.21-.25s0,0,0,0" transform="translate(0 0)"/><path class="cls-7" d="M573.82,415.77l-.11.17v.19Z" transform="translate(0 0)"/><path class="cls-7" d="M569.22,422.41c.12-.14,0-.31,0-.42a.65.65,0,0,1-.13.4s.08,0,.17,0" transform="translate(0 0)"/><path class="cls-7" d="M560.59,431.85l-.14.18.14-.18" transform="translate(0 0)"/><path class="cls-7" d="M576.86,410.86a.14.14,0,0,0,.09,0s-.05,0-.09,0" transform="translate(0 0)"/><path class="cls-7" d="M586,199.9l0,0s0-.07,0,0" transform="translate(0 0)"/><path class="cls-7" d="M592.43,193.09l-.07.1a.36.36,0,0,0,.07.1Z" transform="translate(0 0)"/><path class="cls-7" d="M590.7,373.3v0c0,.19,0,.08,0,0" transform="translate(0 0)"/><path class="cls-7" d="M569.7,309.12c.15.78-.73-1.05-.44.09,0-.13.72.83.44-.09" transform="translate(0 0)"/><path class="cls-7" d="M558.9,432.41l.23-.23a2.43,2.43,0,0,0-.23.23" transform="translate(0 0)"/><path class="cls-7" d="M569.26,309.21h0l0,.12,0-.12" transform="translate(0 0)"/><path class="cls-7" d="M589.91,356a.74.74,0,0,0,0,.19s0-.05,0-.19" transform="translate(0 0)"/><path class="cls-7" d="M590.61,368.87l0-.32c0,.12,0,.23,0,.32" transform="translate(0 0)"/><path class="cls-7" d="M588.06,349.58a1.53,1.53,0,0,0-.11-.45.19.19,0,0,0,0,.08.75.75,0,0,1,.12.37" transform="translate(0 0)"/><path class="cls-7" d="M585.82,343v.13l.09.2Z" transform="translate(0 0)"/><path class="cls-7" d="M574.6,217.57a1.07,1.07,0,0,1,.32-.18c-.18,0,.29-.88-.32.18" transform="translate(0 0)"/><path class="cls-7" d="M558.82,432.61a.24.24,0,0,1,.08-.2l-.15.16s0,.06.07,0" transform="translate(0 0)"/><path class="cls-7" d="M586.44,349.77l-.27-1c.06.29.17.67.27,1" transform="translate(0 0)"/><path class="cls-7" d="M559.16,264.45v-.26a.57.57,0,0,0,0,.26" transform="translate(0 0)"/><path class="cls-7" d="M585.11,345.7a2.7,2.7,0,0,0-.08-.62.9.9,0,0,0-.09-.1Z" transform="translate(0 0)"/><path class="cls-7" d="M574.93,217.39h0Z" transform="translate(0 0)"/><path class="cls-7" d="M578.24,210.93c-.58.88,0,.55,0,.82-.61,1.09-.48.38-.82.67-.34.71-.43,1.35-.74,1.85-.06,0-.13.1-.11,0-.23.82-1.23,2.12-1.48,3.08a.58.58,0,0,1-.12.08.35.35,0,0,1,.39.05c-.23.41-.29.83-.53.9a.76.76,0,0,0,.12-.44l-.19.46c-.44.26.27-.62.11-.71-.21.43-.42.91-.61,1.36a7.12,7.12,0,0,1-.57,1.2c-.29,0,.73-1.56.08-.8.21-.32.41-.64.63-.95-.78.56.38-.59-.39-.1-.79,1.28-.68,1.54-1.45,2.82,0,.37.23,0,.2.36-.78,2-1.33,1.2-1.77,2.73a2.24,2.24,0,0,1-.46,1.64l-.08-.47c-.65,1.3,0,.93-.81,2.22,0-.29.4-1.07.28-.89-.62.8-.16.7-.48,1.38l-.29,0c-.31.71-.61,1.47-.91,2.24s-.55,1.6-.86,2.4c0-.12,0-.42-.21-.08a33.66,33.66,0,0,1-1.28,3.12c-.44,1.06-.88,2.11-1.3,3.06l-.07.82c-.06.18-.21.29-.18.09-.35.74.12.09.06.48s-.32.54-.28.24c-.17.7-.37,1.71-.62,2.71a16.46,16.46,0,0,1-.89,2.68l0-.3c-.44,1.1.06,1.39-.4,2.39v-.21c-.35,1.23-.65,2.53-1,3.76a21.3,21.3,0,0,1-.85,3.34,3.31,3.31,0,0,1-.16,1.41c-.11.6-.19,1.17,0,1.29a21.4,21.4,0,0,0-.86,3c-.07.55.19.85.17,1.53h-.23l.15.94-.31.47v.63c0-.25.15-.52.21-.48a6.82,6.82,0,0,1-.44,2.42l.08,2.37c-.09-.06-.1-.45-.14-.77.17,1.27-.26.22-.08,1.38.05-.15.13.09.18.12a12.67,12.67,0,0,0-.08,2.84l-.15-.18a26,26,0,0,0,.11,2.75c0,.47.07.95.1,1.43s.09,1,.14,1.46c0-.7.29-.56.36,0l-.21.24c.18.36,0-.6.28.14,0,.73-.22.52-.34.1l.17.88c-.07.06-.13-.14-.22-.19.18.35-.11,1.57.23,2.06l-.06.06c.28,1.94.43,2.82.76,4.39.2,0,.27.62.52,1a28.6,28.6,0,0,0,.61,3.84c.32.95.23.25.45.65-.18.12.21,1.47-.11.8a37.86,37.86,0,0,0,1.35,4.09c0-.24,0-.5.06-.39.15.36.19.87.09.84l0-.09a11.64,11.64,0,0,1,.61,1.81c.18.64.35,1.29.51,1.94a11.47,11.47,0,0,0,1.2,3.34l0-.1c.3.59.59,1.19.91,1.77.32.85-.34-.45-.19.22,1.11,1.85,1.27,3.13,2.19,4.64.05,1.48,2.08,4.37,2.58,6.16l.07-.16c.32.37.19.55.32.88.06-.09-.13-.52.06-.28,1.93,3.52,3.61,7.45,5.39,11.14.65,1.35,1,.45,1.56,2.28l-.45-.37c1.64,2.56,2.75,5.52,4.21,8.09-.13-.14-.19-.12-.31-.38a5,5,0,0,0,1.07,2.06c.17.42-.08.15,0,.43.17.61.81,1.35.79,1.73,0,.06-.12-.14-.18-.24.23.34.71,1.75.74,1.31.34,1.06.84,1.94,1,2.8.43.46.52,1.82.88,1.88-.34,0,.39,1.91.7,2.54-.16-.19.07.61-.13.39.22.75.49,1.44.61,1.26,0,1.5,1,2.77.72,3.69.29,1.13.62,2.23.83,3.31s.44,2.14.56,3.19c-.29,0-.32-2.32-.65-2.18.21,1,.43,1.75.55,2.53a15.41,15.41,0,0,1,.28,2.56c0,.52-.14-.28-.22-.45.11,1,.11,2,.13,2.9s0,1.86,0,2.75c0,0,0-.2-.07-.38,0,.35-.08.82.07.78l0-.34c.23-.56.42,1.43.49,1.5-.37-.63-.28,1.76-.72.76,0,.24,0,.53.15.49-.06.34-.13.44-.21.08a14.68,14.68,0,0,1,0,2c-.07,0-.06-.24-.13-.37a6,6,0,0,1-.11,2.14c0-.07-.11,0-.06-.25a24.31,24.31,0,0,1-.65,4.63c-.18-.6-.24.58-.52.61,0,.33-.1.65-.16,1l.23-.35c-.22.83-.23,1.62-.5,2.31l0-.65c-.11.53-.25,1.05-.38,1.57l.35-.85c-.11.88.36,0,0,1.09a9.68,9.68,0,0,1-.52,1.22h0a4.53,4.53,0,0,1-.36,1.47c-.13.14-.24-.22-.33-.13.1.47-.57,1.94-.52,2.52,0-.18-.13-.24-.18-.19l.06.39c-.18.36-.23.41-.31.31-.44,1.12.45-.24-.18,1.05,0-.11,0-.07,0-.3a20.35,20.35,0,0,0-.71,2c-.23.64-.45,1.27-.73,1.86-.4.26.36-1.09,0-.76a53,53,0,0,1-2,5.42l.17-.3c.24.39-.73,1.17-1,2.09.07-.22-.07-.36,0-.29-.59,1.12-1,2.37-1.78,4.13v-.26c-.4.63-1,1.71-1.36,2.4,0,.25-.26.65,0,.47-1.69,1.89-2.07,4.27-3.65,5.89.14-.22.26-.58.15-.4l-.91,1.63c.21,0,.21-.15.53-.41a3.61,3.61,0,0,1-.52,1.13c.38-.77-.23-.14-.5.11.07,0,0,.11.11.11-.79.65.19.33-.72,1.33l0-.11a9.07,9.07,0,0,1-.74,1.31c-.29.07.23-.49.12-.61-.43.63-.55,1.45-1.12,1.88.15-.29.42-.66.56-1a4.32,4.32,0,0,0-1,1l0,0-.84,1,.24-.23c-.16,1.06-1.08,1.6-1.61,2.8.53-1.16,0-.27-.13-.48-.25.22-.61.56-.57.41-.24.58-.73.7-1.08,1.52-.07,0-.41.49-.46.27-.46.63.21-.06.24,0-.59,1.09-2.06,2-3,3.47-.92,1.18-.93,1.56-1.82,2.64-.41.25.08-.46.08-.46a8.58,8.58,0,0,0-1.44,1.45c.06-.15-.08-.08-.29,0-.4.41-.09.45-.71.9a1.94,1.94,0,0,1,.22-.6c-.45.51-.83,1.07-1.3,1.59-.22,0,.18-.42.3-.65a9.12,9.12,0,0,0-1.47,1.76l.42-.28c-.2.2-.22,0-.08-.2.39-.57.76-.6.83-.58l-.33.37c.66,0,1.42-1.41,2.15-2.09l-.09.51.56-.9c.21-.1.43-.09.11.29.62-.4.38-.52.93-.85.07,0,.06,0,0,.06l.43-.57c0,.15.23.07-.1.35,1-.78,1.24-1.64,1.74-1.82l-.06.09c1.11-1.37,0-.28.65-1.43l1-.29,0-.28c.12-.13.37-.39.39-.28.33-.61-.15,0,0-.37.73-.51,1.48-1.89,1.88-1.81.07-.35-.64.56-.13-.23.47,0,.63-.88,1.26-1.39,0,.31-.55.84.08.32.05-.57,1-1.17,1.37-1.75-.18-.18.8-1.23,1.39-2.2a31.13,31.13,0,0,0,2-2.46l0,0c-.11-.32.53-1.2.92-1.88.12.11.09.26-.08.66l.41-.62a2.26,2.26,0,0,1,.33-.84l.07.26a31,31,0,0,1,1.62-2.83c-.12-.15-1,.6-.38-.61.12,0,.29.05.14.38a2,2,0,0,1,.3-.57l-.13.54c.36-.46,0-.33.28-.72.12.08.26-.24.33-.13s-.26.32-.3.5a5.07,5.07,0,0,1,.88-1.06c-.1,0-.17-.1,0-.44.47-.87.31-.21.66-.68,0-.25.43-.75.25-.87a.7.7,0,0,1,.36-.32c.16-.5,1.09-2.12.62-1.72l-.07.11,0-.08h0c.59-1.58,1.7-3,2.32-4.58l.06,0a21.47,21.47,0,0,0,1-2.73c.12-.26.4-.58.43-.43a7.62,7.62,0,0,1,.75-1.78c-.18.75.2-.2-.22.75a6.58,6.58,0,0,0,.86-2.1c0,.41.48-.6.61-1.06l-.38.6c.17-.5.35-.93.54-1.35l.13.32c1-1.79.81-3.58,1.77-4.88,0-.55-.47,1-.5.49.34-.86,1-1.68,1-2,.51-1.17,0-1.23.49-2.48-.13.14-.39.22-.19-.75s.66-1,.57-.42c-.06.22-.11.32-.14.3,0,.3-.13.68.06.36l0-.14c.22-.42.54-1.66.59-1.33.11-.71-.06-.33-.23.16.42-1.12.49-1.8.84-3-.09.18-.23.33-.18.14.51-1.73,0-.81.24-2,.26-.65.25.31.39-.92.23-.72.26-.11.27.19a12.88,12.88,0,0,1,.58-2.69l0,.6a6.23,6.23,0,0,1,.11-.94l-.23.31c.09-.34.13-.63.2-.62-.05-.37-.32.23-.37-.49.17-.44.06-1.41.31-1.54-.22,1.44.24-.14.16,1.1a3.79,3.79,0,0,1,.09-.88s0,.06,0,.15c.34-1.38-.19-.67-.05-2.11.11.2.28-.31.27-.55-.06.58-.22.26-.3-.28a6.86,6.86,0,0,0,0-1.49l-.07.55a3.74,3.74,0,0,1-.1-1.3c.1-.05,0,.58.1.36a2.66,2.66,0,0,1,.06-1.21,4.4,4.4,0,0,0,0-1.41c.08-.47.24-.05.29-.46-.2-1.12.18-1.23-.06-2.4-.15.35-.1.4-.34-.41.09.64.21,1.28.25,1.92-.09-.41-.19-.82-.32-1.22a14.18,14.18,0,0,1,.15,1.57c-.15-.58-.11-.52-.25-.24.27-.81-.24-1.57-.13-2.5h.43c.1-1.42-.47-2.44-.61-4.24v.58c-.2-.21-.16-1.1-.35-1.66.15,0,.13-.34.17-.6-.1.05-.24-1.3-.55-1.4,0-.28,0-.56,0-.83-.28-1.44-.79-1.52-1.09-2.88.27.36.21-.28.54.6-.1-.46-.2-.87-.3-.85,0-.28-.55-1.18-.54-1.63a1.41,1.41,0,0,1-.41-.7c0-.06.07,0,.07,0s-.34-.75-.35-.27a9.47,9.47,0,0,0-.67-2.61,10.41,10.41,0,0,1-.76-2.45c-.39-.94-.92-2-1.28-2.89.06,0,.07,0,.12.14-.37-1.22-.67-.56-1.12-1.94-.09-.76.43.65.32.2.35-.38-.76-1.57-.92-2.57l.12.2a30.1,30.1,0,0,0-1.42-2.67s.06,0,.06,0a21.45,21.45,0,0,1-1.92-3c.33.24.32.43.39.14-.26-.45-.2.28-.72-.63-.06-.35-.32-1.06-.19-1.24l.45.87c0-.56-.58-1.13-.77-1.61h.13c-.72-1.33-1-1.21-1.71-2.66v.19c-.66-.66-.2-.74-.8-1.42l.13-.37c-.33-.49-1.18-1.69-1.71-2.59a19.77,19.77,0,0,1,1.58,2.08,10.81,10.81,0,0,0-1.19-1.94,2.71,2.71,0,0,1,.4.65,9.55,9.55,0,0,1-1.58-2.33c.58-.07-1.24-2.74-1.23-3.68a61.63,61.63,0,0,1-2.73-5.78c0,.94-.31-.62-.64-.31a2.54,2.54,0,0,1-.33-.74l-.44-1.64c-.05-.41.3.44.37.36-.46-1.12,0-.54-.25-1.32-.08.22-.37-.29-.58-.95l.19,1c-.87-1.46-.23-1.48-1.09-2.95l.33.44a22.18,22.18,0,0,0-1.8-3.66c0-.16,0-.39.21,0-.32-1-.81-2-1.23-3.06a16,16,0,0,1-.9-2.8l.15.12a2.67,2.67,0,0,1-.41-1.09c.05,0,.14.12.1-.05a6.47,6.47,0,0,1-.53-1.46l.24.39c-.42-2-1-2.93-1.51-4.57.29-.06.09-1.65,0-2.43h0c-.2-1.15-.45-2.12-.65-3.08s-.48-1.89-.64-3a16.3,16.3,0,0,0,0-3.08c-.07-1.24-.11-2.59-.07-3.68,0,.33-.26-.05-.28-.43s-.22-1.42.07-1.34v.19a5.28,5.28,0,0,0,.22-2.25l-.37-.15a14,14,0,0,0,.34-3.75,8.67,8.67,0,0,1,.41-3c0-.52,0-1.16,0-1.68l.2.05c.25-1.41.38-2.11.59-3.87l.09.38c.17-1-.35-1.34-.19-2.25l.35-.22c.17-.85.4-1.7.6-2.55a13.21,13.21,0,0,0,.52-2.56s.11.11.06.39c.21-.8.95-3,.49-2.85.27.06.55-1.71.71-2.65l.15.2a5.56,5.56,0,0,1,.18-2c.1-.24.22-.17.07.15.35-.81,0-.71.48-1.69v.42a2.51,2.51,0,0,0,.25-1.32,3.62,3.62,0,0,1,.85-1.67,1.85,1.85,0,0,1,.19-1.16c.09,0,.06.16,0,.26a29.5,29.5,0,0,1,1.19-3.07.24.24,0,0,0,.18-.12c-.47,1.11-.85,2-.83,1.91.18.07.58-.82.52,0a13.29,13.29,0,0,1,.84-3l.11-.09,0,.1a2.22,2.22,0,0,0,.2-.56c.14-.27.24-.44.35-.7.18,0,.5-1,.73-1.42-.2-.05.1-.61-.31-.14,0-.07,0,.09-.15.38,0,.07-.05.15-.07.2v0c-.14.29-.28.68-.46,1.12a2.39,2.39,0,0,1,.45-1.25c0-.27,0-.58,0-.74.54-.49,1.23-1.58,1.46-1.67a26.3,26.3,0,0,0,1.52-4.17c.16-.39.33-.38.46-.49a6.22,6.22,0,0,0-.24.63c.31-.79,1.14-2.22,1-2.53.61-.88-.06.64.58-.67l0,.22a9.08,9.08,0,0,0,1-1.72c.28-.56.51-1.11.75-1.67a12.58,12.58,0,0,1,2-3.49c-.14.17-.21.26-.27.27,1-1.52,2-3.09,3-4.69a31.1,31.1,0,0,1,3.15-4.52,3.94,3.94,0,0,0,.83-1.55l.31-.06.4-1c.74-1.33,1.91-1.85,2.8-3.56l-.27.11c.44-.53,1.25-1.78,1.32-1.58a.57.57,0,0,1,.24-.44l.1,0,.87-1.46c.86-1,.23.44,1.41-1.05.39-.59,1-1.81.74-1.64s-.5.53-.6.48l.35-.56c-.2-.3-.16-.91-1.32.21l-.51,1-.35.19.56-.75a2.07,2.07,0,0,0-.7,1,.9.9,0,0,0-.42.26l-.41,1.07c-.19,0,.09-.55-.42,0-.19.49.54-.22.1.52-.45.33-.45.13-.73.7-.12,0-.08-.12,0-.34a10.56,10.56,0,0,0-.9,1.53,4.73,4.73,0,0,0-.76.86c-.23.32-.43.57-.54.45a5.9,5.9,0,0,1-.65,1.37c.23-1-1.12,1.55-1.31,1.11-.12.77-1.32,2.14-1.87,3.24a.67.67,0,0,1,.13-.29c-.43.55-.63.65-.92,1,.19.24-.34,1.17-.51,1.76-.69.55,0-.62-.36-.54.21.09-.61,1.36-.29,1.22-.5.45-.37.43-.75.58.24.29-.28.54-.39,1.1-.65.7-.41,0-.87.95-.36.35,0-.48,0-.48m-10.83,21.93h0c.08-.19.14-.36.19-.47l-.18.48m-.79,1.9.35-.83c.1,0,.13.07,0,.25,0-.12-.22.31-.4.58m3-3.45c-.1.31-.18.39-.23.42,0-.15.11-.32.19-.53v0a.25.25,0,0,1,.05.16" transform="translate(0 0)"/><path class="cls-7" d="M569.57,230.67a1,1,0,0,1,0-.12l-.13.15a.62.62,0,0,1,0,.13,1.11,1.11,0,0,0,.07-.16" transform="translate(0 0)"/><path class="cls-7" d="M578.75,406.83l0,0-.07.07,0,0" transform="translate(0 0)"/><polygon class="cls-7" points="559.27 262.15 559.32 262.15 559.3 261.97 559.27 262.15"/><path class="cls-7" d="M572.45,416.18a.33.33,0,0,0-.13.09.42.42,0,0,0,.13-.09" transform="translate(0 0)"/><path class="cls-7" d="M569.65,420.14l-.46.51c.21-.22.35-.38.46-.51" transform="translate(0 0)"/><path class="cls-7" d="M567.33,423.05a.23.23,0,0,0,0,.11h0Z" transform="translate(0 0)"/><path class="cls-7" d="M589.24,369.07a.61.61,0,0,0,0-.14c0-.34,0-.11,0,.14" transform="translate(0 0)"/><path class="cls-7" d="M586.58,386.38c0-.19,0-.37.06-.57-.1.3-.17.53-.06.57" transform="translate(0 0)"/><path class="cls-7" d="M586.47,349.89h0s0-.08,0-.12Z" transform="translate(0 0)"/><path class="cls-7" d="M586.88,385a3.43,3.43,0,0,0-.24.78,5.4,5.4,0,0,0,.24-.78" transform="translate(0 0)"/><path class="cls-7" d="M556.31,434.79l-.14.12s0,0,0,0Z" transform="translate(0 0)"/><path class="cls-7" d="M556.18,435l-.13.15a.49.49,0,0,0,.13-.15" transform="translate(0 0)"/><path class="cls-7" d="M555.77,435.41l.28-.31a.89.89,0,0,0-.28.31" transform="translate(0 0)"/><path class="cls-7" d="M559.93,431.45v-.09a.07.07,0,0,0,0,.09" transform="translate(0 0)"/><path class="cls-7" d="M561,430.37a8.11,8.11,0,0,0-1.05.92v.07c.08-.24.89-.66,1-1" transform="translate(0 0)"/><path class="cls-7" d="M565.83,426.31c-.28.31-.58.62-.87.92.21-.11.48-.27.11.18,1.23-1.05-.34.14.76-1.1" transform="translate(0 0)"/><path class="cls-7" d="M568.39,423.33c-.39.56.1.06.11.12.2-.39.25-.48-.11-.12" transform="translate(0 0)"/><path class="cls-7" d="M582.73,398.92l.14.14c.19-.49-.06,0-.14-.14" transform="translate(0 0)"/><polygon class="cls-7" points="583.9 393.56 583.61 393.99 583.67 394.27 583.9 393.56"/><polygon class="cls-7" points="586.24 391.02 586.19 391.24 586.41 390.39 586.24 391.02"/><path class="cls-7" d="M586.42,344.12l-.15.22c.16.32.43.3.15-.22" transform="translate(0 0)"/><path class="cls-7" d="M577.55,325.56a1.93,1.93,0,0,0-.46-1.06c.2.42.33.87.46,1.06" transform="translate(0 0)"/><polygon class="cls-7" points="560.72 267.7 560.78 268.11 560.75 267.34 560.72 267.7"/></g></g></g></g></g></svg>