<svg xmlns="http://www.w3.org/2000/svg" viewBox="0 0 239.75 66.2"><defs><style>.cls-1{fill:#0071ba;}</style></defs><g id="Layer_2" data-name="Layer 2"><g id="Textos_y_botones" data-name="Textos y botones"><path class="cls-1" d="M19.61,16.2H32.12L51.74,76.36H40.44l-9.16-32C29.36,38,27.6,31.12,25.83,24.51h-.37C23.81,31.17,22,38,20.13,44.35l-9.24,32H0Zm-8,35.49H39.93v8.37H11.59Z" transform="translate(0 -11.26)"/><path class="cls-1" d="M61.05,59.51V31.17h10.6v27c0,7.43,2.13,10.23,7,10.23,4,0,6.58-1.84,10-6.26V31.17H99.28V76.36H90.6l-.81-6.66H89.5c-4,4.71-8.36,7.76-14.54,7.76C65.28,77.46,61.05,70.91,61.05,59.51Z" transform="translate(0 -11.26)"/><path class="cls-1" d="M113.64,53.8c0-14.72,9.23-23.73,19.13-23.73,5.12,0,8.36,1.91,11.85,5l-.4-7.29V11.38h10.6v65h-8.69l-.81-4.89H145c-3.35,3.35-8,6-12.85,6C120.92,77.46,113.64,68.71,113.64,53.8Zm30.58,9.83V42.58a13.35,13.35,0,0,0-9.2-3.75c-5.74,0-10.49,5.44-10.49,14.86,0,9.83,3.75,15,10.27,15C138.29,68.71,141.24,67.16,144.22,63.63Z" transform="translate(0 -11.26)"/><path class="cls-1" d="M170.75,17.26c0-3.57,2.8-6,6.55-6s6.55,2.43,6.55,6-2.8,6-6.55,6S170.75,20.76,170.75,17.26ZM172,31.17h10.59V76.36H172Z" transform="translate(0 -11.26)"/><path class="cls-1" d="M196.77,53.8c0-15,10.23-23.73,21.49-23.73s21.49,8.68,21.49,23.73-10.23,23.66-21.49,23.66S196.77,68.78,196.77,53.8Zm32.09,0c0-9-4-15.08-10.6-15.08s-10.6,6-10.6,15.08,4,15,10.6,15S228.86,62.86,228.86,53.8Z" transform="translate(0 -11.26)"/></g></g></svg>