<svg xmlns="http://www.w3.org/2000/svg" viewBox="0 0 222.14 48.82"><defs><style>.cls-1{fill:#0071ba;}</style></defs><g id="Layer_2" data-name="Layer 2"><g id="Textos_y_botones" data-name="Textos y botones"><path class="cls-1" d="M6,12.67h8.35V59.76H6Z" transform="translate(-5.99 -11.8)"/><path class="cls-1" d="M26.29,12.67H38.85c14.43,0,23,7.77,23,23.36S53.28,59.76,39.29,59.76h-13ZM38.31,53c9.47,0,14.92-5.38,14.92-17S47.78,19.44,38.31,19.44H34.65V53Z" transform="translate(-5.99 -11.8)"/><path class="cls-1" d="M71.29,12.67h8.36V59.76H71.29Z" transform="translate(-5.99 -11.8)"/><path class="cls-1" d="M89.12,36c0-15.24,8.5-24.23,20.77-24.23s20.77,9,20.77,24.23-8.5,24.59-20.77,24.59S89.12,51.26,89.12,36Zm32.95,0c0-10.57-4.78-17-12.18-17s-12.18,6.4-12.18,17,4.78,17.34,12.18,17.34S122.07,46.6,122.07,36Z" transform="translate(-5.99 -11.8)"/><path class="cls-1" d="M140.13,12.67h9.44l8.33,23c1,3,2,6.17,3,9.25h.29c1-3.08,1.93-6.25,3-9.25l8.15-23h9.45V59.76h-7.67V38.22c0-4.35.67-10.62,1.07-15h-.29l-3.8,10.94-7.75,21.16h-5l-7.78-21.16-3.74-10.94h-.29c.4,4.36,1.06,10.63,1.06,15V59.76h-7.51Z" transform="translate(-5.99 -11.8)"/><path class="cls-1" d="M203,12.67h9.8l15.35,47.09h-8.84L212.11,34.7c-1.49-5-2.88-10.35-4.26-15.52h-.29c-1.29,5.21-2.68,10.54-4.17,15.52l-7.23,25.06h-8.53ZM196.7,40.45h22.18V47H196.7Z" transform="translate(-5.99 -11.8)"/></g></g></svg>