<svg xmlns="http://www.w3.org/2000/svg" viewBox="0 0 1002.83 629.5"><defs><style>.cls-1{fill:#e8fff7;}.cls-2{fill:#7ac743;}</style></defs><g id="Layer_2" data-name="Layer 2"><g id="Textos_y_botones" data-name="Textos y botones"><path class="cls-1" d="M697.6,145.61C675.91,62.47,583.53,0,472.86,0,353.29,0,255.07,72.91,244.3,166a243.81,243.81,0,0,0-31.4-2C95.32,164,0,247.54,0,350.56S95.32,537.1,212.9,537.1q9.33,0,18.46-.69c36.44,55.75,103.2,93.09,179.52,93.09,78.27,0,146.46-39.26,182.24-97.37a485.74,485.74,0,0,0,69.69,5c171.46,0,310.46-87.91,310.46-196.36C973.27,239.73,852.68,156.53,697.6,145.61ZM387.85,249.49c.7-.84,1.41-1.69,2.13-2.53.55.72,1.09,1.45,1.63,2.17C390.35,249.24,389.1,249.35,387.85,249.49Z"/><path class="cls-2" d="M727.15,145.61C705.47,62.47,613.09,0,502.42,0,382.85,0,284.63,72.91,273.86,166a243.81,243.81,0,0,0-31.4-2c-117.58,0-212.9,83.52-212.9,186.54S124.88,537.1,242.46,537.1q9.33,0,18.46-.69c36.44,55.75,103.2,93.09,179.52,93.09,78.27,0,146.46-39.26,182.24-97.37a485.74,485.74,0,0,0,69.69,5c171.46,0,310.46-87.91,310.46-196.36C1002.83,239.73,882.23,156.53,727.15,145.61ZM417.41,249.49c.7-.84,1.41-1.69,2.13-2.53.55.72,1.09,1.45,1.63,2.17C419.91,249.24,418.66,249.35,417.41,249.49Z"/></g></g></svg>