<svg xmlns="http://www.w3.org/2000/svg" viewBox="0 0 1005.64 632.18"><defs><style>.cls-1{fill:#e8fff7;}.cls-2{fill:#f0f0f0;}.cls-3{fill:#7ac743;}</style></defs><g id="Layer_2" data-name="Layer 2"><g id="Textos_y_botones" data-name="Textos y botones"><path class="cls-1" d="M699.6,147.61C677.91,64.47,585.53,2,474.86,2,355.29,2,257.07,74.91,246.3,168a243.81,243.81,0,0,0-31.4-2C97.32,166,2,249.54,2,352.56S97.32,539.1,214.9,539.1q9.33,0,18.46-.69c36.44,55.75,103.2,93.09,179.52,93.09,78.27,0,146.46-39.26,182.24-97.37a485.74,485.74,0,0,0,69.69,5c171.46,0,310.46-87.91,310.46-196.36C975.27,241.73,854.68,158.53,699.6,147.61ZM389.85,251.49c.7-.84,1.41-1.69,2.13-2.53.55.72,1.09,1.45,1.63,2.17C392.35,251.24,391.1,251.35,389.85,251.49Z" transform="translate(-0.25 -1.13)"/><path class="cls-2" d="M699.6,147.61a166.37,166.37,0,0,0-34.86-65,213.55,213.55,0,0,0-57.43-46.5A256.55,256.55,0,0,0,538.18,9.82a286.93,286.93,0,0,0-73.68-6.7,282.43,282.43,0,0,0-72.87,12.44,246.56,246.56,0,0,0-66.39,32.19c-20.25,14-38.22,31.54-51.88,52a163.44,163.44,0,0,0-16.89,32.71,149,149,0,0,0-8.71,35.71l-.17,1.47-1.47-.19a242.17,242.17,0,0,0-83.72,3.9,224.28,224.28,0,0,0-76.81,33.09,204.75,204.75,0,0,0-32.11,27c-.61.63-1.25,1.24-1.84,1.88l-1.75,2-3.5,3.91c-2.29,2.65-4.43,5.42-6.65,8.12l-3.1,4.24-1.55,2.11c-.52.7-1,1.42-1.5,2.16l-2.87,4.39-1.44,2.19L28,266.69a173.46,173.46,0,0,0-17,38.21A160.31,160.31,0,0,0,4,346.12a164.18,164.18,0,0,0,17.83,81A182.66,182.66,0,0,0,44.94,462a194.35,194.35,0,0,0,30.31,28.93A220.76,220.76,0,0,0,150,528.2a236,236,0,0,0,41.25,7.74c1.74.22,3.49.32,5.24.43l5.24.35c.88,0,1.75.13,2.63.16l2.62.06,5.26.11c7,.16,14-.12,21-.64l1.17-.08.65,1c19.29,29.45,46.86,53.19,78.32,68.94a223,223,0,0,0,102,23.3,220.19,220.19,0,0,0,101.55-25.47A207.23,207.23,0,0,0,560,573.73a192.75,192.75,0,0,0,33.61-40.52l.61-1,1.14.16a488.06,488.06,0,0,0,104.54,3.75,449.17,449.17,0,0,0,102.8-19,372.94,372.94,0,0,0,48.75-19,301.23,301.23,0,0,0,45.15-26.36,250.32,250.32,0,0,0,20.49-16.23A214.5,214.5,0,0,0,935.55,437a173.73,173.73,0,0,0,15.79-20.77c2.39-3.63,4.56-7.41,6.65-11.22s4-7.74,5.63-11.76a133.49,133.49,0,0,0,7.86-24.81,127.11,127.11,0,0,0,2.7-25.88L974,336c-.06-1.08,0-2.17-.16-3.25l-.36-3.24-.36-3.24a32.09,32.09,0,0,0-.43-3.23l-1.19-6.41a132.74,132.74,0,0,0-7.87-24.83l-1.24-3c-.45-1-1-2-1.43-2.94L958,280l-3.25-5.67-1.64-2.83-1.79-2.73-3.6-5.46-3.9-5.25-2-2.63-2.1-2.51-4.18-5a235.42,235.42,0,0,0-39-34.89,297.33,297.33,0,0,0-45.18-26.56,374.4,374.4,0,0,0-48.82-19.25A455.35,455.35,0,0,0,699.6,147.61Zm0,0a451.83,451.83,0,0,1,103.27,18.87,375,375,0,0,1,49,19,299.26,299.26,0,0,1,45.52,26.41,236,236,0,0,1,39.41,34.9l4.26,5.05,2.12,2.52,2,2.64,4,5.28,3.67,5.5,1.83,2.75c.57.94,1.11,1.9,1.67,2.85l3.32,5.72,3,5.91c.49,1,1,2,1.46,3l1.29,3.05a133.77,133.77,0,0,1,8.08,25.17l1.23,6.52a32.75,32.75,0,0,1,.46,3.28l.38,3.29.37,3.29c.14,1.1.11,2.21.18,3.31l.25,6.62a129.41,129.41,0,0,1-2.66,26.34,135.39,135.39,0,0,1-7.9,25.27c-1.68,4.09-3.66,8-5.68,12s-4.3,7.72-6.71,11.41a176.14,176.14,0,0,1-15.94,21.11,215.57,215.57,0,0,1-18.61,18.78,255.15,255.15,0,0,1-20.65,16.47,304.73,304.73,0,0,1-45.47,26.77A375.17,375.17,0,0,1,803.64,520a427.29,427.29,0,0,1-51.18,12.79,464.68,464.68,0,0,1-52.31,6.73,492.37,492.37,0,0,1-105.28-3.66l1.74-.82a196.17,196.17,0,0,1-34.18,41.3,210.65,210.65,0,0,1-43.78,30.94,223.85,223.85,0,0,1-103.22,26,226.5,226.5,0,0,1-103.82-23.59c-32-16-60.19-40.15-79.93-70.21l1.83.9c-7.1.51-14.23.8-21.35.63l-5.34-.13-2.67-.06c-.89,0-1.77-.11-2.66-.16l-5.33-.36c-1.78-.11-3.55-.22-5.32-.45A239.08,239.08,0,0,1,148.91,532a224.52,224.52,0,0,1-76-38A198.09,198.09,0,0,1,42.07,464.4a186,186,0,0,1-23.56-35.63A167.87,167.87,0,0,1,.38,346,163.69,163.69,0,0,1,7.5,303.86a176.57,176.57,0,0,1,17.44-39l1.36-2.3,1.46-2.24,2.94-4.47q.72-1.12,1.53-2.19l1.58-2.16L37,247.21c2.27-2.75,4.45-5.57,6.79-8.26l3.57-4,1.78-2c.61-.66,1.25-1.27,1.87-1.91a207.83,207.83,0,0,1,32.68-27.41,225.5,225.5,0,0,1,78-33.41,245.14,245.14,0,0,1,84.79-3.66l-1.64,1.28a152.2,152.2,0,0,1,9-36.36,165.7,165.7,0,0,1,17.28-33.2c13.94-20.77,32.21-38.41,52.73-52.54A248.55,248.55,0,0,1,391,13.5,281.85,281.85,0,0,1,464.43,1.28,288.64,288.64,0,0,1,538.5,8.44a257,257,0,0,1,69.3,26.84,213.7,213.7,0,0,1,57.37,47A166.86,166.86,0,0,1,699.6,147.61Z" transform="translate(-0.25 -1.13)"/><path class="cls-2" d="M389.85,251.49a.82.82,0,0,1-.16-.47,4.08,4.08,0,0,1,0-.92,6.18,6.18,0,0,1,.9-2.32l1-1.55,1.86,1.62a7.72,7.72,0,0,1,1.72,2.14l1.66,3.08-3,0a6.86,6.86,0,0,1-2.68-.55,3.84,3.84,0,0,1-.88-.54A.94.94,0,0,1,389.85,251.49Zm0,0a8.5,8.5,0,0,0,1.52-.63,5.4,5.4,0,0,0,1-.73c.51-.47.75-.78,1.09-.91l-1.39,3.05a7.24,7.24,0,0,1-1.53-2.2l2.83.08a6.64,6.64,0,0,1-1.24.21,4.15,4.15,0,0,0-1.06.34A6.25,6.25,0,0,0,389.85,251.49Z" transform="translate(-0.25 -1.13)"/><path class="cls-3" d="M729.15,147.61C707.47,64.47,615.09,2,504.42,2,384.85,2,286.63,74.91,275.86,168a243.81,243.81,0,0,0-31.4-2c-117.58,0-212.9,83.52-212.9,186.54S126.88,539.1,244.46,539.1q9.33,0,18.46-.69c36.44,55.75,103.2,93.09,179.52,93.09,78.27,0,146.46-39.26,182.24-97.37a485.74,485.74,0,0,0,69.69,5c171.46,0,310.46-87.91,310.46-196.36C1004.83,241.73,884.23,158.53,729.15,147.61ZM419.41,251.49c.7-.84,1.41-1.69,2.13-2.53.55.72,1.09,1.45,1.63,2.17C421.91,251.24,420.66,251.35,419.41,251.49Z" transform="translate(-0.25 -1.13)"/><path class="cls-3" d="M729.15,147.61a166.22,166.22,0,0,0-34.85-65,213.55,213.55,0,0,0-57.43-46.5A256.55,256.55,0,0,0,567.74,9.82a287,287,0,0,0-73.68-6.7,282.51,282.51,0,0,0-72.88,12.44A246.64,246.64,0,0,0,354.8,47.75c-20.25,14-38.22,31.54-51.88,52A162.92,162.92,0,0,0,286,132.5a149,149,0,0,0-8.71,35.71l-.17,1.47-1.48-.19a242.13,242.13,0,0,0-83.71,3.9,224.33,224.33,0,0,0-76.82,33.09,205.13,205.13,0,0,0-32.1,27c-.61.63-1.25,1.24-1.84,1.88l-1.75,2L76,241.22c-2.29,2.65-4.43,5.42-6.65,8.12l-3.1,4.24-1.55,2.11c-.52.7-1,1.42-1.5,2.16l-2.87,4.39-1.44,2.19-1.33,2.26a173.46,173.46,0,0,0-17,38.21,160.31,160.31,0,0,0-6.92,41.22,164.07,164.07,0,0,0,17.83,81A182.66,182.66,0,0,0,74.5,462a193.9,193.9,0,0,0,30.31,28.93,220.76,220.76,0,0,0,74.72,37.29,236,236,0,0,0,41.25,7.74c1.74.22,3.49.32,5.24.43l5.24.35c.88,0,1.75.13,2.62.16l2.63.06,5.26.11c7,.16,14-.12,21-.64l1.17-.08.65,1c19.29,29.45,46.86,53.19,78.32,68.94a223,223,0,0,0,102,23.3A220.19,220.19,0,0,0,546.5,604.08a206.9,206.9,0,0,0,43.06-30.35,192.49,192.49,0,0,0,33.62-40.52l.61-1,1.14.16a488.06,488.06,0,0,0,104.54,3.75,449.17,449.17,0,0,0,102.8-19,372.94,372.94,0,0,0,48.75-19,301.23,301.23,0,0,0,45.15-26.36,252,252,0,0,0,20.49-16.23A215.94,215.94,0,0,0,965.11,437a173.73,173.73,0,0,0,15.79-20.77c2.39-3.63,4.56-7.41,6.65-11.22s4-7.74,5.63-11.76a133.49,133.49,0,0,0,7.86-24.81,127.11,127.11,0,0,0,2.7-25.88l-.23-6.52c-.06-1.08,0-2.17-.16-3.25l-.36-3.24-.36-3.24a29.48,29.48,0,0,0-.44-3.23l-1.18-6.41a132.74,132.74,0,0,0-7.87-24.83l-1.24-3c-.45-1-1-2-1.43-2.94L987.58,280l-3.25-5.67-1.64-2.83-1.79-2.73-3.6-5.46-3.9-5.25-1.95-2.63-2.1-2.51-4.18-5a235.42,235.42,0,0,0-39-34.89A297.33,297.33,0,0,0,881,186.45,374.4,374.4,0,0,0,832.2,167.2,455.34,455.34,0,0,0,729.15,147.61Zm0,0a451.82,451.82,0,0,1,103.28,18.87,375,375,0,0,1,49,19A299.26,299.26,0,0,1,927,211.91a236,236,0,0,1,39.41,34.9l4.26,5.05,2.12,2.52,2,2.64,4,5.28,3.67,5.5,1.83,2.75c.57.94,1.11,1.9,1.67,2.85l3.32,5.72,3,5.91c.49,1,1,2,1.46,3l1.29,3.05a133.77,133.77,0,0,1,8.08,25.17l1.23,6.52a32.75,32.75,0,0,1,.46,3.28l.37,3.29.38,3.29c.14,1.1.11,2.21.18,3.31l.25,6.62a129.41,129.41,0,0,1-2.66,26.34,135.39,135.39,0,0,1-7.9,25.27c-1.68,4.09-3.66,8-5.68,12s-4.3,7.72-6.71,11.41A176.14,176.14,0,0,1,967,438.63a217,217,0,0,1-18.61,18.78,255.15,255.15,0,0,1-20.65,16.47,304.73,304.73,0,0,1-45.47,26.77A374.75,374.75,0,0,1,833.19,520,426.65,426.65,0,0,1,782,532.8a464.68,464.68,0,0,1-52.31,6.73,492.37,492.37,0,0,1-105.28-3.66l1.74-.82A196.17,196.17,0,0,1,592,576.35a210.65,210.65,0,0,1-43.78,30.94A223.85,223.85,0,0,1,445,633.3a226.5,226.5,0,0,1-103.82-23.59c-32.05-16-60.19-40.15-79.93-70.21l1.83.9c-7.11.51-14.23.8-21.35.63l-5.34-.13-2.67-.06c-.89,0-1.77-.11-2.66-.16l-5.33-.36c-1.78-.11-3.55-.22-5.32-.45A239.08,239.08,0,0,1,178.47,532a224.43,224.43,0,0,1-76-38A198.09,198.09,0,0,1,71.63,464.4a186,186,0,0,1-23.57-35.63A168,168,0,0,1,29.94,346a163.69,163.69,0,0,1,7.12-42.12,176.57,176.57,0,0,1,17.44-39l1.36-2.3,1.46-2.24,2.94-4.47q.72-1.12,1.53-2.19l1.58-2.16,3.16-4.31c2.27-2.75,4.45-5.57,6.79-8.26l3.57-4,1.78-2c.6-.66,1.25-1.27,1.87-1.91a207.83,207.83,0,0,1,32.68-27.41,225.5,225.5,0,0,1,78-33.41,245.14,245.14,0,0,1,84.79-3.66l-1.64,1.28a152.65,152.65,0,0,1,9-36.36,166.26,166.26,0,0,1,17.29-33.2c13.94-20.77,32.21-38.41,52.73-52.54A248.55,248.55,0,0,1,420.54,13.5,281.78,281.78,0,0,1,494,1.28a288.64,288.64,0,0,1,74.07,7.16,257,257,0,0,1,69.3,26.84,213.7,213.7,0,0,1,57.37,47A166.7,166.7,0,0,1,729.15,147.61Z" transform="translate(-0.25 -1.13)"/><path class="cls-3" d="M419.41,251.49a.82.82,0,0,1-.16-.47,4.08,4.08,0,0,1,0-.92,6.18,6.18,0,0,1,.9-2.32l1-1.55,1.86,1.62a7.72,7.72,0,0,1,1.72,2.14l1.65,3.08-3,0a6.86,6.86,0,0,1-2.68-.55,3.84,3.84,0,0,1-.88-.54A.94.94,0,0,1,419.41,251.49Zm0,0a8.5,8.5,0,0,0,1.52-.63,5.4,5.4,0,0,0,1-.73c.51-.47.75-.78,1.09-.91l-1.39,3.05a7.24,7.24,0,0,1-1.53-2.2l2.83.08a6.64,6.64,0,0,1-1.24.21,4.15,4.15,0,0,0-1.06.34A6.25,6.25,0,0,0,419.41,251.49Z" transform="translate(-0.25 -1.13)"/></g></g></svg>