<svg xmlns="http://www.w3.org/2000/svg" viewBox="0 0 1002.4 621.1"><defs><style>.cls-1{fill:#e8fff7;}.cls-2{fill:#89f2f1;}</style></defs><g id="Layer_2" data-name="Layer 2"><g id="Textos_y_botones" data-name="Textos y botones"><path class="cls-1" d="M690.13,152c-21.4-78-112.6-136.6-221.86-136.6-118,0-215,68.4-225.64,155.77a254.73,254.73,0,0,0-31-1.9c-116.08,0-210.18,78.36-210.18,175s94.1,175,210.18,175q9.21,0,18.22-.65c36,52.3,101.89,87.34,177.23,87.34,77.27,0,144.59-36.84,179.91-91.35a505.74,505.74,0,0,0,68.8,4.66c169.27,0,306.49-82.48,306.49-184.23C962.28,240.26,843.23,162.2,690.13,152ZM384.34,249.42c.69-.8,1.4-1.59,2.11-2.38.55.67,1.08,1.36,1.61,2C386.81,249.18,385.58,249.29,384.34,249.42Z"/><path class="cls-1" d="M691.58,151.55C671,77.92,596.93,33.45,525.9,19.42,447,3.84,356.74,19.92,295.26,74.16c-28.53,25.17-49.32,58.84-54.13,97l1.5-1.5c-71.55-8.55-148.92,13-198.73,66.91-21.11,22.85-36.35,51.2-41.71,82a151.49,151.49,0,0,0,12.39,90.32c29,61.71,94.13,99.53,159.89,109.19a255,255,0,0,0,26.89,2.52q7.89.32,15.78.15c2.73-.06,5.47-.16,8.19-.31,3.93-.21,4.11.31,6.29,3.29A190.89,190.89,0,0,0,267.94,561c29.27,22.91,64.57,37.59,101.21,43.43C443,616.2,523.7,592.76,573.35,535.22a186.59,186.59,0,0,0,14.94-19.88l-1.7.69c66.63,9.05,135.71,5.49,200.52-12.94,50-14.21,100.14-37.81,136.3-76,28.81-30.44,46.3-71.07,38.37-113.32-8.44-45-42.41-80.37-79.5-104.63-49.63-32.47-108.74-49.49-167.23-56.37-8.28-1-16.59-1.73-24.92-2.3-1.92-.13-1.92,2.87,0,3,59.42,4.08,119.49,18.14,172,47,39.8,21.93,78.34,54.59,92.95,99.09,13.25,40.33,1.75,82.35-24.43,114.75-31.7,39.22-78.76,64.32-125.84,80.15-60.56,20.35-125.83,26.71-189.37,21.68q-14-1.11-28-3a1.57,1.57,0,0,0-1.69.69c-40.92,62.63-117.05,93.87-190.31,90.32-37.59-1.82-74.8-12.69-106.9-32.47a197.29,197.29,0,0,1-40.91-33.4q-4.1-4.39-7.91-9.07-2.19-2.69-4.27-5.45c-1.19-1.6-2.67-4.73-4.25-5.92-2.36-1.78-7.45-.36-10.36-.26q-8.25.3-16.51.06C137.21,515.72,68,486,29.61,429.16,12.33,403.57,2.58,373.35,3,342.39s10.91-60.88,28.71-86.06c39.73-56.18,109.65-84.82,177-85.59a260.14,260.14,0,0,1,33.94,1.88c.88.11,1.41-.78,1.5-1.5,9.21-73,75.31-122.71,141.65-142.48,77.07-23,167.48-13.44,234.36,32.8,31.85,22,58,53.17,68.55,90.91A1.5,1.5,0,0,0,691.58,151.55Z"/><path class="cls-1" d="M385.4,250.48c.7-.8,1.4-1.59,2.11-2.38h-2.12l1.61,2,1.06-2.56c-1.24.1-2.48.21-3.72.34a1.62,1.62,0,0,0-1.06.43,1.51,1.51,0,0,0,0,2.13,1.49,1.49,0,0,0,1.06.44c1.24-.13,2.48-.24,3.72-.34a1.54,1.54,0,0,0,1.37-.92,1.4,1.4,0,0,0,.1-.78,1.61,1.61,0,0,0-.41-.86c-.53-.68-1.06-1.37-1.61-2a1.5,1.5,0,0,0-1.06-.44,1.56,1.56,0,0,0-1.06.44l-2.11,2.37a1.63,1.63,0,0,0-.44,1.07,1.58,1.58,0,0,0,.44,1.06,1.56,1.56,0,0,0,1.06.44A1.52,1.52,0,0,0,385.4,250.48Z"/><path class="cls-2" d="M728.84,144.51c-21.4-81.64-112.6-143-221.86-143-118,0-215,71.59-225.64,163a241.2,241.2,0,0,0-31-2c-116.08,0-210.18,82-210.18,183.17s94.1,183.17,210.18,183.17q9.21,0,18.22-.68c36,54.75,101.89,91.42,177.24,91.42,77.26,0,144.58-38.55,179.9-95.61a483.85,483.85,0,0,0,68.8,4.87c169.27,0,306.49-86.32,306.49-192.81C1001,236.94,881.94,155.24,728.84,144.51Zm-305.79,102c.7-.83,1.4-1.66,2.11-2.48.55.7,1.08,1.41,1.61,2.13C425.52,246.27,424.29,246.38,423.05,246.52Z"/><path class="cls-2" d="M730.29,144.11C710.16,68.59,637,20.6,563.84,5.71c-79.38-16.14-169.51,1.59-230,57.58-28.85,26.69-49.24,62-54,101.29l1.5-1.5C208.92,154,131.58,177.59,82.55,233.16c-21.3,24.14-36.33,53.77-41.64,85.63A165,165,0,0,0,53.2,413.15C81.39,476,145.14,516.74,211.86,527.38a242.15,242.15,0,0,0,27,2.78q6.66.32,13.32.27c3,0,6.1-.1,9.14-.24,1.39-.06,4.14-.73,5.44-.31,1.56.5,1.77,1,2.76,2.48a195.9,195.9,0,0,0,36,39.27c28.94,24.07,64.35,39.88,101.4,46.23,74.93,12.84,155.9-12.71,205-72A195,195,0,0,0,627,524.81l-1.7.69c66.82,9.5,136.27,5.68,201.06-13.71,50.35-15.06,100.36-40.12,136-79.63,29-32.2,45.91-74.49,38.18-118.06-8.23-46.43-41.69-83.79-79.51-109.68-49.09-33.61-108.11-51.65-166.73-58.94q-12.69-1.57-25.45-2.47c-1.92-.14-1.91,2.86,0,3,59.75,4.29,120,19.23,172.18,49.37,40.39,23.34,78.32,57.81,92.69,103.51,13.19,41.93,2.12,85.71-24.22,120C938.35,459.52,891.3,486.21,843.76,503c-60.44,21.31-126,28.07-189.66,22.79q-14-1.15-28-3.16a1.56,1.56,0,0,0-1.69.69c-28.42,45.54-75.56,76.93-127.55,89.05C442,625.13,382.51,616.81,334,588.05a197.79,197.79,0,0,1-64.1-60.55,1.5,1.5,0,0,0-1.3-.75C182.12,533,88.59,490.86,54,407.54a161.74,161.74,0,0,1-2.22-117.91c14.34-38.55,43-70.55,77.77-92,45.08-27.89,99.4-38.07,151.76-31.51.87.1,1.42-.79,1.5-1.5C291.77,90.42,355.4,37.34,423.16,15.81c77.39-24.6,168.41-14.38,235,33.44,32.66,23.44,58.75,56.46,69.2,95.66A1.5,1.5,0,0,0,730.29,144.11Z"/><path class="cls-2" d="M424.12,247.58c.69-.83,1.39-1.66,2.1-2.48H424.1l0,.05-.24-.3c.53.69,1,1.38,1.57,2.08l1.29-2.26c-1.24.1-2.48.21-3.72.35a1.7,1.7,0,0,0-1.06.44,1.56,1.56,0,0,0-.44,1.06,1.54,1.54,0,0,0,.44,1.06,1.49,1.49,0,0,0,1.06.44c1.24-.14,2.48-.25,3.72-.35a1.59,1.59,0,0,0,1.3-.74,1.5,1.5,0,0,0,0-1.52c-.61-.81-1.22-1.63-1.85-2.43a1.5,1.5,0,0,0-2.12,0c-.71.82-1.41,1.65-2.11,2.48a1.61,1.61,0,0,0-.44,1.06,1.5,1.5,0,0,0,1.5,1.5A1.52,1.52,0,0,0,424.12,247.58Z"/></g></g></svg>