<svg xmlns="http://www.w3.org/2000/svg" viewBox="0 0 999.54 618.13"><defs><style>.cls-1{fill:#e8fff7;}.cls-2{fill:#89f2f1;}</style></defs><g id="Layer_2" data-name="Layer 2"><g id="Textos_y_botones" data-name="Textos y botones"><path class="cls-1" d="M688.68,150.42c-21.4-78-112.6-136.61-221.86-136.61-118,0-215,68.4-225.64,155.77a254.74,254.74,0,0,0-31-1.89C94.1,167.69,0,246.05,0,342.7s94.1,175,210.18,175q9.21,0,18.22-.65c36,52.31,101.89,87.34,177.23,87.34,77.27,0,144.59-36.83,179.91-91.35a505.74,505.74,0,0,0,68.8,4.66c169.27,0,306.49-82.48,306.49-184.22C960.83,238.72,841.78,160.67,688.68,150.42ZM382.89,247.88c.69-.79,1.4-1.58,2.11-2.37.54.67,1.08,1.35,1.61,2C385.36,247.64,384.13,247.75,382.89,247.88Z"/><path class="cls-2" d="M727.39,143C706,61.34,614.79,0,505.53,0c-118,0-215,71.59-225.64,163a243.13,243.13,0,0,0-31-2c-116.08,0-210.18,82-210.18,183.18S132.81,527.4,248.89,527.4q9.21,0,18.22-.68c36,54.74,101.89,91.41,177.23,91.41,77.27,0,144.59-38.55,179.91-95.61a482.37,482.37,0,0,0,68.8,4.88c169.27,0,306.49-86.33,306.49-192.81C999.54,235.4,880.49,153.71,727.39,143ZM421.6,245l2.11-2.48c.55.7,1.08,1.42,1.61,2.13C424.07,244.73,422.84,244.85,421.6,245Z"/></g></g></svg>