<svg xmlns="http://www.w3.org/2000/svg" xmlns:xlink="http://www.w3.org/1999/xlink" viewBox="0 0 1430.86 1034.48"><defs><style>.cls-1,.cls-6{fill:none;}.cls-2{font-size:348.16px;fill:#fff;stroke:#d7de21;stroke-width:0.25px;font-family:GrandHotel-Regular, Grand Hotel;}.cls-2,.cls-6{stroke-miterlimit:10;}.cls-3{font-size:363.56px;font-family:JustMeAgainDownHere, Just Me Again Down Here;}.cls-4{clip-path:url(#clip-path);}.cls-5{fill:#fc9232;}.cls-6{stroke:#fc9232;stroke-width:1.59px;}.cls-7{fill:#202020;}</style><clipPath id="clip-path" transform="translate(0 0)"><rect class="cls-1" x="1095.12" width="335.74" height="958.65"/></clipPath></defs><g id="Layer_2" data-name="Layer 2"><g id="Textos_y_botones" data-name="Textos y botones"><text class="cls-2" transform="translate(0.13 878.39) scale(1.01 1)"><tspan xml:space="preserve">   </tspan><tspan class="cls-3" x="230.01" y="0">N</tspan><tspan x="387.06" y="0">úmeros</tspan></text><g id="globo"><g class="cls-4"><g class="cls-4"><path class="cls-5" d="M1330.76,376.55a246.38,246.38,0,0,1-55.5,34.34v11.64H1249.9V410.16a268.6,268.6,0,0,1-60.25-41.54c-11.53-10.57-124.52-117.29-85.62-237.82,18.79-58.22,76.36-130,158.55-130,83,0,139.58,73.23,158.55,130,33.4,100-33.49,199-90.37,245.75" transform="translate(0 0)"/><path class="cls-6" d="M1330.76,376.55a246.38,246.38,0,0,1-55.5,34.34v11.64H1249.9V410.16a268.6,268.6,0,0,1-60.25-41.54c-11.53-10.57-124.52-117.29-85.62-237.82,18.79-58.22,76.36-130,158.55-130,83,0,139.58,73.23,158.55,130C1454.53,230.84,1387.64,329.76,1330.76,376.55Z" transform="translate(0 0)"/><path class="cls-7" d="M1178.67,958.39c-.15.3.18.43.8-.16l.13-.8Z" transform="translate(0 0)"/><path class="cls-7" d="M1183.7,955.41c.59-.85,1.16-2,.35-1.89-.41,1-.72,1.05-1.15,2.19-.61.61-1.24.85-1.26.61-.14.31-1.08.77-1.23,1.32a7,7,0,0,0,3.1-2.53c.32-.12.18.18.19.3" transform="translate(0 0)"/><path class="cls-7" d="M1235.48,889.88l-.31.45a2.92,2.92,0,0,0,.31-.45" transform="translate(0 0)"/><path class="cls-7" d="M1255.17,841.67c-.09.38-.09.56-.05.59.07-.37.12-.67.05-.59" transform="translate(0 0)"/><path class="cls-7" d="M1258,833.15l-.16.5a1.15,1.15,0,0,0,.16-.5" transform="translate(0 0)"/><path class="cls-7" d="M1235.48,889.88l.8-1.16c-.11-.16-.44.58-.8,1.16" transform="translate(0 0)"/><path class="cls-7" d="M1191.31,946.67a3.59,3.59,0,0,0-.44.62l.46-.53a.29.29,0,0,1,0-.09" transform="translate(0 0)"/><path class="cls-7" d="M1224.32,910l-.23.36a2.77,2.77,0,0,0,0,.41Z" transform="translate(0 0)"/><path class="cls-7" d="M1214.25,924.51c.26-.3,0-.68-.07-.92a1.56,1.56,0,0,1-.29.88.48.48,0,0,0,.36,0" transform="translate(0 0)"/><path class="cls-7" d="M1195.37,945.17l-.3.4c.07-.11.21-.28.3-.4" transform="translate(0 0)"/><path class="cls-7" d="M1231,899.23a.4.4,0,0,0,.21-.07s-.12,0-.21.07" transform="translate(0 0)"/><path class="cls-7" d="M1250.91,437.51s0,0,.07,0,0-.15-.07,0" transform="translate(0 0)"/><path class="cls-7" d="M1265.05,422.6l-.16.24a1.08,1.08,0,0,0,.16.2Z" transform="translate(0 0)"/><path class="cls-7" d="M1261.27,817a.17.17,0,0,0,0,.07c0,.44,0,.19,0-.07" transform="translate(0 0)"/><path class="cls-7" d="M1215.3,676.56c.33,1.69-1.59-2.29-1,.2.06-.28,1.57,1.81,1-.2" transform="translate(0 0)"/><path class="cls-7" d="M1191.67,946.39l.51-.51a6,6,0,0,0-.51.51" transform="translate(0 0)"/><path class="cls-7" d="M1214.35,676.76h0l.07.26c0-.11,0-.17-.06-.26" transform="translate(0 0)"/><path class="cls-7" d="M1259.55,779.19a1.25,1.25,0,0,0-.12.41s.08-.12.12-.41" transform="translate(0 0)"/><path class="cls-7" d="M1261.07,807.32l.09-.7a4.19,4.19,0,0,0-.09.7" transform="translate(0 0)"/><path class="cls-7" d="M1255.49,765.12a3.47,3.47,0,0,0-.25-1,1,1,0,0,0,0,.17,1.74,1.74,0,0,1,.26.83" transform="translate(0 0)"/><path class="cls-7" d="M1250.58,750.77c0,.08,0,.19,0,.29l.19.44Z" transform="translate(0 0)"/><path class="cls-7" d="M1226,476.19a2.25,2.25,0,0,1,.7-.4c-.4,0,.63-1.93-.7.4" transform="translate(0 0)"/><path class="cls-7" d="M1191.49,946.84a.56.56,0,0,1,.18-.45l-.34.36c0,.08.06.13.16.09" transform="translate(0 0)"/><path class="cls-7" d="M1252,765.53l-.6-2.28c.15.64.37,1.47.6,2.28" transform="translate(0 0)"/><path class="cls-7" d="M1192.23,578.79v-.56a1.74,1.74,0,0,0,0,.56" transform="translate(0 0)"/><path class="cls-7" d="M1249,756.62a5.69,5.69,0,0,0-.18-1.35.89.89,0,0,0-.21-.22Z" transform="translate(0 0)"/><path class="cls-7" d="M1226.74,475.79Z" transform="translate(0 0)"/><path class="cls-7" d="M1234,461.65c-1.25,1.92-.09,1.21-.07,1.79-1.34,2.39-1.06.84-1.81,1.47-.74,1.56-.94,3-1.6,4-.14,0-.29.23-.25-.08-.51,1.79-2.69,4.64-3.25,6.74a.62.62,0,0,1-.27.16.76.76,0,0,1,.86.13c-.51.88-.64,1.82-1.16,2a1.55,1.55,0,0,0,.26-1l-.4,1c-1,.57.58-1.36.22-1.56-.44.95-.9,2-1.31,3A15.45,15.45,0,0,1,1224,482c-.63,0,1.59-3.41.17-1.74.45-.7.89-1.41,1.38-2.08-1.7,1.23.82-1.28-.86-.21-1.72,2.8-1.49,3.37-3.17,6.18-.08.79.51,0,.43.78-1.69,4.35-2.91,2.61-3.87,6-.11.94.36,1.55-1,3.59l-.2-1c-1.41,2.85,0,2-1.77,4.85,0-.64.88-2.35.61-1.94-1.35,1.74-.33,1.52-1,3l-.63.08c-.68,1.55-1.33,3.21-2,4.9s-1.19,3.5-1.87,5.25c-.07-.25,0-.91-.46-.17-.78,2.24-1.76,4.56-2.8,6.84s-1.93,4.6-2.86,6.69l-.15,1.8c-.14.37-.45.63-.39.19-.76,1.62.25.18.14,1.05-.31,1-.71,1.17-.62.52-.38,1.53-.81,3.74-1.36,5.93a35.87,35.87,0,0,1-1.94,5.86l0-.65c-1,2.41.13,3-.88,5.24l0-.46c-.76,2.68-1.43,5.54-2.09,8.23A49.53,49.53,0,0,1,1195,558c.26.45-.1,1.79-.36,3.09s-.42,2.57,0,2.81c-.91,3.09-.95,2.16-1.89,6.58-.16,1.2.41,1.85.37,3.34h-.49l.32,2-.68,1v1.4c.08-.55.33-1.16.46-1.06,0,2.17-.7,5.26-1,5.31l.18,5.16c-.2-.11-.22-1-.32-1.67.39,2.77-.56.49-.17,3,.11-.34.29.18.39.24a29.72,29.72,0,0,0-.17,6.24l-.34-.4a59.18,59.18,0,0,0,.25,6c.07,1,.14,2.09.22,3.15l.3,3.2c0-1.55.63-1.24.8,0l-.47.54c.4.78.08-1.32.62.31.08,1.59-.49,1.12-.74.22l.35,1.92c-.14.13-.26-.31-.47-.41.41.76-.24,3.42.51,4.49l-.13.13c.61,4.26.94,6.19,1.65,9.61.45,0,.6,1.36,1.14,2.31a64.91,64.91,0,0,0,1.34,8.41c.7,2.06.51.53,1,1.41-.39.26.47,3.23-.24,1.76a83,83,0,0,0,3,9c0-.54-.1-1.1.12-.86.32.79.42,1.89.2,1.83l-.11-.2a26.27,26.27,0,0,1,1.33,4c.39,1.4.77,2.84,1.12,4.25a25.25,25.25,0,0,0,2.63,7.3l-.12-.2c.67,1.29,1.31,2.59,2,3.87.71,1.86-.75-1-.41.47,2.43,4,2.77,6.86,4.79,10.17.1,3.24,4.54,9.55,5.64,13.47l.15-.34c.71.81.42,1.2.7,1.92.14-.2-.27-1.13.15-.61,4.21,7.7,7.89,16.31,11.78,24.39,1.43,3,2.16,1,3.43,5l-1-.8c3.59,5.59,6,12.07,9.21,17.7-.27-.3-.41-.25-.67-.82.22,1.4,2,4.6,2.33,4.5.38.93-.16.32-.05,1,.37,1.32,1.78,3,1.72,3.77,0,.14-.26-.3-.39-.52.51.75,1.55,3.83,1.63,2.88.73,2.31,1.83,4.24,2.29,6.13.94,1,1.14,4,1.93,4.11-.74.08.84,4.17,1.54,5.56-.36-.43.15,1.33-.3.84.49,1.66,1.07,3.15,1.34,2.76,0,3.3,2.24,6.08,1.57,8.08.64,2.48,1.36,4.87,1.83,7.24s1,4.69,1.21,7c-.64-.1-.7-5.08-1.41-4.78.45,2.15.93,3.83,1.19,5.55a32,32,0,0,1,.61,5.6c-.08,1.14-.3-.63-.47-1,.24,2.19.24,4.31.29,6.37s-.11,4.06,0,6a2.42,2.42,0,0,1-.16-.84c0,.77-.17,1.78.16,1.71l-.06-.75c.5-1.22.9,3.12,1.06,3.28-.8-1.38-.61,3.85-1.58,1.67,0,.51.1,1.16.33,1.06-.13.75-.28,1-.46.19-.1,2.76.38,1.83.07,4.32-.16,0-.12-.54-.29-.82a13.15,13.15,0,0,1-.24,4.67c-.07-.14-.24.08-.13-.54-.49,3.6-.21,6.28-1.41,10.13-.39-1.3-.53,1.28-1.15,1.35-.12.71-.2,1.42-.34,2.13l.49-.77c-.47,1.82-.5,3.55-1.09,5.07l.12-1.42c-.25,1.15-.55,2.29-.85,3.43l.78-1.86c-.24,1.92.78,0-.09,2.38a20.87,20.87,0,0,1-1.15,2.67h0a9.89,9.89,0,0,1-.77,3.22c-.29.29-.53-.48-.73-.29.22,1-1.25,4.24-1.14,5.52,0-.41-.28-.53-.38-.43l.13.86c-.41.79-.51.89-.7.67-1,2.46,1-.53-.38,2.3a3.45,3.45,0,0,1,.08-.65,45.67,45.67,0,0,0-1.55,4.31,41.63,41.63,0,0,1-1.6,4.08c-.87.57.79-2.4,0-1.68-1.41,3.91-2.62,8.25-4.4,11.87l.36-.66c.54.86-1.59,2.57-2.12,4.57.16-.48-.14-.79-.12-.63-1.28,2.45-2.23,5.18-3.9,9l0-.57c-.9,1.37-2.1,3.74-3,5.25,0,.56-.56,1.43,0,1-3.7,4.13-4.51,9.35-8,12.88.31-.48.57-1.25.33-.87l-2,3.57c.48-.08.47-.33,1.17-.91a7.88,7.88,0,0,1-1.13,2.48c.81-1.67-.5-.31-1.12.24.17,0,.13.25.26.25-1.73,1.43.41.71-1.57,2.9l-.07-.23a21.85,21.85,0,0,1-1.63,2.87c-.63.16.5-1.07.26-1.33-.93,1.36-1.2,3.15-2.44,4.11.32-.63.91-1.45,1.21-2.1a9.53,9.53,0,0,0-2.13,2.2l.08-.09-1.84,2.12.53-.49c-.35,2.32-2.36,3.49-3.52,6.13,1.15-2.55,0-.59-.28-1.05-.55.47-1.34,1.22-1.26.9-.52,1.26-1.59,1.53-2.35,3.31-.17,0-.91,1.07-1,.59-1,1.39.47-.14.52.1-1.27,2.39-4.5,4.3-6.51,7.59-2,2.59-2,3.41-4,5.77-.9.56.19-1,.19-1a18.57,18.57,0,0,0-3.16,3.17c.13-.32-.18-.17-.64,0-.87.9-.19,1-1.55,2a4.56,4.56,0,0,1,.47-1.31c-1,1.12-1.81,2.34-2.84,3.48-.48.08.4-.92.66-1.43-1.16,1.27-3.09,3.2-3.21,3.86l.92-.62c-.44.44-.48-.05-.19-.42.86-1.24,1.66-1.33,1.83-1.27l-.73.81c1.44-.09,3.11-3.09,4.7-4.59l-.19,1.12,1.22-2c.46-.22,1-.19.25.65,1.35-.88.83-1.15,2-1.86.14-.07.12,0,0,.12l.94-1.24c-.12.31.51.14-.22.75,2.23-1.71,2.72-3.58,3.81-4l-.13.19c2.44-3-.1-.6,1.41-3.11l2.19-.64-.11-.61c.27-.28.81-.85.86-.62.72-1.33-.32.05,0-.8,1.6-1.13,3.23-4.14,4.1-4,.16-.76-1.38,1.22-.28-.51,1,.09,1.37-1.92,2.76-3,0,.69-1.21,1.84.18.71.1-1.26,2.22-2.57,3-3.83-.4-.4,1.75-2.7,3-4.82.09.26,2.95-3.6,4.41-5.39l0,.11c-.23-.7,1.17-2.61,2-4.11.25.24.2.58-.19,1.44l.89-1.35a5.4,5.4,0,0,1,.74-1.84l.15.58a67.4,67.4,0,0,1,3.56-6.19c-.27-.34-2.1,1.31-.84-1.34.25,0,.63.11.31.82a4.77,4.77,0,0,1,.64-1.25l-.28,1.19c.79-1,.07-.72.62-1.57.26.17.57-.53.71-.28-.1.23-.56.69-.65,1.08a11.54,11.54,0,0,1,1.92-2.33c-.21,0-.37-.2,0-1,1-1.9.68-.46,1.44-1.49.07-.56.94-1.65.55-1.91.31-.55.56-.54.78-.7.35-1.09,2.4-4.65,1.37-3.76l-.16.23.06-.17h0c1.29-3.45,3.72-6.64,5.08-10l.14.07a51.73,51.73,0,0,0,2.25-6c.26-.59.88-1.27.94-.94a17.17,17.17,0,0,1,1.64-3.91c-.4,1.64.44-.44-.48,1.65,1-1.94,1.39-2.29,1.88-4.59.08.88,1.06-1.32,1.33-2.32l-.82,1.3c.37-1.1.77-2,1.18-3l.29.71c2.2-3.91,1.77-7.84,3.86-10.67,0-1.22-1,2.19-1.09,1.06.74-1.89,2.12-3.67,2.3-4.28,1.12-2.58.08-2.7,1.08-5.44-.28.3-.86.49-.42-1.64.63-1.92,1.44-2.19,1.24-.91-.12.47-.25.68-.3.65-.12.65-.28,1.5.14.78l-.11-.3c.49-.92,1.18-3.64,1.31-2.92.22-1.54-.13-.71-.51.36.93-2.46,1.07-3.94,1.84-6.53-.2.4-.5.73-.4.32,1.12-3.79.06-1.77.52-4.4.59-1.43.56.67.87-2,.5-1.58.56-.25.58.43a27.34,27.34,0,0,1,1.28-5.9l-.06,1.31a19.18,19.18,0,0,1,.24-2.06l-.49.68c.19-.74.29-1.38.44-1.34-.12-.81-.71.5-.81-1.08.36-1,.12-3.09.67-3.38-.48,3.16.53-.3.35,2.41a9.67,9.67,0,0,1,.19-1.92c.07-.11.09.12.1.33.74-3-.42-1.46-.11-4.62.24.43.62-.69.59-1.21-.13,1.27-.48.57-.66-.61a14.43,14.43,0,0,0,0-3.27l-.15,1.2a8.52,8.52,0,0,1-.23-2.84c.23-.11.11,1.29.22.79a5.82,5.82,0,0,1,.13-2.63,10,10,0,0,0,.08-3.1c.17-1,.53-.11.64-1-.44-2.44.39-2.69-.15-5.26-.32.77-.21.89-.73-.89.2,1.4.45,2.8.53,4.22-.19-.91-.41-1.8-.69-2.69a32.54,32.54,0,0,1,.33,3.45c-.34-1.29-.24-1.15-.54-.53.57-1.78-.54-3.43-.3-5.46l.94,0c.23-3.1-1-5.34-1.33-9.28v1.28c-.45-.47-.35-2.41-.78-3.63.33.06.29-.74.38-1.32-.22.11-.53-2.85-1.21-3.07,0-.61.06-1.22,0-1.82-.6-3.14-1.71-3.32-2.37-6.3.58.8.45-.61,1.18,1.32-.23-1-.44-1.9-.66-1.85,0-.63-1.2-2.61-1.18-3.59a2.94,2.94,0,0,1-.9-1.52c0-.14.15,0,.15,0s-.74-1.64-.76-.59a20.76,20.76,0,0,0-1.48-5.72,22.56,22.56,0,0,1-1.64-5.36c-.86-2.06-2-4.47-2.81-6.33.14.09.15-.05.26.31-.8-2.68-1.46-1.23-2.45-4.24-.2-1.68.93,1.42.7.42.76-.81-1.67-3.43-2-5.61l.27.44c-.38-1.62-2-3.42-3.12-5.86,0,0,.14.08.15-.05a46.18,46.18,0,0,1-4.22-6.62c.72.53.71.94.86.32-.57-1-.43.59-1.57-1.39-.14-.76-.71-2.31-.42-2.7l1,1.9c0-1.24-1.28-2.47-1.71-3.53l.28,0c-1.57-2.9-2.15-2.65-3.74-5.82v.41c-1.43-1.44-.43-1.61-1.73-3.11l.28-.81c-.72-1.06-2.6-3.69-3.75-5.67a44,44,0,0,1,3.46,4.56,22.75,22.75,0,0,0-2.6-4.24,5.9,5.9,0,0,1,.87,1.41,20.11,20.11,0,0,1-3.45-5.1c1.27-.15-2.71-6-2.69-8-2.39-3.78-3.74-8-6-12.66-.08,2.06-.67-1.35-1.4-.67a6.57,6.57,0,0,1-.72-1.62l-1-3.57c-.09-.91.67.95.82.77-1-2.44-.1-1.17-.54-2.88-.18.47-.81-.64-1.27-2.08l.41,2.13c-1.9-3.2-.5-3.25-2.38-6.48.23.33.47.65.72,1-.88-1.69-2.57-6.51-3.93-8,0-.35.09-.86.44-.1-.7-2.16-1.76-4.46-2.68-6.69a34.06,34.06,0,0,1-2-6.14l.33.26a5.68,5.68,0,0,1-.91-2.37c.11,0,.32.26.23-.12a13.37,13.37,0,0,1-1.16-3.18l.51.86c-.92-4.33-2.28-6.43-3.29-10,.64-.14.2-3.6,0-5.32l.11,0c-.43-2.53-1-4.65-1.41-6.75s-1.05-4.13-1.41-6.49a34.75,34.75,0,0,0-.11-6.75c-.14-2.72-.24-5.68-.14-8.06-.1.73-.57-.1-.63-.95.15-1.12-.48-3.09.16-2.91v.4c.63-.85.45-3.14.48-4.93l-.83-.31a30.24,30.24,0,0,0,.75-8.21c.13-2.8.23-5.35.89-6.57-.1-1.14,0-2.54,0-3.68l.43.12c.57-3.09.84-4.62,1.29-8.48l.2.84c.37-2.15-.76-2.93-.42-4.93l.78-.47c.36-1.88.87-3.73,1.31-5.59a29.29,29.29,0,0,0,1.14-5.6c.09.08.25.24.12.84.46-1.74,2.09-6.62,1.09-6.22.59.11,1.2-3.76,1.55-5.82l.33.44a11.41,11.41,0,0,1,.39-4.32c.22-.54.48-.38.15.32.77-1.77,0-1.56,1-3.69l0,.91a5.62,5.62,0,0,0,.56-2.89c.26-1.24,1.38-3.51,1.85-3.65a4.14,4.14,0,0,1,.42-2.53c.2-.1.14.34.11.56,1.38-3,1.37-4.77,2.6-6.73.16,0,.28-.1.4-.25-1,2.42-1.85,4.37-1.81,4.18.38.15,1.26-1.79,1.14,0a27.8,27.8,0,0,1,1.83-6.47.85.85,0,0,1,.23-.2l0,.21a4.93,4.93,0,0,0,.44-1.23,15.79,15.79,0,0,0,.77-1.54c.38-.1,1.1-2.17,1.6-3.11-.45-.1.21-1.33-.68-.3.1-.14,0,.2-.32.85a3.15,3.15,0,0,0-.15.42v-.08c-.3.63-.6,1.49-1,2.44a5.2,5.2,0,0,1,1-2.72c0-.61,0-1.27,0-1.64,1.19-1.06,2.68-3.45,3.2-3.63,1.15-3,3-7,3.33-9.14.33-.86.71-.82,1-1.07a8.76,8.76,0,0,0-.51,1.37c.67-1.72,2.47-4.86,2.16-5.53,1.32-1.93-.13,1.41,1.28-1.46l0,.47a21.09,21.09,0,0,0,2.19-3.76c.6-1.22,1.12-2.42,1.63-3.64a27.62,27.62,0,0,1,4.44-7.66c-.31.38-.46.57-.59.61,2.17-3.33,4.37-6.78,6.49-10.27a68.19,68.19,0,0,1,6.92-9.89,8.69,8.69,0,0,0,1.8-3.41l.67-.12.9-2.22c1.61-2.91,4.17-4,6.11-7.78l-.59.23c1-1.15,2.74-3.88,2.89-3.46a1.29,1.29,0,0,1,.52-1l.23.12,1.9-3.19c1.88-2.16.52,1,3.09-2.31.86-1.29,2.11-3.95,1.62-3.6s-1.09,1.17-1.32,1.05l.76-1.2c-.42-.66-.34-2-2.87.45l-1.13,2.21-.76.4,1.23-1.64a4.57,4.57,0,0,0-1.53,2.27,1.85,1.85,0,0,0-.93.57l-.9,2.33c-.4.05.2-1.2-.91,0-.42,1.09,1.17-.46.22,1.15-1,.72-1,.28-1.6,1.54-.26,0-.18-.26.08-.74-.56,1.1-1.89,2.61-2,3.35a9.19,9.19,0,0,0-1.67,1.87c-.51.7-.94,1.24-1.19,1a14,14,0,0,1-1.42,3c.5-2.16-2.45,3.39-2.87,2.43-.26,1.67-2.89,4.67-4.09,7.09a1.44,1.44,0,0,1,.28-.63c-.93,1.19-1.37,1.42-2,2.16.41.51-.75,2.57-1.11,3.84-1.51,1.22,0-1.35-.8-1.18.47.2-1.33,3-.63,2.68-1.08,1-.82.93-1.64,1.26.51.63-.61,1.18-.84,2.42-1.44,1.52-.9.06-1.93,2.07-.78.78.07-1.05.07-1.05m-23.7,48h0l.4-1c-.08.21-.2.51-.39,1m-1.72,4.16c.22-.5.48-1.13.77-1.8.2-.08.28.13.1.55,0-.27-.49.68-.87,1.25m6.47-7.54c-.21.67-.38.86-.5.91.11-.32.24-.68.42-1.16a.36.36,0,0,1,0-.1.72.72,0,0,1,.1.35" transform="translate(0 0)"/><path class="cls-7" d="M1215,504.87a2.43,2.43,0,0,1,.1-.28l-.28.34c0,.1,0,.2,0,.28.06-.11.11-.23.16-.34" transform="translate(0 0)"/><path class="cls-7" d="M1235.12,890.41l.05-.08a.64.64,0,0,1-.15.14.37.37,0,0,1,.1-.06" transform="translate(0 0)"/><polygon class="cls-7" points="1192.48 573.75 1192.6 573.76 1192.54 573.35 1192.48 573.75"/><path class="cls-7" d="M1221.31,910.87a.79.79,0,0,0-.27.21,1,1,0,0,0,.27-.21" transform="translate(0 0)"/><path class="cls-7" d="M1215.2,919.54l-1,1.11c.45-.47.76-.82,1-1.11" transform="translate(0 0)"/><path class="cls-7" d="M1210.12,925.91a.36.36,0,0,0,.05.24h0Z" transform="translate(0 0)"/><path class="cls-7" d="M1258.07,807.77a3,3,0,0,0,0-.31c-.06-.73,0-.24,0,.31" transform="translate(0 0)"/><path class="cls-7" d="M1252.24,845.66c0-.42.08-.83.15-1.25-.22.65-.38,1.16-.15,1.25" transform="translate(0 0)"/><path class="cls-7" d="M1252,765.78h0a2.33,2.33,0,0,0-.07-.25Z" transform="translate(0 0)"/><path class="cls-7" d="M1252.9,842.69a7,7,0,0,0-.51,1.72,10.3,10.3,0,0,0,.51-1.72" transform="translate(0 0)"/><path class="cls-7" d="M1186,951.61l-.3.25s0,0,0,.09Z" transform="translate(0 0)"/><path class="cls-7" d="M1185.71,952l-.28.33a.88.88,0,0,0,.28-.33" transform="translate(0 0)"/><path class="cls-7" d="M1184.82,953l.61-.69a2,2,0,0,0-.61.69" transform="translate(0 0)"/><path class="cls-7" d="M1193.92,944.3l0-.2a.21.21,0,0,0,0,.2" transform="translate(0 0)"/><path class="cls-7" d="M1196.18,941.93a19.14,19.14,0,0,0-2.31,2l0,.16c.19-.53,2-1.45,2.29-2.17" transform="translate(0 0)"/><path class="cls-7" d="M1206.83,933c-.61.69-1.25,1.35-1.89,2,.45-.25,1-.58.24.4,2.68-2.31-.74.31,1.65-2.42" transform="translate(0 0)"/><path class="cls-7" d="M1212.44,926.52c-.85,1.23.21.14.23.26.46-.85.56-1-.23-.26" transform="translate(0 0)"/><path class="cls-7" d="M1243.83,873.1l.31.3c.42-1.07-.14-.07-.31-.3" transform="translate(0 0)"/><polygon class="cls-7" points="1246.38 861.37 1245.74 862.31 1245.89 862.93 1246.38 861.37"/><polygon class="cls-7" points="1251.51 855.8 1251.4 856.29 1251.88 854.43 1251.51 855.8"/><path class="cls-7" d="M1251.91,753.15l-.35.5c.36.69,1,.66.35-.5" transform="translate(0 0)"/><path class="cls-7" d="M1232.5,712.54a4.27,4.27,0,0,0-1-2.32c.43.91.72,1.89,1,2.32" transform="translate(0 0)"/><polygon class="cls-7" points="1195.65 585.89 1195.78 586.79 1195.72 585.11 1195.65 585.89"/></g></g></g></g></g></svg>