<svg xmlns="http://www.w3.org/2000/svg" viewBox="0 0 371.7 284.72"><defs><style>.cls-1{fill:#0071ba;}.cls-2{fill:#00c1dc;}.cls-3{fill:#fff;}</style></defs><g id="Layer_2" data-name="Layer 2"><g id="Textos_y_botones" data-name="Textos y botones"><path class="cls-1" d="M2.54,267.18c0-11.14,7-17.77,15.6-17.77A13.57,13.57,0,0,1,28,253.72l-3.23,3.9a8.89,8.89,0,0,0-6.46-3c-5.54,0-9.52,4.69-9.52,12.33s3.67,12.48,9.37,12.48a9.55,9.55,0,0,0,7.27-3.5l3.23,3.79a13.58,13.58,0,0,1-10.73,5C9.33,284.72,2.54,278.45,2.54,267.18Z" transform="translate(-2.54)"/><path class="cls-1" d="M30.82,266.93c0-11,6.14-17.52,15-17.52s15,6.53,15,17.52-6.15,17.79-15,17.79S30.82,278,30.82,266.93Zm23.83,0c0-7.64-3.46-12.27-8.81-12.27S37,259.29,37,266.93s3.45,12.54,8.81,12.54S54.65,274.58,54.65,266.93Z" transform="translate(-2.54)"/><path class="cls-1" d="M67.71,250h6.2L84.5,269.18,88,276.45h.2c-.29-3.52-.76-7.83-.76-11.62V250H93.2V284.1H87L76.41,264.92l-3.52-7.24h-.2c.29,3.61.77,7.71.77,11.5V284.1H67.71Z" transform="translate(-2.54)"/><path class="cls-1" d="M101.87,250h20.58v5.08H107.91v9.67h12.37v5.08H107.91V284.1h-6Z" transform="translate(-2.54)"/><path class="cls-1" d="M128.42,250h6V284.1h-6Z" transform="translate(-2.54)"/><path class="cls-1" d="M141.32,267.18c0-11.14,7.06-17.77,16.12-17.77a14,14,0,0,1,10.29,4.31l-3.23,3.9a9.21,9.21,0,0,0-6.87-3c-6,0-10.11,4.69-10.11,12.33s3.61,12.48,10.44,12.48a7.59,7.59,0,0,0,4.85-1.5v-7.35H156.4v-5h11.83v15a15.48,15.48,0,0,1-10.87,4C148.17,284.72,141.32,278.45,141.32,267.18Z" transform="translate(-2.54)"/><path class="cls-1" d="M175.64,269.16V250h6.05v19.58c0,7.41,2.77,9.85,6.89,9.85s7-2.44,7-9.85V250h5.81v19.12c0,11.19-5,15.56-12.85,15.56S175.64,280.35,175.64,269.16Z" transform="translate(-2.54)"/><path class="cls-1" d="M209.92,250H221.4c7.08,0,12.54,2.5,12.54,10.1,0,7.32-5.46,10.65-12.54,10.65H216V284.1h-6ZM220.77,266c4.67,0,7.21-1.94,7.21-5.81s-2.54-5.27-7.21-5.27H216V266Zm-.51,3.22,4.38-3.6,10.63,18.53h-6.79Z" transform="translate(-2.54)"/><path class="cls-1" d="M247.1,250h7.08l11.11,34.06h-6.4L253.7,266c-1.08-3.6-2.08-7.49-3.08-11.22h-.21c-.94,3.77-1.94,7.62-3,11.22l-5.23,18.13H236Zm-4.54,20.09h16v4.74h-16Z" transform="translate(-2.54)"/><path class="cls-1" d="M267.18,267.18c0-11.14,7-17.77,15.6-17.77a13.53,13.53,0,0,1,9.81,4.31l-3.23,3.9a8.87,8.87,0,0,0-6.45-3c-5.54,0-9.52,4.69-9.52,12.33s3.66,12.48,9.37,12.48A9.55,9.55,0,0,0,290,276l3.23,3.79a13.58,13.58,0,0,1-10.73,5C274,284.72,267.18,278.45,267.18,267.18Z" transform="translate(-2.54)"/><path class="cls-1" d="M299,250H305V284.1H299Z" transform="translate(-2.54)"/><path class="cls-1" d="M311.86,266.93c0-11,6.14-17.52,15-17.52s15,6.53,15,17.52-6.15,17.79-15,17.79S311.86,278,311.86,266.93Zm23.83,0c0-7.64-3.46-12.27-8.81-12.27s-8.82,4.63-8.82,12.27,3.46,12.54,8.82,12.54S335.69,274.58,335.69,266.93Zm-12.19-21.7,8.15-7,3.27,3.93-8.75,6.09Z" transform="translate(-2.54)"/><path class="cls-1" d="M348.75,250H355l10.59,19.14,3.52,7.27h.21c-.3-3.52-.78-7.83-.78-11.62V250h5.75V284.1H368l-10.59-19.18-3.52-7.24h-.21c.3,3.61.78,7.71.78,11.5V284.1h-5.75Z" transform="translate(-2.54)"/><path class="cls-2" d="M222.88,54.51c-6.75-30.29-35.51-53-70-53C115.69,1.47,85.11,28,81.75,62A64.29,64.29,0,0,0,72,61.21C35.37,61.21,5.7,91.63,5.7,129.16s29.67,68,66.28,68c1.94,0,3.85-.09,5.74-.26,11.35,20.31,32.13,33.92,55.9,33.92,24.36,0,45.59-14.31,56.73-35.47a130,130,0,0,0,21.7,1.81c53.37,0,96.65-32,96.65-71.53C308.7,88.79,271.16,58.49,222.88,54.51ZM126.44,92.35l.67-.93.51.8C127.22,92.25,126.83,92.3,126.44,92.35Z" transform="translate(-2.54)"/><path class="cls-3" d="M224.32,54.11c-5.88-26-27.51-45.8-53.07-52C145-4.2,115.93,3.69,97.53,23.76A66.57,66.57,0,0,0,80.25,62l1.9-1.45a67.18,67.18,0,0,0-45.34,9.28A69.73,69.73,0,0,0,9.38,102.5a71.37,71.37,0,0,0-2.8,45A69.93,69.93,0,0,0,29.9,183.6a66.31,66.31,0,0,0,47.82,14.75l-1.29-.74c9.08,16.13,24.38,28.59,42.51,32.92a63.75,63.75,0,0,0,52.68-11,70.47,70.47,0,0,0,20-23.49l-1.69.68c21.48,3.6,44,2.07,64.59-5.31,16.65-6,32.28-15.85,43.09-30.06,9.73-12.8,14.42-28.87,11.81-44.85-2.69-16.5-12.95-30.78-25.89-41-15.17-11.95-33.87-19-52.91-21.67-2.58-.36-5.17-.66-7.76-.87-1.93-.17-1.92,2.83,0,3,19,1.59,37.8,7.37,53.63,18.08,13.29,9,24.51,21.9,28.82,37.61,4.07,14.89,1.16,30.58-7.06,43.52-9,14.21-23.34,24.48-38.66,31-18.69,8-39.56,10.69-59.74,8.8q-4.58-.42-9.12-1.19a1.57,1.57,0,0,0-1.7.69c-8.26,15.59-22.38,27.85-39.52,32.58a60.78,60.78,0,0,1-50.68-8.91A66.85,66.85,0,0,1,79,196.1a1.49,1.49,0,0,0-1.3-.75,64.24,64.24,0,0,1-41.55-10.81A66.4,66.4,0,0,1,11.12,152a68.63,68.63,0,0,1-.91-42.92,66.69,66.69,0,0,1,23.7-33.68A64.07,64.07,0,0,1,73.73,62.74a63,63,0,0,1,7.63.65A1.52,1.52,0,0,0,83.25,62C85.8,37,103.79,16.18,127,7.59,151.46-1.48,180.3,3,200.23,20.14a64.89,64.89,0,0,1,21.2,34.76C221.85,56.79,224.75,56,224.32,54.11Z" transform="translate(-2.54)"/><path class="cls-3" d="M127.74,93.1l.66-.92h-2.59c.18.26.34.53.51.79l1.3-2.25c-.4,0-.79.08-1.18.13a1.11,1.11,0,0,0-.57.12,1.32,1.32,0,0,0-.49.31,1.21,1.21,0,0,0-.31.49,1.27,1.27,0,0,0-.13.58l.06.39a1.54,1.54,0,0,0,.38.67l.31.23a1.51,1.51,0,0,0,.75.21c.39,0,.78-.1,1.18-.13a1.51,1.51,0,0,0,.75-.21,1.4,1.4,0,0,0,.54-.54,1.49,1.49,0,0,0,0-1.51c-.17-.27-.33-.53-.51-.79a1.45,1.45,0,0,0-.53-.54,1.48,1.48,0,0,0-1.52,0,1.55,1.55,0,0,0-.54.54l-.66.92a1.12,1.12,0,0,0-.18.56,1.18,1.18,0,0,0,0,.59,1,1,0,0,0,.27.51,1,1,0,0,0,.42.39l.36.15a1.51,1.51,0,0,0,.79,0l.36-.15A1.4,1.4,0,0,0,127.74,93.1Z" transform="translate(-2.54)"/><path class="cls-1" d="M241.31,55.88c-6.75-30.28-35.51-53-70-53-37.23,0-67.8,26.56-71.16,60.48a65.6,65.6,0,0,0-9.77-.73c-36.61,0-66.28,30.42-66.28,67.94s29.67,67.95,66.28,67.95c1.93,0,3.85-.08,5.74-.25,11.35,20.31,32.13,33.91,55.89,33.91,24.37,0,45.6-14.3,56.74-35.47a128.94,128.94,0,0,0,21.69,1.81c53.38,0,96.66-32,96.66-71.52C327.14,90.17,289.59,59.86,241.31,55.88ZM144.88,93.72l.67-.92c.17.26.34.52.5.79Z" transform="translate(-2.54)"/></g></g></svg>