<svg xmlns="http://www.w3.org/2000/svg" xmlns:xlink="http://www.w3.org/1999/xlink" viewBox="0 0 1195.18 774.97"><defs><style>.cls-1,.cls-6{fill:none;}.cls-2{font-size:281.45px;fill:#0071ba;font-family:GrandHotel-Regular, Grand Hotel;}.cls-3{font-size:293.9px;font-family:JustMeAgainDownHere, Just Me Again Down Here;letter-spacing:0em;}.cls-4{clip-path:url(#clip-path);}.cls-5{fill:#fc9232;}.cls-6{stroke:#fc9232;stroke-miterlimit:10;stroke-width:1.28px;}.cls-7{fill:#202020;}</style><clipPath id="clip-path" transform="translate(0 0)"><rect class="cls-1" x="923.77" width="271.41" height="774.97"/></clipPath></defs><g id="Layer_2" data-name="Layer 2"><g id="Textos_y_botones" data-name="Textos y botones"><text class="cls-2" transform="translate(0 538.34) scale(1.01 1)"><tspan xml:space="preserve">   </tspan><tspan class="cls-3" x="185.94" y="0">N</tspan><tspan x="312.9" y="0">úmeros</tspan></text><g id="globo"><g class="cls-4"><g class="cls-4"><path class="cls-5" d="M1114.25,304.4a198.68,198.68,0,0,1-44.86,27.76v9.41h-20.5v-10A217.13,217.13,0,0,1,1000.18,298c-9.31-8.55-100.66-94.82-69.21-192.25C946.16,58.68,992.7.61,1059.14.64c67.07,0,112.84,59.2,128.17,105.1,27,80.87-27.07,160.84-73.06,198.66" transform="translate(0 0)"/><path class="cls-6" d="M1114.25,304.4a198.68,198.68,0,0,1-44.86,27.76v9.41h-20.5v-10A217.13,217.13,0,0,1,1000.18,298c-9.31-8.55-100.66-94.82-69.21-192.25C946.16,58.68,992.7.61,1059.14.64c67.07,0,112.84,59.2,128.17,105.1C1214.32,186.61,1160.24,266.58,1114.25,304.4Z" transform="translate(0 0)"/><path class="cls-7" d="M991.31,774.76c-.12.24.15.35.65-.13l.1-.64Z" transform="translate(0 0)"/><path class="cls-7" d="M995.37,772.35c.48-.69.94-1.58.29-1.53-.33.84-.59.85-.93,1.78-.49.49-1,.68-1,.49-.11.24-.88.62-1,1.06a5.59,5.59,0,0,0,2.5-2c.26-.1.15.15.15.24" transform="translate(0 0)"/><path class="cls-7" d="M1037.24,719.37l-.25.37a3.36,3.36,0,0,0,.25-.37" transform="translate(0 0)"/><path class="cls-7" d="M1053.15,680.4c-.07.31-.07.45,0,.48.06-.3.1-.54,0-.48" transform="translate(0 0)"/><path class="cls-7" d="M1055.4,673.52c-.05.14-.09.27-.13.4a1,1,0,0,0,.13-.4" transform="translate(0 0)"/><path class="cls-7" d="M1037.24,719.37l.64-.93c-.09-.13-.36.46-.64.93" transform="translate(0 0)"/><path class="cls-7" d="M1001.53,765.28a2.53,2.53,0,0,0-.36.51l.38-.44a.14.14,0,0,1,0-.07" transform="translate(0 0)"/><path class="cls-7" d="M1028.21,735.63l-.18.29a1.82,1.82,0,0,0,0,.33Z" transform="translate(0 0)"/><path class="cls-7" d="M1020.07,747.37c.21-.24,0-.55-.06-.74a1.29,1.29,0,0,1-.23.71.35.35,0,0,0,.29,0" transform="translate(0 0)"/><path class="cls-7" d="M1004.81,764.07l-.25.32.25-.32" transform="translate(0 0)"/><path class="cls-7" d="M1033.59,726.93a.28.28,0,0,0,.17,0s-.1,0-.17,0" transform="translate(0 0)"/><path class="cls-7" d="M1049.71,353.68s0,0,0,0,0-.13,0,0" transform="translate(0 0)"/><path class="cls-7" d="M1061.14,341.63l-.13.19a.7.7,0,0,0,.13.16Z" transform="translate(0 0)"/><path class="cls-7" d="M1058.08,660.48a.11.11,0,0,1,0,.06c0,.36,0,.16,0-.06" transform="translate(0 0)"/><path class="cls-7" d="M1020.92,546.93c.26,1.37-1.29-1.85-.77.16.05-.23,1.27,1.47.77-.16" transform="translate(0 0)"/><path class="cls-7" d="M1001.82,765.06l.41-.41a3.1,3.1,0,0,0-.41.41" transform="translate(0 0)"/><path class="cls-7" d="M1020.15,547.09h0l.05.21-.05-.21" transform="translate(0 0)"/><path class="cls-7" d="M1056.69,629.89a1.06,1.06,0,0,0-.1.34s.07-.1.1-.34" transform="translate(0 0)"/><path class="cls-7" d="M1057.92,652.63l.07-.56a5,5,0,0,0-.07.56" transform="translate(0 0)"/><path class="cls-7" d="M1053.41,618.52a2.91,2.91,0,0,0-.2-.8.53.53,0,0,0,0,.13,1.41,1.41,0,0,1,.21.67" transform="translate(0 0)"/><path class="cls-7" d="M1049.44,606.92c0,.07,0,.15,0,.23l.16.36Z" transform="translate(0 0)"/><path class="cls-7" d="M1029.6,385a1.6,1.6,0,0,1,.57-.32c-.32,0,.51-1.57-.57.32" transform="translate(0 0)"/><path class="cls-7" d="M1001.67,765.42a.48.48,0,0,1,.15-.36l-.27.29c0,.07,0,.11.12.07" transform="translate(0 0)"/><path class="cls-7" d="M1050.55,618.85l-.49-1.84c.12.52.3,1.19.49,1.84" transform="translate(0 0)"/><path class="cls-7" d="M1002.27,467.89v-.45a1.35,1.35,0,0,0,0,.45" transform="translate(0 0)"/><path class="cls-7" d="M1048.2,611.65a4.69,4.69,0,0,0-.15-1.1.69.69,0,0,0-.17-.17Z" transform="translate(0 0)"/><path class="cls-7" d="M1030.17,384.62Z" transform="translate(0 0)"/><path class="cls-7" d="M1036,373.2c-1,1.55-.08,1-.06,1.45-1.08,1.92-.86.67-1.46,1.18-.6,1.26-.76,2.4-1.3,3.28-.1,0-.23.18-.19-.07-.42,1.45-2.18,3.75-2.63,5.45a.48.48,0,0,1-.22.13.63.63,0,0,1,.7.1c-.42.72-.52,1.47-.95,1.59a1.26,1.26,0,0,0,.22-.79l-.33.82c-.78.46.47-1.1.18-1.26-.36.77-.73,1.62-1.06,2.42a11.92,11.92,0,0,1-1,2.11c-.51,0,1.29-2.76.14-1.41.36-.57.71-1.14,1.11-1.68-1.37,1,.66-1-.69-.17-1.39,2.26-1.21,2.72-2.56,5-.07.64.4,0,.34.64-1.37,3.51-2.35,2.11-3.13,4.82a3.88,3.88,0,0,1-.8,2.9l-.16-.82c-1.13,2.3,0,1.63-1.43,3.92,0-.52.72-1.9.5-1.57-1.09,1.41-.27,1.23-.84,2.44l-.52.07c-.55,1.25-1.07,2.59-1.61,4s-1,2.83-1.51,4.24c-.06-.2,0-.74-.38-.13-.63,1.8-1.42,3.68-2.26,5.52s-1.56,3.72-2.31,5.41l-.12,1.45c-.11.31-.36.52-.31.16-.62,1.31.2.15.1.85s-.56.95-.5.42c-.31,1.24-.65,3-1.1,4.79a28.4,28.4,0,0,1-1.57,4.75l.05-.53c-.77,1.94.1,2.46-.71,4.23l0-.37c-.62,2.17-1.15,4.48-1.69,6.66a39.62,39.62,0,0,1-1.5,5.89c.21.37-.09,1.45-.3,2.51s-.34,2.07,0,2.27a36.57,36.57,0,0,0-1.54,5.32c-.12,1,.34,1.49.3,2.69h-.39l.26,1.67-.55.82v1.13c.07-.45.27-.94.37-.86,0,1.76-.56,4.26-.77,4.29l.15,4.18c-.16-.1-.18-.8-.26-1.35.31,2.23-.45.39-.14,2.44.09-.27.24.15.32.2a23.4,23.4,0,0,0-.14,5l-.27-.32a47.64,47.64,0,0,0,.2,4.85c.06.84.11,1.69.17,2.55s.17,1.72.25,2.58c0-1.25.51-1,.65,0l-.38.44c.32.63.06-1.06.5.25.06,1.29-.4.91-.6.18l.29,1.55c-.12.11-.22-.25-.38-.33.32.61-.2,2.76.41,3.63l-.11.1c.49,3.45.76,5,1.33,7.78.37,0,.49,1.09.93,1.86a51.36,51.36,0,0,0,1.08,6.8c.56,1.67.41.43.79,1.14-.32.21.38,2.61-.19,1.42a67.18,67.18,0,0,0,2.39,7.24c0-.43-.07-.89.11-.69.25.64.33,1.53.15,1.48l-.09-.16a20,20,0,0,1,1.08,3.2c.32,1.13.63,2.29.91,3.43a19.8,19.8,0,0,0,2.13,5.91l-.1-.17c.54,1,1.05,2.1,1.61,3.13.57,1.51-.6-.79-.33.38,2,3.28,2.24,5.54,3.88,8.23.07,2.61,3.66,7.71,4.56,10.88l.12-.27c.57.65.33,1,.56,1.55.12-.16-.22-.91.12-.5,3.41,6.23,6.38,13.19,9.52,19.72,1.16,2.39,1.75.8,2.77,4l-.8-.66c2.9,4.53,4.87,9.76,7.45,14.31-.22-.24-.33-.2-.55-.66.18,1.13,1.65,3.72,1.89,3.64.3.75-.13.26,0,.77.3,1.07,1.43,2.39,1.38,3.05,0,.11-.21-.25-.31-.43.42.61,1.25,3.1,1.32,2.33.59,1.87,1.48,3.43,1.85,5,.76.8.92,3.2,1.56,3.32-.6.06.68,3.37,1.24,4.49-.28-.34.13,1.08-.24.69.4,1.34.87,2.54,1.08,2.23,0,2.66,1.82,4.91,1.27,6.52.52,2,1.1,4,1.48,5.86s.78,3.79,1,5.65c-.52-.08-.57-4.1-1.15-3.86.36,1.73.75,3.1,1,4.48a26.62,26.62,0,0,1,.49,4.53c-.07.92-.24-.51-.38-.8.19,1.76.19,3.48.23,5.14s-.09,3.28,0,4.87c-.06,0-.1-.36-.14-.68,0,.62-.13,1.44.13,1.38l0-.61c.41-1,.74,2.53.86,2.66-.64-1.12-.49,3.11-1.27,1.35,0,.41.08.93.26.86-.11.6-.23.78-.37.14-.08,2.24.31,1.49.06,3.5-.13,0-.1-.44-.24-.66a10.52,10.52,0,0,1-.19,3.77c-.06-.11-.19.07-.11-.43-.39,2.9-.17,5.07-1.14,8.19-.32-1.06-.42,1-.93,1.08-.09.58-.16,1.15-.27,1.72l.4-.62a38.89,38.89,0,0,1-.89,4.1l.1-1.15c-.2.93-.44,1.86-.68,2.78l.63-1.51c-.2,1.56.62,0-.08,1.93a17.13,17.13,0,0,1-.93,2.15h0a8.1,8.1,0,0,1-.63,2.6c-.23.23-.43-.39-.59-.24.18.84-1,3.44-.92,4.47,0-.33-.23-.43-.31-.35l.1.7c-.33.64-.41.71-.56.54-.78,2,.81-.43-.31,1.86a3.74,3.74,0,0,1,.07-.53c-.51,1.17-.89,2.34-1.26,3.48a34.44,34.44,0,0,1-1.29,3.31c-.7.46.64-1.94,0-1.36a94.13,94.13,0,0,1-3.55,9.59l.29-.53c.44.69-1.28,2.08-1.71,3.7.12-.39-.12-.64-.1-.51-1,2-1.8,4.18-3.15,7.3l0-.46c-.72,1.11-1.69,3-2.42,4.24,0,.46-.45,1.16,0,.85-3,3.34-3.65,7.55-6.45,10.41.25-.39.46-1,.26-.7l-1.62,2.88c.39-.06.38-.27.95-.73a6.53,6.53,0,0,1-.92,2c.66-1.35-.4-.25-.9.19.14,0,.1.2.21.21-1.4,1.15.33.57-1.27,2.34l-.06-.19a16,16,0,0,1-1.32,2.32c-.5.13.41-.86.22-1.07-.76,1.1-1,2.55-2,3.32.26-.51.74-1.17,1-1.7a7.77,7.77,0,0,0-1.72,1.78l.06-.07-1.48,1.72.43-.4c-.29,1.88-1.92,2.82-2.85,4.95.93-2.06,0-.48-.23-.85-.44.38-1.08,1-1,.73-.43,1-1.29,1.24-1.9,2.68-.14,0-.74.86-.83.48-.81,1.12.38-.11.42.07-1,1.93-3.63,3.48-5.26,6.14-1.63,2.1-1.65,2.76-3.23,4.66-.72.46.15-.8.15-.8a15.06,15.06,0,0,0-2.55,2.56c.11-.26-.14-.14-.52,0-.7.73-.15.81-1.25,1.6a3.82,3.82,0,0,1,.38-1.06c-.78.9-1.47,1.89-2.3,2.81-.39.06.33-.75.54-1.15-.94,1-2.5,2.58-2.59,3.12l.74-.51c-.36.36-.39,0-.16-.34.7-1,1.35-1.07,1.48-1l-.59.66c1.17-.07,2.52-2.5,3.8-3.71l-.15.91,1-1.6c.37-.17.77-.15.2.53,1.09-.71.67-.93,1.64-1.51.12-.05.1,0,0,.1l.76-1c-.09.25.41.11-.18.61,1.8-1.38,2.2-2.9,3.08-3.22l-.1.15c2-2.41-.08-.48,1.14-2.51l1.77-.52-.09-.49c.22-.23.65-.69.7-.5.57-1.08-.27,0,0-.65,1.29-.92,2.61-3.34,3.32-3.21.12-.61-1.12,1-.23-.41.83.07,1.11-1.55,2.23-2.46,0,.56-1,1.49.14.58.08-1,1.8-2.08,2.43-3.11-.32-.31,1.41-2.17,2.45-3.89.07.21,2.38-2.91,3.56-4.36l0,.09c-.19-.56.94-2.11,1.63-3.32.21.2.16.47-.15,1.17l.72-1.1a4.27,4.27,0,0,1,.6-1.48l.12.46a55.21,55.21,0,0,1,2.87-5c-.22-.28-1.69,1.06-.67-1.09.19,0,.5.1.25.67a3.66,3.66,0,0,1,.51-1l-.22,1c.63-.81,0-.58.49-1.27.21.14.47-.43.58-.23-.08.19-.45.56-.53.88a9.1,9.1,0,0,1,1.56-1.88c-.17,0-.3-.17,0-.77.84-1.54.56-.38,1.17-1.2.06-.46.76-1.34.44-1.55a1.34,1.34,0,0,1,.64-.57c.28-.88,1.94-3.75,1.1-3l-.13.19s0-.08,0-.13h0c1.05-2.79,3-5.37,4.11-8.11l.11.06a41.67,41.67,0,0,0,1.82-4.83c.21-.47.71-1,.76-.76a14.61,14.61,0,0,1,1.32-3.16c-.32,1.33.37-.35-.38,1.34a11.64,11.64,0,0,0,1.51-3.72c.07.72.87-1.06,1.08-1.87l-.66,1.05c.3-.88.62-1.63,1-2.39l.23.57c1.79-3.16,1.44-6.33,3.13-8.62,0-1-.83,1.77-.88.85.6-1.53,1.71-3,1.86-3.46.9-2.08.07-2.18.87-4.4-.23.25-.7.4-.34-1.32.51-1.55,1.17-1.77,1-.73-.1.38-.2.55-.24.52-.1.52-.23,1.21.11.63l-.08-.25c.39-.73.95-2.93,1.06-2.35.17-1.24-.11-.58-.42.29.75-2,.86-3.19,1.49-5.28-.16.32-.41.59-.33.26.91-3.07,0-1.43.43-3.56.47-1.16.45.54.7-1.63.4-1.28.45-.2.46.34a22.69,22.69,0,0,1,1-4.76l0,1.06a12.85,12.85,0,0,1,.19-1.67l-.4.55c.15-.6.23-1.12.36-1.09-.1-.65-.58.41-.65-.87.29-.78.09-2.49.53-2.73-.39,2.55.43-.24.28,1.95a8.84,8.84,0,0,1,.16-1.55c.06-.09.08.09.08.26.6-2.43-.34-1.18-.08-3.73.19.34.49-.56.47-1-.11,1-.39.46-.54-.49a11.6,11.6,0,0,0,0-2.65l-.12,1a6.91,6.91,0,0,1-.18-2.3c.18-.09.08,1,.17.63a4.86,4.86,0,0,1,.11-2.12,8,8,0,0,0,.06-2.51c.14-.82.43-.08.52-.81-.36-2,.31-2.17-.12-4.25-.26.62-.18.72-.59-.73.15,1.14.36,2.27.43,3.42-.15-.73-.34-1.46-.56-2.18a25.91,25.91,0,0,1,.27,2.79c-.28-1-.2-.93-.44-.43.46-1.43-.44-2.77-.24-4.41l.76,0c.18-2.5-.83-4.31-1.08-7.5v1c-.36-.38-.29-2-.63-2.94.26.05.23-.6.3-1.06-.17.09-.42-2.31-1-2.49,0-.49,0-1,0-1.46-.49-2.54-1.38-2.69-1.91-5.1.46.64.35-.49.94,1.07-.18-.81-.35-1.54-.52-1.5,0-.51-1-2.1-1-2.9a2.37,2.37,0,0,1-.73-1.23c0-.11.12,0,.12,0s-.6-1.33-.61-.48a16.37,16.37,0,0,0-1.2-4.62,19,19,0,0,1-1.33-4.34c-.69-1.66-1.63-3.61-2.26-5.11.11.07.11,0,.21.25-.65-2.17-1.18-1-2-3.43-.15-1.36.76,1.15.57.34.61-.66-1.35-2.77-1.64-4.53l.23.35c-.31-1.31-1.66-2.77-2.53-4.73,0,0,.11.06.12,0a37.72,37.72,0,0,1-3.41-5.35c.59.43.58.76.7.26-.46-.8-.35.48-1.27-1.12-.11-.62-.58-1.87-.34-2.19l.8,1.54c0-1-1-2-1.37-2.85h.23c-1.28-2.35-1.75-2.14-3-4.71v.34c-1.16-1.17-.35-1.3-1.4-2.51l.23-.66c-.58-.86-2.1-3-3-4.58a37.11,37.11,0,0,1,2.79,3.68,18.69,18.69,0,0,0-2.1-3.43,4.54,4.54,0,0,1,.7,1.15,16.51,16.51,0,0,1-2.79-4.13c1-.12-2.19-4.85-2.17-6.51-1.93-3.06-3-6.46-4.84-10.23-.07,1.67-.54-1.09-1.14-.54a5.09,5.09,0,0,1-.57-1.31l-.79-2.89c-.08-.73.54.77.66.62-.81-2-.07-.94-.43-2.32-.15.38-.66-.52-1-1.68l.33,1.71c-1.54-2.58-.4-2.62-1.93-5.23.19.27.39.53.59.79-.71-1.38-2.07-5.27-3.18-6.47,0-.29.07-.7.35-.08-.56-1.75-1.41-3.61-2.16-5.41a27.69,27.69,0,0,1-1.59-5l.26.21a4.73,4.73,0,0,1-.73-1.92c.09,0,.25.21.18-.1a10.84,10.84,0,0,1-.93-2.57l.41.69c-.74-3.5-1.84-5.19-2.66-8.1.52-.1.16-2.9,0-4.3l.09,0c-.35-2.05-.79-3.77-1.14-5.46s-.85-3.34-1.14-5.25a27.55,27.55,0,0,0-.09-5.45c-.11-2.2-.19-4.6-.12-6.52-.07.59-.45-.08-.5-.76.11-.91-.39-2.5.12-2.36v.32c.51-.68.37-2.53.39-4l-.66-.25a24.26,24.26,0,0,0,.6-6.64c.11-2.26.19-4.33.72-5.31-.08-.92,0-2.06,0-3l.35.09c.46-2.5.68-3.74,1-6.85l.17.67c.3-1.73-.62-2.37-.34-4l.62-.38c.3-1.52.71-3,1.06-4.52a23.51,23.51,0,0,0,.93-4.53c.07.07.2.2.1.69.37-1.41,1.69-5.36.88-5,.47.1,1-3,1.24-4.7l.27.35a9.35,9.35,0,0,1,.32-3.49c.18-.43.39-.3.12.27.63-1.44,0-1.27.85-3l0,.73a4.54,4.54,0,0,0,.45-2.33c.21-1,1.11-2.84,1.49-2.95a3.37,3.37,0,0,1,.35-2.05c.15-.07.11.28.09.45,1.11-2.44,1.1-3.85,2.1-5.43.12,0,.22-.08.31-.21-.82,2-1.49,3.54-1.45,3.38.3.12,1-1.44.91,0a23.14,23.14,0,0,1,1.48-5.23,1,1,0,0,1,.19-.16l0,.18a4.49,4.49,0,0,0,.36-1c.25-.47.42-.77.62-1.24.31-.08.89-1.76,1.29-2.52-.36-.08.17-1.07-.55-.24.08-.12,0,.16-.26.68,0,.12-.1.26-.12.35v-.07c-.25.51-.5,1.2-.82,2a4.21,4.21,0,0,1,.8-2.19c0-.5,0-1,0-1.33,1-.86,2.17-2.79,2.58-2.94.94-2.45,2.48-5.64,2.7-7.38.27-.7.57-.67.8-.87a8.33,8.33,0,0,0-.42,1.11c.55-1.4,2-3.93,1.76-4.47,1.06-1.56-.11,1.14,1-1.18l0,.38a17.27,17.27,0,0,0,1.77-3c.48-1,.9-2,1.32-3a22.44,22.44,0,0,1,3.58-6.19c-.24.31-.37.46-.47.49,1.75-2.69,3.53-5.48,5.25-8.29a54.8,54.8,0,0,1,5.58-8,7.11,7.11,0,0,0,1.47-2.76l.54-.09.72-1.8c1.3-2.35,3.37-3.26,4.94-6.29l-.47.19c.78-.93,2.21-3.14,2.33-2.8a1.12,1.12,0,0,1,.42-.78l.19.1,1.53-2.58c1.53-1.74.42.78,2.5-1.87.7-1,1.71-3.19,1.31-2.91s-.88.95-1.06.86l.61-1c-.34-.54-.27-1.62-2.32.36l-.92,1.79-.61.33,1-1.33a3.68,3.68,0,0,0-1.24,1.83,1.55,1.55,0,0,0-.76.46l-.72,1.89c-.33,0,.16-1-.73,0-.34.88.94-.37.17.92-.79.59-.8.23-1.29,1.25-.22,0-.15-.21.06-.6-.45.89-1.52,2.12-1.58,2.71a7.88,7.88,0,0,0-1.35,1.51c-.4.56-.76,1-1,.8a11.15,11.15,0,0,1-1.14,2.43c.4-1.75-2,2.74-2.33,2-.21,1.35-2.33,3.77-3.3,5.74a1.22,1.22,0,0,1,.22-.52,22.56,22.56,0,0,1-1.62,1.75c.33.41-.6,2.07-.9,3.1-1.22,1,0-1.08-.64-.95.38.17-1.08,2.41-.51,2.17-.88.8-.66.75-1.33,1,.42.51-.49.95-.68,1.95-1.16,1.23-.73.05-1.56,1.68-.63.62.06-.85.06-.85M1016.87,412h0c.14-.35.25-.64.32-.83l-.31.83m-1.39,3.36c.18-.4.39-.91.62-1.45.16-.07.23.11.08.44,0-.21-.39.55-.7,1m5.23-6.09c-.17.54-.31.69-.41.73l.34-.93V409a.62.62,0,0,1,.08.29" transform="translate(0 0)"/><path class="cls-7" d="M1020.7,408.13l.08-.22a3,3,0,0,0-.22.28c0,.07,0,.15,0,.22l.12-.28" transform="translate(0 0)"/><path class="cls-7" d="M1036.94,719.8l0-.06-.13.12.08-.06" transform="translate(0 0)"/><polygon class="cls-7" points="1002.48 463.82 1002.57 463.82 1002.52 463.5 1002.48 463.82"/><path class="cls-7" d="M1025.78,736.34a.83.83,0,0,0-.22.17.65.65,0,0,0,.22-.17" transform="translate(0 0)"/><path class="cls-7" d="M1020.84,743.35l-.82.9c.37-.38.62-.66.82-.9" transform="translate(0 0)"/><path class="cls-7" d="M1016.73,748.5a.4.4,0,0,0,0,.2h0Z" transform="translate(0 0)"/><path class="cls-7" d="M1055.49,653a2.08,2.08,0,0,0,0-.25c0-.6,0-.2,0,.25" transform="translate(0 0)"/><path class="cls-7" d="M1050.79,683.63c0-.34.06-.67.11-1-.18.52-.3.93-.11,1" transform="translate(0 0)"/><path class="cls-7" d="M1050.6,619.05h0l-.06-.21Z" transform="translate(0 0)"/><path class="cls-7" d="M1051.32,681.23a5.84,5.84,0,0,0-.42,1.39,9.67,9.67,0,0,0,.42-1.39" transform="translate(0 0)"/><path class="cls-7" d="M997.24,769.28l-.25.2a.06.06,0,0,1,0,.07Z" transform="translate(0 0)"/><path class="cls-7" d="M997,769.55l-.23.27c.12-.11.22-.21.23-.27" transform="translate(0 0)"/><path class="cls-7" d="M996.28,770.38l.49-.56a1.68,1.68,0,0,0-.49.56" transform="translate(0 0)"/><path class="cls-7" d="M1003.64,763.37l0-.16a.16.16,0,0,0,0,.16" transform="translate(0 0)"/><path class="cls-7" d="M1005.46,761.45a14.91,14.91,0,0,0-1.86,1.63v.13c.15-.43,1.59-1.17,1.85-1.76" transform="translate(0 0)"/><path class="cls-7" d="M1014.08,754.27c-.5.55-1,1.09-1.54,1.63.37-.2.84-.47.2.32,2.16-1.87-.6.25,1.34-2" transform="translate(0 0)"/><path class="cls-7" d="M1018.61,749c-.69,1,.17.12.19.22.36-.69.45-.86-.19-.22" transform="translate(0 0)"/><path class="cls-7" d="M1044,705.81l.25.24c.34-.86-.11-.06-.25-.24" transform="translate(0 0)"/><polygon class="cls-7" points="1046.05 696.33 1045.53 697.09 1045.65 697.59 1046.05 696.33"/><polygon class="cls-7" points="1050.19 691.83 1050.1 692.23 1050.49 690.72 1050.19 691.83"/><path class="cls-7" d="M1050.51,608.84l-.28.41c.29.56.77.53.28-.41" transform="translate(0 0)"/><path class="cls-7" d="M1034.82,576a3.38,3.38,0,0,0-.82-1.88c.35.74.58,1.53.82,1.88" transform="translate(0 0)"/><polygon class="cls-7" points="1005.04 473.63 1005.14 474.36 1005.09 473 1005.04 473.63"/></g></g></g></g></g></svg>