<svg xmlns="http://www.w3.org/2000/svg" viewBox="0 0 1189.28 75.55"><defs><style>.cls-1{fill:#0071ba;}</style></defs><g id="Layer_2" data-name="Layer 2"><g id="Layer_3" data-name="Layer 3"><path class="cls-1" d="M8.74,18.48H22.51L34.65,52c1.51,4.37,2.9,9,4.41,13.48h.42C41,61,42.29,56.41,43.8,52L55.69,18.48H69.46V87.15H58.29V55.74c0-6.35,1-15.48,1.56-21.84h-.42l-5.55,16L42.59,80.7H35.36L24,49.86l-5.46-16h-.42c.59,6.36,1.56,15.49,1.56,21.84V87.15h-11Z" transform="translate(-8.74 -12.86)"/><path class="cls-1" d="M88.72,19.7c0-4.07,3.2-6.84,7.48-6.84s7.47,2.77,7.47,6.84-3.19,6.85-7.47,6.85S88.72,23.69,88.72,19.7Zm1.39,15.88h12.1V87.15H90.11Z" transform="translate(-8.74 -12.86)"/><path class="cls-1" d="M121.82,73.88V13h12.09V74.51c0,3,1.35,4,2.61,4a7.12,7.12,0,0,0,1.89-.21l1.51,9a16.91,16.91,0,0,1-6.38,1C125,88.41,121.82,82.87,121.82,73.88Z" transform="translate(-8.74 -12.86)"/><path class="cls-1" d="M176.52,61.41c0-16.8,10.54-27.09,21.84-27.09,5.84,0,9.54,2.18,13.53,5.67l-.47-8.32V13h12.1V87.15h-9.91l-.93-5.59h-.33c-3.82,3.83-9.12,6.85-14.66,6.85C184.84,88.41,176.52,78.42,176.52,61.41Zm34.9,11.21v-24a15.22,15.22,0,0,0-10.5-4.29c-6.55,0-12,6.22-12,17,0,11.21,4.28,17.14,11.71,17.14C204.66,78.42,208,76.65,211.42,72.62Z" transform="translate(-8.74 -12.86)"/><path class="cls-1" d="M239.69,61.41c0-17.18,11.68-27.09,24.53-27.09s24.53,9.91,24.53,27.09-11.68,27-24.53,27S239.69,78.5,239.69,61.41Zm36.62,0c0-10.34-4.53-17.22-12.09-17.22s-12.1,6.88-12.1,17.22,4.54,17.13,12.1,17.13S276.31,71.74,276.31,61.41Z" transform="translate(-8.74 -12.86)"/><path class="cls-1" d="M299.39,81.23,305,73.54c4.58,3.57,9,5.76,14.24,5.76,5.63,0,8.27-2.65,8.27-6.18,0-4.32-5.58-6.25-11.08-8.35-6.77-2.55-14.49-6.43-14.49-15,0-8.95,7.22-15.41,18.77-15.41a27.8,27.8,0,0,1,17.13,6.17l-5.54,7.43c-3.61-2.64-7.24-4.49-11.3-4.49-5.18,0-7.64,2.48-7.64,5.71,0,4.08,5.21,5.63,10.79,7.69,7,2.6,14.79,6,14.79,15.58,0,8.86-7,16-20,16A32.24,32.24,0,0,1,299.39,81.23Z" transform="translate(-8.74 -12.86)"/><path class="cls-1" d="M350.57,61.41c0-17.18,12.14-27.09,25.87-27.09a22.09,22.09,0,0,1,15.08,5.79L385.64,48c-2.73-2.4-5.34-3.78-8.57-3.78-8.31,0-14.07,6.88-14.07,17.22s5.67,17.13,13.69,17.13c4,0,7.73-2,10.67-4.45l4.92,8a25.5,25.5,0,0,1-16.85,6.34C361.36,88.41,350.57,78.5,350.57,61.41Z" transform="translate(-8.74 -12.86)"/><path class="cls-1" d="M405.29,19.7c0-4.07,3.2-6.84,7.48-6.84s7.48,2.77,7.48,6.84-3.2,6.85-7.48,6.85S405.29,23.69,405.29,19.7Zm1.39,15.88h12.1V87.15h-12.1Z" transform="translate(-8.74 -12.86)"/><path class="cls-1" d="M435,61.41c0-16.76,11.63-27.09,23.77-27.09,13.94,0,21.29,10.08,21.29,24.48a31.66,31.66,0,0,1-.52,5.88H446.79C447.8,73.84,453.68,79,462,79a22,22,0,0,0,12-3.73l4.12,7.51a32,32,0,0,1-17.68,5.59C446.16,88.41,435,78.42,435,61.41Zm34.61-5c0-7.94-3.53-12.77-10.59-12.77-6,0-11.3,4.5-12.35,12.77Z" transform="translate(-8.74 -12.86)"/><path class="cls-1" d="M495.82,35.58h9.92l.92,7H507c4.62-4.5,9.87-8.23,16.92-8.23,11.05,0,15.88,7.47,15.88,20.49V87.15H527.7V56.37c0-8.49-2.43-11.68-8-11.68-4.54,0-7.52,2.23-11.76,6.43v36h-12.1Z" transform="translate(-8.74 -12.86)"/><path class="cls-1" d="M560.63,69.76V45.19h-7.35V36.12l8-.54,1.43-14.07h10V35.58h13.14v9.61H572.73V69.74c0,6.07,2.35,9.05,7.3,9.05a16.11,16.11,0,0,0,5.38-1.17l2.06,8.9a33.63,33.63,0,0,1-10.54,1.89C565,88.41,560.63,80.89,560.63,69.76Z" transform="translate(-8.74 -12.86)"/><path class="cls-1" d="M595.85,61.41c0-17.18,11.67-27.09,24.53-27.09s24.52,9.91,24.52,27.09-11.67,27-24.52,27S595.85,78.5,595.85,61.41Zm36.62,0c0-10.34-4.54-17.22-12.09-17.22s-12.1,6.88-12.1,17.22,4.53,17.13,12.1,17.13S632.47,71.74,632.47,61.41Z" transform="translate(-8.74 -12.86)"/><path class="cls-1" d="M655.55,81.23l5.63-7.69c4.58,3.57,9,5.76,14.24,5.76,5.62,0,8.27-2.65,8.27-6.18,0-4.32-5.59-6.25-11.09-8.35-6.76-2.55-14.49-6.43-14.49-15,0-8.95,7.23-15.41,18.78-15.41A27.8,27.8,0,0,1,694,40.49l-5.54,7.43c-3.61-2.64-7.25-4.49-11.3-4.49-5.19,0-7.64,2.48-7.64,5.71,0,4.08,5.2,5.63,10.79,7.69,7,2.6,14.78,6,14.78,15.58,0,8.86-7,16-20,16A32.22,32.22,0,0,1,655.55,81.23Z" transform="translate(-8.74 -12.86)"/><path class="cls-1" d="M731.93,61.41c0-17.18,12.13-27.09,25.87-27.09a22.09,22.09,0,0,1,15.08,5.79L767,48c-2.73-2.4-5.34-3.78-8.57-3.78-8.32,0-14.07,6.88-14.07,17.22S750,78.54,758.05,78.54c4,0,7.73-2,10.67-4.45l4.91,8a25.48,25.48,0,0,1-16.84,6.34C742.72,88.41,731.93,78.5,731.93,61.41Z" transform="translate(-8.74 -12.86)"/><path class="cls-1" d="M786.65,19.7c0-4.07,3.19-6.84,7.48-6.84s7.47,2.77,7.47,6.84-3.19,6.85-7.47,6.85S786.65,23.69,786.65,19.7ZM788,35.58h12.09V87.15H788Z" transform="translate(-8.74 -12.86)"/><path class="cls-1" d="M819.75,35.58h9.91l.92,7h.34c4.62-4.5,9.87-8.23,16.92-8.23,11,0,15.88,7.47,15.88,20.49V87.15h-12.1V56.37c0-8.49-2.43-11.68-8-11.68-4.53,0-7.52,2.23-11.76,6.43v36H819.75Z" transform="translate(-8.74 -12.86)"/><path class="cls-1" d="M879.34,61.41c0-17.18,12.14-27.09,25.88-27.09a22.07,22.07,0,0,1,15.07,5.79L914.41,48c-2.73-2.4-5.33-3.78-8.56-3.78-8.32,0-14.07,6.88-14.07,17.22s5.67,17.13,13.69,17.13c4,0,7.73-2,10.66-4.45l4.92,8a25.48,25.48,0,0,1-16.84,6.34C890.14,88.41,879.34,78.5,879.34,61.41Z" transform="translate(-8.74 -12.86)"/><path class="cls-1" d="M934.87,67.92V35.58H947V66.36C947,74.84,949.4,78,955,78c4.54,0,7.52-2.1,11.43-7.14V35.58H978.5V87.15h-9.91l-.92-7.6h-.34c-4.53,5.37-9.53,8.86-16.59,8.86C939.7,88.41,934.87,80.93,934.87,67.92Z" transform="translate(-8.74 -12.86)"/><path class="cls-1" d="M994.63,61.41c0-16.76,11.64-27.09,23.77-27.09,13.95,0,21.3,10.08,21.3,24.48a30.69,30.69,0,0,1-.53,5.88h-32.73c1,9.16,6.88,14.36,15.2,14.36a22,22,0,0,0,12-3.73l4.11,7.51A32,32,0,0,1,1020,88.41C1005.81,88.41,994.63,78.42,994.63,61.41Zm34.61-5c0-7.94-3.53-12.77-10.58-12.77-6,0-11.3,4.5-12.35,12.77Z" transform="translate(-8.74 -12.86)"/><path class="cls-1" d="M1055.47,35.58h9.91l.93,7h.33c4.62-4.5,9.87-8.23,16.93-8.23,11,0,15.87,7.47,15.87,20.49V87.15h-12.09V56.37c0-8.49-2.44-11.68-8-11.68-4.53,0-7.51,2.23-11.75,6.43v36h-12.1Z" transform="translate(-8.74 -12.86)"/><path class="cls-1" d="M1120.28,69.76V45.19h-7.35V36.12l8-.54,1.42-14.07h10V35.58h13.15v9.61h-13.15V69.74c0,6.07,2.35,9.05,7.31,9.05a16.1,16.1,0,0,0,5.37-1.17l2.06,8.9a33.52,33.52,0,0,1-10.54,1.89C1124.69,88.41,1120.28,80.89,1120.28,69.76Z" transform="translate(-8.74 -12.86)"/><path class="cls-1" d="M1155.6,73.29c0-11,9.15-16.8,30.32-19.07-.17-5.54-2.39-10.16-9.37-10.16-5.12,0-10,2.31-14.49,5.08l-4.45-8.06c5.67-3.57,13-6.76,21.17-6.76,12.89,0,19.24,7.93,19.24,22.3V87.15h-9.92l-.92-5.71h-.34c-4.62,4-9.91,7-16,7C1161.81,88.41,1155.6,82.28,1155.6,73.29Zm30.32,0V61.74c-14,1.77-18.65,5.42-18.65,10.63,0,4.55,3.11,6.55,7.44,6.55S1182.1,76.86,1185.92,73.33Z" transform="translate(-8.74 -12.86)"/></g></g></svg>