<svg xmlns="http://www.w3.org/2000/svg" viewBox="0 0 1296.76 99.36"><defs><style>.cls-1{fill:#0071ba;stroke:#fff;stroke-miterlimit:10;}</style></defs><g id="Layer_2" data-name="Layer 2"><g id="Textos_y_botones" data-name="Textos y botones"><path class="cls-1" d="M13.9,23.28h7l19,53.6L47.13,97h.54c2.41-6.7,4.56-13.4,7-20.1l19-53.6h7v88.44H76.35V50.08c0-7,.26-15.81.53-23h-.53L69.51,46.6l-20,55.2H45L24.89,46.6,17.92,27h-.54c.27,7.24.54,16.08.54,23v61.64h-4Z" transform="translate(-13.4 -14.47)"/><path class="cls-1" d="M104.48,26.76a4.56,4.56,0,0,1,9.12,0,4.56,4.56,0,1,1-9.12,0Zm2.42,20.91h4v64.05h-4Z" transform="translate(-13.4 -14.47)"/><path class="cls-1" d="M136.64,104.75V15h4v90.59c0,2.68,1.07,4,2.68,4a10.26,10.26,0,0,0,2.41-.27l.81,3.48a11.84,11.84,0,0,1-3.49.54C139.05,113.33,136.64,110.92,136.64,104.75Z" transform="translate(-13.4 -14.47)"/><path class="cls-1" d="M188.63,79.83c0-20.64,13.13-33.77,28.68-33.77,7.77,0,13.13,2.95,19.83,8L236.87,42V15h4v96.75h-3.48l-.54-8.58h-.26c-5.36,5.36-12.6,10.19-21.44,10.19C199.08,113.33,188.63,101.54,188.63,79.83Zm48.24,18.49V58.66c-7.23-6.44-13.13-8.85-19.83-8.85-13.67,0-24.12,13.4-24.12,30,0,17.69,8,29.75,22.51,29.75C222.94,109.58,229.64,105.56,236.87,98.32Z" transform="translate(-13.4 -14.47)"/><path class="cls-1" d="M261,79.83c0-21.44,13.13-33.77,28.41-33.77s28.41,12.33,28.41,33.77c0,21.17-13.13,33.5-28.41,33.5S261,101,261,79.83Zm52.53,0c0-17.69-10.45-30-24.12-30s-24.12,12.33-24.12,30,10.45,29.75,24.12,29.75S313.52,97.52,313.52,79.83Z" transform="translate(-13.4 -14.47)"/><path class="cls-1" d="M329.6,104.48l2.68-3.21c5.36,4.55,11.26,8.31,20.9,8.31,10.72,0,16.35-6.44,16.35-13.67,0-8.58-8.57-12.33-16.08-15-9.91-3.48-20.9-7.24-20.9-18.22,0-8.85,7-16.62,20.1-16.62a29.14,29.14,0,0,1,17.69,6.43l-2.42,3.22c-4.28-3.22-8.84-5.9-15.54-5.9-10.72,0-15.54,6.3-15.54,12.6,0,7.77,7.77,10.72,15.54,13.67,10.18,3.88,21.44,7,21.44,19.56,0,9.38-7.5,17.69-20.9,17.69A35.89,35.89,0,0,1,329.6,104.48Z" transform="translate(-13.4 -14.47)"/><path class="cls-1" d="M385.88,79.83c0-21.44,13.4-33.77,28.68-33.77,8.84,0,14.47,4,18.76,8l-2.68,2.95c-4.29-4-9.38-7.24-16.08-7.24-13.67,0-24.39,12.33-24.39,30s9.64,29.75,24.39,29.75c7.23,0,13.4-3.49,17.95-7.78l2.41,3c-5.36,4.83-12.06,8.58-20.36,8.58C398.21,113.33,385.88,101,385.88,79.83Z" transform="translate(-13.4 -14.47)"/><path class="cls-1" d="M448.86,26.76a4.56,4.56,0,0,1,9.11,0,4.56,4.56,0,1,1-9.11,0Zm2.41,20.91h4v64.05h-4Z" transform="translate(-13.4 -14.47)"/><path class="cls-1" d="M475.39,79.83c0-20.91,13.4-33.77,27.6-33.77,14.74,0,24.12,10.45,24.12,29.48a25.3,25.3,0,0,1-.26,4.29H479.68c0,17.15,9.91,29.75,25.19,29.75a29.16,29.16,0,0,0,17.69-5.9l1.87,3.49c-4.82,2.94-10.18,6.16-19.83,6.16C488.52,113.33,475.39,100.73,475.39,79.83Zm47.7-3.75c0-17.69-8-26.27-20.1-26.27-11.52,0-22,9.92-23.31,26.27Z" transform="translate(-13.4 -14.47)"/><path class="cls-1" d="M545.07,47.67h3.48l.54,10.18h.27c6.7-6.7,13.4-11.79,22.24-11.79,13.13,0,19.3,7.77,19.3,24.39v41.27h-4V71c0-14.2-4.56-21.17-15.55-21.17-8,0-13.93,4.29-22.24,12.87v49h-4Z" transform="translate(-13.4 -14.47)"/><path class="cls-1" d="M616.89,94.84V51.42H606.71V48.2l10.18-.53.54-18.76h3.48V47.67h19v3.75h-19v44c0,8.31,1.88,14.21,11.26,14.21a23.84,23.84,0,0,0,8.3-2.15l1.34,3.49c-3.75,1.34-7.77,2.41-9.91,2.41C620.11,113.33,616.89,105.82,616.89,94.84Z" transform="translate(-13.4 -14.47)"/><path class="cls-1" d="M649.05,79.83c0-21.44,13.13-33.77,28.41-33.77s28.41,12.33,28.41,33.77c0,21.17-13.14,33.5-28.41,33.5S649.05,101,649.05,79.83Zm52.53,0c0-17.69-10.45-30-24.12-30s-24.12,12.33-24.12,30,10.45,29.75,24.12,29.75S701.58,97.52,701.58,79.83Z" transform="translate(-13.4 -14.47)"/><path class="cls-1" d="M717.66,104.48l2.68-3.21c5.36,4.55,11.25,8.31,20.9,8.31,10.72,0,16.35-6.44,16.35-13.67,0-8.58-8.58-12.33-16.08-15-9.92-3.48-20.91-7.24-20.91-18.22,0-8.85,7-16.62,20.11-16.62a29.09,29.09,0,0,1,17.68,6.43L756,55.71c-4.29-3.22-8.84-5.9-15.54-5.9-10.72,0-15.55,6.3-15.55,12.6,0,7.77,7.78,10.72,15.55,13.67,10.18,3.88,21.44,7,21.44,19.56,0,9.38-7.51,17.69-20.91,17.69A35.86,35.86,0,0,1,717.66,104.48Z" transform="translate(-13.4 -14.47)"/><path class="cls-1" d="M800.74,79.83c0-21.44,13.4-33.77,28.67-33.77,8.85,0,14.47,4,18.76,8l-2.68,2.95c-4.29-4-9.38-7.24-16.08-7.24-13.67,0-24.39,12.33-24.39,30s9.65,29.75,24.39,29.75c7.24,0,13.4-3.49,18-7.78l2.41,3c-5.36,4.83-12.06,8.58-20.37,8.58C813.06,113.33,800.74,101,800.74,79.83Z" transform="translate(-13.4 -14.47)"/><path class="cls-1" d="M863.72,26.76a4.56,4.56,0,0,1,9.11,0,4.56,4.56,0,1,1-9.11,0Zm2.41,20.91h4v64.05h-4Z" transform="translate(-13.4 -14.47)"/><path class="cls-1" d="M895.87,47.67h3.49l.53,10.18h.27c6.7-6.7,13.4-11.79,22.25-11.79,13.13,0,19.29,7.77,19.29,24.39v41.27h-4V71c0-14.2-4.55-21.17-15.54-21.17-8,0-13.94,4.29-22.25,12.87v49h-4Z" transform="translate(-13.4 -14.47)"/><path class="cls-1" d="M960.73,79.83c0-21.44,13.4-33.77,28.67-33.77,8.85,0,14.48,4,18.77,8l-2.69,2.95c-4.28-4-9.38-7.24-16.08-7.24-13.66,0-24.38,12.33-24.38,30s9.64,29.75,24.38,29.75c7.24,0,13.4-3.49,18-7.78l2.41,3c-5.36,4.83-12.06,8.58-20.37,8.58C973.06,113.33,960.73,101,960.73,79.83Z" transform="translate(-13.4 -14.47)"/><path class="cls-1" d="M1025.05,88.94V47.67h4V88.4c0,14.21,4.55,21.18,15.54,21.18,8,0,13.94-4.29,22-13.94v-48h4v64.05h-3.49l-.53-11h-.27c-6.43,7.51-13.13,12.6-22,12.6C1031.21,113.33,1025.05,105.56,1025.05,88.94Z" transform="translate(-13.4 -14.47)"/><path class="cls-1" d="M1090.71,79.83c0-20.91,13.4-33.77,27.6-33.77,14.74,0,24.12,10.45,24.12,29.48a24.38,24.38,0,0,1-.27,4.29H1095c0,17.15,9.92,29.75,25.2,29.75a29.18,29.18,0,0,0,17.69-5.9l1.87,3.49c-4.82,2.94-10.18,6.16-19.83,6.16C1103.84,113.33,1090.71,100.73,1090.71,79.83Zm47.7-3.75c0-17.69-8-26.27-20.1-26.27-11.52,0-22,9.92-23.32,26.27Z" transform="translate(-13.4 -14.47)"/><path class="cls-1" d="M1160.39,47.67h3.48l.54,10.18h.26c6.7-6.7,13.4-11.79,22.25-11.79,13.13,0,19.29,7.77,19.29,24.39v41.27h-4V71c0-14.2-4.55-21.17-15.54-21.17-8,0-13.94,4.29-22.24,12.87v49h-4Z" transform="translate(-13.4 -14.47)"/><path class="cls-1" d="M1232.21,94.84V51.42H1222V48.2l10.19-.53.53-18.76h3.49V47.67h19v3.75h-19v44c0,8.31,1.87,14.21,11.25,14.21a23.83,23.83,0,0,0,8.31-2.15l1.34,3.49c-3.75,1.34-7.77,2.41-9.91,2.41C1235.42,113.33,1232.21,105.82,1232.21,94.84Z" transform="translate(-13.4 -14.47)"/><path class="cls-1" d="M1263.56,96c0-14.34,13.14-21,42.08-24.25.27-10.45-2.41-22-15.81-22-9.11,0-16.89,4.56-20.91,7.77l-2.14-3.21c4-2.95,12.86-8.31,23.32-8.31,15,0,19.56,11.26,19.56,24.12v41.54h-3.48l-.54-8.58h-.27c-6.7,5.36-14.74,10.19-23.31,10.19C1272.14,113.33,1263.56,108.24,1263.56,96Zm42.08,2.55V75.27c-28.14,3.22-37.79,9.65-37.79,20.64,0,9.91,6.7,13.67,14.47,13.67S1297.06,105.82,1305.64,98.59Z" transform="translate(-13.4 -14.47)"/></g></g></svg>