<svg xmlns="http://www.w3.org/2000/svg" viewBox="0 0 293.44 182.65"><defs><style>.cls-1{fill:#e8fff7;}.cls-2{fill:#89f2f1;}</style></defs><g id="Layer_2" data-name="Layer 2"><g id="Textos_y_botones" data-name="Textos y botones"><path class="cls-1" d="M201.63,45.22C195.41,22.55,168.9,5.51,137.15,5.51c-34.31,0-62.49,19.89-65.58,45.28a74.14,74.14,0,0,0-9-.55C28.82,50.24,1.47,73,1.47,101.11S28.82,152,62.56,152c1.78,0,3.55-.06,5.29-.19,10.46,15.21,29.61,25.39,51.51,25.39,22.46,0,42-10.71,52.29-26.55a147.6,147.6,0,0,0,20,1.35c49.2,0,89.08-24,89.08-53.54C280.73,70.89,246.13,48.2,201.63,45.22ZM112.76,73.55l.61-.69c.16.19.31.39.47.59Z"/><path class="cls-1" d="M203.08,44.82c-6.07-21.75-27.89-35-48.9-39.15-23.33-4.6-49.9.16-68.07,16.19-8.52,7.51-14.61,17.56-16,28.93l1.5-1.5c-25.63-3.06-55,7.6-66.91,31.88a45.11,45.11,0,0,0-2.49,33.75C5.9,126.32,14,135.79,24,142.33c12.86,8.47,28.62,12,43.9,10.95l-1.29-.74c9.09,13.12,23.57,21.75,39.13,24.8,16.51,3.23,34.25.55,48.7-8.2A58,58,0,0,0,173,151.38l-1.69.68a144.8,144.8,0,0,0,58.84-3.76c14.69-4.18,29.45-11.13,40.09-22.37,8.65-9.14,13.8-21.3,11.42-34-2.5-13.34-12.6-23.85-23.59-31-14.59-9.55-32-14.51-49.14-16.53q-3.62-.44-7.25-.67c-1.92-.13-1.92,2.87,0,3,17.08,1.17,34.36,5.22,49.44,13.52,11.32,6.24,22.37,15.51,26.53,28.17,3.72,11.34.55,23.19-6.83,32.32-9.1,11.26-22.58,18.47-36.1,23A138.25,138.25,0,0,1,179.91,150c-2.63-.21-5.25-.48-7.86-.84a1.6,1.6,0,0,0-1.69.69c-11.69,17.9-33.49,26.74-54.39,25.73a64.3,64.3,0,0,1-30.54-9.3,56.31,56.31,0,0,1-11.67-9.54c-1.69-1.81-3-3.84-4.61-5.72-1-1.16-2.57-.65-3.93-.6-1.6,0-3.2.06-4.8,0-19.1-.54-38.91-9-49.85-25.19a42.19,42.19,0,0,1,.6-49.16C22.49,60.08,42.52,52,61.7,51.74a77.55,77.55,0,0,1,9.87.55c.87.11,1.41-.78,1.5-1.5C75.68,30.07,94.69,16,113.46,10.41c22.15-6.6,48.07-3.87,67.29,9.42,9,6.24,16.45,15.09,19.44,25.79A1.5,1.5,0,0,0,203.08,44.82Z"/><path class="cls-1" d="M113.82,74.61l.61-.69h-2.12c.16.19.31.39.46.59L113.84,72l-1.08.1a1.06,1.06,0,0,0-.58.13,1.34,1.34,0,0,0-.8.79,1.14,1.14,0,0,0-.12.58l0,.4a1.57,1.57,0,0,0,.38.66l.31.23a1.43,1.43,0,0,0,.76.21l1.08-.1.39,0,.36-.16.31-.23a1.24,1.24,0,0,0,.31-.48.86.86,0,0,0,.1-.38.9.9,0,0,0,0-.4.83.83,0,0,0-.1-.38,1.17,1.17,0,0,0-.31-.48c-.16-.2-.31-.4-.47-.59a1.14,1.14,0,0,0-.48-.31,1.08,1.08,0,0,0-.58-.13l-.4,0a1.39,1.39,0,0,0-.66.39c-.21.22-.41.45-.62.69a1.11,1.11,0,0,0-.31.48,1.14,1.14,0,0,0-.12.58,1.11,1.11,0,0,0,.12.57,1.21,1.21,0,0,0,.31.49l.31.23a1.43,1.43,0,0,0,.76.21l.39-.06A1.54,1.54,0,0,0,113.82,74.61Z"/><path class="cls-2" d="M212.88,43.06C206.66,19.33,180.16,1.5,148.4,1.5c-34.31,0-62.49,20.81-65.58,47.39a70.29,70.29,0,0,0-9-.58c-33.74,0-61.09,23.84-61.09,53.24s27.35,53.24,61.09,53.24c1.78,0,3.55-.07,5.29-.2,10.46,15.91,29.62,26.57,51.52,26.57,22.45,0,42-11.2,52.29-27.79a139.67,139.67,0,0,0,20,1.42c49.2,0,89.08-25.09,89.08-56C292,69.92,257.38,46.18,212.88,43.06ZM124,72.71c.2-.25.4-.49.61-.73.16.21.31.42.47.62Z"/><path class="cls-2" d="M214.33,42.66c-5.94-22.3-27.5-36.57-49.12-41-23.46-4.77-50,.46-67.89,17-8.61,8-14.59,18.47-16,30.19l1.5-1.5a70.32,70.32,0,0,0-41.33,7.27C30.6,60.4,21.23,69.42,16,80.63A49,49,0,0,0,13.44,116c3.67,11.69,11.63,21.58,21.64,28.51a68.21,68.21,0,0,0,37.68,11.73c2.12,0,4.23,0,6.34-.19l-1.29-.74c8.93,13.48,23.33,22.67,39.1,25.91a66.64,66.64,0,0,0,48.69-8.54,59.16,59.16,0,0,0,18.6-18.59l-1.69.69a138.72,138.72,0,0,0,59-4c14.8-4.43,29.52-11.8,40-23.42,8.72-9.66,13.69-22.28,11.38-35.34-2.45-13.77-12.4-24.85-23.6-32.52-14.43-9.88-31.78-15.13-49-17.28q-3.69-.45-7.4-.71c-1.92-.14-1.91,2.86,0,3,17.18,1.23,34.52,5.54,49.51,14.2,11.49,6.64,22.36,16.44,26.45,29.45,3.75,11.92.58,24.33-6.93,34.07C273,133.83,259.55,141.44,246,146.22c-17.49,6.17-36.41,8.11-54.84,6.59-2.63-.22-5.25-.51-7.86-.89a1.61,1.61,0,0,0-1.69.69c-8.12,13-21.59,21.94-36.43,25.4a63.75,63.75,0,0,1-46.53-7A56.16,56.16,0,0,1,80.4,153.83a1.51,1.51,0,0,0-1.3-.74c-24.64,1.77-51.4-10.1-61.33-33.87a46.09,46.09,0,0,1-.64-33.7C21.2,74.58,29.4,65.5,39.25,59.4c13-8,28.52-10.89,43.57-9,.87.11,1.41-.78,1.5-1.5,2.53-21,20.81-36.12,40-42.22,22.25-7.07,48.34-4.13,67.49,9.62,9.27,6.65,16.66,16.05,19.63,27.17A1.5,1.5,0,0,0,214.33,42.66Z"/><path class="cls-2" d="M125.07,73.77c.2-.25.4-.49.61-.73h-2.12v0l-.23-.3.45.6,1.3-2.26-1.08.11a1.14,1.14,0,0,0-.58.12,1.21,1.21,0,0,0-.48.31,1.11,1.11,0,0,0-.31.49,1.06,1.06,0,0,0-.13.58l0,.39a1.47,1.47,0,0,0,.39.67l.3.23a1.55,1.55,0,0,0,.76.21l1.08-.11a1.5,1.5,0,0,0,.75-.2,1.4,1.4,0,0,0,.54-.54,1.45,1.45,0,0,0,.21-.76,1.42,1.42,0,0,0-.21-.75l-.7-.93a1.24,1.24,0,0,0-.48-.31,1.27,1.27,0,0,0-.58-.13l-.4.06a1.57,1.57,0,0,0-.66.38l-.61.72a1.11,1.11,0,0,0-.31.49,1.06,1.06,0,0,0-.13.58,1,1,0,0,0,.13.57,1.11,1.11,0,0,0,.31.49l.3.23a1.55,1.55,0,0,0,.76.21l.4-.06A1.57,1.57,0,0,0,125.07,73.77Z"/></g></g></svg>