<svg xmlns="http://www.w3.org/2000/svg" xmlns:xlink="http://www.w3.org/1999/xlink" viewBox="0 0 535.15 347"><defs><style>.cls-1,.cls-6{fill:none;}.cls-2{font-size:126.02px;fill:#0071ba;font-family:GrandHotel-Regular, Grand Hotel;}.cls-3{font-size:131.59px;font-family:JustMeAgainDownHere, Just Me Again Down Here;}.cls-4{clip-path:url(#clip-path);}.cls-5{fill:#fc9232;}.cls-6{stroke:#fc9232;stroke-miterlimit:10;stroke-width:0.57px;}.cls-7{fill:#202020;}</style><clipPath id="clip-path" transform="translate(0 0)"><rect class="cls-1" x="413.62" width="121.52" height="347"/></clipPath></defs><g id="Layer_2" data-name="Layer 2"><g id="Textos_y_botones" data-name="Textos y botones"><text class="cls-2" transform="translate(0 241.05) scale(1.01 1)"><tspan xml:space="preserve">   </tspan><tspan class="cls-3" x="83.26" y="0">N</tspan><tspan x="140.1" y="0">úmeros</tspan></text><g id="globo"><g class="cls-4"><g class="cls-4"><path class="cls-5" d="M498.91,136.3a89.54,89.54,0,0,1-20.08,12.43v4.21h-9.18v-4.48a97.23,97.23,0,0,1-21.81-15c-4.17-3.83-45.07-42.46-31-86.08C423.65,26.27,444.49.28,474.24.29c30,0,50.52,26.5,57.38,47.06,12.1,36.21-12.12,72-32.71,89" transform="translate(0 0)"/><path class="cls-6" d="M498.91,136.3a89.54,89.54,0,0,1-20.08,12.43v4.21h-9.18v-4.48a97.23,97.23,0,0,1-21.81-15c-4.17-3.83-45.07-42.46-31-86.08C423.65,26.27,444.49.28,474.24.29c30,0,50.52,26.5,57.38,47.06C543.72,83.56,519.5,119.36,498.91,136.3Z" transform="translate(0 0)"/><path class="cls-7" d="M443.87,346.9c-.06.11.06.16.28-.06l.05-.28Z" transform="translate(0 0)"/><path class="cls-7" d="M445.68,345.83c.22-.31.42-.72.13-.69-.15.38-.26.38-.41.79-.23.22-.45.31-.46.22-.05.11-.39.28-.45.48a2.58,2.58,0,0,0,1.13-.91c.11-.05.06.06.06.11" transform="translate(0 0)"/><path class="cls-7" d="M464.43,322.1l-.11.17.11-.17" transform="translate(0 0)"/><path class="cls-7" d="M471.56,304.65c0,.14,0,.21,0,.22s0-.24,0-.22" transform="translate(0 0)"/><path class="cls-7" d="M472.56,301.57c0,.07,0,.12-.06.18a.35.35,0,0,0,.06-.18" transform="translate(0 0)"/><path class="cls-7" d="M464.43,322.1l.29-.41c0-.06-.16.2-.29.41" transform="translate(0 0)"/><path class="cls-7" d="M448.44,342.66a1.34,1.34,0,0,0-.16.22l.17-.19a0,0,0,0,1,0,0" transform="translate(0 0)"/><path class="cls-7" d="M460.39,329.38l-.08.13a.76.76,0,0,0,0,.15Z" transform="translate(0 0)"/><path class="cls-7" d="M456.74,334.64c.1-.11,0-.25,0-.33a.58.58,0,0,1-.11.31.17.17,0,0,0,.13,0" transform="translate(0 0)"/><path class="cls-7" d="M449.91,342.12l-.11.14a1.34,1.34,0,0,1,.11-.14" transform="translate(0 0)"/><path class="cls-7" d="M462.79,325.49a.11.11,0,0,0,.08,0s0,0-.08,0" transform="translate(0 0)"/><path class="cls-7" d="M470,158.36l0,0s0-.06,0,0" transform="translate(0 0)"/><path class="cls-7" d="M475.13,153l-.06.08.06.08Z" transform="translate(0 0)"/><path class="cls-7" d="M473.76,295.73v0c0,.16,0,.07,0,0" transform="translate(0 0)"/><path class="cls-7" d="M457.12,244.89c.12.61-.57-.83-.34.07,0-.1.57.66.34-.07" transform="translate(0 0)"/><path class="cls-7" d="M448.57,342.56l.18-.18-.18.18" transform="translate(0 0)"/><path class="cls-7" d="M456.78,245h0l0,.1s0-.06,0-.1" transform="translate(0 0)"/><path class="cls-7" d="M473.14,282a.46.46,0,0,0,0,.15.29.29,0,0,0,0-.15" transform="translate(0 0)"/><path class="cls-7" d="M473.69,292.22l0-.25a1.29,1.29,0,0,0,0,.25" transform="translate(0 0)"/><path class="cls-7" d="M471.67,276.94a1.13,1.13,0,0,0-.09-.35v.06a.61.61,0,0,1,.09.29" transform="translate(0 0)"/><path class="cls-7" d="M469.89,271.75s0,.07,0,.11.05.1.07.16Z" transform="translate(0 0)"/><path class="cls-7" d="M461,172.36a.72.72,0,0,1,.25-.14c-.14,0,.23-.7-.25.14" transform="translate(0 0)"/><path class="cls-7" d="M448.5,342.72a.25.25,0,0,1,.07-.16l-.12.13s0,.05.05,0" transform="translate(0 0)"/><path class="cls-7" d="M470.39,277.09l-.22-.82c.05.23.13.53.22.82" transform="translate(0 0)"/><path class="cls-7" d="M448.77,209.5v-.2a.66.66,0,0,0,0,.2" transform="translate(0 0)"/><path class="cls-7" d="M469.34,273.87a2.07,2.07,0,0,0-.07-.49l-.07-.08Z" transform="translate(0 0)"/><path class="cls-7" d="M461.27,172.22h0Z" transform="translate(0 0)"/><path class="cls-7" d="M463.89,167.1c-.46.7,0,.44,0,.65-.48.86-.38.3-.65.53-.27.56-.34,1.07-.58,1.47-.05,0-.11.08-.09,0-.19.65-1,1.68-1.18,2.44a.22.22,0,0,1-.1.06.28.28,0,0,1,.32,0c-.19.32-.24.66-.43.71a.58.58,0,0,0,.1-.35l-.15.37c-.35.2.21-.5.09-.57-.17.35-.33.72-.48,1.09a5.93,5.93,0,0,1-.45.94c-.23,0,.57-1.23.06-.63.16-.25.32-.51.5-.75-.62.44.29-.47-.31-.08-.63,1-.54,1.22-1.15,2.24,0,.28.18,0,.15.28-.61,1.57-1.05.94-1.4,2.16a1.73,1.73,0,0,1-.36,1.3l-.07-.37c-.51,1,0,.73-.64,1.75,0-.23.32-.84.22-.7-.48.63-.12.55-.37,1.1l-.23,0c-.25.56-.48,1.16-.72,1.77s-.44,1.27-.68,1.9c0-.09,0-.33-.17-.06-.28.81-.63,1.65-1,2.47s-.7,1.67-1,2.43l-.05.65c-.05.13-.16.23-.14.07-.28.58.09.06,0,.37s-.26.43-.23.19c-.14.56-.29,1.36-.49,2.15a12.23,12.23,0,0,1-.7,2.12l0-.23c-.35.87,0,1.1-.32,1.89v-.16c-.28,1-.52,2-.76,3a18.07,18.07,0,0,1-.67,2.64,2.85,2.85,0,0,1-.13,1.12c-.08.47-.15.93,0,1a16.6,16.6,0,0,0-.68,2.39c-.06.43.15.67.13,1.2h-.17l.11.74-.25.37v.51c0-.2.12-.42.17-.39a5.27,5.27,0,0,1-.35,1.93l.07,1.87c-.07-.05-.08-.36-.12-.61.14,1-.2.18-.06,1.1,0-.13.11.06.14.08a11.44,11.44,0,0,0-.06,2.26l-.12-.14a20.31,20.31,0,0,0,.09,2.17c0,.38.05.76.08,1.14s.07.77.11,1.16c0-.56.23-.45.29,0l-.17.19c.14.29,0-.47.22.11,0,.58-.17.41-.27.08l.13.7c-.05.05-.09-.11-.17-.15.15.28-.09,1.24.19,1.63l-.05,0c.22,1.55.34,2.24.59,3.48.17,0,.22.49.42.84a24,24,0,0,0,.48,3c.26.75.19.19.36.51-.14.1.17,1.17-.09.64a30.29,30.29,0,0,0,1.07,3.24c0-.19,0-.4,0-.31.12.29.15.69.07.67l0-.08a8.69,8.69,0,0,1,.48,1.44c.14.5.28,1,.41,1.53a9.16,9.16,0,0,0,.95,2.65l0-.08c.24.47.47.94.72,1.4.26.68-.27-.35-.15.17.88,1.47,1,2.49,1.74,3.69,0,1.17,1.64,3.45,2,4.87l.05-.12c.26.29.15.43.25.69.06-.07-.09-.4.06-.22,1.52,2.79,2.86,5.91,4.26,8.83.52,1.07.78.36,1.24,1.8l-.36-.29c1.3,2,2.18,4.37,3.34,6.41-.1-.11-.15-.09-.25-.3a4,4,0,0,0,.85,1.63c.14.33-.06.12,0,.34.13.48.64,1.07.62,1.37,0,.05-.09-.11-.14-.19.19.27.56,1.39.59,1,.27.84.67,1.54.83,2.22.34.36.41,1.44.7,1.49-.27,0,.3,1.51.55,2-.12-.15.06.48-.1.31.18.6.38,1.13.48,1,0,1.2.81,2.2.57,2.93.23.9.49,1.76.66,2.62s.35,1.7.44,2.53c-.23,0-.25-1.84-.51-1.73.16.78.34,1.39.43,2a10.78,10.78,0,0,1,.22,2c0,.41-.11-.23-.17-.37.09.79.09,1.56.11,2.31s0,1.47,0,2.18a1.12,1.12,0,0,1-.06-.31c0,.28-.06.65.06.62l0-.27c.18-.44.33,1.13.38,1.19-.29-.5-.22,1.39-.57.6,0,.19,0,.42.12.39-.05.27-.1.35-.16.06a11.94,11.94,0,0,1,0,1.57c-.06,0,0-.2-.11-.3a4.81,4.81,0,0,1-.08,1.69c0-.05-.09,0-.05-.19a19.39,19.39,0,0,1-.51,3.66c-.14-.47-.19.47-.42.49,0,.26-.07.52-.12.77l.18-.28a16.35,16.35,0,0,1-.4,1.84l.05-.52c-.09.42-.2.83-.31,1.25l.28-.68c-.09.7.28,0,0,.87a7.39,7.39,0,0,1-.42,1h0a3.72,3.72,0,0,1-.28,1.16c-.11.11-.2-.17-.27-.1.08.37-.45,1.53-.41,2,0-.15-.1-.2-.14-.16l.05.31c-.15.29-.19.32-.26.25-.34.88.37-.2-.13.83,0-.09,0-.06,0-.24-.22.52-.39,1.05-.56,1.56a12,12,0,0,1-.58,1.48c-.31.21.29-.87,0-.61a41.37,41.37,0,0,1-1.59,4.3l.13-.24c.2.31-.57.93-.77,1.65.06-.17-.05-.28,0-.22-.46.88-.81,1.87-1.41,3.27l0-.21c-.33.5-.76,1.35-1.09,1.9,0,.2-.2.52,0,.38-1.34,1.49-1.63,3.38-2.88,4.66.11-.18.2-.45.11-.31l-.72,1.29c.17,0,.17-.12.42-.33a2.61,2.61,0,0,1-.41.89c.3-.6-.18-.11-.4.09.06,0,0,.09.09.09-.62.52.15.26-.57,1l0-.08a8.35,8.35,0,0,1-.59,1c-.23.05.18-.39.09-.48-.33.49-.43,1.14-.88,1.48.11-.23.33-.52.44-.76a3.3,3.3,0,0,0-.77.8l0,0-.66.77.19-.18c-.12.84-.85,1.26-1.27,2.22.41-.93,0-.22-.11-.39-.19.18-.48.45-.45.33-.19.46-.58.56-.85,1.2-.06,0-.33.39-.37.21-.36.51.17-.05.19,0-.46.86-1.63,1.56-2.36,2.75-.73.94-.73,1.23-1.44,2.09-.33.2.07-.37.07-.37a7,7,0,0,0-1.15,1.15c.05-.12-.06-.06-.23,0-.31.33-.07.37-.56.72a1.74,1.74,0,0,1,.17-.48c-.35.41-.66.85-1,1.26-.17,0,.15-.33.24-.51a7.06,7.06,0,0,0-1.16,1.4l.33-.23c-.16.16-.17,0-.07-.15.31-.45.6-.48.67-.46l-.27.29c.52,0,1.13-1.12,1.7-1.66l-.07.4.45-.71c.16-.08.34-.07.09.24.49-.32.3-.42.73-.68.06,0,.05,0,0,.05l.34-.45c0,.11.18.05-.08.27.81-.62,1-1.29,1.38-1.44l-.05.07c.88-1.08,0-.22.51-1.13l.8-.23-.05-.22c.1-.1.3-.31.32-.22.26-.49-.12,0,0-.29.58-.41,1.17-1.5,1.48-1.44.06-.28-.5.44-.1-.18.37,0,.5-.7,1-1.1,0,.24-.44.66.06.25,0-.45.81-.93,1.09-1.39-.14-.14.63-1,1.1-1.74a23.82,23.82,0,0,0,1.6-1.95v0c-.08-.25.42-1,.73-1.49.09.09.07.21-.07.52l.33-.49a1.73,1.73,0,0,1,.26-.66l.06.21a23.16,23.16,0,0,1,1.28-2.24c-.09-.13-.75.47-.3-.49.09,0,.23,0,.11.3a1.54,1.54,0,0,1,.24-.45l-.11.43c.29-.37,0-.26.23-.57.09.06.21-.19.26-.1s-.21.25-.24.39a4.25,4.25,0,0,1,.69-.84c-.07,0-.13-.08,0-.35.37-.69.25-.17.52-.54,0-.2.34-.6.2-.69a.5.5,0,0,1,.28-.25c.13-.4.87-1.68.5-1.37l-.06.09,0-.06h0c.47-1.25,1.35-2.41,1.84-3.63l0,0a19.94,19.94,0,0,0,.82-2.17c.09-.21.31-.45.33-.34a6.22,6.22,0,0,1,.6-1.41c-.15.59.16-.16-.18.6a5,5,0,0,0,.68-1.66c0,.32.39-.48.49-.84l-.3.47c.13-.4.28-.73.43-1.08l.1.26c.8-1.41.64-2.84,1.4-3.86,0-.44-.37.79-.4.38.27-.68.77-1.32.84-1.55.4-.93,0-1,.39-2-.1.11-.31.18-.16-.59s.53-.79.45-.33c0,.17-.08.25-.1.24-.05.23-.11.54,0,.28l0-.11c.17-.33.43-1.31.47-1.05.08-.56,0-.26-.18.13.33-.89.38-1.43.66-2.37-.07.15-.18.27-.14.12.4-1.38,0-.64.19-1.6.21-.51.2.25.31-.73.18-.57.2-.09.21.16a10.48,10.48,0,0,1,.46-2.14l0,.48a7.36,7.36,0,0,1,.09-.75l-.18.25c.07-.27.11-.5.16-.49,0-.29-.26.18-.29-.39.13-.35,0-1.12.24-1.22-.17,1.14.19-.11.13.87a3.09,3.09,0,0,1,.07-.69s0,0,0,.12c.27-1.1-.15-.53,0-1.68.09.16.23-.25.22-.44-.05.47-.18.21-.24-.22a5.34,5.34,0,0,0,0-1.18l-.05.44a3.06,3.06,0,0,1-.09-1c.08,0,0,.46.08.28a2.08,2.08,0,0,1,.05-1,3.48,3.48,0,0,0,0-1.12c.06-.37.19,0,.23-.37-.16-.88.14-1-.05-1.9-.12.28-.08.32-.27-.32.07.5.16,1,.19,1.52a8.64,8.64,0,0,0-.25-1,9.9,9.9,0,0,1,.12,1.25c-.12-.47-.08-.42-.19-.19.21-.65-.2-1.24-.11-2h.34c.08-1.12-.37-1.93-.48-3.35V284c-.16-.17-.13-.87-.28-1.32.12,0,.1-.26.14-.47-.08,0-.19-1-.44-1.12,0-.21,0-.43,0-.65-.22-1.14-.62-1.21-.85-2.28.2.29.16-.22.42.48-.08-.37-.16-.69-.24-.68,0-.22-.43-.94-.42-1.29a1.11,1.11,0,0,1-.33-.55c0-.05.05,0,.05,0s-.26-.59-.27-.21a7.06,7.06,0,0,0-.54-2.07,8.57,8.57,0,0,1-.59-1.94c-.31-.75-.73-1.62-1-2.29.05,0,.06,0,.1.11-.29-1-.53-.45-.89-1.54-.07-.6.34.52.25.16.28-.3-.6-1.25-.73-2l.1.16a23.87,23.87,0,0,0-1.13-2.12s.05,0,.05,0a16.57,16.57,0,0,1-1.52-2.39c.26.19.26.34.31.11-.21-.36-.16.22-.57-.5-.05-.27-.26-.84-.15-1l.36.69c0-.45-.46-.89-.62-1.28h.1c-.57-1.05-.78-1-1.35-2.11V258c-.52-.52-.16-.58-.63-1.12l.11-.29c-.27-.39-.95-1.34-1.36-2.06a17.27,17.27,0,0,1,1.25,1.65,8.17,8.17,0,0,0-.94-1.53,2,2,0,0,1,.31.51,7.85,7.85,0,0,1-1.25-1.85c.46,0-1-2.17-1-2.91a48.08,48.08,0,0,1-2.17-4.58c0,.74-.24-.49-.51-.25a2.14,2.14,0,0,1-.25-.58l-.36-1.3c0-.32.25.35.3.28-.36-.88,0-.42-.19-1-.07.17-.3-.23-.46-.75l.14.77c-.68-1.16-.18-1.18-.86-2.35l.26.36a17.69,17.69,0,0,0-1.42-2.9c0-.13,0-.31.16,0-.25-.78-.64-1.61-1-2.42a11.66,11.66,0,0,1-.71-2.22l.12.09a2,2,0,0,1-.33-.86s.11.1.08,0a5,5,0,0,1-.42-1.15l.19.31c-.34-1.57-.83-2.32-1.2-3.63.23,0,.08-1.3,0-1.92h0c-.16-.91-.35-1.68-.51-2.44s-.38-1.49-.51-2.35a12.78,12.78,0,0,0,0-2.44c-.05-1-.09-2.06-.06-2.92,0,.27-.2,0-.22-.34s-.18-1.12.06-1.06v.15A4.26,4.26,0,0,0,450,213l-.29-.11a10.81,10.81,0,0,0,.27-3,7.12,7.12,0,0,1,.32-2.38c0-.41,0-.92,0-1.33l.16,0c.21-1.12.31-1.67.47-3.07l.07.31c.14-.78-.28-1.06-.15-1.79l.28-.17c.13-.68.31-1.35.48-2a10.91,10.91,0,0,0,.41-2s.09.09,0,.31c.17-.63.76-2.4.4-2.26.21.05.43-1.36.56-2.1l.12.16a3.92,3.92,0,0,1,.14-1.57c.08-.19.17-.13.05.12.28-.64,0-.57.38-1.34v.33a2.1,2.1,0,0,0,.21-1,2.87,2.87,0,0,1,.66-1.32,1.54,1.54,0,0,1,.16-.92c.07,0,.05.12,0,.2a24.74,24.74,0,0,1,.94-2.43.2.2,0,0,0,.14-.09c-.37.87-.67,1.58-.65,1.51s.45-.65.41,0a10.1,10.1,0,0,1,.66-2.34s.05-.06.08-.07v.08a1.88,1.88,0,0,0,.16-.45c.11-.21.19-.35.28-.56.14,0,.4-.78.58-1.12-.16,0,.07-.48-.25-.11,0-.05,0,.07-.11.3a.82.82,0,0,0-.06.16v0c-.11.23-.22.54-.37.88a1.88,1.88,0,0,1,.36-1c0-.22,0-.46,0-.6.43-.38,1-1.24,1.16-1.31a21.58,21.58,0,0,0,1.21-3.31c.12-.31.25-.3.35-.39a4.64,4.64,0,0,0-.18.5c.24-.62.9-1.76.78-2,.48-.7,0,.51.46-.53v.17a7.69,7.69,0,0,0,.79-1.36c.22-.44.4-.88.59-1.32a10,10,0,0,1,1.61-2.77c-.11.14-.17.2-.22.22.79-1.21,1.58-2.46,2.35-3.72a24.89,24.89,0,0,1,2.51-3.58,3.2,3.2,0,0,0,.65-1.23l.24,0,.33-.8c.58-1.05,1.5-1.46,2.21-2.82l-.21.09c.34-.42,1-1.41,1-1.26a.48.48,0,0,1,.19-.34l.08,0,.69-1.15c.68-.78.19.34,1.12-.84.31-.47.76-1.43.59-1.3s-.4.42-.48.38l.27-.44c-.15-.24-.12-.72-1,.16l-.41.81-.27.14.44-.59a1.7,1.7,0,0,0-.55.82.65.65,0,0,0-.34.2l-.32.85c-.15,0,.07-.44-.33,0-.15.39.42-.17.08.41-.36.26-.36.11-.58.56-.1,0-.07-.09,0-.27a8.57,8.57,0,0,0-.71,1.21,3.76,3.76,0,0,0-.6.68c-.18.25-.34.45-.43.36a4.82,4.82,0,0,1-.52,1.09c.19-.78-.88,1.22-1,.88a17.21,17.21,0,0,1-1.48,2.56.73.73,0,0,1,.1-.23,9.22,9.22,0,0,1-.72.79c.15.18-.27.93-.41,1.39-.54.44,0-.49-.28-.43.17.07-.48,1.08-.23,1-.39.36-.3.34-.6.46.19.22-.22.42-.3.87-.52.55-.33,0-.7.75-.28.28,0-.38,0-.38m-8.58,17.37h0l.14-.37-.14.37m-.62,1.51.27-.65c.08,0,.11,0,0,.19,0-.09-.18.25-.31.46m2.34-2.73c-.08.24-.14.31-.18.33l.15-.42v0a.25.25,0,0,1,0,.13" transform="translate(0 0)"/><path class="cls-7" d="M457,182.74a.93.93,0,0,1,0-.1,1.47,1.47,0,0,1-.1.13s0,.07,0,.1l.06-.13" transform="translate(0 0)"/><path class="cls-7" d="M464.3,322.29l0,0-.06.05,0,0" transform="translate(0 0)"/><polygon class="cls-7" points="448.86 207.68 448.9 207.68 448.88 207.53 448.86 207.68"/><path class="cls-7" d="M459.3,329.7l-.1.08.1-.08" transform="translate(0 0)"/><path class="cls-7" d="M457.09,332.84l-.37.4.37-.4" transform="translate(0 0)"/><path class="cls-7" d="M455.25,335.15s0,.06,0,.08h0Z" transform="translate(0 0)"/><path class="cls-7" d="M472.6,292.38v-.11c0-.26,0-.09,0,.11" transform="translate(0 0)"/><path class="cls-7" d="M470.5,306.1a3.44,3.44,0,0,1,.05-.45c-.08.23-.14.41-.05.45" transform="translate(0 0)"/><path class="cls-7" d="M470.41,277.18h0l0-.1Z" transform="translate(0 0)"/><path class="cls-7" d="M470.73,305a2.43,2.43,0,0,0-.18.63,3.48,3.48,0,0,0,.18-.63" transform="translate(0 0)"/><path class="cls-7" d="M446.52,344.45l-.11.09a0,0,0,0,1,0,0Z" transform="translate(0 0)"/><path class="cls-7" d="M446.41,344.57l-.1.12c.05-.05.1-.09.1-.12" transform="translate(0 0)"/><path class="cls-7" d="M446.09,344.94l.22-.25c-.09.08-.2.17-.22.25" transform="translate(0 0)"/><path class="cls-7" d="M449.38,341.8v-.07a.15.15,0,0,0,0,.07" transform="translate(0 0)"/><path class="cls-7" d="M450.2,340.94a7.22,7.22,0,0,0-.83.73v.06c.07-.19.71-.52.83-.79" transform="translate(0 0)"/><path class="cls-7" d="M454.06,337.73l-.69.73c.16-.09.38-.21.09.14,1-.84-.27.11.6-.87" transform="translate(0 0)"/><path class="cls-7" d="M456.09,335.37c-.31.44.07.05.08.09.17-.31.2-.38-.08-.09" transform="translate(0 0)"/><path class="cls-7" d="M467.45,316l.11.11c.15-.39-.05,0-.11-.11" transform="translate(0 0)"/><polygon class="cls-7" points="468.37 311.78 468.14 312.12 468.19 312.35 468.37 311.78"/><polygon class="cls-7" points="470.23 309.77 470.19 309.95 470.37 309.27 470.23 309.77"/><path class="cls-7" d="M470.37,272.61l-.12.18c.13.26.34.24.12-.18" transform="translate(0 0)"/><path class="cls-7" d="M463.35,257.91a1.55,1.55,0,0,0-.37-.84c.16.33.26.69.37.84" transform="translate(0 0)"/><polygon class="cls-7" points="450.01 212.07 450.06 212.4 450.04 211.79 450.01 212.07"/></g></g></g></g></g></svg>