<svg xmlns="http://www.w3.org/2000/svg" viewBox="0 0 981.11 242.34"><defs><style>.cls-1{fill:#0071ba;}</style></defs><g id="Layer_2" data-name="Layer 2"><g id="Textos_y_botones" data-name="Textos y botones"><path class="cls-1" d="M11.51,13.73h30.7v7.61H20.56V34.41H38.91V42H20.56v15.1H43v7.61H11.51Z" transform="translate(-7.05 -12.79)"/><path class="cls-1" d="M50,58.2,55.25,52c3.66,3.48,8.55,5.82,13.3,5.82,5.74,0,8.89-2.6,8.89-6.58,0-4.2-3.29-5.54-7.93-7.5l-7-3c-5-2.09-10.31-6.07-10.31-13.53,0-8.12,7.17-14.38,17.13-14.38A22.35,22.35,0,0,1,85.08,19.3L80.43,25a16.41,16.41,0,0,0-11.07-4.39c-4.84,0-8,2.27-8,6,0,4,3.88,5.49,8.11,7.23l6.88,2.88c6.07,2.53,10.31,6.37,10.31,13.76,0,8.27-6.86,15.17-18.31,15.17A26.28,26.28,0,0,1,50,58.2Z" transform="translate(-7.05 -12.79)"/><path class="cls-1" d="M93.3,39.4c0-16.69,10.46-26.61,23.37-26.61a20.3,20.3,0,0,1,14.7,6.46l-4.84,5.83c-2.62-2.62-5.68-4.43-9.67-4.43-8.3,0-14.26,7-14.26,18.47,0,11.64,5.49,18.69,14,18.69,4.53,0,8-2.09,10.89-5.24l4.84,5.68a20.35,20.35,0,0,1-16.07,7.43C103.47,65.68,93.3,56.28,93.3,39.4Z" transform="translate(-7.05 -12.79)"/><path class="cls-1" d="M139.42,42.37V13.73h9V43.06c0,11.1,4.15,14.75,10.33,14.75s10.55-3.65,10.55-14.75V13.73H178V42.37c0,16.75-7.42,23.31-19.25,23.31S139.42,59.12,139.42,42.37Z" transform="translate(-7.05 -12.79)"/><path class="cls-1" d="M188.07,39.4c0-16.69,10.45-26.61,23.37-26.61a20.3,20.3,0,0,1,14.7,6.46l-4.84,5.83c-2.62-2.62-5.68-4.43-9.67-4.43-8.3,0-14.26,7-14.26,18.47,0,11.64,5.49,18.69,14,18.69,4.53,0,8-2.09,10.89-5.24l4.84,5.68a20.35,20.35,0,0,1-16.07,7.43C198.24,65.68,188.07,56.28,188.07,39.4Z" transform="translate(-7.05 -12.79)"/><path class="cls-1" d="M235.68,13.73h9v20.5h20.63V13.73h9v51h-9V42.12H244.73V64.74h-9Z" transform="translate(-7.05 -12.79)"/><path class="cls-1" d="M297.38,13.73H308l16.63,51H315L307.27,37.6c-1.62-5.4-3.12-11.22-4.62-16.82h-.31c-1.4,5.65-2.9,11.42-4.52,16.82L290,64.74h-9.24Zm-6.8,30.09h24v7.1h-24Z" transform="translate(-7.05 -12.79)"/><path class="cls-1" d="M7.05,92.73H32v2.18H9.31v20.75h19v2.18h-19V142H32.73v2.18H7.05Z" transform="translate(-7.05 -12.79)"/><path class="cls-1" d="M38.38,140l1.41-1.88c2.82,2.66,5.92,4.84,11,4.84,5.64,0,8.61-3.74,8.61-8,0-5-4.52-7.17-8.47-8.73-5.22-2-11-4.21-11-10.61,0-5.15,3.67-9.67,10.58-9.67a14.5,14.5,0,0,1,9.31,3.74l-1.27,1.87c-2.26-1.87-4.66-3.43-8.18-3.43-5.65,0-8.19,3.67-8.19,7.33,0,4.53,4.1,6.24,8.19,8,5.36,2.26,11.28,4.06,11.28,11.39,0,5.46-3.95,10.3-11,10.3A17.9,17.9,0,0,1,38.38,140Z" transform="translate(-7.05 -12.79)"/><path class="cls-1" d="M68,125.64C68,113.16,75.06,106,83.1,106c4.66,0,7.62,2.34,9.88,4.68l-1.42,1.71c-2.25-2.34-4.93-4.21-8.46-4.21-7.2,0-12.84,7.18-12.84,17.47S75.34,143,83.1,143a13.35,13.35,0,0,0,9.45-4.52l1.27,1.71c-2.82,2.81-6.35,5-10.72,5C74.49,145.15,68,138,68,125.64Z" transform="translate(-7.05 -12.79)"/><path class="cls-1" d="M102.43,106.92h1.83l.28,7h.15c2.25-4.52,5.5-8,9.59-8a6.13,6.13,0,0,1,3.24.78L117,109a6.33,6.33,0,0,0-3-.62c-3.11,0-6.77,2.65-9.46,10v25.9h-2.11Z" transform="translate(-7.05 -12.79)"/><path class="cls-1" d="M122.75,94.76a2.41,2.41,0,1,1,4.79,0,2.41,2.41,0,1,1-4.79,0ZM124,106.92h2.11v37.29H124Z" transform="translate(-7.05 -12.79)"/><path class="cls-1" d="M141.93,140.47h-.14l-.28,3.74h-1.84V87.89h2.12v16.69l-.14,7.49c3.53-3.27,7.76-6.08,12-6.08,9.17,0,13.55,7.49,13.55,19,0,12.64-6.92,20.13-15,20.13C149,145.15,145.18,143.27,141.93,140.47Zm23-15.45c0-9.52-3.11-16.85-11.43-16.85-3.53,0-7.48,2.34-11.71,6.55v23.09c4,3.75,7.9,5.15,10.58,5.15C159.71,143,164.93,135.47,164.93,125Z" transform="translate(-7.05 -12.79)"/><path class="cls-1" d="M174.66,125.64c0-12.16,7.06-19.65,14.54-19.65,7.76,0,12.69,6.08,12.69,17.16a15.77,15.77,0,0,1-.14,2.49H176.92c0,10,5.22,17.32,13.26,17.32a14.4,14.4,0,0,0,9.31-3.43l1,2c-2.54,1.71-5.36,3.59-10.44,3.59C181.58,145.15,174.66,137.81,174.66,125.64Zm25.12-2.18c0-10.3-4.24-15.29-10.58-15.29-6.07,0-11.57,5.77-12.28,15.29Z" transform="translate(-7.05 -12.79)"/><path class="cls-1" d="M224.89,131v-24H227v23.72c0,8.27,2.4,12.32,8.18,12.32,4.23,0,7.34-2.49,11.57-8.11V106.92h2.12v37.29H247l-.28-6.4h-.14c-3.39,4.37-6.91,7.34-11.57,7.34C228.14,145.15,224.89,140.62,224.89,131Z" transform="translate(-7.05 -12.79)"/><path class="cls-1" d="M262.42,106.92h1.83l.29,5.93h.14c3.52-3.9,7.05-6.86,11.71-6.86,6.91,0,10.15,4.52,10.15,14.19v24h-2.11V120.5c0-8.27-2.4-12.33-8.18-12.33-4.24,0-7.34,2.5-11.71,7.49v28.55h-2.12Z" transform="translate(-7.05 -12.79)"/><path class="cls-1" d="M313.63,106.92h1.84l.28,5.93h.14c3.53-3.9,7.05-6.86,11.71-6.86,6.91,0,10.16,4.52,10.16,14.19v24h-2.12V120.5c0-8.27-2.4-12.33-8.18-12.33-4.23,0-7.34,2.5-11.71,7.49v28.55h-2.12Z" transform="translate(-7.05 -12.79)"/><path class="cls-1" d="M350.17,131v-24h2.12v23.72c0,8.27,2.4,12.32,8.18,12.32,4.24,0,7.34-2.49,11.57-8.11V106.92h2.12v37.29h-1.84l-.28-6.4h-.14c-3.39,4.37-6.91,7.34-11.57,7.34C353.42,145.15,350.17,140.62,350.17,131Zm8.61-32.76,9.31-12,1.69,1.56-9.73,11.7Z" transform="translate(-7.05 -12.79)"/><path class="cls-1" d="M387.7,106.92h1.84l.28,5.93H390c3.1-3.9,7.05-6.86,10.72-6.86,5.5,0,8.19,3.12,9.31,7.8,3.95-4.84,7.76-7.8,11.57-7.8,6.63,0,10,4.52,10,14.19v24h-2.12V120.5c0-8.27-2.54-12.33-8-12.33-3.38,0-6.77,2.5-10.72,7.49v28.55h-2.12V120.5c0-8.27-2.54-12.33-8-12.33-3.24,0-6.77,2.5-10.72,7.49v28.55H387.7Z" transform="translate(-7.05 -12.79)"/><path class="cls-1" d="M441.6,125.64c0-12.16,7-19.65,14.53-19.65,7.76,0,12.7,6.08,12.7,17.16a15.77,15.77,0,0,1-.14,2.49H443.86c0,10,5.22,17.32,13.26,17.32a14.42,14.42,0,0,0,9.31-3.43l1,2c-2.54,1.71-5.36,3.59-10.44,3.59C448.51,145.15,441.6,137.81,441.6,125.64Zm25.11-2.18c0-10.3-4.23-15.29-10.58-15.29-6.07,0-11.57,5.77-12.27,15.29Z" transform="translate(-7.05 -12.79)"/><path class="cls-1" d="M478.28,106.92h1.83l.29,7h.14c2.26-4.52,5.5-8,9.59-8a6.19,6.19,0,0,1,3.25.78l-.57,2.18a6.33,6.33,0,0,0-3-.62c-3.1,0-6.77,2.65-9.45,10v25.9h-2.12Z" transform="translate(-7.05 -12.79)"/><path class="cls-1" d="M496.2,125.64c0-12.48,6.91-19.65,14.95-19.65s15,7.17,15,19.65c0,12.33-6.91,19.51-15,19.51S496.2,138,496.2,125.64Zm27.65,0c0-10.29-5.5-17.47-12.7-17.47s-12.69,7.18-12.69,17.47S504,143,511.15,143,523.85,135.94,523.85,125.64Z" transform="translate(-7.05 -12.79)"/><path class="cls-1" d="M534,142.18c0-2,1.27-3.12,2.54-3.12s2.54,1.09,2.54,3.12a2.57,2.57,0,1,1-5.08,0Z" transform="translate(-7.05 -12.79)"/><path class="cls-1" d="M7.05,186.33H18.2c10.58,0,16.65,3.74,16.65,14,0,9.83-5.93,14.66-16.37,14.66H9.31v22.78H7.05Zm10.59,26.52c10,0,14.81-3.59,14.81-12.48,0-9.05-4.94-11.86-15.1-11.86h-8v24.34Z" transform="translate(-7.05 -12.79)"/><path class="cls-1" d="M44.44,224.55v-24h2.12v23.72c0,8.27,2.4,12.32,8.18,12.32,4.23,0,7.34-2.49,11.57-8.11V200.52h2.12v37.29H66.59l-.28-6.4h-.14c-3.39,4.37-6.91,7.34-11.57,7.34C47.69,238.75,44.44,234.22,44.44,224.55Z" transform="translate(-7.05 -12.79)"/><path class="cls-1" d="M82,233.75V181.49h2.12v52.73c0,1.56.56,2.34,1.41,2.34a5.18,5.18,0,0,0,1.27-.15l.42,2a5.57,5.57,0,0,1-1.83.32C83.24,238.75,82,237.34,82,233.75Z" transform="translate(-7.05 -12.79)"/><path class="cls-1" d="M93.82,233.6l1.41-1.87c2.82,2.65,5.93,4.83,11,4.83,5.64,0,8.6-3.74,8.6-7.95,0-5-4.51-7.18-8.46-8.74-5.22-2-11-4.21-11-10.61,0-5.15,3.67-9.67,10.59-9.67a14.5,14.5,0,0,1,9.31,3.74L114,205.2c-2.26-1.87-4.66-3.43-8.19-3.43-5.64,0-8.18,3.67-8.18,7.33,0,4.53,4.09,6.24,8.18,8,5.36,2.26,11.29,4.06,11.29,11.39,0,5.46-3.95,10.3-11,10.3A17.93,17.93,0,0,1,93.82,233.6Z" transform="translate(-7.05 -12.79)"/><path class="cls-1" d="M123.87,228.68c0-8.34,6.92-12.24,22.15-14.12.14-6.08-1.27-12.79-8.32-12.79-4.8,0-8.89,2.65-11,4.53l-1.12-1.88c2.11-1.71,6.77-4.83,12.27-4.83,7.9,0,10.3,6.55,10.3,14v24.18H146.3l-.28-5h-.14c-3.53,3.12-7.76,5.93-12.27,5.93C128.39,238.75,123.87,235.78,123.87,228.68ZM146,230.17V216.59c-14.81,1.87-19.89,5.62-19.89,12,0,5.77,3.53,7.95,7.62,7.95S141.51,234.38,146,230.17Z" transform="translate(-7.05 -12.79)"/><path class="cls-1" d="M171.84,219.25c0-12.17,7.06-19.66,14.53-19.66,7.76,0,12.7,6.08,12.7,17.16a16,16,0,0,1-.14,2.5H174.1c0,10,5.22,17.31,13.26,17.31a14.42,14.42,0,0,0,9.31-3.43l1,2c-2.54,1.71-5.36,3.59-10.44,3.59C178.75,238.75,171.84,231.41,171.84,219.25ZM197,217.06c0-10.3-4.23-15.29-10.58-15.29-6.06,0-11.57,5.77-12.27,15.29Z" transform="translate(-7.05 -12.79)"/><path class="cls-1" d="M208.52,200.52h1.84l.28,5.93h.14c3.53-3.9,7.06-6.86,11.71-6.86,6.91,0,10.16,4.52,10.16,14.19v24h-2.12V214.1c0-8.27-2.4-12.33-8.18-12.33-4.23,0-7.34,2.5-11.71,7.49v28.55h-2.12Z" transform="translate(-7.05 -12.79)"/><path class="cls-1" d="M256.78,219.25c0-12.17,7.05-19.66,14.53-19.66,7.76,0,12.69,6.08,12.69,17.16a16,16,0,0,1-.14,2.5H259c0,10,5.22,17.31,13.26,17.31a14.45,14.45,0,0,0,9.32-3.43l1,2c-2.54,1.71-5.36,3.59-10.44,3.59C263.69,238.75,256.78,231.41,256.78,219.25Zm25.11-2.19c0-10.3-4.23-15.29-10.58-15.29-6.07,0-11.57,5.77-12.28,15.29Z" transform="translate(-7.05 -12.79)"/><path class="cls-1" d="M293.46,233.75V181.49h2.11v52.73c0,1.56.57,2.34,1.41,2.34a5.09,5.09,0,0,0,1.27-.15l.43,2a5.64,5.64,0,0,1-1.84.32C294.73,238.75,293.46,237.34,293.46,233.75Z" transform="translate(-7.05 -12.79)"/><path class="cls-1" d="M321.25,228.68c0-8.34,6.92-12.24,22.15-14.12.14-6.08-1.27-12.79-8.32-12.79-4.8,0-8.89,2.65-11,4.53l-1.13-1.88c2.12-1.71,6.78-4.83,12.28-4.83,7.9,0,10.3,6.55,10.3,14v24.18h-1.84l-.28-5h-.14c-3.53,3.12-7.76,5.93-12.27,5.93C325.77,238.75,321.25,235.78,321.25,228.68Zm22.15,1.49V216.59c-14.81,1.87-19.89,5.62-19.89,12,0,5.77,3.53,7.95,7.62,7.95S338.89,234.38,343.4,230.17Z" transform="translate(-7.05 -12.79)"/><path class="cls-1" d="M358.08,233.75V181.49h2.11v52.73c0,1.56.57,2.34,1.41,2.34a5.13,5.13,0,0,0,1.27-.15l.43,2a5.64,5.64,0,0,1-1.84.32C359.34,238.75,358.08,237.34,358.08,233.75Z" transform="translate(-7.05 -12.79)"/><path class="cls-1" d="M375,228V202.71h-5.37v-1.87l5.37-.32.28-10.92h1.83v10.92h10v2.19h-10v25.58c0,4.84,1,8.27,5.93,8.27a11.47,11.47,0,0,0,4.37-1.25l.71,2a18.07,18.07,0,0,1-5.22,1.41C376.7,238.75,375,234.38,375,228Z" transform="translate(-7.05 -12.79)"/><path class="cls-1" d="M391.51,228.68c0-8.34,6.92-12.24,22.15-14.12.14-6.08-1.27-12.79-8.32-12.79-4.8,0-8.89,2.65-11,4.53l-1.12-1.88c2.11-1.71,6.77-4.83,12.27-4.83,7.9,0,10.3,6.55,10.3,14v24.18h-1.84l-.28-5h-.14c-3.53,3.12-7.76,5.93-12.27,5.93C396,238.75,391.51,235.78,391.51,228.68Zm22.15,1.49V216.59c-14.81,1.87-19.89,5.62-19.89,12,0,5.77,3.53,7.95,7.62,7.95S409.15,234.38,413.66,230.17Z" transform="translate(-7.05 -12.79)"/><path class="cls-1" d="M422.41,200.52h2.4l8,24.19c1.13,3.58,2.4,7.33,3.53,10.6h.28c1.13-3.27,2.4-7,3.53-10.6l8-24.19h2.26l-12.7,37.29h-2.54Z" transform="translate(-7.05 -12.79)"/><path class="cls-1" d="M455.14,219.25c0-12.49,6.92-19.66,15-19.66s14.95,7.17,14.95,19.66c0,12.32-6.91,19.5-14.95,19.5S455.14,231.57,455.14,219.25Zm27.65,0c0-10.3-5.5-17.48-12.69-17.48s-12.7,7.18-12.7,17.48,5.5,17.31,12.7,17.31S482.79,229.54,482.79,219.25Z" transform="translate(-7.05 -12.79)"/><path class="cls-1" d="M490.7,236.56l20.74-33.85H493v-2.19h21.31v1.25l-20.74,33.86H515v2.18H490.7Z" transform="translate(-7.05 -12.79)"/><path class="cls-1" d="M537.68,200.52h1.83l.28,4.84h.15c3.38-3,7.47-5.77,11.71-5.77,9.17,0,13.54,7.49,13.54,19,0,12.64-6.91,20.13-15,20.13-3.24,0-6.77-1.72-10.44-4.68v21.06h-2.11Zm25.25,18.1c0-9.52-3.1-16.85-11.43-16.85-3.52,0-7.33,2.34-11.71,6.55v23.09c4.1,3.75,7.91,5.15,10.59,5.15C557.71,236.56,562.93,229.07,562.93,218.62Z" transform="translate(-7.05 -12.79)"/><path class="cls-1" d="M572.1,228.68c0-8.34,6.92-12.24,22.15-14.12.15-6.08-1.27-12.79-8.32-12.79-4.8,0-8.89,2.65-11,4.53l-1.13-1.88c2.11-1.71,6.77-4.83,12.27-4.83,7.9,0,10.3,6.55,10.3,14v24.18h-1.83l-.29-5h-.14c-3.52,3.12-7.76,5.93-12.27,5.93C576.62,238.75,572.1,235.78,572.1,228.68Zm22.15,1.49V216.59c-14.81,1.87-19.89,5.62-19.89,12,0,5.77,3.53,7.95,7.62,7.95S589.74,234.38,594.25,230.17Z" transform="translate(-7.05 -12.79)"/><path class="cls-1" d="M608.93,200.52h1.83l.28,7h.14c2.26-4.52,5.51-7.95,9.6-7.95a6.15,6.15,0,0,1,3.24.78l-.56,2.18a6.33,6.33,0,0,0-3-.62c-3.11,0-6.78,2.65-9.46,10v25.9h-2.11Z" transform="translate(-7.05 -12.79)"/><path class="cls-1" d="M626.56,228.68c0-8.34,6.92-12.24,22.15-14.12.15-6.08-1.27-12.79-8.32-12.79-4.8,0-8.89,2.65-11,4.53l-1.13-1.88c2.11-1.71,6.77-4.83,12.27-4.83,7.9,0,10.3,6.55,10.3,14v24.18H649l-.29-5h-.14c-3.52,3.12-7.76,5.93-12.27,5.93C631.08,238.75,626.56,235.78,626.56,228.68Zm22.15,1.49V216.59c-14.81,1.87-19.89,5.62-19.89,12,0,5.77,3.53,7.95,7.62,7.95S644.2,234.38,648.71,230.17Z" transform="translate(-7.05 -12.79)"/><path class="cls-1" d="M674.53,219.25c0-12.17,7.06-19.66,14.53-19.66,7.76,0,12.7,6.08,12.7,17.16a16,16,0,0,1-.14,2.5H676.79c0,10,5.22,17.31,13.26,17.31a14.42,14.42,0,0,0,9.31-3.43l1,2c-2.54,1.71-5.36,3.59-10.44,3.59C681.45,238.75,674.53,231.41,674.53,219.25Zm25.12-2.19c0-10.3-4.24-15.29-10.59-15.29-6.06,0-11.56,5.77-12.27,15.29Z" transform="translate(-7.05 -12.79)"/><path class="cls-1" d="M706.84,233.6l1.41-1.87c2.82,2.65,5.93,4.83,11,4.83,5.64,0,8.6-3.74,8.6-7.95,0-5-4.51-7.18-8.46-8.74-5.22-2-11-4.21-11-10.61,0-5.15,3.67-9.67,10.59-9.67a14.5,14.5,0,0,1,9.31,3.74L727,205.2c-2.26-1.87-4.66-3.43-8.19-3.43-5.64,0-8.18,3.67-8.18,7.33,0,4.53,4.09,6.24,8.18,8,5.37,2.26,11.29,4.06,11.29,11.39,0,5.46-4,10.3-11,10.3A18,18,0,0,1,706.84,233.6Z" transform="translate(-7.05 -12.79)"/><path class="cls-1" d="M736.47,219.25c0-12.49,7-19.66,15.1-19.66,4.65,0,7.61,2.34,9.87,4.68L760,206c-2.26-2.34-4.94-4.21-8.46-4.21-7.2,0-12.84,7.18-12.84,17.48s5.08,17.31,12.84,17.31A13.35,13.35,0,0,0,761,232l1.27,1.71c-2.82,2.81-6.35,5-10.72,5C743,238.75,736.47,231.57,736.47,219.25Z" transform="translate(-7.05 -12.79)"/><path class="cls-1" d="M770.33,224.55v-24h2.12v23.72c0,8.27,2.4,12.32,8.18,12.32,4.23,0,7.34-2.49,11.57-8.11V200.52h2.12v37.29h-1.84l-.28-6.4h-.14c-3.39,4.37-6.91,7.34-11.57,7.34C773.58,238.75,770.33,234.22,770.33,224.55Z" transform="translate(-7.05 -12.79)"/><path class="cls-1" d="M804.9,219.25c0-12.49,7.05-19.66,15.09-19.66,4.66,0,7.62,2.34,9.88,4.68L828.46,206c-2.26-2.34-4.94-4.21-8.47-4.21-7.19,0-12.84,7.18-12.84,17.48s5.08,17.31,12.84,17.31a13.37,13.37,0,0,0,9.46-4.52l1.27,1.71c-2.83,2.81-6.35,5-10.73,5C811.39,238.75,804.9,231.57,804.9,219.25Z" transform="translate(-7.05 -12.79)"/><path class="cls-1" d="M839.32,181.49h2.12v25.12c3.67-4.06,7.19-7,11.85-7,6.91,0,10.16,4.52,10.16,14.19v24h-2.12V214.1c0-8.27-2.4-12.33-8.18-12.33-4.23,0-7.34,2.5-11.71,7.49v28.55h-2.12Z" transform="translate(-7.05 -12.79)"/><path class="cls-1" d="M873.61,228.68c0-8.34,6.91-12.24,22.15-14.12.14-6.08-1.27-12.79-8.33-12.79-4.79,0-8.89,2.65-11,4.53l-1.13-1.88c2.12-1.71,6.77-4.83,12.27-4.83,7.9,0,10.3,6.55,10.3,14v24.18H896l-.28-5h-.15c-3.52,3.12-7.75,5.93-12.27,5.93C878.12,238.75,873.61,235.78,873.61,228.68Zm22.15,1.49V216.59c-14.82,1.87-19.9,5.62-19.9,12,0,5.77,3.53,7.95,7.62,7.95S891.24,234.38,895.76,230.17Z" transform="translate(-7.05 -12.79)"/><path class="cls-1" d="M910.43,200.52h1.83l.29,7h.14c2.25-4.52,5.5-7.95,9.59-7.95a6.13,6.13,0,0,1,3.24.78l-.56,2.18a6.33,6.33,0,0,0-3-.62c-3.11,0-6.77,2.65-9.45,10v25.9h-2.12Z" transform="translate(-7.05 -12.79)"/><path class="cls-1" d="M932,233.75V181.49h2.11v52.73c0,1.56.57,2.34,1.41,2.34a5.13,5.13,0,0,0,1.27-.15l.43,2a5.64,5.64,0,0,1-1.84.32C933.29,238.75,932,237.34,932,233.75Z" transform="translate(-7.05 -12.79)"/><path class="cls-1" d="M945.28,219.25c0-12.49,6.91-19.66,15-19.66s15,7.17,15,19.66c0,12.32-6.92,19.5-15,19.5S945.28,231.57,945.28,219.25Zm27.65,0c0-10.3-5.5-17.48-12.7-17.48s-12.69,7.18-12.69,17.48,5.5,17.31,12.69,17.31S972.93,229.54,972.93,219.25Z" transform="translate(-7.05 -12.79)"/><path class="cls-1" d="M983.09,235.78c0-2,1.27-3.12,2.54-3.12s2.54,1.09,2.54,3.12a2.57,2.57,0,1,1-5.08,0Z" transform="translate(-7.05 -12.79)"/></g></g></svg>