<svg xmlns="http://www.w3.org/2000/svg" viewBox="0 0 1083.75 247.54"><defs><style>.cls-1{fill:#0071ba;}</style></defs><g id="Layer_2" data-name="Layer 2"><g id="Textos_y_botones" data-name="Textos y botones"><path class="cls-1" d="M6.49,13.73h30.7v7.61H15.54V34.41H33.88V42H15.54v15.1H38v7.61H6.49Z" transform="translate(-6.49 -12.79)"/><path class="cls-1" d="M45,58.2,50.23,52c3.65,3.48,8.55,5.82,13.29,5.82,5.74,0,8.9-2.6,8.9-6.58,0-4.2-3.3-5.54-7.93-7.5l-7-3c-5-2.09-10.31-6.07-10.31-13.53,0-8.12,7.17-14.38,17.12-14.38A22.37,22.37,0,0,1,80.06,19.3L75.41,25a16.44,16.44,0,0,0-11.08-4.39c-4.83,0-8,2.27-8,6,0,4,3.88,5.49,8.11,7.23l6.88,2.88c6.07,2.53,10.31,6.37,10.31,13.76,0,8.27-6.86,15.17-18.31,15.17A26.27,26.27,0,0,1,45,58.2Z" transform="translate(-6.49 -12.79)"/><path class="cls-1" d="M88.28,39.4c0-16.69,10.45-26.61,23.37-26.61a20.3,20.3,0,0,1,14.7,6.46l-4.84,5.83c-2.62-2.62-5.68-4.43-9.67-4.43-8.3,0-14.26,7-14.26,18.47,0,11.64,5.49,18.69,14,18.69,4.52,0,8-2.09,10.89-5.24l4.83,5.68a20.32,20.32,0,0,1-16.06,7.43C98.45,65.68,88.28,56.28,88.28,39.4Z" transform="translate(-6.49 -12.79)"/><path class="cls-1" d="M135.89,13.73h17.19c10.61,0,18.79,3.74,18.79,15.13,0,11-8.18,15.94-18.79,15.94h-8.14V64.74h-9.05Zm16.26,23.83c7,0,10.79-2.9,10.79-8.7S159.13,21,152.15,21h-7.21v16.6Zm-.77,4.82L157.93,37l15.93,27.75H163.69Z" transform="translate(-6.49 -12.79)"/><path class="cls-1" d="M182.07,13.73h9v51h-9Z" transform="translate(-6.49 -12.79)"/><path class="cls-1" d="M204.06,13.73h16.32c10.48,0,18.19,3.21,18.19,12.57,0,4.81-2.62,9.49-7.08,11.05v.31c5.65,1.28,9.8,5.21,9.8,12.1,0,10.21-8.37,15-19.6,15H204.06Zm15.51,21.06c7.11,0,10.14-2.78,10.14-7.21,0-4.93-3.34-6.8-10-6.8h-6.65v14Zm1.18,22.9c7.49,0,11.67-2.68,11.67-8.43,0-5.36-4-7.7-11.67-7.7h-7.64V57.69Z" transform="translate(-6.49 -12.79)"/><path class="cls-1" d="M250.63,13.73h30.7v7.61H259.67V34.41H278V42H259.67v15.1h22.44v7.61H250.63Z" transform="translate(-6.49 -12.79)"/><path class="cls-1" d="M10.37,97.93H21.51c10.58,0,16.65,3.74,16.65,14,0,9.83-5.92,14.66-16.37,14.66H12.62v22.78H10.37ZM21,124.45c10,0,14.81-3.59,14.81-12.48,0-9-4.94-11.86-15.09-11.86H12.62v24.34Z" transform="translate(-6.49 -12.79)"/><path class="cls-1" d="M47.76,136.15v-24h2.11v23.71c0,8.27,2.4,12.32,8.18,12.32,4.24,0,7.34-2.49,11.57-8.11V112.13h2.12v37.28H69.91L69.62,143h-.14c-3.38,4.36-6.91,7.33-11.57,7.33C51,150.35,47.76,145.82,47.76,136.15Z" transform="translate(-6.49 -12.79)"/><path class="cls-1" d="M85.28,145.36V93.09H87.4v52.73c0,1.56.56,2.34,1.41,2.34a5.13,5.13,0,0,0,1.27-.15l.42,2a5.82,5.82,0,0,1-1.83.31C86.55,150.35,85.28,148.94,85.28,145.36Z" transform="translate(-6.49 -12.79)"/><path class="cls-1" d="M97.13,145.2l1.42-1.87c2.82,2.65,5.92,4.83,11,4.83,5.64,0,8.61-3.74,8.61-7.95,0-5-4.52-7.18-8.47-8.74-5.22-2-11-4.21-11-10.61,0-5.15,3.66-9.67,10.58-9.67a14.5,14.5,0,0,1,9.31,3.74l-1.27,1.88c-2.26-1.88-4.66-3.44-8.18-3.44-5.65,0-8.19,3.67-8.19,7.34,0,4.52,4.1,6.24,8.19,8,5.36,2.26,11.28,4.06,11.28,11.39,0,5.46-4,10.3-11,10.3A18,18,0,0,1,97.13,145.2Z" transform="translate(-6.49 -12.79)"/><path class="cls-1" d="M127.19,140.29c0-8.35,6.91-12.25,22.15-14.12.14-6.09-1.27-12.8-8.33-12.8-4.79,0-8.89,2.66-11,4.53L128.88,116c2.12-1.72,6.77-4.84,12.27-4.84,7.9,0,10.3,6.55,10.3,14v24.18h-1.83l-.28-5h-.14c-3.53,3.12-7.76,5.93-12.28,5.93C131.7,150.35,127.19,147.38,127.19,140.29Zm22.15,1.48V128.19c-14.82,1.88-19.9,5.62-19.9,12,0,5.77,3.53,7.95,7.62,7.95S144.82,146,149.34,141.77Z" transform="translate(-6.49 -12.79)"/><path class="cls-1" d="M175.16,130.85c0-12.17,7.05-19.66,14.53-19.66,7.76,0,12.69,6.08,12.69,17.16a16,16,0,0,1-.14,2.5H177.41c0,10,5.22,17.31,13.26,17.31a14.45,14.45,0,0,0,9.32-3.43l1,2c-2.54,1.72-5.36,3.59-10.44,3.59C182.07,150.35,175.16,143,175.16,130.85Zm25.11-2.19c0-10.29-4.23-15.29-10.58-15.29-6.07,0-11.57,5.78-12.28,15.29Z" transform="translate(-6.49 -12.79)"/><path class="cls-1" d="M211.84,112.13h1.83l.29,5.92h.14c3.52-3.9,7.05-6.86,11.71-6.86,6.91,0,10.15,4.52,10.15,14.2v24h-2.11V125.7c0-8.27-2.4-12.33-8.19-12.33-4.23,0-7.33,2.5-11.7,7.49v28.55h-2.12Z" transform="translate(-6.49 -12.79)"/><path class="cls-1" d="M260.09,130.85c0-12.17,7.05-19.66,14.53-19.66,7.76,0,12.7,6.08,12.7,17.16a16,16,0,0,1-.14,2.5H262.35c0,10,5.22,17.31,13.26,17.31a14.42,14.42,0,0,0,9.31-3.43l1,2c-2.54,1.72-5.36,3.59-10.44,3.59C267,150.35,260.09,143,260.09,130.85Zm25.11-2.19c0-10.29-4.23-15.29-10.58-15.29-6.07,0-11.57,5.78-12.27,15.29Z" transform="translate(-6.49 -12.79)"/><path class="cls-1" d="M296.77,145.36V93.09h2.12v52.73c0,1.56.56,2.34,1.41,2.34a5.18,5.18,0,0,0,1.27-.15l.42,2a5.88,5.88,0,0,1-1.83.31C298,150.35,296.77,148.94,296.77,145.36Z" transform="translate(-6.49 -12.79)"/><path class="cls-1" d="M324.57,140.29c0-8.35,6.91-12.25,22.15-14.12.14-6.09-1.27-12.8-8.33-12.8-4.8,0-8.89,2.66-11,4.53L326.26,116c2.12-1.72,6.77-4.84,12.27-4.84,7.9,0,10.3,6.55,10.3,14v24.18H347l-.28-5h-.15c-3.52,3.12-7.76,5.93-12.27,5.93C329.08,150.35,324.57,147.38,324.57,140.29Zm22.15,1.48V128.19c-14.82,1.88-19.9,5.62-19.9,12,0,5.77,3.53,7.95,7.62,7.95S342.2,146,346.72,141.77Z" transform="translate(-6.49 -12.79)"/><path class="cls-1" d="M361.39,145.36V93.09h2.12v52.73c0,1.56.56,2.34,1.41,2.34a5.18,5.18,0,0,0,1.27-.15l.42,2a5.93,5.93,0,0,1-1.83.31C362.66,150.35,361.39,148.94,361.39,145.36Z" transform="translate(-6.49 -12.79)"/><path class="cls-1" d="M378.32,139.58V114.31H373v-1.87l5.36-.31.28-10.92h1.84v10.92h10v2.18h-10V139.9c0,4.83,1,8.26,5.92,8.26a11.63,11.63,0,0,0,4.37-1.24l.71,2a18.07,18.07,0,0,1-5.22,1.41C380,150.35,378.32,146,378.32,139.58Z" transform="translate(-6.49 -12.79)"/><path class="cls-1" d="M394.83,140.29c0-8.35,6.91-12.25,22.15-14.12.14-6.09-1.27-12.8-8.33-12.8-4.79,0-8.89,2.66-11,4.53L396.52,116c2.12-1.72,6.77-4.84,12.27-4.84,7.9,0,10.3,6.55,10.3,14v24.18h-1.83l-.28-5h-.15c-3.52,3.12-7.75,5.93-12.27,5.93C399.34,150.35,394.83,147.38,394.83,140.29ZM417,141.77V128.19c-14.82,1.88-19.9,5.62-19.9,12,0,5.77,3.53,7.95,7.62,7.95S412.46,146,417,141.77Z" transform="translate(-6.49 -12.79)"/><path class="cls-1" d="M425.72,112.13h2.4l8,24.18c1.13,3.59,2.4,7.33,3.53,10.61H440c1.13-3.28,2.4-7,3.53-10.61l8-24.18h2.26l-12.7,37.28h-2.54Z" transform="translate(-6.49 -12.79)"/><path class="cls-1" d="M458.46,130.85c0-12.48,6.91-19.66,15-19.66s15,7.18,15,19.66c0,12.32-6.92,19.5-15,19.5S458.46,143.17,458.46,130.85Zm27.65,0c0-10.3-5.5-17.48-12.7-17.48s-12.7,7.18-12.7,17.48,5.51,17.31,12.7,17.31S486.11,141.14,486.11,130.85Z" transform="translate(-6.49 -12.79)"/><path class="cls-1" d="M494,148.16l20.74-33.85H496.27v-2.18h21.3v1.24l-20.74,33.86h21.45v2.18H494Z" transform="translate(-6.49 -12.79)"/><path class="cls-1" d="M541,112.13h1.84l.28,4.83h.14c3.38-3,7.48-5.77,11.71-5.77,9.17,0,13.54,7.49,13.54,19,0,12.64-6.91,20.13-15,20.13-3.25,0-6.77-1.72-10.44-4.68v21.06H541Zm25.26,18.09c0-9.51-3.11-16.85-11.43-16.85-3.53,0-7.34,2.34-11.71,6.56V143c4.09,3.74,7.9,5.14,10.58,5.14C561,148.16,566.25,140.68,566.25,130.22Z" transform="translate(-6.49 -12.79)"/><path class="cls-1" d="M575.42,140.29c0-8.35,6.91-12.25,22.15-14.12.14-6.09-1.27-12.8-8.33-12.8-4.79,0-8.88,2.66-11,4.53L577.11,116c2.12-1.72,6.77-4.84,12.27-4.84,7.91,0,10.3,6.55,10.3,14v24.18h-1.83l-.28-5h-.14c-3.53,3.12-7.76,5.93-12.28,5.93C579.93,150.35,575.42,147.38,575.42,140.29Zm22.15,1.48V128.19c-14.82,1.88-19.89,5.62-19.89,12,0,5.77,3.52,7.95,7.61,7.95S593.05,146,597.57,141.77Z" transform="translate(-6.49 -12.79)"/><path class="cls-1" d="M612.24,112.13h1.84l.28,7h.14c2.26-4.53,5.5-8,9.59-8a6.28,6.28,0,0,1,3.25.78l-.57,2.18a6.45,6.45,0,0,0-3-.62c-3.1,0-6.77,2.65-9.45,10v25.9h-2.12Z" transform="translate(-6.49 -12.79)"/><path class="cls-1" d="M629.88,140.29c0-8.35,6.91-12.25,22.15-14.12.14-6.09-1.27-12.8-8.33-12.8-4.79,0-8.88,2.66-11,4.53L631.57,116c2.12-1.72,6.77-4.84,12.27-4.84,7.91,0,10.3,6.55,10.3,14v24.18h-1.83l-.28-5h-.14c-3.53,3.12-7.76,5.93-12.28,5.93C634.39,150.35,629.88,147.38,629.88,140.29ZM652,141.77V128.19c-14.82,1.88-19.89,5.62-19.89,12,0,5.77,3.52,7.95,7.61,7.95S647.51,146,652,141.77Z" transform="translate(-6.49 -12.79)"/><path class="cls-1" d="M677.85,130.85c0-12.48,6.91-19.66,14.95-19.66s15,7.18,15,19.66c0,12.32-6.92,19.5-15,19.5S677.85,143.17,677.85,130.85Zm27.65,0c0-10.3-5.5-17.48-12.7-17.48s-12.7,7.18-12.7,17.48,5.51,17.31,12.7,17.31S705.5,141.14,705.5,130.85Z" transform="translate(-6.49 -12.79)"/><path class="cls-1" d="M717.07,100a2.41,2.41,0,1,1,4.8,0,2.41,2.41,0,1,1-4.8,0Zm1.27,12.17h2.12v37.28h-2.12Z" transform="translate(-6.49 -12.79)"/><path class="cls-1" d="M734,112.13h1.83l.29,7h.14c2.25-4.53,5.5-8,9.59-8a6.23,6.23,0,0,1,3.24.78l-.56,2.18a6.45,6.45,0,0,0-3-.62c-3.11,0-6.78,2.65-9.45,10v25.9H734Z" transform="translate(-6.49 -12.79)"/><path class="cls-1" d="M769.13,136.15v-24h2.12v23.71c0,8.27,2.39,12.32,8.18,12.32,4.23,0,7.33-2.49,11.57-8.11V112.13h2.11v37.28h-1.83L791,143h-.14c-3.39,4.36-6.92,7.33-11.57,7.33C772.37,150.35,769.13,145.82,769.13,136.15Z" transform="translate(-6.49 -12.79)"/><path class="cls-1" d="M806.66,112.13h1.83l.28,5.92h.15c3.52-3.9,7.05-6.86,11.7-6.86,6.92,0,10.16,4.52,10.16,14.2v24h-2.11V125.7c0-8.27-2.4-12.33-8.19-12.33-4.23,0-7.33,2.5-11.71,7.49v28.55h-2.11Z" transform="translate(-6.49 -12.79)"/><path class="cls-1" d="M857.87,112.13h1.84l.28,5.92h.14c3.53-3.9,7-6.86,11.71-6.86,6.91,0,10.16,4.52,10.16,14.2v24h-2.12V125.7c0-8.27-2.4-12.33-8.18-12.33-4.24,0-7.34,2.5-11.71,7.49v28.55h-2.12Z" transform="translate(-6.49 -12.79)"/><path class="cls-1" d="M894.41,136.15v-24h2.12v23.71c0,8.27,2.4,12.32,8.18,12.32,4.23,0,7.34-2.49,11.57-8.11V112.13h2.12v37.28h-1.84l-.28-6.39h-.14c-3.39,4.36-6.91,7.33-11.57,7.33C897.66,150.35,894.41,145.82,894.41,136.15ZM903,103.39l9.31-12L914,92.94l-9.73,11.7Z" transform="translate(-6.49 -12.79)"/><path class="cls-1" d="M931.94,112.13h1.84l.28,5.92h.14c3.1-3.9,7-6.86,10.72-6.86,5.5,0,8.18,3.12,9.31,7.8,3.95-4.84,7.76-7.8,11.57-7.8,6.63,0,10,4.52,10,14.2v24H973.7V125.7c0-8.27-2.54-12.33-8-12.33-3.39,0-6.77,2.5-10.72,7.49v28.55h-2.12V125.7c0-8.27-2.54-12.33-8-12.33-3.25,0-6.77,2.5-10.72,7.49v28.55h-2.12Z" transform="translate(-6.49 -12.79)"/><path class="cls-1" d="M985.84,130.85c0-12.17,7-19.66,14.53-19.66,7.76,0,12.7,6.08,12.7,17.16a14.91,14.91,0,0,1-.15,2.5H988.09c0,10,5.22,17.31,13.27,17.31a14.42,14.42,0,0,0,9.31-3.43l1,2c-2.53,1.72-5.36,3.59-10.44,3.59C992.75,150.35,985.84,143,985.84,130.85Zm25.11-2.19c0-10.29-4.23-15.29-10.58-15.29-6.07,0-11.57,5.78-12.28,15.29Z" transform="translate(-6.49 -12.79)"/><path class="cls-1" d="M1022.52,112.13h1.83l.29,7h.14c2.25-4.53,5.5-8,9.59-8a6.28,6.28,0,0,1,3.25.78l-.57,2.18a6.45,6.45,0,0,0-3-.62c-3.11,0-6.77,2.65-9.45,10v25.9h-2.12Z" transform="translate(-6.49 -12.79)"/><path class="cls-1" d="M1040.44,130.85c0-12.48,6.91-19.66,15-19.66s15,7.18,15,19.66c0,12.32-6.92,19.5-15,19.5S1040.44,143.17,1040.44,130.85Zm27.65,0c0-10.3-5.5-17.48-12.7-17.48s-12.69,7.18-12.69,17.48,5.5,17.31,12.69,17.31S1068.09,141.14,1068.09,130.85Z" transform="translate(-6.49 -12.79)"/><path class="cls-1" d="M1078.25,147.38c0-2,1.27-3.12,2.54-3.12s2.54,1.1,2.54,3.12a2.57,2.57,0,1,1-5.08,0Z" transform="translate(-6.49 -12.79)"/><path class="cls-1" d="M10.37,191.53h25v2.18H12.62v20.75H31.67v2.19H12.62v24.18H36V243H10.37Z" transform="translate(-6.49 -12.79)"/><path class="cls-1" d="M41.69,238.8l1.41-1.87c2.82,2.65,5.92,4.83,11,4.83,5.65,0,8.61-3.74,8.61-7.95,0-5-4.51-7.18-8.46-8.74-5.23-2-11-4.21-11-10.61,0-5.15,3.67-9.67,10.58-9.67a14.48,14.48,0,0,1,9.31,3.74l-1.27,1.88c-2.25-1.88-4.65-3.44-8.18-3.44-5.64,0-8.18,3.67-8.18,7.34,0,4.52,4.09,6.24,8.18,7.95C59,224.52,65,226.32,65,233.65,65,239.11,61,244,54,244A17.9,17.9,0,0,1,41.69,238.8Z" transform="translate(-6.49 -12.79)"/><path class="cls-1" d="M71.32,224.45c0-12.48,7.05-19.66,15.09-19.66,4.66,0,7.62,2.34,9.88,4.68l-1.41,1.72c-2.26-2.34-4.94-4.22-8.47-4.22-7.19,0-12.84,7.18-12.84,17.48s5.08,17.31,12.84,17.31a13.33,13.33,0,0,0,9.46-4.52L97.13,239c-2.82,2.8-6.34,5-10.72,5C77.81,244,71.32,236.77,71.32,224.45Z" transform="translate(-6.49 -12.79)"/><path class="cls-1" d="M105.74,205.73h1.84l.28,7H108c2.26-4.53,5.5-8,9.59-8a6.28,6.28,0,0,1,3.25.78l-.57,2.18a6.43,6.43,0,0,0-3-.62c-3.1,0-6.77,2.65-9.45,10V243h-2.12Z" transform="translate(-6.49 -12.79)"/><path class="cls-1" d="M124.72,197,134,185l1.69,1.56L126,198.24Zm2.61,8.74h2.12V243h-2.12Z" transform="translate(-6.49 -12.79)"/><path class="cls-1" d="M145.25,239.27h-.14l-.29,3.74H143V186.69h2.12v16.7l-.15,7.48c3.53-3.27,7.76-6.08,12-6.08,9.17,0,13.54,7.49,13.54,19,0,12.64-6.91,20.13-15,20.13C152.3,244,148.49,242.08,145.25,239.27Zm23-15.45c0-9.51-3.1-16.85-11.43-16.85-3.52,0-7.47,2.34-11.7,6.56v23.09c3.95,3.74,7.9,5.14,10.58,5.14C163,241.76,168.24,234.28,168.24,223.82Z" transform="translate(-6.49 -12.79)"/><path class="cls-1" d="M178,224.45c0-12.17,7.05-19.66,14.53-19.66,7.76,0,12.7,6.08,12.7,17.16a16,16,0,0,1-.14,2.5H180.24c0,10,5.22,17.31,13.26,17.31a14.42,14.42,0,0,0,9.31-3.43l1,2c-2.54,1.72-5.36,3.59-10.44,3.59C184.89,244,178,236.62,178,224.45Zm25.11-2.19c0-10.29-4.23-15.29-10.58-15.29-6.07,0-11.57,5.78-12.27,15.29Z" transform="translate(-6.49 -12.79)"/><path class="cls-1" d="M214.66,239V186.69h2.12v52.73c0,1.56.56,2.34,1.41,2.34a5.18,5.18,0,0,0,1.27-.15l.42,2a5.88,5.88,0,0,1-1.83.31C215.93,244,214.66,242.54,214.66,239Z" transform="translate(-6.49 -12.79)"/><path class="cls-1" d="M227.92,224.45c0-12.48,6.92-19.66,15-19.66s14.95,7.18,14.95,19.66c0,12.32-6.91,19.5-14.95,19.5S227.92,236.77,227.92,224.45Zm27.66,0c0-10.3-5.51-17.48-12.7-17.48s-12.7,7.18-12.7,17.48,5.5,17.31,12.7,17.31S255.58,234.74,255.58,224.45Z" transform="translate(-6.49 -12.79)"/><path class="cls-1" d="M277.16,259.55l.57-2.19a7.46,7.46,0,0,0,2.82.63c4.23,0,7.19-4.53,9-10.61l1-3.43-14-38.22H279l8.6,24.49c1.13,3.12,2.54,7.18,3.81,10.45h.28c1.13-3.27,2.26-7.33,3.25-10.45l7.62-24.49h2.25l-13.54,42.59c-1.69,5.77-5.08,12-10.86,12A7.22,7.22,0,0,1,277.16,259.55Z" transform="translate(-6.49 -12.79)"/><path class="cls-1" d="M323.58,224.45c0-12.48,7.05-19.66,15.09-19.66,4.66,0,7.62,2.34,9.88,4.68l-1.41,1.72c-2.26-2.34-4.94-4.22-8.47-4.22-7.19,0-12.83,7.18-12.83,17.48s5.08,17.31,12.83,17.31a13.33,13.33,0,0,0,9.46-4.52L349.4,239c-2.82,2.8-6.35,5-10.73,5C330.07,244,323.58,236.77,323.58,224.45Z" transform="translate(-6.49 -12.79)"/><path class="cls-1" d="M353.91,224.45c0-12.48,6.92-19.66,15-19.66s14.95,7.18,14.95,19.66c0,12.32-6.91,19.5-14.95,19.5S353.91,236.77,353.91,224.45Zm27.66,0c0-10.3-5.51-17.48-12.7-17.48s-12.7,7.18-12.7,17.48,5.5,17.31,12.7,17.31S381.57,234.74,381.57,224.45Z" transform="translate(-6.49 -12.79)"/><path class="cls-1" d="M394.41,205.73h1.83l.28,5.92h.14c3.11-3.9,7.06-6.86,10.73-6.86,5.5,0,8.18,3.12,9.31,7.8,3.95-4.84,7.76-7.8,11.57-7.8,6.63,0,10,4.52,10,14.2v24h-2.11V219.3c0-8.27-2.54-12.33-8.05-12.33-3.38,0-6.77,2.5-10.72,7.49V243h-2.11V219.3c0-8.27-2.54-12.33-8.05-12.33-3.24,0-6.77,2.5-10.72,7.49V243h-2.11Z" transform="translate(-6.49 -12.79)"/><path class="cls-1" d="M451.26,205.73h1.84l.28,4.83h.14c3.39-3,7.48-5.77,11.71-5.77,9.17,0,13.55,7.49,13.55,19,0,12.64-6.92,20.13-15,20.13-3.24,0-6.77-1.72-10.44-4.68v21.06h-2.12Zm25.26,18.09c0-9.51-3.11-16.85-11.43-16.85-3.53,0-7.34,2.34-11.71,6.56v23.09c4.09,3.74,7.9,5.14,10.58,5.14C471.3,241.76,476.52,234.28,476.52,223.82Z" transform="translate(-6.49 -12.79)"/><path class="cls-1" d="M489.36,205.73h1.83l.28,7h.14c2.26-4.53,5.51-8,9.6-8a6.25,6.25,0,0,1,3.24.78l-.56,2.18a6.45,6.45,0,0,0-3-.62c-3.11,0-6.78,2.65-9.46,10V243h-2.11Z" transform="translate(-6.49 -12.79)"/><path class="cls-1" d="M510.38,229.75v-24h2.12v23.71c0,8.27,2.39,12.32,8.18,12.32,4.23,0,7.33-2.49,11.57-8.11V205.73h2.11V243h-1.83l-.28-6.39h-.14c-3.39,4.36-6.92,7.33-11.57,7.33C513.62,244,510.38,239.42,510.38,229.75Z" transform="translate(-6.49 -12.79)"/><path class="cls-1" d="M545,224.45c0-12.17,7-19.66,14.53-19.66,7.76,0,12.69,6.08,12.69,17.16a16,16,0,0,1-.14,2.5H547.2c0,10,5.22,17.31,13.26,17.31a14.45,14.45,0,0,0,9.32-3.43l1,2c-2.54,1.72-5.36,3.59-10.44,3.59C551.86,244,545,236.62,545,224.45Zm25.11-2.19c0-10.29-4.23-15.29-10.58-15.29-6.07,0-11.57,5.78-12.28,15.29Z" transform="translate(-6.49 -12.79)"/><path class="cls-1" d="M583.88,239.27h-.14l-.28,3.74h-1.83V186.69h2.11v16.7l-.14,7.48c3.53-3.27,7.76-6.08,12-6.08,9.17,0,13.55,7.49,13.55,19,0,12.64-6.91,20.13-15,20.13C590.94,244,587.13,242.08,583.88,239.27Zm23-15.45c0-9.51-3.1-16.85-11.43-16.85-3.52,0-7.47,2.34-11.71,6.56v23.09c4,3.74,7.9,5.14,10.59,5.14C601.66,241.76,606.88,234.28,606.88,223.82Z" transform="translate(-6.49 -12.79)"/><path class="cls-1" d="M615.91,233.89c0-8.35,6.92-12.25,22.15-14.12.14-6.09-1.27-12.8-8.32-12.8-4.8,0-8.89,2.66-11,4.53l-1.12-1.87c2.11-1.72,6.77-4.84,12.27-4.84,7.9,0,10.3,6.55,10.3,14V243h-1.84l-.28-5h-.14c-3.53,3.12-7.76,5.93-12.27,5.93C620.43,244,615.91,241,615.91,233.89Zm22.15,1.48V221.79c-14.81,1.88-19.89,5.62-19.89,12,0,5.77,3.53,7.95,7.62,7.95S633.55,239.58,638.06,235.37Z" transform="translate(-6.49 -12.79)"/><path class="cls-1" d="M662.47,238.8l1.41-1.87c2.82,2.65,5.93,4.83,11,4.83,5.64,0,8.6-3.74,8.6-7.95,0-5-4.51-7.18-8.46-8.74-5.22-2-11-4.21-11-10.61,0-5.15,3.67-9.67,10.58-9.67a14.5,14.5,0,0,1,9.32,3.74l-1.27,1.88c-2.26-1.88-4.66-3.44-8.19-3.44-5.64,0-8.18,3.67-8.18,7.34,0,4.52,4.09,6.24,8.18,7.95,5.36,2.26,11.29,4.06,11.29,11.39,0,5.46-4,10.3-11,10.3A17.93,17.93,0,0,1,662.47,238.8Z" transform="translate(-6.49 -12.79)"/><path class="cls-1" d="M693.79,193.56a2.41,2.41,0,1,1,4.8,0,2.41,2.41,0,1,1-4.8,0Zm1.27,12.17h2.12V243h-2.12Z" transform="translate(-6.49 -12.79)"/><path class="cls-1" d="M724.83,186.69H727v25.12c3.66-4.06,7.19-7,11.85-7,6.91,0,10.16,4.52,10.16,14.2v24h-2.12V219.3c0-8.27-2.4-12.33-8.18-12.33-4.24,0-7.34,2.5-11.71,7.49V243h-2.12Z" transform="translate(-6.49 -12.79)"/><path class="cls-1" d="M759.11,233.89c0-8.35,6.92-12.25,22.15-14.12.14-6.09-1.27-12.8-8.32-12.8-4.8,0-8.89,2.66-11,4.53l-1.12-1.87c2.11-1.72,6.77-4.84,12.27-4.84,7.9,0,10.3,6.55,10.3,14V243h-1.83l-.29-5h-.14c-3.53,3.12-7.76,5.93-12.27,5.93C763.63,244,759.11,241,759.11,233.89Zm22.15,1.48V221.79c-14.81,1.88-19.89,5.62-19.89,12,0,5.77,3.53,7.95,7.62,7.95S776.75,239.58,781.26,235.37Z" transform="translate(-6.49 -12.79)"/><path class="cls-1" d="M791.56,238.8l1.41-1.87c2.83,2.65,5.93,4.83,11,4.83,5.64,0,8.6-3.74,8.6-7.95,0-5-4.51-7.18-8.46-8.74-5.22-2-11-4.21-11-10.61,0-5.15,3.66-9.67,10.58-9.67a14.5,14.5,0,0,1,9.31,3.74l-1.27,1.88c-2.26-1.88-4.66-3.44-8.18-3.44-5.65,0-8.19,3.67-8.19,7.34,0,4.52,4.09,6.24,8.19,7.95,5.36,2.26,11.28,4.06,11.28,11.39,0,5.46-4,10.3-11,10.3A18,18,0,0,1,791.56,238.8Z" transform="translate(-6.49 -12.79)"/><path class="cls-1" d="M835.72,233.89c0-8.35,6.92-12.25,22.15-14.12.14-6.09-1.27-12.8-8.32-12.8-4.8,0-8.89,2.66-11,4.53l-1.12-1.87c2.11-1.72,6.77-4.84,12.27-4.84,7.9,0,10.3,6.55,10.3,14V243h-1.83l-.29-5h-.14C854.2,241.14,850,244,845.46,244,840.24,244,835.72,241,835.72,233.89Zm22.15,1.48V221.79c-14.81,1.88-19.89,5.62-19.89,12,0,5.77,3.53,7.95,7.62,7.95S853.36,239.58,857.87,235.37Z" transform="translate(-6.49 -12.79)"/><path class="cls-1" d="M869.58,224.45c0-12.48,7.06-19.66,15.1-19.66,4.65,0,7.62,2.34,9.88,4.68l-1.42,1.72c-2.25-2.34-4.93-4.22-8.46-4.22-7.2,0-12.84,7.18-12.84,17.48s5.08,17.31,12.84,17.31a13.31,13.31,0,0,0,9.45-4.52L895.4,239c-2.82,2.8-6.35,5-10.72,5C876.07,244,869.58,236.77,869.58,224.45Z" transform="translate(-6.49 -12.79)"/><path class="cls-1" d="M899.92,224.45c0-12.17,7.05-19.66,14.53-19.66,7.76,0,12.7,6.08,12.7,17.16a16,16,0,0,1-.14,2.5H902.18c0,10,5.22,17.31,13.26,17.31a14.42,14.42,0,0,0,9.31-3.43l1,2c-2.54,1.72-5.36,3.59-10.44,3.59C906.83,244,899.92,236.62,899.92,224.45ZM925,222.26C925,212,920.8,207,914.45,207c-6.07,0-11.57,5.78-12.27,15.29Z" transform="translate(-6.49 -12.79)"/><path class="cls-1" d="M936.6,205.73h1.84l.28,7h.14c2.26-4.53,5.5-8,9.59-8a6.28,6.28,0,0,1,3.25.78l-.57,2.18a6.45,6.45,0,0,0-3-.62c-3.1,0-6.77,2.65-9.45,10V243H936.6Z" transform="translate(-6.49 -12.79)"/><path class="cls-1" d="M958.89,233.18V207.91h-5.36V206l5.36-.31.28-10.92H961v10.92h10v2.18H961V233.5c0,4.83,1,8.26,5.92,8.26a11.68,11.68,0,0,0,4.38-1.24l.7,2a18,18,0,0,1-5.22,1.41C960.58,244,958.89,239.58,958.89,233.18Z" transform="translate(-6.49 -12.79)"/><path class="cls-1" d="M975.4,233.89c0-8.35,6.91-12.25,22.15-14.12.14-6.09-1.27-12.8-8.32-12.8-4.8,0-8.89,2.66-11,4.53l-1.13-1.87c2.12-1.72,6.77-4.84,12.28-4.84,7.9,0,10.3,6.55,10.3,14V243h-1.84l-.28-5h-.14c-3.53,3.12-7.76,5.93-12.28,5.93C979.91,244,975.4,241,975.4,233.89Zm22.15,1.48V221.79c-14.81,1.88-19.89,5.62-19.89,12,0,5.77,3.52,7.95,7.62,7.95S993,239.58,997.55,235.37Z" transform="translate(-6.49 -12.79)"/><path class="cls-1" d="M1009.26,224.45c0-12,6.91-19.66,15.1-19.66,4.09,0,6.91,1.72,10.44,4.68l-.14-7V186.69h2.11V243h-1.83l-.28-5h-.15c-2.82,3.12-6.63,5.93-11.28,5.93C1014.76,244,1009.26,237.08,1009.26,224.45Zm25.4,10.76V212.12c-3.81-3.74-6.92-5.15-10.45-5.15-7.19,0-12.69,7.8-12.69,17.48,0,10.29,4.23,17.31,11.85,17.31C1027.32,241.76,1030.85,239.42,1034.66,235.21Z" transform="translate(-6.49 -12.79)"/><path class="cls-1" d="M1047.35,224.45c0-12.48,6.92-19.66,15-19.66s15,7.18,15,19.66c0,12.32-6.91,19.5-15,19.5S1047.35,236.77,1047.35,224.45Zm27.66,0c0-10.3-5.51-17.48-12.7-17.48s-12.7,7.18-12.7,17.48,5.5,17.31,12.7,17.31S1075,234.74,1075,224.45Z" transform="translate(-6.49 -12.79)"/><path class="cls-1" d="M1085.17,241c0-2,1.27-3.12,2.54-3.12s2.54,1.1,2.54,3.12a2.57,2.57,0,1,1-5.08,0Z" transform="translate(-6.49 -12.79)"/></g></g></svg>