<svg xmlns="http://www.w3.org/2000/svg" viewBox="0 0 385.43 162.68"><defs><style>.cls-1{fill:#d5f0f0;}.cls-2{fill:#0071ba;}.cls-3{fill:none;stroke:#0071ba;stroke-linejoin:round;stroke-width:13.21px;}</style></defs><g id="Layer_2" data-name="Layer 2"><g id="Layer_3" data-name="Layer 3"><rect class="cls-1" width="385.43" height="162.68" rx="45.78"/><path class="cls-2" d="M185.09,95.8h11.09c7.12,0,12.36,2.19,12.36,8.55,0,3.26-1.78,6.44-4.81,7.5v.22c3.83.86,6.65,3.54,6.65,8.22,0,6.94-5.68,10.18-13.31,10.18h-12Zm10.54,14.31c4.83,0,6.89-1.88,6.89-4.89,0-3.35-2.27-4.63-6.77-4.63h-4.51v9.52Zm.8,15.57c5.09,0,7.93-1.83,7.93-5.73,0-3.64-2.75-5.23-7.93-5.23h-5.19v11Z"/><path class="cls-2" d="M216.61,117.47c0-8.67,5.89-13.67,12.38-13.67s12.38,5,12.38,13.67-5.89,13.64-12.38,13.64S216.61,126.1,216.61,117.47Zm18.48,0c0-5.21-2.29-8.69-6.1-8.69s-6.11,3.48-6.11,8.69,2.29,8.65,6.11,8.65S235.09,122.69,235.09,117.47Z"/><path class="cls-2" d="M249.54,104.43h5l.46,4.65h.17c1.86-3.4,4.61-5.28,7.4-5.28a6.62,6.62,0,0,1,2.95.53l-1.06,5.3a8.64,8.64,0,0,0-2.67-.43c-2.08,0-4.58,1.42-6.15,5.39v15.88h-6.11Z"/><path class="cls-2" d="M271.43,104.43h5l.46,4.65h.17c1.86-3.4,4.61-5.28,7.4-5.28a6.65,6.65,0,0,1,2.95.53l-1.06,5.3a8.64,8.64,0,0,0-2.67-.43c-2.08,0-4.58,1.42-6.15,5.39v15.88h-6.11Z"/><path class="cls-2" d="M290.55,123.47c0-5.57,4.62-8.48,15.31-9.62-.09-2.8-1.21-5.14-4.73-5.14a14.39,14.39,0,0,0-7.32,2.57l-2.25-4.07a20.36,20.36,0,0,1,10.69-3.41c6.51,0,9.71,4,9.71,11.25v15.42h-5l-.47-2.88h-.17c-2.33,2-5,3.52-8.08,3.52A7.29,7.29,0,0,1,290.55,123.47Zm15.31,0v-5.85c-7.07.89-9.42,2.74-9.42,5.37,0,2.3,1.57,3.3,3.75,3.3S303.93,125.28,305.86,123.49Z"/><polygon class="cls-3" points="104.95 104.75 104.95 79.75 176.64 79.75 176.64 49.62 104.95 49.62 104.95 25.24 67.89 65.24 104.95 104.75"/></g></g></svg>