<svg xmlns="http://www.w3.org/2000/svg" viewBox="0 0 385.43 162.68"><defs><style>.cls-1{fill:#f2c271;}.cls-2{fill:#0071ba;}.cls-3{fill:none;stroke:#0071ba;stroke-miterlimit:10;stroke-width:13.57px;}</style></defs><g id="Layer_2" data-name="Layer 2"><g id="Layer_3" data-name="Layer 3"><rect class="cls-1" width="385.43" height="162.68" rx="45.78"/><path class="cls-2" d="M148.84,91h20.87v5.17H155V105h12.47v5.18H155v10.26h15.25v5.17h-21.4Z"/><path class="cls-2" d="M176.36,122.62l2.85-3.88c2.31,1.81,4.54,2.91,7.18,2.91,2.85,0,4.18-1.34,4.18-3.12,0-2.18-2.82-3.16-5.6-4.22-3.41-1.28-7.31-3.24-7.31-7.59,0-4.52,3.64-7.78,9.48-7.78a14,14,0,0,1,8.65,3.12l-2.8,3.75a9.73,9.73,0,0,0-5.71-2.27c-2.61,0-3.85,1.25-3.85,2.88,0,2.06,2.62,2.85,5.44,3.88,3.52,1.32,7.47,3,7.47,7.87,0,4.47-3.54,8.08-10.12,8.08A16.3,16.3,0,0,1,176.36,122.62Z"/><path class="cls-2" d="M202.2,112.62c0-8.68,6.13-13.68,13.06-13.68a11.09,11.09,0,0,1,7.61,2.93l-3,4a6.36,6.36,0,0,0-4.32-1.91c-4.2,0-7.1,3.48-7.1,8.7s2.86,8.65,6.91,8.65a8.56,8.56,0,0,0,5.38-2.25l2.48,4a12.84,12.84,0,0,1-8.5,3.2C207.65,126.25,202.2,121.25,202.2,112.62Z"/><path class="cls-2" d="M230.23,115.9V99.58h6.1v15.54c0,4.28,1.23,5.89,4,5.89,2.29,0,3.8-1.06,5.77-3.6V99.58h6.11v26h-5l-.46-3.83h-.17c-2.29,2.71-4.82,4.47-8.38,4.47C232.67,126.25,230.23,122.48,230.23,115.9Z"/><path class="cls-2" d="M260.4,112.62c0-8.68,6.13-13.68,13.06-13.68a11.1,11.1,0,0,1,7.61,2.93l-3,4a6.37,6.37,0,0,0-4.32-1.91c-4.2,0-7.11,3.48-7.11,8.7s2.87,8.65,6.92,8.65A8.56,8.56,0,0,0,279,119l2.48,4a12.86,12.86,0,0,1-8.5,3.2C265.85,126.25,260.4,121.25,260.4,112.62Z"/><path class="cls-2" d="M288.72,88.17h6.11v9.69l-.25,5c2.18-2,4.77-3.94,8.33-3.94,5.58,0,8,3.77,8,10.35v16.32h-6.1V110.07c0-4.28-1.23-5.89-4.05-5.89-2.29,0-3.8,1.12-5.94,3.24v18.19h-6.11Z"/><path class="cls-2" d="M319,118.62c0-5.58,4.62-8.48,15.31-9.63-.09-2.8-1.21-5.13-4.73-5.13a14.34,14.34,0,0,0-7.31,2.56L320,102.35a20.3,20.3,0,0,1,10.69-3.41c6.5,0,9.71,4,9.71,11.26v15.41h-5l-.46-2.88h-.17c-2.34,2-5,3.52-8.08,3.52A7.3,7.3,0,0,1,319,118.62Zm15.31,0v-5.85c-7.06.89-9.42,2.73-9.42,5.36,0,2.3,1.57,3.31,3.76,3.31S332.4,120.42,334.33,118.64Z"/><circle class="cls-3" cx="89.02" cy="72.62" r="49.6"/></g></g></svg>