<svg xmlns="http://www.w3.org/2000/svg" viewBox="0 0 780.27 250.46"><defs><style>.cls-1{fill:#f99c17;}</style></defs><g id="Layer_2" data-name="Layer 2"><g id="Textos_y_botones" data-name="Textos y botones"><path class="cls-1" d="M28.07,279.13h54V120.76H37.47V93.3c24-4.4,40.51-10.62,55.68-19.88h32.61V279.13h47.49v35.65H28.07Z" transform="translate(-28.07 -68.87)"/><path class="cls-1" d="M224.29,289.45C291.19,224.37,333.36,182,333.36,145.18c0-25.41-14-41.57-39.9-41.57-18.66,0-34.13,12.29-47,26.7l-24.28-24c22-23.81,44.15-37.47,77.07-37.47,46.12,0,76.31,29.28,76.31,74,0,42.94-39.75,87.08-87.84,137.3,12.74-1.22,28.67-2.43,40.5-2.43h59v37H224.29Z" transform="translate(-28.07 -68.87)"/><path class="cls-1" d="M428.4,285.81l20.33-27.91c14.41,13.8,32,25.79,56.43,25.79,27,0,46.57-17.15,46.57-46.27,0-28.68-17.9-45.06-44.45-45.06-15.32,0-24.12,4.1-38.53,13.5L448,192.51l7.28-119.09h129v37h-91L488,168.69c10.16-5,19.49-7.73,31.86-7.73,41.41,0,75.85,23.51,75.85,75.24,0,52.95-40.43,83.14-85,83.14C471.63,319.34,446.3,303.71,428.4,285.81Z" transform="translate(-28.07 -68.87)"/><path class="cls-1" d="M644.49,193.12c0-81.54,31.86-124.25,81.92-124.25s81.92,42.94,81.92,124.25c0,81.54-31.86,126.22-81.92,126.22S644.49,274.66,644.49,193.12Zm122.12,0c0-68.27-16.84-90-40.2-90s-40.2,21.69-40.2,90,16.84,91.93,40.2,91.93S766.61,261.38,766.61,193.12Z" transform="translate(-28.07 -68.87)"/></g></g></svg>