<svg xmlns="http://www.w3.org/2000/svg" viewBox="0 0 1069.29 224.82"><defs><style>.cls-1{fill:#0071ba;}</style></defs><g id="Layer_2" data-name="Layer 2"><g id="Layer_3" data-name="Layer 3"><path class="cls-1" d="M5.47,11.56H31.33V18H13.09V29H28.54V35.4H13.09V48.12H32v6.41H5.47Z" transform="translate(-5.47 -8.12)"/><path class="cls-1" d="M39.58,50.83,43.1,46c2.87,2.23,5.64,3.6,8.91,3.6,3.52,0,5.18-1.66,5.18-3.87,0-2.7-3.5-3.91-6.94-5.23-4.23-1.58-9.07-4-9.07-9.4,0-5.6,4.52-9.65,11.75-9.65a17.43,17.43,0,0,1,10.72,3.86L60.18,30c-2.26-1.66-4.53-2.82-7.07-2.82-3.24,0-4.78,1.55-4.78,3.58,0,2.55,3.26,3.52,6.75,4.81,4.37,1.63,9.26,3.73,9.26,9.75,0,5.54-4.39,10-12.54,10A20.16,20.16,0,0,1,39.58,50.83Z" transform="translate(-5.47 -8.12)"/><path class="cls-1" d="M71.6,38.42c0-10.75,7.6-17,16.19-17a13.82,13.82,0,0,1,9.44,3.63L93.55,30a7.9,7.9,0,0,0-5.36-2.36c-5.21,0-8.81,4.31-8.81,10.77S82.93,49.15,88,49.15a10.59,10.59,0,0,0,6.67-2.79l3.08,5a15.94,15.94,0,0,1-10.54,4C78.36,55.32,71.6,49.12,71.6,38.42Z" transform="translate(-5.47 -8.12)"/><path class="cls-1" d="M106.35,42.5V22.26h7.56V41.52c0,5.31,1.53,7.31,5,7.31,2.84,0,4.71-1.31,7.15-4.47V22.26h7.57V54.53h-6.2l-.58-4.75h-.21c-2.84,3.36-6,5.54-10.38,5.54C109.37,55.32,106.35,50.64,106.35,42.5Z" transform="translate(-5.47 -8.12)"/><path class="cls-1" d="M143.74,38.42c0-10.75,7.6-17,16.19-17a13.82,13.82,0,0,1,9.44,3.63L165.69,30a7.9,7.9,0,0,0-5.36-2.36c-5.21,0-8.81,4.31-8.81,10.77s3.55,10.73,8.57,10.73a10.64,10.64,0,0,0,6.68-2.79l3.07,5a15.94,15.94,0,0,1-10.54,4C150.5,55.32,143.74,49.12,143.74,38.42Z" transform="translate(-5.47 -8.12)"/><path class="cls-1" d="M178.85,8.12h7.57v12l-.31,6.23c2.7-2.55,5.91-4.89,10.33-4.89,6.91,0,9.93,4.68,9.93,12.83V54.53H198.8V35.27c0-5.31-1.52-7.31-5-7.31-2.84,0-4.7,1.4-7.36,4V54.53h-7.57Z" transform="translate(-5.47 -8.12)"/><path class="cls-1" d="M216.41,45.86c0-6.91,5.73-10.51,19-11.93-.1-3.47-1.49-6.36-5.86-6.36-3.2,0-6.22,1.44-9.06,3.18l-2.79-5.05a25.2,25.2,0,0,1,13.25-4.23c8.07,0,12,5,12,14v19.1h-6.2L236.17,51H236c-2.89,2.47-6.2,4.36-10,4.36C220.3,55.32,216.41,51.48,216.41,45.86Zm19,0V38.63c-8.75,1.11-11.66,3.39-11.66,6.65,0,2.85,1.94,4.1,4.65,4.1S233,48.09,235.38,45.89Z" transform="translate(-5.47 -8.12)"/><path class="cls-1" d="M158.93,97.5h22.48v4.65H163.89v13.51h14.78v4.64H163.89V136H182v4.64H158.93Z" transform="translate(-5.47 -8.12)"/><path class="cls-1" d="M189,137l2.41-3.56c2.51,2.23,5.06,3.78,8.53,3.78,3.79,0,5.68-2.23,5.68-5,0-3.28-3.41-4.74-6.61-6.05-4.05-1.64-8.61-3.84-8.61-9.23,0-5.11,3.7-9.06,10-9.06a13.85,13.85,0,0,1,9,3.59L207,115c-2-1.63-4-2.84-6.58-2.84-3.64,0-5.32,2.14-5.32,4.58,0,3,3.14,4.19,6.41,5.54,4.16,1.73,8.81,3.61,8.81,9.69,0,5.18-3.73,9.49-10.54,9.49A16.41,16.41,0,0,1,189,137Z" transform="translate(-5.47 -8.12)"/><path class="cls-1" d="M217.29,124.7c0-10.66,6.51-16.8,13.9-16.8a11.57,11.57,0,0,1,8.45,3.75l-2.5,3.57c-1.68-1.68-3.46-2.82-5.73-2.82-5.23,0-9.07,5-9.07,12.3s3.62,12.21,8.94,12.21a9.91,9.91,0,0,0,6.78-3.18l2.12,3.62a13.35,13.35,0,0,1-9.34,4.06C223.15,141.41,217.29,135.27,217.29,124.7Z" transform="translate(-5.47 -8.12)"/><path class="cls-1" d="M248.91,108.69h4l.41,5.81h.16c2-4,5-6.6,8.22-6.6a6.13,6.13,0,0,1,3.08.66l-.91,4.74a7.35,7.35,0,0,0-2.8-.53c-2.44,0-5.36,1.94-7.31,7.35v20.5h-4.89Z" transform="translate(-5.47 -8.12)"/><path class="cls-1" d="M271,98.63a3.38,3.38,0,1,1,6.75,0,3.38,3.38,0,1,1-6.75,0Zm.9,10.06h4.88v31.93h-4.88Z" transform="translate(-5.47 -8.12)"/><path class="cls-1" d="M293.43,137.33h-.17l-.45,3.29H288.9V93.81h4.89v12.81l-.16,5.73c2.64-2.52,5.85-4.45,9.07-4.45,7.46,0,11.47,6.4,11.47,16.25,0,10.91-5.91,17.26-12.51,17.26C299,141.41,296,139.88,293.43,137.33Zm15.69-13.11c0-7-2.17-11.77-7.61-11.77-2.45,0-5,1.48-7.72,4.35v16.74c2.54,2.43,5.12,3.33,7,3.33C305.6,136.87,309.12,132.11,309.12,124.22Z" transform="translate(-5.47 -8.12)"/><path class="cls-1" d="M322,124.7c0-10.4,6.34-16.8,13-16.8,7.36,0,11.52,5.85,11.52,15a18.78,18.78,0,0,1-.23,3.07H326.82c.35,6.77,4.09,11.16,9.6,11.16a11.86,11.86,0,0,0,7.19-2.55l1.75,3.54a15.93,15.93,0,0,1-9.54,3.31C328.12,141.41,322,135.19,322,124.7Zm20.19-2.62c0-6.4-2.6-9.88-7.12-9.88-4.06,0-7.69,3.61-8.28,9.88Z" transform="translate(-5.47 -8.12)"/><path class="cls-1" d="M369.86,128.92V108.69h4.89v19.54c0,5.94,1.62,8.49,5.45,8.49,2.95,0,5-1.62,7.73-5.38V108.69h4.89v31.93h-4l-.41-5h-.16c-2.68,3.49-5.57,5.79-9.53,5.79C372.59,141.41,369.86,137.07,369.86,128.92Z" transform="translate(-5.47 -8.12)"/><path class="cls-1" d="M405,108.69h4l.41,4.6h.16c2.76-3,5.73-5.39,9.69-5.39,6.09,0,8.82,4.34,8.82,12.49v20.23h-4.89V121.09c0-6-1.62-8.5-5.45-8.5-3,0-5,1.67-7.89,4.91v23.12H405Z" transform="translate(-5.47 -8.12)"/><path class="cls-1" d="M454.09,108.69h4l.41,4.6h.17c2.75-3,5.72-5.39,9.68-5.39,6.09,0,8.82,4.34,8.82,12.49v20.23h-4.89V121.09c0-6-1.62-8.5-5.44-8.5-3,0-5,1.67-7.9,4.91v23.12h-4.89Z" transform="translate(-5.47 -8.12)"/><path class="cls-1" d="M488.58,128.92V108.69h4.89v19.54c0,5.94,1.63,8.49,5.45,8.49,3,0,5-1.62,7.73-5.38V108.69h4.89v31.93h-4l-.41-5h-.16c-2.68,3.49-5.56,5.79-9.53,5.79C491.32,141.41,488.58,137.07,488.58,128.92Zm8.35-28.66,8.41-10.94,3.44,3.59-9.34,10Z" transform="translate(-5.47 -8.12)"/><path class="cls-1" d="M523.67,108.69h4l.41,4.63h.17c2.52-3,5.55-5.42,9-5.42,4.41,0,6.78,2.34,8,6.08,3-3.59,6-6.08,9.53-6.08,5.93,0,8.78,4.34,8.78,12.49v20.23h-4.88V121.09c0-6-1.71-8.5-5.38-8.5-2.24,0-4.57,1.62-7.24,4.91v23.12h-4.89V121.09c0-6-1.7-8.5-5.37-8.5-2.16,0-4.57,1.62-7.24,4.91v23.12h-4.89Z" transform="translate(-5.47 -8.12)"/><path class="cls-1" d="M573.17,124.7c0-10.4,6.33-16.8,13-16.8,7.37,0,11.53,5.85,11.53,15a18.78,18.78,0,0,1-.23,3.07H578c.35,6.77,4.09,11.16,9.59,11.16a11.83,11.83,0,0,0,7.19-2.55l1.75,3.54a15.9,15.9,0,0,1-9.54,3.31C579.29,141.41,573.17,135.19,573.17,124.7Zm20.19-2.62c0-6.4-2.61-9.88-7.12-9.88-4.06,0-7.69,3.61-8.29,9.88Z" transform="translate(-5.47 -8.12)"/><path class="cls-1" d="M607.16,108.69h4l.41,5.81h.16c2-4,5-6.6,8.22-6.6a6.15,6.15,0,0,1,3.08.66l-.91,4.74a7.36,7.36,0,0,0-2.81-.53c-2.43,0-5.35,1.94-7.3,7.35v20.5h-4.89Z" transform="translate(-5.47 -8.12)"/><path class="cls-1" d="M627.42,124.7c0-10.66,6.3-16.8,13.38-16.8s13.38,6.14,13.38,16.8-6.3,16.71-13.38,16.71S627.42,135.27,627.42,124.7Zm21.71,0c0-7.32-3.36-12.3-8.33-12.3s-8.33,5-8.33,12.3,3.36,12.21,8.33,12.21S649.13,132,649.13,124.7Z" transform="translate(-5.47 -8.12)"/><path class="cls-1" d="M662.54,137.32c0-2.48,1.6-4.17,3.54-4.17s3.54,1.69,3.54,4.17-1.59,4.09-3.54,4.09S662.54,139.72,662.54,137.32Z" transform="translate(-5.47 -8.12)"/><path class="cls-1" d="M158.93,176.35h11.14c8.73,0,14.63,3.25,14.63,12.69,0,9.08-5.86,13.32-14.4,13.32h-6.41v17.11h-5Zm10.75,21.56c6.82,0,10.07-2.73,10.07-8.87s-3.46-8.24-10.31-8.24h-5.55v17.11Z" transform="translate(-5.47 -8.12)"/><path class="cls-1" d="M194.09,207.77V187.53H199v19.54c0,6,1.63,8.49,5.45,8.49,2.95,0,5-1.62,7.73-5.38V187.53h4.89v31.94h-4l-.41-5h-.16c-2.68,3.48-5.56,5.79-9.53,5.79C196.83,220.26,194.09,215.91,194.09,207.77Z" transform="translate(-5.47 -8.12)"/><path class="cls-1" d="M229.18,213.05V172.66h4.89v40.79c0,1.65.65,2.31,1.37,2.31a3.82,3.82,0,0,0,1.06-.13l.67,4.12a7.13,7.13,0,0,1-2.82.51C230.69,220.26,229.18,217.67,229.18,213.05Z" transform="translate(-5.47 -8.12)"/><path class="cls-1" d="M243.51,215.82l2.41-3.56c2.51,2.24,5.06,3.79,8.53,3.79,3.79,0,5.67-2.24,5.67-5,0-3.29-3.41-4.74-6.6-6.06-4.05-1.63-8.62-3.83-8.62-9.22,0-5.11,3.71-9.07,10-9.07a13.85,13.85,0,0,1,9,3.59l-2.34,3.46c-2-1.62-4-2.84-6.59-2.84-3.64,0-5.32,2.15-5.32,4.58,0,3,3.15,4.19,6.42,5.54,4.16,1.74,8.8,3.61,8.8,9.69,0,5.18-3.72,9.5-10.53,9.5A16.4,16.4,0,0,1,243.51,215.82Z" transform="translate(-5.47 -8.12)"/><path class="cls-1" d="M272.2,211.18c0-7,5.43-10.44,17.74-11.92,0-4.11-1.25-8.07-6-8.07-3.34,0-6.35,1.75-8.61,3.43l-1.91-3.71c2.66-1.93,6.71-4.17,11.34-4.17,7,0,10,5.18,10,13.13v19.6h-4l-.42-3.82h-.16c-2.75,2.53-6,4.61-9.55,4.61C275.83,220.26,272.2,216.94,272.2,211.18Zm17.74.5v-8.87c-9.68,1.28-12.95,3.9-12.95,8,0,3.63,2.22,5.1,5.06,5.1S287.14,214.4,289.94,211.68Z" transform="translate(-5.47 -8.12)"/><path class="cls-1" d="M318.43,203.54c0-10.39,6.33-16.8,13-16.8,7.37,0,11.53,5.85,11.53,15a19,19,0,0,1-.23,3.07H323.26c.35,6.76,4.09,11.15,9.6,11.15A11.83,11.83,0,0,0,340,213.4l1.75,3.54a15.84,15.84,0,0,1-9.53,3.32C324.56,220.26,318.43,214,318.43,203.54Zm20.19-2.61c0-6.4-2.6-9.88-7.12-9.88-4.06,0-7.69,3.6-8.28,9.88Z" transform="translate(-5.47 -8.12)"/><path class="cls-1" d="M352.42,187.53h4l.41,4.61H357c2.75-3,5.72-5.4,9.68-5.4,6.09,0,8.82,4.34,8.82,12.49v20.24h-4.88V199.93c0-6-1.63-8.5-5.45-8.5-3,0-5,1.67-7.9,4.91v23.13h-4.89Z" transform="translate(-5.47 -8.12)"/><path class="cls-1" d="M399.42,203.54c0-10.39,6.33-16.8,13-16.8,7.37,0,11.53,5.85,11.53,15a19,19,0,0,1-.23,3.07H404.25c.35,6.76,4.09,11.15,9.6,11.15A11.83,11.83,0,0,0,421,213.4l1.75,3.54a15.84,15.84,0,0,1-9.53,3.32C405.55,220.26,399.42,214,399.42,203.54Zm20.19-2.61c0-6.4-2.6-9.88-7.12-9.88-4.06,0-7.69,3.6-8.28,9.88Z" transform="translate(-5.47 -8.12)"/><path class="cls-1" d="M433.41,213.05V172.66h4.89v40.79c0,1.65.65,2.31,1.37,2.31a3.82,3.82,0,0,0,1.06-.13l.67,4.12a7.13,7.13,0,0,1-2.82.51C434.92,220.26,433.41,217.67,433.41,213.05Z" transform="translate(-5.47 -8.12)"/><path class="cls-1" d="M469.73,216.17h-.16l-.46,3.3H465.2V172.66h4.89v12.8l-.16,5.73c2.64-2.52,5.86-4.45,9.07-4.45,7.46,0,11.48,6.41,11.48,16.25,0,10.91-5.91,17.27-12.51,17.27C475.28,220.26,472.29,218.73,469.73,216.17Zm15.7-13.11c0-7.05-2.18-11.77-7.62-11.77-2.44,0-5,1.49-7.72,4.36v16.74a10.6,10.6,0,0,0,7,3.32C481.9,215.71,485.43,211,485.43,203.06Z" transform="translate(-5.47 -8.12)"/><path class="cls-1" d="M498.3,203.54c0-10.66,6.3-16.8,13.38-16.8s13.38,6.14,13.38,16.8-6.3,16.72-13.38,16.72S498.3,214.12,498.3,203.54Zm21.71,0c0-7.32-3.36-12.3-8.33-12.3s-8.33,5-8.33,12.3,3.36,12.22,8.33,12.22S520,210.86,520,203.54Z" transform="translate(-5.47 -8.12)"/><path class="cls-1" d="M534.87,209.59V191.93h-4.3v-4.09l4.52-.31.59-9h4.08v9h7.82v4.4h-7.82v17.76c0,3.9,1.14,6.16,4.46,6.16a8.8,8.8,0,0,0,3.29-.85l1,4.07a16,16,0,0,1-5.36,1.19C537,220.26,534.87,216,534.87,209.59Z" transform="translate(-5.47 -8.12)"/><path class="cls-1" d="M553.5,203.54c0-10.66,6.3-16.8,13.38-16.8s13.39,6.14,13.39,16.8-6.31,16.72-13.39,16.72S553.5,214.12,553.5,203.54Zm21.72,0c0-7.32-3.37-12.3-8.34-12.3s-8.33,5-8.33,12.3,3.36,12.22,8.33,12.22S575.22,210.86,575.22,203.54Zm-11.69-24.43,8.41-10.94,3.44,3.58L566,181.8Z" transform="translate(-5.47 -8.12)"/><path class="cls-1" d="M590.23,187.53h4l.41,4.61h.16c2.75-3,5.72-5.4,9.69-5.4,6.08,0,8.82,4.34,8.82,12.49v20.24h-4.89V199.93c0-6-1.63-8.5-5.45-8.5-3,0-5,1.67-7.89,4.91v23.13h-4.89Z" transform="translate(-5.47 -8.12)"/><path class="cls-1" d="M639.37,187.53h4l.41,3.69H644c2.61-2.4,5.86-4.48,9.21-4.48,7.46,0,11.45,6.41,11.45,16.27,0,10.89-5.91,17.25-12.51,17.25-2.64,0-5.35-1.35-8-3.7l.13,5.57v10.81h-4.89Zm20.22,15.53c0-7.05-2.18-11.77-7.61-11.77-2.45,0-4.91,1.49-7.72,4.36v16.74c2.61,2.43,5.12,3.32,7,3.32C656.07,215.71,659.59,211,659.59,203.06Z" transform="translate(-5.47 -8.12)"/><path class="cls-1" d="M672.1,211.18c0-7,5.43-10.44,17.74-11.92,0-4.11-1.24-8.07-6-8.07-3.34,0-6.35,1.75-8.61,3.43l-1.92-3.71c2.66-1.93,6.71-4.17,11.35-4.17,7,0,10,5.18,10,13.13v19.6h-4l-.41-3.82h-.16c-2.75,2.53-6,4.61-9.55,4.61C675.73,220.26,672.1,216.94,672.1,211.18Zm17.74.5v-8.87c-9.68,1.28-13,3.9-13,8,0,3.63,2.23,5.1,5.06,5.1S687.05,214.4,689.84,211.68Z" transform="translate(-5.47 -8.12)"/><path class="cls-1" d="M706.22,187.53h4l.41,5.82h.16c2-4.06,5-6.61,8.21-6.61a6.17,6.17,0,0,1,3.09.66l-.92,4.74a7.27,7.27,0,0,0-2.8-.53c-2.44,0-5.35,1.95-7.3,7.35v20.51h-4.89Z" transform="translate(-5.47 -8.12)"/><path class="cls-1" d="M726,211.18c0-7,5.43-10.44,17.74-11.92,0-4.11-1.25-8.07-6-8.07-3.34,0-6.35,1.75-8.62,3.43l-1.91-3.71c2.66-1.93,6.71-4.17,11.34-4.17,7,0,10,5.18,10,13.13v19.6h-4l-.42-3.82H744c-2.75,2.53-6,4.61-9.55,4.61C729.63,220.26,726,216.94,726,211.18Zm17.74.5v-8.87c-9.68,1.28-13,3.9-13,8,0,3.63,2.22,5.1,5.06,5.1S740.94,214.4,743.74,211.68Z" transform="translate(-5.47 -8.12)"/><path class="cls-1" d="M772.23,203.54c0-10.39,6.33-16.8,13-16.8,7.37,0,11.53,5.85,11.53,15a19,19,0,0,1-.23,3.07H777.06c.35,6.76,4.09,11.15,9.6,11.15a11.8,11.8,0,0,0,7.18-2.55l1.75,3.54a15.81,15.81,0,0,1-9.53,3.32C778.36,220.26,772.23,214,772.23,203.54Zm20.19-2.61c0-6.4-2.6-9.88-7.12-9.88-4.06,0-7.69,3.6-8.28,9.88Z" transform="translate(-5.47 -8.12)"/><path class="cls-1" d="M803,215.82l2.41-3.56c2.51,2.24,5.06,3.79,8.53,3.79,3.79,0,5.67-2.24,5.67-5,0-3.29-3.4-4.74-6.6-6.06-4-1.63-8.61-3.83-8.61-9.22,0-5.11,3.7-9.07,10-9.07a13.85,13.85,0,0,1,9,3.59L821,193.79c-2-1.62-4-2.84-6.59-2.84-3.63,0-5.31,2.15-5.31,4.58,0,3,3.14,4.19,6.41,5.54,4.16,1.74,8.8,3.61,8.8,9.69,0,5.18-3.72,9.5-10.53,9.5A16.42,16.42,0,0,1,803,215.82Z" transform="translate(-5.47 -8.12)"/><path class="cls-1" d="M831.35,203.54c0-10.66,6.51-16.8,13.9-16.8a11.57,11.57,0,0,1,8.45,3.75l-2.5,3.57c-1.68-1.68-3.46-2.82-5.73-2.82-5.23,0-9.07,5-9.07,12.3s3.63,12.22,8.94,12.22a10,10,0,0,0,6.78-3.18l2.12,3.62a13.33,13.33,0,0,1-9.34,4.06C837.21,220.26,831.35,214.12,831.35,203.54Z" transform="translate(-5.47 -8.12)"/><path class="cls-1" d="M862.58,207.77V187.53h4.89v19.54c0,6,1.63,8.49,5.45,8.49,3,0,5-1.62,7.73-5.38V187.53h4.89v31.94h-4l-.41-5h-.16c-2.68,3.48-5.56,5.79-9.53,5.79C865.32,220.26,862.58,215.91,862.58,207.77Z" transform="translate(-5.47 -8.12)"/><path class="cls-1" d="M895.53,203.54c0-10.66,6.51-16.8,13.89-16.8a11.57,11.57,0,0,1,8.45,3.75l-2.5,3.57c-1.68-1.68-3.46-2.82-5.73-2.82-5.23,0-9.06,5-9.06,12.3s3.62,12.22,8.93,12.22a10,10,0,0,0,6.78-3.18l2.12,3.62a13.31,13.31,0,0,1-9.34,4.06C901.39,220.26,895.53,214.12,895.53,203.54Z" transform="translate(-5.47 -8.12)"/><path class="cls-1" d="M927.15,172.66H932v12.8l-.17,6.57c2.7-2.89,5.62-5.29,9.59-5.29,6.08,0,8.82,4.34,8.82,12.49v20.24h-4.89V199.93c0-6-1.63-8.5-5.45-8.5-2.95,0-5,1.67-7.9,4.91v23.13h-4.88Z" transform="translate(-5.47 -8.12)"/><path class="cls-1" d="M960.06,211.18c0-7,5.43-10.44,17.74-11.92,0-4.11-1.25-8.07-6-8.07-3.34,0-6.35,1.75-8.62,3.43l-1.91-3.71c2.66-1.93,6.71-4.17,11.35-4.17,7,0,10,5.18,10,13.13v19.6h-4l-.41-3.82h-.17c-2.75,2.53-6,4.61-9.55,4.61C963.69,220.26,960.06,216.94,960.06,211.18Zm17.74.5v-8.87c-9.68,1.28-12.95,3.9-12.95,8,0,3.63,2.22,5.1,5.06,5.1S975,214.4,977.8,211.68Z" transform="translate(-5.47 -8.12)"/><path class="cls-1" d="M994.17,187.53h4l.41,5.82h.17c2-4.06,5-6.61,8.21-6.61a6.13,6.13,0,0,1,3.08.66l-.91,4.74a7.35,7.35,0,0,0-2.8-.53c-2.44,0-5.36,1.95-7.31,7.35v20.51h-4.89Z" transform="translate(-5.47 -8.12)"/><path class="cls-1" d="M1017.17,213.05V172.66h4.89v40.79c0,1.65.65,2.31,1.36,2.31a3.88,3.88,0,0,0,1.07-.13l.66,4.12a7.07,7.07,0,0,1-2.81.51C1018.68,220.26,1017.17,217.67,1017.17,213.05Z" transform="translate(-5.47 -8.12)"/><path class="cls-1" d="M1032.55,203.54c0-10.66,6.31-16.8,13.39-16.8s13.38,6.14,13.38,16.8-6.3,16.72-13.38,16.72S1032.55,214.12,1032.55,203.54Zm21.72,0c0-7.32-3.37-12.3-8.33-12.3s-8.34,5-8.34,12.3,3.37,12.22,8.34,12.22S1054.27,210.86,1054.27,203.54Z" transform="translate(-5.47 -8.12)"/><path class="cls-1" d="M1067.68,216.16c0-2.48,1.59-4.17,3.54-4.17s3.54,1.69,3.54,4.17-1.6,4.1-3.54,4.1S1067.68,218.56,1067.68,216.16Z" transform="translate(-5.47 -8.12)"/></g></g></svg>