<svg xmlns="http://www.w3.org/2000/svg" viewBox="0 0 1208.33 223.62"><defs><style>.cls-1{fill:#0071ba;}</style></defs><g id="Layer_2" data-name="Layer 2"><g id="Textos_y_botones" data-name="Textos y botones"><path class="cls-1" d="M5.47,11.56H31.33V18H13.09V29H28.54V35.4H13.09V48.12H32v6.41H5.47Z" transform="translate(-5.47 -8.04)"/><path class="cls-1" d="M39.58,50.83,43.1,46c2.87,2.23,5.64,3.6,8.91,3.6,3.52,0,5.18-1.66,5.18-3.87,0-2.7-3.5-3.91-6.94-5.23-4.23-1.58-9.07-4-9.07-9.4,0-5.6,4.52-9.65,11.75-9.65a17.43,17.43,0,0,1,10.72,3.86L60.18,30c-2.26-1.66-4.53-2.82-7.07-2.82-3.24,0-4.78,1.55-4.78,3.58,0,2.55,3.26,3.52,6.75,4.81,4.37,1.63,9.26,3.73,9.26,9.75,0,5.54-4.39,10-12.54,10A20.16,20.16,0,0,1,39.58,50.83Z" transform="translate(-5.47 -8.04)"/><path class="cls-1" d="M71.6,38.42c0-10.75,7.6-17,16.19-17a13.82,13.82,0,0,1,9.44,3.63L93.55,30a7.9,7.9,0,0,0-5.36-2.36c-5.21,0-8.81,4.31-8.81,10.77S82.93,49.15,88,49.15a10.59,10.59,0,0,0,6.67-2.79l3.08,5a15.94,15.94,0,0,1-10.54,4C78.36,55.32,71.6,49.12,71.6,38.42Z" transform="translate(-5.47 -8.04)"/><path class="cls-1" d="M106.71,22.26h6.21l.57,5.76h.21c2.3-4.21,5.72-6.55,9.18-6.55a8.16,8.16,0,0,1,3.65.66l-1.31,6.57a10.85,10.85,0,0,0-3.32-.53c-2.57,0-5.67,1.76-7.62,6.68V54.53h-7.57Z" transform="translate(-5.47 -8.04)"/><path class="cls-1" d="M133,12.32C133,9.78,135,8,137.66,8s4.68,1.74,4.68,4.28a4.7,4.7,0,0,1-9.36,0Zm.87,9.94h7.57V54.53h-7.57Z" transform="translate(-5.47 -8.04)"/><path class="cls-1" d="M160.52,51.14h-.21l-.65,3.39h-6V8.12h7.57v12l-.21,5.36c2.69-2.36,6-4,9.31-4,8.07,0,12.74,6.47,12.74,16.39,0,11.08-6.6,17.46-13.77,17.46C166.38,55.32,163.23,53.82,160.52,51.14ZM175.32,38c0-6.44-2.1-10.25-7-10.25-2.34,0-4.6,1.18-7,3.62v15a10,10,0,0,0,6.46,2.68C172,49.07,175.32,45.28,175.32,38Z" transform="translate(-5.47 -8.04)"/><path class="cls-1" d="M191.18,38.42c0-10.48,7.28-17,14.87-17,8.73,0,13.33,6.31,13.33,15.32a19.64,19.64,0,0,1-.33,3.68H198.56c.63,5.73,4.31,9,9.52,9a13.79,13.79,0,0,0,7.49-2.34l2.57,4.71a20,20,0,0,1-11.06,3.49C198.17,55.32,191.18,49.07,191.18,38.42Zm21.65-3.1c0-5-2.2-8-6.62-8-3.76,0-7.07,2.81-7.72,8Z" transform="translate(-5.47 -8.04)"/><path class="cls-1" d="M185.68,97.34h11c8.65,0,14.48,3.22,14.48,12.57,0,9-5.8,13.18-14.25,13.18H190.6V140h-4.92Zm10.64,21.34c6.75,0,10-2.7,10-8.77s-3.42-8.16-10.2-8.16H190.6v16.93Z" transform="translate(-5.47 -8.04)"/><path class="cls-1" d="M220.49,128.43v-20h4.83v19.33c0,5.89,1.61,8.41,5.4,8.41,2.92,0,4.94-1.6,7.65-5.33V108.41h4.84V140h-4l-.41-4.94h-.16c-2.65,3.45-5.5,5.72-9.43,5.72C223.19,140.79,220.49,136.5,220.49,128.43Z" transform="translate(-5.47 -8.04)"/><path class="cls-1" d="M255.21,133.67v-40h4.84v40.37c0,1.63.64,2.28,1.35,2.28a3.82,3.82,0,0,0,1.06-.13l.65,4.08a7,7,0,0,1-2.78.5C256.7,140.79,255.21,138.24,255.21,133.67Z" transform="translate(-5.47 -8.04)"/><path class="cls-1" d="M269.39,136.41l2.39-3.52c2.48,2.21,5,3.74,8.43,3.74,3.76,0,5.62-2.21,5.62-4.91,0-3.25-3.37-4.69-6.54-6-4-1.62-8.52-3.8-8.52-9.13,0-5.06,3.66-9,9.86-9a13.7,13.7,0,0,1,8.89,3.55l-2.32,3.43c-2-1.61-4-2.82-6.52-2.82-3.6,0-5.26,2.13-5.26,4.54,0,3,3.11,4.15,6.35,5.48,4.12,1.72,8.71,3.57,8.71,9.59,0,5.12-3.68,9.39-10.43,9.39A16.25,16.25,0,0,1,269.39,136.41Z" transform="translate(-5.47 -8.04)"/><path class="cls-1" d="M297.78,131.81c0-6.89,5.37-10.33,17.56-11.79,0-4.07-1.24-8-5.91-8-3.3,0-6.28,1.74-8.52,3.39L299,111.76c2.63-1.91,6.64-4.13,11.23-4.13,7,0,9.92,5.13,9.92,13V140h-4l-.41-3.77h-.16c-2.73,2.5-5.91,4.55-9.46,4.55C301.37,140.79,297.78,137.51,297.78,131.81Zm17.56.49v-8.77c-9.58,1.27-12.82,3.86-12.82,7.9,0,3.59,2.2,5.06,5,5.06S312.57,135,315.34,132.3Z" transform="translate(-5.47 -8.04)"/><path class="cls-1" d="M343.53,124.25c0-10.28,6.27-16.62,12.85-16.62,7.29,0,11.41,5.79,11.41,14.83a18.57,18.57,0,0,1-.23,3H348.31c.35,6.69,4.05,11,9.5,11a11.72,11.72,0,0,0,7.11-2.52l1.73,3.51a15.73,15.73,0,0,1-9.44,3.27C349.6,140.79,343.53,134.63,343.53,124.25Zm20-2.58c0-6.34-2.57-9.78-7-9.78-4,0-7.61,3.57-8.2,9.78Z" transform="translate(-5.47 -8.04)"/><path class="cls-1" d="M377.17,108.41h4l.41,4.56h.16c2.72-3,5.66-5.34,9.59-5.34,6,0,8.72,4.3,8.72,12.36v20h-4.83V120.68c0-5.89-1.61-8.41-5.4-8.41-2.92,0-4.94,1.65-7.81,4.86V140h-4.84Z" transform="translate(-5.47 -8.04)"/><path class="cls-1" d="M423.68,124.25c0-10.28,6.27-16.62,12.85-16.62,7.29,0,11.41,5.79,11.41,14.83a18.57,18.57,0,0,1-.23,3H428.46c.35,6.69,4.05,11,9.5,11a11.72,11.72,0,0,0,7.11-2.52l1.73,3.51a15.72,15.72,0,0,1-9.43,3.27C429.75,140.79,423.68,134.63,423.68,124.25Zm20-2.58c0-6.34-2.57-9.78-7-9.78-4,0-7.61,3.57-8.2,9.78Z" transform="translate(-5.47 -8.04)"/><path class="cls-1" d="M457.32,133.67v-40h4.84v40.37c0,1.63.64,2.28,1.35,2.28a3.82,3.82,0,0,0,1.06-.13l.65,4.08a6.93,6.93,0,0,1-2.78.5C458.81,140.79,457.32,138.24,457.32,133.67Z" transform="translate(-5.47 -8.04)"/><path class="cls-1" d="M487,131.81c0-6.89,5.38-10.33,17.56-11.79,0-4.07-1.23-8-5.9-8-3.31,0-6.29,1.74-8.53,3.39l-1.89-3.66c2.63-1.91,6.64-4.13,11.23-4.13,7,0,9.93,5.13,9.93,13V140h-4l-.41-3.77h-.16c-2.72,2.5-5.91,4.55-9.45,4.55C490.6,140.79,487,137.51,487,131.81Zm17.56.49v-8.77c-9.58,1.27-12.82,3.86-12.82,7.9,0,3.59,2.21,5.06,5,5.06S501.8,135,504.57,132.3Z" transform="translate(-5.47 -8.04)"/><path class="cls-1" d="M520.77,133.67v-40h4.84v40.37c0,1.63.64,2.28,1.35,2.28a3.82,3.82,0,0,0,1.06-.13l.65,4.08a6.93,6.93,0,0,1-2.78.5C522.26,140.79,520.77,138.24,520.77,133.67Z" transform="translate(-5.47 -8.04)"/><path class="cls-1" d="M539,130.24V112.77h-4.26v-4l4.47-.31.59-8.86h4v8.86h7.75v4.36H543.8v17.57c0,3.86,1.13,6.1,4.43,6.1a8.9,8.9,0,0,0,3.25-.85l.94,4a15.65,15.65,0,0,1-5.31,1.17C541,140.79,539,136.53,539,130.24Z" transform="translate(-5.47 -8.04)"/><path class="cls-1" d="M557.34,131.81c0-6.89,5.38-10.33,17.56-11.79,0-4.07-1.23-8-5.9-8-3.31,0-6.29,1.74-8.53,3.39l-1.89-3.66c2.63-1.91,6.64-4.13,11.23-4.13,7,0,9.93,5.13,9.93,13V140h-4l-.41-3.77h-.16c-2.72,2.5-5.9,4.55-9.45,4.55C560.93,140.79,557.34,137.51,557.34,131.81Zm17.56.49v-8.77c-9.58,1.27-12.82,3.86-12.82,7.9,0,3.59,2.21,5.06,5,5.06S572.13,135,574.9,132.3Z" transform="translate(-5.47 -8.04)"/><path class="cls-1" d="M587,108.41h5l5.41,18c.85,3.09,1.78,6.31,2.64,9.32h.23c.86-3,1.78-6.23,2.64-9.32l5.4-18H613L602.92,140H597.3Z" transform="translate(-5.47 -8.04)"/><path class="cls-1" d="M618.56,124.25c0-10.54,6.24-16.62,13.25-16.62s13.24,6.08,13.24,16.62-6.24,16.54-13.24,16.54S618.56,134.72,618.56,124.25Zm21.49,0c0-7.24-3.33-12.17-8.24-12.17s-8.25,4.93-8.25,12.17,3.33,12.09,8.25,12.09S640.05,131.5,640.05,124.25Z" transform="translate(-5.47 -8.04)"/><path class="cls-1" d="M651.56,137.16l15-24.39H653.23v-4.36h19.49v2.86l-15,24.39h15.54V140H651.56Z" transform="translate(-5.47 -8.04)"/><path class="cls-1" d="M696,108.41h4l.41,3.65h.16c2.58-2.38,5.8-4.43,9.11-4.43,7.39,0,11.33,6.34,11.33,16.1,0,10.77-5.85,17.06-12.38,17.06-2.62,0-5.3-1.33-7.92-3.66l.13,5.52v10.7H696Zm20,15.37c0-7-2.16-11.65-7.54-11.65-2.42,0-4.86,1.47-7.64,4.31V133c2.59,2.4,5.07,3.28,7,3.28C712.54,136.29,716,131.58,716,123.78Z" transform="translate(-5.47 -8.04)"/><path class="cls-1" d="M728.41,131.81c0-6.89,5.37-10.33,17.55-11.79,0-4.07-1.23-8-5.9-8-3.3,0-6.28,1.74-8.52,3.39l-1.89-3.66c2.63-1.91,6.64-4.13,11.22-4.13,7,0,9.93,5.13,9.93,13V140h-4l-.41-3.77h-.16c-2.73,2.5-5.91,4.55-9.46,4.55C732,140.79,728.41,137.51,728.41,131.81Zm17.55.49v-8.77c-9.58,1.27-12.81,3.86-12.81,7.9,0,3.59,2.2,5.06,5,5.06S743.2,135,746,132.3Z" transform="translate(-5.47 -8.04)"/><path class="cls-1" d="M762.17,108.41h4l.41,5.76h.16c2-4,4.91-6.54,8.13-6.54a6.12,6.12,0,0,1,3,.65L777,113a7.38,7.38,0,0,0-2.77-.52c-2.42,0-5.3,1.92-7.24,7.27V140h-4.83Z" transform="translate(-5.47 -8.04)"/><path class="cls-1" d="M781.74,131.81c0-6.89,5.38-10.33,17.56-11.79,0-4.07-1.23-8-5.9-8-3.31,0-6.28,1.74-8.52,3.39l-1.9-3.66c2.63-1.91,6.64-4.13,11.23-4.13,7,0,9.93,5.13,9.93,13V140h-4l-.41-3.77h-.16c-2.72,2.5-5.9,4.55-9.45,4.55C785.33,140.79,781.74,137.51,781.74,131.81Zm17.56.49v-8.77c-9.58,1.27-12.82,3.86-12.82,7.9,0,3.59,2.21,5.06,5,5.06S796.53,135,799.3,132.3Z" transform="translate(-5.47 -8.04)"/><path class="cls-1" d="M827.49,124.25c0-10.54,6.24-16.62,13.25-16.62S854,113.71,854,124.25s-6.24,16.54-13.25,16.54S827.49,134.72,827.49,124.25Zm21.5,0c0-7.24-3.33-12.17-8.25-12.17s-8.25,4.93-8.25,12.17,3.33,12.09,8.25,12.09S849,131.5,849,124.25Z" transform="translate(-5.47 -8.04)"/><path class="cls-1" d="M863,98.46a3.34,3.34,0,1,1,6.68,0,3.34,3.34,0,1,1-6.68,0Zm.88,10h4.84V140h-4.84Z" transform="translate(-5.47 -8.04)"/><path class="cls-1" d="M880.66,108.41h4l.4,5.76h.17c2-4,4.91-6.54,8.12-6.54a6.09,6.09,0,0,1,3,.65l-.9,4.69a7.34,7.34,0,0,0-2.77-.52c-2.42,0-5.3,1.92-7.23,7.27V140h-4.84Z" transform="translate(-5.47 -8.04)"/><path class="cls-1" d="M917.15,128.43v-20H922v19.33c0,5.89,1.61,8.41,5.4,8.41,2.92,0,4.94-1.6,7.65-5.33V108.41h4.84V140h-4l-.41-4.94h-.16c-2.65,3.45-5.5,5.72-9.43,5.72C919.85,140.79,917.15,136.5,917.15,128.43Z" transform="translate(-5.47 -8.04)"/><path class="cls-1" d="M951.87,108.41h4l.41,4.56h.16c2.72-3,5.66-5.34,9.59-5.34,6,0,8.72,4.3,8.72,12.36v20h-4.83V120.68c0-5.89-1.61-8.41-5.4-8.41-2.92,0-4.94,1.65-7.81,4.86V140h-4.84Z" transform="translate(-5.47 -8.04)"/><path class="cls-1" d="M1000.5,108.41h4l.41,4.56h.16c2.72-3,5.66-5.34,9.59-5.34,6,0,8.73,4.3,8.73,12.36v20h-4.84V120.68c0-5.89-1.61-8.41-5.39-8.41-2.93,0-4.95,1.65-7.82,4.86V140h-4.84Z" transform="translate(-5.47 -8.04)"/><path class="cls-1" d="M1034.64,128.43v-20h4.84v19.33c0,5.89,1.61,8.41,5.39,8.41,2.92,0,5-1.6,7.65-5.33V108.41h4.84V140h-4l-.4-4.94h-.17c-2.65,3.45-5.5,5.72-9.42,5.72C1037.34,140.79,1034.64,136.5,1034.64,128.43Zm8.25-28.36,8.33-10.82,3.4,3.55-9.24,9.94Z" transform="translate(-5.47 -8.04)"/><path class="cls-1" d="M1069.36,108.41h4l.41,4.58h.16c2.5-3,5.49-5.36,8.9-5.36,4.37,0,6.71,2.31,7.89,6,3-3.55,6-6,9.43-6,5.87,0,8.69,4.3,8.69,12.36v20H1104V120.68c0-5.89-1.68-8.41-5.31-8.41-2.22,0-4.52,1.61-7.17,4.86V140h-4.84V120.68c0-5.89-1.68-8.41-5.31-8.41-2.15,0-4.52,1.61-7.17,4.86V140h-4.84Z" transform="translate(-5.47 -8.04)"/><path class="cls-1" d="M1118.34,124.25c0-10.28,6.27-16.62,12.85-16.62,7.29,0,11.41,5.79,11.41,14.83a19.88,19.88,0,0,1-.22,3h-19.26c.35,6.69,4.05,11,9.5,11a11.75,11.75,0,0,0,7.12-2.52l1.73,3.51a15.75,15.75,0,0,1-9.44,3.27C1124.41,140.79,1118.34,134.63,1118.34,124.25Zm20-2.58c0-6.34-2.58-9.78-7-9.78-4,0-7.61,3.57-8.2,9.78Z" transform="translate(-5.47 -8.04)"/><path class="cls-1" d="M1152,108.41h4l.41,5.76h.16c2-4,4.91-6.54,8.13-6.54a6.14,6.14,0,0,1,3,.65l-.9,4.69a7.4,7.4,0,0,0-2.78-.52c-2.41,0-5.3,1.92-7.23,7.27V140H1152Z" transform="translate(-5.47 -8.04)"/><path class="cls-1" d="M1172,124.25c0-10.54,6.24-16.62,13.25-16.62s13.24,6.08,13.24,16.62-6.24,16.54-13.24,16.54S1172,134.72,1172,124.25Zm21.5,0c0-7.24-3.34-12.17-8.25-12.17S1177,117,1177,124.25s3.33,12.09,8.25,12.09S1193.53,131.5,1193.53,124.25Z" transform="translate(-5.47 -8.04)"/><path class="cls-1" d="M1206.79,136.74c0-2.45,1.58-4.13,3.51-4.13s3.5,1.68,3.5,4.13-1.58,4-3.5,4S1206.79,139.12,1206.79,136.74Z" transform="translate(-5.47 -8.04)"/><path class="cls-1" d="M185.68,175.37h22.25V180H190.6v13.37h14.62v4.6H190.6v15.51h17.92V218H185.68Z" transform="translate(-5.47 -8.04)"/><path class="cls-1" d="M215.41,214.43l2.38-3.52c2.49,2.21,5,3.74,8.44,3.74,3.75,0,5.62-2.21,5.62-4.9,0-3.26-3.38-4.69-6.54-6-4-1.62-8.52-3.8-8.52-9.13,0-5.06,3.66-9,9.86-9a13.66,13.66,0,0,1,8.88,3.56l-2.31,3.42c-2-1.61-4-2.81-6.52-2.81-3.6,0-5.26,2.12-5.26,4.53,0,3,3.11,4.15,6.34,5.49,4.13,1.71,8.72,3.57,8.72,9.58,0,5.13-3.68,9.4-10.43,9.4A16.19,16.19,0,0,1,215.41,214.43Z" transform="translate(-5.47 -8.04)"/><path class="cls-1" d="M243.44,202.28c0-10.55,6.45-16.63,13.76-16.63a11.48,11.48,0,0,1,8.36,3.71l-2.48,3.54c-1.66-1.66-3.42-2.79-5.67-2.79-5.17,0-9,4.93-9,12.17s3.59,12.09,8.84,12.09a9.89,9.89,0,0,0,6.72-3.15l2.09,3.58a13.21,13.21,0,0,1-9.24,4C249.24,218.82,243.44,212.74,243.44,202.28Z" transform="translate(-5.47 -8.04)"/><path class="cls-1" d="M274.73,186.43h4l.41,5.76h.16c2-4,4.91-6.54,8.13-6.54a6.14,6.14,0,0,1,3.05.65l-.9,4.7a7.21,7.21,0,0,0-2.78-.52c-2.41,0-5.3,1.92-7.23,7.27V218h-4.84Z" transform="translate(-5.47 -8.04)"/><path class="cls-1" d="M296.59,178.1l8.33-10.83,3.4,3.55-9.24,10Zm.9,8.33h4.84V218h-4.84Z" transform="translate(-5.47 -8.04)"/><path class="cls-1" d="M318.79,214.78h-.16l-.46,3.26h-3.86V171.72h4.84v12.67l-.17,5.67c2.62-2.5,5.8-4.41,9-4.41,7.39,0,11.36,6.34,11.36,16.08,0,10.8-5.85,17.09-12.38,17.09C324.28,218.82,321.32,217.31,318.79,214.78Zm15.53-13c0-7-2.15-11.66-7.53-11.66-2.42,0-4.94,1.48-7.64,4.32V211a10.45,10.45,0,0,0,7,3.29C330.84,214.32,334.32,209.61,334.32,201.81Z" transform="translate(-5.47 -8.04)"/><path class="cls-1" d="M347.06,202.28c0-10.29,6.27-16.63,12.85-16.63,7.29,0,11.4,5.79,11.4,14.83a18.68,18.68,0,0,1-.22,3H351.84c.34,6.7,4.05,11,9.49,11a11.7,11.7,0,0,0,7.12-2.53l1.73,3.51a15.76,15.76,0,0,1-9.44,3.28C353.12,218.82,347.06,212.66,347.06,202.28Zm20-2.59c0-6.33-2.58-9.77-7.05-9.77-4,0-7.61,3.56-8.2,9.77Z" transform="translate(-5.47 -8.04)"/><path class="cls-1" d="M380.7,211.69v-40h4.84v40.36c0,1.64.64,2.29,1.35,2.29a3.76,3.76,0,0,0,1.05-.13l.66,4.08a7.19,7.19,0,0,1-2.78.5C382.19,218.82,380.7,216.26,380.7,211.69Z" transform="translate(-5.47 -8.04)"/><path class="cls-1" d="M395.92,202.28c0-10.55,6.24-16.63,13.25-16.63s13.25,6.08,13.25,16.63-6.24,16.54-13.25,16.54S395.92,212.74,395.92,202.28Zm21.5,0c0-7.24-3.34-12.17-8.25-12.17s-8.25,4.93-8.25,12.17,3.33,12.09,8.25,12.09S417.42,209.52,417.42,202.28Z" transform="translate(-5.47 -8.04)"/><path class="cls-1" d="M443.28,231l1-4.26a6.85,6.85,0,0,0,2.18.47c3.22,0,5.26-2.86,6.44-6.78l.65-2.34L442,186.43h5l5.83,17.5c.9,2.75,1.86,6,2.79,8.9h.23c.81-2.87,1.62-6.11,2.4-8.9l5.1-17.5h4.74l-10.77,34.21c-2,6.27-5,11-10.71,11A8.46,8.46,0,0,1,443.28,231Z" transform="translate(-5.47 -8.04)"/><path class="cls-1" d="M488,202.28c0-10.55,6.45-16.63,13.76-16.63a11.48,11.48,0,0,1,8.36,3.71l-2.48,3.54c-1.66-1.66-3.42-2.79-5.67-2.79-5.17,0-9,4.93-9,12.17s3.59,12.09,8.84,12.09a9.84,9.84,0,0,0,6.71-3.15l2.1,3.58a13.21,13.21,0,0,1-9.24,4C493.75,218.82,488,212.74,488,202.28Z" transform="translate(-5.47 -8.04)"/><path class="cls-1" d="M515.88,202.28c0-10.55,6.24-16.63,13.25-16.63s13.25,6.08,13.25,16.63-6.24,16.54-13.25,16.54S515.88,212.74,515.88,202.28Zm21.5,0c0-7.24-3.33-12.17-8.25-12.17s-8.25,4.93-8.25,12.17,3.33,12.09,8.25,12.09S537.38,209.52,537.38,202.28Z" transform="translate(-5.47 -8.04)"/><path class="cls-1" d="M552.23,186.43h4l.41,4.59h.16c2.5-3,5.49-5.37,8.89-5.37,4.37,0,6.72,2.32,7.9,6,3-3.56,5.95-6,9.42-6,5.88,0,8.7,4.3,8.7,12.36v20h-4.84V198.71c0-5.89-1.68-8.41-5.32-8.41-2.21,0-4.51,1.6-7.16,4.85V218h-4.84V198.71c0-5.89-1.68-8.41-5.32-8.41-2.14,0-4.52,1.6-7.16,4.85V218h-4.84Z" transform="translate(-5.47 -8.04)"/><path class="cls-1" d="M603.33,186.43h4l.41,3.65h.16c2.59-2.37,5.8-4.43,9.11-4.43,7.39,0,11.34,6.34,11.34,16.11,0,10.77-5.85,17.06-12.38,17.06-2.62,0-5.3-1.34-7.93-3.66l.13,5.51v10.7h-4.84Zm20,15.38c0-7-2.16-11.66-7.54-11.66-2.42,0-4.86,1.48-7.64,4.32V211c2.59,2.41,5.07,3.29,7,3.29C619.86,214.32,623.35,209.61,623.35,201.81Z" transform="translate(-5.47 -8.04)"/><path class="cls-1" d="M638.32,186.43h4l.41,5.76h.16c2-4,4.91-6.54,8.13-6.54a6.14,6.14,0,0,1,3.05.65l-.9,4.7a7.21,7.21,0,0,0-2.78-.52c-2.41,0-5.3,1.92-7.23,7.27V218h-4.84Z" transform="translate(-5.47 -8.04)"/><path class="cls-1" d="M660.7,206.46v-20h4.83v19.34c0,5.89,1.61,8.41,5.4,8.41,2.92,0,5-1.61,7.65-5.33V186.43h4.84V218h-4l-.41-4.95h-.16c-2.65,3.45-5.5,5.73-9.43,5.73C663.4,218.82,660.7,214.52,660.7,206.46Z" transform="translate(-5.47 -8.04)"/><path class="cls-1" d="M693.3,202.28c0-10.29,6.27-16.63,12.85-16.63,7.29,0,11.41,5.79,11.41,14.83a18.57,18.57,0,0,1-.23,3H698.08c.35,6.7,4,11,9.5,11a11.67,11.67,0,0,0,7.11-2.53l1.73,3.51a15.73,15.73,0,0,1-9.44,3.28C699.37,218.82,693.3,212.66,693.3,202.28Zm20-2.59c0-6.33-2.57-9.77-7-9.77-4,0-7.61,3.56-8.2,9.77Z" transform="translate(-5.47 -8.04)"/><path class="cls-1" d="M731.42,214.78h-.16l-.45,3.26h-3.87V171.72h4.84v12.67l-.16,5.67c2.61-2.5,5.8-4.41,9-4.41C748,185.65,752,192,752,201.73c0,10.8-5.85,17.09-12.38,17.09C736.91,218.82,734,217.31,731.42,214.78Zm15.54-13c0-7-2.16-11.66-7.54-11.66-2.42,0-4.94,1.48-7.64,4.32V211a10.45,10.45,0,0,0,7,3.29C743.47,214.32,747,209.61,747,201.81Z" transform="translate(-5.47 -8.04)"/><path class="cls-1" d="M759.22,209.83c0-6.88,5.37-10.32,17.56-11.79,0-4.06-1.24-8-5.9-8-3.31,0-6.29,1.73-8.53,3.39l-1.89-3.67c2.63-1.91,6.64-4.13,11.23-4.13,7,0,9.92,5.13,9.92,13V218h-4l-.41-3.78h-.16c-2.73,2.51-5.91,4.56-9.46,4.56C762.81,218.82,759.22,215.54,759.22,209.83Zm17.56.5v-8.78c-9.58,1.27-12.82,3.87-12.82,7.91,0,3.59,2.2,5,5,5S774,213,776.78,210.33Z" transform="translate(-5.47 -8.04)"/><path class="cls-1" d="M803.92,214.43l2.39-3.52c2.48,2.21,5,3.74,8.44,3.74,3.75,0,5.62-2.21,5.62-4.9,0-3.26-3.38-4.69-6.54-6-4-1.62-8.53-3.8-8.53-9.13,0-5.06,3.67-9,9.86-9a13.68,13.68,0,0,1,8.89,3.56l-2.31,3.42c-2-1.61-4-2.81-6.52-2.81-3.6,0-5.26,2.12-5.26,4.53,0,3,3.1,4.15,6.34,5.49,4.12,1.71,8.72,3.57,8.72,9.58,0,5.13-3.69,9.4-10.43,9.4A16.24,16.24,0,0,1,803.92,214.43Z" transform="translate(-5.47 -8.04)"/><path class="cls-1" d="M833.2,176.48a3.34,3.34,0,1,1,6.68,0,3.34,3.34,0,1,1-6.68,0Zm.88,10h4.84V218h-4.84Z" transform="translate(-5.47 -8.04)"/><path class="cls-1" d="M865,171.72h4.83v12.67l-.17,6.49c2.67-2.85,5.57-5.23,9.49-5.23,6,0,8.73,4.3,8.73,12.36v20h-4.84V198.71c0-5.89-1.61-8.41-5.39-8.41-2.93,0-4.95,1.65-7.82,4.85V218H865Z" transform="translate(-5.47 -8.04)"/><path class="cls-1" d="M897.59,209.83c0-6.88,5.37-10.32,17.55-11.79,0-4.06-1.23-8-5.9-8-3.3,0-6.28,1.73-8.52,3.39l-1.89-3.67c2.63-1.91,6.64-4.13,11.22-4.13,7,0,9.93,5.13,9.93,13V218h-4l-.4-3.78h-.16c-2.73,2.51-5.91,4.56-9.46,4.56C901.18,218.82,897.59,215.54,897.59,209.83Zm17.55.5v-8.78c-9.58,1.27-12.81,3.87-12.81,7.91,0,3.59,2.2,5,5,5S912.38,213,915.14,210.33Z" transform="translate(-5.47 -8.04)"/><path class="cls-1" d="M928.18,214.43l2.39-3.52c2.48,2.21,5,3.74,8.43,3.74,3.76,0,5.62-2.21,5.62-4.9,0-3.26-3.37-4.69-6.54-6-4-1.62-8.52-3.8-8.52-9.13,0-5.06,3.66-9,9.86-9a13.71,13.71,0,0,1,8.89,3.56L946,192.63c-2-1.61-4-2.81-6.52-2.81-3.6,0-5.26,2.12-5.26,4.53,0,3,3.11,4.15,6.35,5.49,4.12,1.71,8.71,3.57,8.71,9.58,0,5.13-3.68,9.4-10.43,9.4A16.19,16.19,0,0,1,928.18,214.43Z" transform="translate(-5.47 -8.04)"/><path class="cls-1" d="M970.68,209.83c0-6.88,5.37-10.32,17.56-11.79,0-4.06-1.23-8-5.9-8-3.31,0-6.29,1.73-8.53,3.39l-1.89-3.67c2.63-1.91,6.64-4.13,11.23-4.13,7,0,9.93,5.13,9.93,13V218h-4l-.41-3.78h-.16c-2.72,2.51-5.91,4.56-9.45,4.56C974.27,218.82,970.68,215.54,970.68,209.83Zm17.56.5v-8.78c-9.58,1.27-12.82,3.87-12.82,7.91,0,3.59,2.2,5,5,5S985.47,213,988.24,210.33Z" transform="translate(-5.47 -8.04)"/><path class="cls-1" d="M1002.32,202.28c0-10.55,6.44-16.63,13.75-16.63a11.48,11.48,0,0,1,8.36,3.71L1022,192.9c-1.67-1.66-3.42-2.79-5.67-2.79-5.18,0-9,4.93-9,12.17s3.58,12.09,8.84,12.09a9.86,9.86,0,0,0,6.71-3.15l2.1,3.58a13.21,13.21,0,0,1-9.24,4C1008.12,218.82,1002.32,212.74,1002.32,202.28Z" transform="translate(-5.47 -8.04)"/><path class="cls-1" d="M1030.25,202.28c0-10.29,6.27-16.63,12.85-16.63,7.29,0,11.41,5.79,11.41,14.83a18.57,18.57,0,0,1-.23,3H1035c.35,6.7,4,11,9.5,11a11.67,11.67,0,0,0,7.11-2.53l1.74,3.51a15.76,15.76,0,0,1-9.44,3.28C1036.32,218.82,1030.25,212.66,1030.25,202.28Zm20-2.59c0-6.33-2.57-9.77-7-9.77-4,0-7.61,3.56-8.2,9.77Z" transform="translate(-5.47 -8.04)"/><path class="cls-1" d="M1063.89,186.43h4l.41,5.76h.16c2-4,4.91-6.54,8.13-6.54a6.14,6.14,0,0,1,3.05.65l-.91,4.7a7.12,7.12,0,0,0-2.77-.52c-2.41,0-5.3,1.92-7.23,7.27V218h-4.84Z" transform="translate(-5.47 -8.04)"/><path class="cls-1" d="M1087.5,208.27V190.79h-4.25v-4l4.46-.31.59-8.86h4v8.86h7.75v4.36h-7.75v17.57c0,3.86,1.13,6.1,4.43,6.1a8.7,8.7,0,0,0,3.25-.85l.94,4a15.89,15.89,0,0,1-5.31,1.17C1089.56,218.82,1087.5,214.56,1087.5,208.27Z" transform="translate(-5.47 -8.04)"/><path class="cls-1" d="M1105.87,209.83c0-6.88,5.38-10.32,17.56-11.79,0-4.06-1.23-8-5.9-8-3.31,0-6.28,1.73-8.53,3.39l-1.89-3.67c2.63-1.91,6.64-4.13,11.23-4.13,7,0,9.93,5.13,9.93,13V218h-4l-.41-3.78h-.16c-2.72,2.51-5.9,4.56-9.45,4.56C1109.46,218.82,1105.87,215.54,1105.87,209.83Zm17.56.5v-8.78c-9.58,1.27-12.82,3.87-12.82,7.91,0,3.59,2.21,5,5,5S1120.66,213,1123.43,210.33Z" transform="translate(-5.47 -8.04)"/><path class="cls-1" d="M1137.6,202.28c0-10.25,5.85-16.63,12.37-16.63,3.32,0,5.5,1.39,8,3.67l-.21-5.42V171.72h4.84V218h-4l-.4-3.73H1158c-2.22,2.46-5.26,4.51-8.67,4.51C1142.23,218.82,1137.6,212.81,1137.6,202.28Zm20.17,7.73V193.44c-2.44-2.4-4.64-3.29-7-3.29-4.57,0-8.2,4.88-8.2,12.08,0,7.58,2.83,12.09,7.84,12.09C1153.08,214.32,1155.38,212.9,1157.77,210Z" transform="translate(-5.47 -8.04)"/><path class="cls-1" d="M1172.5,202.28c0-10.55,6.24-16.63,13.25-16.63s13.24,6.08,13.24,16.63-6.24,16.54-13.24,16.54S1172.5,212.74,1172.5,202.28Zm21.49,0c0-7.24-3.33-12.17-8.24-12.17s-8.25,4.93-8.25,12.17,3.33,12.09,8.25,12.09S1194,209.52,1194,202.28Z" transform="translate(-5.47 -8.04)"/></g></g></svg>