<svg xmlns="http://www.w3.org/2000/svg" viewBox="0 0 794.12 374.23"><defs><style>.cls-1{fill:#00c1dc;}.cls-2{fill:#89f2f1;}.cls-3{fill:#fade6b;}.cls-4{font-size:162.37px;fill:#0071ba;}.cls-4,.cls-7,.cls-8{font-family:GrandHotel-Regular, Grand Hotel;}.cls-5{font-family:JustMeAgainDownHere, Just Me Again Down Here;}.cls-6{letter-spacing:0.01em;}.cls-7{letter-spacing:0.01em;}</style></defs><g id="Layer_2" data-name="Layer 2"><g id="Layer_3" data-name="Layer 3"><path class="cls-1" d="M583.82,54.74C576.61,23.49,545.85,0,509,0c-39.82,0-72.52,27.41-76.1,62.43a72.25,72.25,0,0,0-10.46-.76c-39.15,0-70.89,31.4-70.89,70.13s31.74,70.13,70.89,70.13c2.07,0,4.12-.08,6.15-.26,12.13,21,34.36,35,59.77,35,26.06,0,48.77-14.76,60.68-36.61a143.78,143.78,0,0,0,23.2,1.86c57.09,0,103.37-33.05,103.37-73.82C675.61,90.13,635.46,58.85,583.82,54.74Z"/><path class="cls-2" d="M703.82,181.75c-6.41-24.55-36.69-42.71-73.73-42.29-40,.46-73.62,22.44-78.17,50.08a92.78,92.78,0,0,0-10.49-.48c-39.35.45-72.09,25.57-73.14,56.1s30,54.92,69.35,54.47q3.14,0,6.19-.28c11.63,16.38,33.59,27.19,59.13,26.9,26.19-.3,49.41-12.19,62-29.55a183.39,183.39,0,0,0,23.27,1.2c57.38-.65,104.79-27.24,105.89-59.38C795.12,208.59,755.61,184.39,703.82,181.75Z"/><path class="cls-3" d="M414.44,135c-11.94-42-65.89-74.58-131.3-76-70.66-1.56-129.48,33.76-136.81,80.37a170.1,170.1,0,0,0-18.54-1.43C58.3,136.39,1.09,177.07,0,228.79s54.38,94.89,123.87,96.42c3.68.09,7.32.05,10.92-.1,20.95,28.46,60,48.08,105.13,49.08,46.25,1,87-17.8,108.72-46.51a337.43,337.43,0,0,0,41.13,3.41c101.33,2.24,184.4-40.08,185.53-94.52C576.38,185.86,506,142.52,414.44,135Z"/><text class="cls-4" transform="translate(67.76 249.65) scale(1.01 1)"><tspan xml:space="preserve">   </tspan><tspan class="cls-5"><tspan class="cls-6" x="0" y="5.67">N</tspan><tspan class="cls-7" x="72.53" y="5.67">úmero</tspan><tspan class="cls-8" x="384.28" y="5.67">s</tspan></tspan></text></g></g></svg>