<svg xmlns="http://www.w3.org/2000/svg" viewBox="0 0 385.43 162.68"><defs><style>.cls-1{fill:#f2c271;}.cls-2,.cls-4{fill:#0071ba;}.cls-3{fill:none;}.cls-3,.cls-4{stroke:#0071ba;stroke-linecap:round;stroke-linejoin:round;stroke-width:12px;}</style></defs><g id="Layer_2" data-name="Layer 2"><g id="Layer_3" data-name="Layer 3"><rect class="cls-1" width="385.43" height="162.68" rx="45.78"/><path class="cls-2" d="M180.61,37.24h9.33c6.58,0,11.45,2.29,11.45,9.14,0,6.6-4.89,9.6-11.27,9.6h-4.26V66.87h-5.25Zm9.07,14.54c4.43,0,6.53-1.76,6.53-5.4s-2.3-4.93-6.71-4.93h-3.64V51.78Z"/><path class="cls-2" d="M208.33,44.62h4.28l.39,4h.15c1.59-2.9,3.94-4.51,6.32-4.51a5.63,5.63,0,0,1,2.52.45l-.9,4.53a7.48,7.48,0,0,0-2.29-.36c-1.77,0-3.91,1.21-5.25,4.6V66.87h-5.22Z"/><path class="cls-2" d="M226.78,58.57v-14H232V57.9c0,3.66,1.05,5,3.46,5,2,0,3.25-.91,4.93-3.08V44.62h5.22V66.87h-4.27l-.4-3.28h-.15c-1.95,2.32-4.11,3.83-7.16,3.83C228.87,67.42,226.78,64.19,226.78,58.57Z"/><path class="cls-2" d="M252.57,55.76c0-7.23,5-11.68,10.26-11.68,6,0,9.19,4.34,9.19,10.56a13.35,13.35,0,0,1-.23,2.54H257.66c.44,4,3,6.19,6.56,6.19a9.44,9.44,0,0,0,5.17-1.61L271.16,65a13.82,13.82,0,0,1-7.63,2.41C257.39,67.42,252.57,63.1,252.57,55.76Zm14.93-2.13c0-3.43-1.52-5.51-4.56-5.51-2.6,0-4.88,1.94-5.33,5.51Z"/><path class="cls-2" d="M283.53,64.53h-.14l-.46,2.34h-4.11v-32H284v8.28l-.15,3.7a10.11,10.11,0,0,1,6.43-2.77c5.56,0,8.78,4.45,8.78,11.29,0,7.64-4.55,12.05-9.5,12.05A9,9,0,0,1,283.53,64.53Zm10.2-9.07c0-4.44-1.45-7.07-4.84-7.07-1.61,0-3.17.81-4.85,2.5V61.25a6.87,6.87,0,0,0,4.46,1.85C291.47,63.1,293.73,60.49,293.73,55.46Z"/><path class="cls-2" d="M304.4,60.89c0-4.76,4-7.25,13.08-8.22-.07-2.4-1-4.39-4-4.39a12.32,12.32,0,0,0-6.25,2.19L305.27,47a17.33,17.33,0,0,1,9.13-2.91c5.56,0,8.3,3.42,8.3,9.62V66.87h-4.28l-.4-2.46h-.14a10.78,10.78,0,0,1-6.91,3A6.24,6.24,0,0,1,304.4,60.89Zm13.08,0v-5c-6,.76-8.05,2.34-8.05,4.58,0,2,1.35,2.83,3.21,2.83S315.83,62.43,317.48,60.91Z"/><path class="cls-2" d="M178.68,110.13c0-7.41,5-11.69,10.59-11.69s10.58,4.28,10.58,11.69-5,11.65-10.58,11.65S178.68,117.5,178.68,110.13Zm15.81,0c0-4.46-2-7.43-5.22-7.43s-5.22,3-5.22,7.43,1.95,7.39,5.22,7.39S194.49,114.58,194.49,110.13Z"/><path class="cls-2" d="M206.62,113.73v-10.6h-3.17V99.22l3.44-.24.62-6.07h4.33V99h5.67v4.15h-5.67v10.59c0,2.62,1,3.91,3.15,3.91a6.83,6.83,0,0,0,2.32-.51l.89,3.84a14.46,14.46,0,0,1-4.55.82C208.52,121.78,206.62,118.54,206.62,113.73Z"/><path class="cls-2" d="M224,99h4.28l.4,4h.15c1.58-2.9,3.94-4.51,6.32-4.51a5.66,5.66,0,0,1,2.52.45l-.91,4.53a7.46,7.46,0,0,0-2.28-.36c-1.78,0-3.92,1.21-5.26,4.6v13.58H224Z"/><path class="cls-2" d="M240.34,115.26c0-4.77,3.95-7.25,13.08-8.23-.07-2.39-1-4.39-4-4.39a12.27,12.27,0,0,0-6.25,2.2l-1.92-3.48a17.36,17.36,0,0,1,9.13-2.92c5.57,0,8.3,3.42,8.3,9.62v13.18h-4.27l-.4-2.47h-.15a10.75,10.75,0,0,1-6.9,3A6.24,6.24,0,0,1,240.34,115.26Zm13.08,0v-5c-6,.76-8,2.34-8,4.59,0,2,1.34,2.82,3.21,2.82S251.78,116.8,253.42,115.27Z"/><path class="cls-2" d="M274.83,99h5.29l3.53,11.55c.62,2.19,1.27,4.47,1.88,6.7h.19c.61-2.23,1.26-4.51,1.88-6.7L291.13,99h5l-7.55,22.26h-6Z"/><path class="cls-2" d="M300.09,110.13c0-7.23,5-11.69,10.26-11.69,6,0,9.19,4.35,9.19,10.56a13.27,13.27,0,0,1-.23,2.54H305.19c.43,3.95,3,6.2,6.56,6.2a9.45,9.45,0,0,0,5.16-1.62l1.78,3.25a13.84,13.84,0,0,1-7.63,2.41C304.91,121.78,300.09,117.47,300.09,110.13ZM315,108c0-3.43-1.53-5.51-4.57-5.51-2.59,0-4.88,1.94-5.33,5.51Z"/><path class="cls-2" d="M324.4,118.44l10.5-15.31h-9.32V99h15.86v2.79L331,117.09h10.83v4.15H324.4Z"/><circle class="cls-3" cx="89.6" cy="89.4" r="36.35"/><polygon class="cls-4" points="66.75 60.93 107.81 37.22 107.81 84.64 66.75 60.93"/></g></g></svg>