<svg xmlns="http://www.w3.org/2000/svg" viewBox="0 0 478.36 201.9"><defs><style>.cls-1{fill:#d5f0f0;}.cls-2{fill:#0071ba;}</style></defs><g id="Layer_2" data-name="Layer 2"><g id="Textos_y_botones" data-name="Textos y botones"><rect class="cls-1" width="478.36" height="201.9" rx="44.98"/><path class="cls-2" d="M98,68h33.85v8.4H108V90.82h20.23v8.39H108v16.65H132.7v8.4H98Z"/><path class="cls-2" d="M142.64,119.41l4.61-6.3c3.75,2.93,7.38,4.71,11.66,4.71,4.61,0,6.77-2.16,6.77-5,0-3.55-4.57-5.13-9.08-6.85-5.53-2.08-11.86-5.26-11.86-12.31,0-7.33,5.91-12.63,15.37-12.63a22.76,22.76,0,0,1,14,5.06l-4.54,6.09c-3-2.17-5.94-3.68-9.26-3.68-4.25,0-6.26,2-6.26,4.68,0,3.33,4.27,4.61,8.84,6.29,5.71,2.13,12.11,4.89,12.11,12.76,0,7.26-5.74,13.11-16.41,13.11A26.43,26.43,0,0,1,142.64,119.41Z"/><path class="cls-2" d="M184.55,103.17C184.55,89.1,194.5,81,205.74,81a18.07,18.07,0,0,1,12.35,4.75l-4.81,6.43c-2.24-2-4.37-3.09-7-3.09-6.81,0-11.52,5.64-11.52,14.1s4.64,14,11.21,14a13.91,13.91,0,0,0,8.74-3.65l4,6.53a20.84,20.84,0,0,1-13.79,5.2C193.39,125.29,184.55,117.17,184.55,103.17Z"/><path class="cls-2" d="M230,108.5V82h9.91v25.22c0,7,2,9.56,6.57,9.56,3.71,0,6.15-1.72,9.35-5.85V82h9.91v42.25h-8.12L256.9,118h-.28c-3.71,4.4-7.81,7.26-13.59,7.26C234,125.29,230,119.17,230,108.5Z"/><path class="cls-2" d="M279,103.17C279,89.1,288.92,81,300.17,81a18.07,18.07,0,0,1,12.35,4.75l-4.82,6.43c-2.23-2-4.36-3.09-7-3.09-6.81,0-11.53,5.64-11.53,14.1s4.65,14,11.22,14a13.86,13.86,0,0,0,8.73-3.65l4,6.53a20.86,20.86,0,0,1-13.79,5.2C287.82,125.29,279,117.17,279,103.17Z"/><path class="cls-2" d="M324.94,63.51h9.91V79.23l-.42,8.15C338,84,342.17,81,348,81c9.05,0,13,6.13,13,16.79v26.49h-9.91V99c0-7-2-9.56-6.57-9.56-3.72,0-6.16,1.82-9.63,5.26v29.52h-9.91Z"/><path class="cls-2" d="M374.1,112.91c0-9,7.5-13.76,24.83-15.62-.13-4.54-2-8.33-7.67-8.33-4.2,0-8.15,1.9-11.87,4.17l-3.64-6.61C380.39,83.6,386.38,81,393.09,81c10.56,0,15.75,6.5,15.75,18.27v25h-8.12l-.75-4.68h-.28c-3.78,3.23-8.12,5.71-13.11,5.71C379.19,125.29,374.1,120.27,374.1,112.91Zm24.83,0v-9.49c-11.45,1.44-15.27,4.43-15.27,8.7,0,3.73,2.55,5.36,6.09,5.36S395.8,115.83,398.93,112.94Z"/></g></g></svg>