<svg xmlns="http://www.w3.org/2000/svg" viewBox="0 0 421.43 135.56"><defs><style>.cls-1{fill:#d5f0f0;}.cls-2{fill:#0071ba;}</style></defs><g id="Layer_2" data-name="Layer 2"><g id="Textos_y_botones" data-name="Textos y botones"><rect class="cls-1" width="421.43" height="135.56" rx="34.59"/><path class="cls-2" d="M123.37,75.39c0-7.62,4.78-12.16,10.68-12.16a9.3,9.3,0,0,1,6.72,3l-2.21,2.67a6.1,6.1,0,0,0-4.42-2c-3.8,0-6.52,3.21-6.52,8.44s2.51,8.55,6.42,8.55a6.56,6.56,0,0,0,5-2.4L141.22,84a9.29,9.29,0,0,1-7.34,3.4C128,87.4,123.37,83.11,123.37,75.39Z"/><path class="cls-2" d="M144.15,75.22c0-7.54,4.21-12,10.28-12s10.28,4.47,10.28,12-4.2,12.18-10.28,12.18S144.15,82.76,144.15,75.22Zm16.31,0c0-5.23-2.36-8.4-6-8.4s-6,3.17-6,8.4,2.37,8.59,6,8.59S160.46,80.45,160.46,75.22Z"/><path class="cls-2" d="M170.83,63.66h4.25l7.24,13.1,2.41,5h.14c-.2-2.41-.52-5.36-.52-8V63.66h3.93V87H184l-7.24-13.12-2.41-5h-.14c.2,2.47.52,5.28.52,7.87V87h-3.93Z"/><path class="cls-2" d="M195.64,63.66h14.08v3.48h-9.95v6.61h8.47v3.48h-8.47V87h-4.13Z"/><path class="cls-2" d="M215.24,63.66h4.14V87h-4.14Z"/><path class="cls-2" d="M225.49,75.39c0-7.62,4.84-12.16,11-12.16a9.56,9.56,0,0,1,7,3l-2.21,2.67a6.32,6.32,0,0,0-4.7-2c-4.14,0-6.92,3.21-6.92,8.44s2.47,8.55,7.15,8.55a5.26,5.26,0,0,0,3.32-1v-5h-4.39v-3.4h8.09V84.63a10.56,10.56,0,0,1-7.44,2.77C230.19,87.4,225.49,83.11,225.49,75.39Z"/><path class="cls-2" d="M250.42,76.75V63.66h4.13v13.4c0,5.08,1.9,6.75,4.72,6.75s4.82-1.67,4.82-6.75V63.66h4V76.75c0,7.65-3.4,10.65-8.8,10.65S250.42,84.4,250.42,76.75Z"/><path class="cls-2" d="M275.3,63.66h7.86c4.85,0,8.58,1.71,8.58,6.91,0,5-3.73,7.29-8.58,7.29h-3.72V87H275.3Zm7.43,10.89c3.2,0,4.94-1.32,4.94-4s-1.74-3.6-4.94-3.6h-3.29v7.58Zm-.35,2.2,3-2.46L292.66,87H288Z"/><path class="cls-2" d="M302.18,63.66H307L314.63,87h-4.38l-3.55-12.4c-.74-2.47-1.43-5.13-2.11-7.69h-.14c-.64,2.58-1.33,5.22-2.07,7.69L298.8,87h-4.22Zm-3.11,13.75h11v3.24h-11Z"/><path class="cls-2" d="M317.35,75.39c0-7.62,4.78-12.16,10.68-12.16a9.3,9.3,0,0,1,6.72,3l-2.21,2.67a6.1,6.1,0,0,0-4.42-2c-3.8,0-6.52,3.21-6.52,8.44s2.51,8.55,6.42,8.55a6.56,6.56,0,0,0,5-2.4L335.2,84a9.29,9.29,0,0,1-7.34,3.4C322,87.4,317.35,83.11,317.35,75.39Z"/><path class="cls-2" d="M340.53,63.66h4.14V87h-4.14Z"/><path class="cls-2" d="M350.79,75.22c0-7.54,4.2-12,10.28-12s10.28,4.47,10.28,12S367.14,87.4,361.07,87.4,350.79,82.76,350.79,75.22Zm16.31,0c0-5.23-2.37-8.4-6-8.4s-6,3.17-6,8.4,2.37,8.59,6,8.59S367.1,80.45,367.1,75.22Zm-8.34-14.85,5.57-4.8,2.24,2.7-6,4.16Z"/><path class="cls-2" d="M377.46,63.66h4.25L389,76.76l2.41,5h.15c-.2-2.41-.53-5.36-.53-8V63.66h3.93V87h-4.24l-7.25-13.12-2.41-5h-.14c.2,2.47.53,5.28.53,7.87V87h-3.94Z"/></g></g></svg>