<svg xmlns="http://www.w3.org/2000/svg" viewBox="0 0 2729.28 2048.37"><defs><style>.cls-1{fill:#f99c17;}.cls-2{fill:#0071ba;}</style></defs><g id="Layer_2" data-name="Layer 2"><g id="Textos_y_botones" data-name="Textos y botones"><path class="cls-1" d="M30,29.6V2019.94H2701.71V29.6ZM2641.52,1794.7c0,79.83-65.43,145.14-145.41,145.14H234.35c-80,0-145.41-65.31-145.41-145.14v-1541c0-79.82,65.43-145.14,145.41-145.14H2496.11c80,0,145.41,65.32,145.41,145.14Z"/><path class="cls-2" d="M0,0V2048.37H2729.28V0ZM2667.8,1816.56c0,82.15-66.84,149.37-148.54,149.37H208.8c-81.7,0-148.54-67.22-148.54-149.37V230.63c0-82.15,66.84-149.37,148.54-149.37H2519.26c81.7,0,148.54,67.22,148.54,149.37Z"/></g></g></svg>