<svg xmlns="http://www.w3.org/2000/svg" viewBox="0 0 1643.09 774.3"><defs><style>.cls-1{fill:#00c1dc;}.cls-2{fill:#89f2f1;}.cls-3{fill:#fade6b;}.cls-4{font-size:335.96px;fill:#0071ba;}.cls-4,.cls-7,.cls-8{font-family:GrandHotel-Regular, Grand Hotel;}.cls-5{font-family:JustMeAgainDownHere, Just Me Again Down Here;}.cls-6{letter-spacing:0.01em;}.cls-7{letter-spacing:0.01em;}</style></defs><g id="Layer_2" data-name="Layer 2"><g id="Layer_3" data-name="Layer 3"><path class="cls-1" d="M1208,113.27C1193,48.59,1129.4,0,1053.15,0c-82.37,0-150,56.72-157.46,129.16a149.64,149.64,0,0,0-21.63-1.57c-81,0-146.67,65-146.67,145.12s65.67,145.11,146.67,145.11q6.44,0,12.72-.54c25.1,43.37,71.09,72.42,123.68,72.42,53.91,0,100.89-30.54,125.54-75.75a297,297,0,0,0,48,3.87c118.12,0,213.88-68.39,213.88-152.75C1397.89,186.49,1314.81,121.77,1208,113.27Z"/><path class="cls-2" d="M1456.26,376.06c-13.26-50.81-75.92-88.38-152.55-87.5-82.79.94-152.34,46.43-161.75,103.62a186.56,186.56,0,0,0-21.7-1c-81.42.93-149.17,52.9-151.33,116.07S1031,620.88,1112.43,620q6.45-.08,12.79-.57c24.06,33.9,69.51,56.26,122.35,55.66,54.2-.62,102.24-25.24,128.23-61.15a377.13,377.13,0,0,0,48.15,2.49c118.72-1.36,216.82-56.36,219.1-122.86C1645.17,431.58,1563.41,381.53,1456.26,376.06Z"/><path class="cls-3" d="M857.51,279.34C832.79,192.4,721.18,125,585.84,122c-146.21-3.23-267.9,69.85-283.08,166.29a350.46,350.46,0,0,0-38.35-2.94C120.62,282.2,2.26,366.38,0,473.38S112.56,669.72,256.34,672.89q11.42.25,22.59-.22c43.35,58.9,124.18,99.49,217.52,101.55,95.7,2.11,179.94-36.82,224.94-96.22a696.88,696.88,0,0,0,85.12,7c209.66,4.64,381.54-82.92,383.88-195.56C1192.57,384.56,1046.91,294.88,857.51,279.34Z"/><text class="cls-4" transform="translate(140.2 516.55) scale(1.01 1)"><tspan xml:space="preserve">   </tspan><tspan class="cls-5"><tspan class="cls-6" x="0" y="11.73">N</tspan><tspan class="cls-7" x="150.08" y="11.73">úmero</tspan><tspan class="cls-8" x="795.11" y="11.73">s</tspan></tspan></text></g></g></svg>