<svg xmlns="http://www.w3.org/2000/svg" viewBox="0 0 193.46 210"><defs><style>.cls-1{fill:#d1eeef;}.cls-2{fill:#006fbc;}</style></defs><g id="Layer_2" data-name="Layer 2"><g id="Layer_1-2" data-name="Layer 1"><rect class="cls-1" width="193.46" height="210" rx="44.98"/><path class="cls-2" d="M52.52,147.13l10.79-14.4c7.6,7.52,17.13,13.62,29.7,13.62,13.71,0,23.16-7,23.16-18.78,0-12.84-8.31-21.13-36.79-21.13V90c24.5,0,32.54-8.45,32.54-19.88,0-10.4-7-16.66-18.52-16.66-9.69,0-17.49,4.61-25.05,11.73L56.61,51.26C67.25,41.87,79.3,35.53,94.35,35.53c24,0,40.41,11.9,40.41,32.91,0,13.89-8.27,23.28-21.82,28.61v.78c14.81,3.83,26.07,14.4,26.07,31,0,22.69-19.93,35.92-44,35.92C74.77,164.74,61.34,157,52.52,147.13Z" transform="translate(0 -4.37)"/></g></g></svg>