<svg xmlns="http://www.w3.org/2000/svg" viewBox="0 0 385.43 162.68"><defs><style>.cls-1{fill:#006fbc;}.cls-2{fill:#f2c26b;}.cls-3,.cls-4{fill:none;stroke:#f2c26b;}.cls-3{stroke-miterlimit:10;stroke-width:13.69px;}.cls-4{stroke-linecap:round;stroke-linejoin:round;stroke-width:19.15px;}</style></defs><g id="Layer_2" data-name="Layer 2"><g id="Layer_1-2" data-name="Layer 1"><rect class="cls-1" width="385.43" height="162.68" rx="45.78"/><path class="cls-2" d="M157.83,112.51c0-8.61,5.39-13.73,12.06-13.73a10.48,10.48,0,0,1,7.58,3.33l-2.49,3a6.89,6.89,0,0,0-5-2.28c-4.28,0-7.35,3.62-7.35,9.53s2.83,9.64,7.24,9.64a7.41,7.41,0,0,0,5.62-2.7l2.5,2.93a10.51,10.51,0,0,1-8.3,3.83C163.08,126.07,157.83,121.22,157.83,112.51Z"/><path class="cls-2" d="M182.3,115.72c0-6.59,4.47-10.39,9.4-10.39s9.4,3.8,9.4,10.39-4.47,10.35-9.4,10.35S182.3,122.27,182.3,115.72Zm14,0c0-4-1.74-6.6-4.64-6.6s-4.64,2.64-4.64,6.6,1.74,6.57,4.64,6.57S196.34,119.68,196.34,115.72Z"/><path class="cls-2" d="M207.31,105.82h3.8l.35,2.69h.13c1.67-1.74,3.59-3.18,6.07-3.18a5.33,5.33,0,0,1,5.46,3.55c1.89-2,3.85-3.55,6.36-3.55,4.17,0,6.1,2.87,6.1,7.86v12.4h-4.64v-11.8c0-3.26-1-4.48-3-4.48-1.26,0-2.61.8-4.14,2.46v13.82h-4.64v-11.8c0-3.26-1-4.48-3-4.48-1.22,0-2.61.8-4.14,2.46v13.82h-4.63Z"/><path class="cls-2" d="M242.84,105.82h3.8l.36,2.1h.13a9.55,9.55,0,0,1,6-2.59c4.95,0,7.78,4,7.78,10.07,0,6.76-4,10.67-8.44,10.67a7.91,7.91,0,0,1-5.08-2.17l.14,3.28v6.23h-4.64Zm13.25,9.62c0-3.94-1.28-6.27-4.29-6.27-1.44,0-2.79.72-4.32,2.22v9.21a6.21,6.21,0,0,0,4,1.64C254.08,122.24,256.09,119.92,256.09,115.44Z"/><path class="cls-2" d="M267.15,105.82H271l.36,3.52h.12c1.41-2.57,3.51-4,5.62-4a4.92,4.92,0,0,1,2.24.41l-.8,4a6.85,6.85,0,0,0-2-.32c-1.58,0-3.48,1.08-4.67,4.09v12.06h-4.64Z"/><path class="cls-2" d="M283.55,118.21V105.82h4.63v11.8c0,3.25.94,4.47,3.08,4.47,1.74,0,2.88-.8,4.38-2.73V105.82h4.64v19.77h-3.8l-.36-2.92H296c-1.73,2.06-3.65,3.4-6.36,3.4C285.4,126.07,283.55,123.21,283.55,118.21Z"/><path class="cls-2" d="M306.46,115.72c0-6.43,4.46-10.39,9.11-10.39,5.34,0,8.16,3.87,8.16,9.39a11.48,11.48,0,0,1-.2,2.25H311c.39,3.51,2.64,5.51,5.83,5.51a8.45,8.45,0,0,0,4.59-1.43l1.57,2.88a12.25,12.25,0,0,1-6.77,2.14C310.74,126.07,306.46,122.24,306.46,115.72Zm13.26-1.9c0-3-1.35-4.9-4.05-4.9-2.31,0-4.34,1.73-4.74,4.9Z"/><path class="cls-2" d="M334,123.51h-.13l-.4,2.08h-3.66V97.15h4.64v7.36l-.13,3.29a9,9,0,0,1,5.71-2.47c4.94,0,7.8,4,7.8,10,0,6.79-4,10.7-8.44,10.7A8,8,0,0,1,334,123.51Zm9.06-8.07c0-3.94-1.28-6.27-4.29-6.27-1.44,0-2.82.72-4.32,2.22v9.21a6.15,6.15,0,0,0,4,1.64C341,122.24,343,119.92,343,115.44Z"/><path class="cls-2" d="M352.5,120.27c0-4.23,3.51-6.44,11.62-7.31-.06-2.12-.92-3.89-3.59-3.89a10.86,10.86,0,0,0-5.55,2l-1.71-3.1a15.46,15.46,0,0,1,8.11-2.59c4.95,0,7.38,3,7.38,8.55v11.71H365l-.36-2.19h-.12a9.59,9.59,0,0,1-6.14,2.67A5.54,5.54,0,0,1,352.5,120.27Zm11.62,0v-4.44c-5.36.67-7.15,2.07-7.15,4.07,0,1.75,1.19,2.51,2.85,2.51S362.66,121.64,364.12,120.29Z"/><circle class="cls-3" cx="90.2" cy="69.79" r="50.03"/><path class="cls-4" d="M55.86,73l24,18.89,41.21-41.22"/></g></g></svg>