<svg xmlns="http://www.w3.org/2000/svg" viewBox="0 0 287.22 121.23"><defs><style>.cls-1{fill:#006fbc;}.cls-2{fill:#84f1f1;}</style></defs><g id="Layer_2" data-name="Layer 2"><g id="Layer_1-2" data-name="Layer 1"><rect class="cls-1" width="287.22" height="121.23" rx="34.11"/><path class="cls-2" d="M122.1,59.11h5.77l4.33,15.45c1,3.49,1.67,6.51,2.7,10h.19c1-3.49,1.74-6.51,2.71-10l4.27-15.45h5.56l-9.51,30.74h-6.47Z"/><path class="cls-2" d="M150.46,78.32c0-7.69,5.23-12.12,11-12.12s11,4.43,11,12.12-5.23,12.09-11,12.09S150.46,86,150.46,78.32Zm16.39,0c0-4.62-2-7.71-5.41-7.71S156,73.7,156,78.32s2,7.67,5.41,7.67S166.85,83,166.85,78.32Z"/><path class="cls-2" d="M179.38,83.91V56.65h5.42V84.19c0,1.33.6,1.8,1.16,1.8a3.29,3.29,0,0,0,.85-.09l.68,4a7.66,7.66,0,0,1-2.86.47C180.8,90.41,179.38,87.93,179.38,83.91Z"/><path class="cls-2" d="M191.13,66.76h5.49l3.66,12c.64,2.27,1.32,4.64,2,7h.18c.64-2.31,1.32-4.68,2-7l3.67-12h5.22l-7.84,23.09h-6.26Z"/><path class="cls-2" d="M217.34,78.32c0-7.5,5.21-12.12,10.64-12.12,6.24,0,9.53,4.51,9.53,11a14.35,14.35,0,0,1-.23,2.63H222.62c.46,4.1,3.09,6.43,6.81,6.43a9.83,9.83,0,0,0,5.36-1.68l1.84,3.37a14.36,14.36,0,0,1-7.91,2.5C222.34,90.41,217.34,85.94,217.34,78.32Zm15.49-2.22c0-3.55-1.58-5.71-4.74-5.71-2.68,0-5.05,2-5.52,5.71Z"/><path class="cls-2" d="M244.57,66.76H249l.41,4.12h.15c1.65-3,4.09-4.68,6.56-4.68a5.9,5.9,0,0,1,2.62.47l-.94,4.7a7.69,7.69,0,0,0-2.37-.38c-1.84,0-4.06,1.26-5.45,4.78V89.85h-5.42Z"/><path class="cls-2" d="M21.35,67.06,65.12,24.91Q75.37,35.34,85.59,45.77l21.69,22.1"/><path class="cls-2" d="M35.13,69.89V106H57V86.5h14.6v20.3H93.5V69.89"/><line class="cls-2" x1="86.49" y1="26.93" x2="86.49" y2="45.68"/></g></g></svg>