<svg xmlns="http://www.w3.org/2000/svg" viewBox="0 0 385.43 162.68"><defs><style>.cls-1{fill:#006fbc;}.cls-2{fill:#84f1f1;}.cls-3{fill:none;stroke:#84f1f1;stroke-linejoin:round;stroke-width:13.21px;}</style></defs><g id="Layer_2" data-name="Layer 2"><g id="Layer_1-2" data-name="Layer 1"><rect class="cls-1" width="385.43" height="162.68" rx="45.78"/><path class="cls-2" d="M185.09,91.65h11.09c7.12,0,12.36,2.19,12.36,8.55,0,3.26-1.78,6.44-4.81,7.5v.22c3.84.87,6.66,3.54,6.66,8.22,0,6.94-5.69,10.18-13.32,10.18h-12ZM195.63,106c4.83,0,6.89-1.88,6.89-4.89,0-3.35-2.27-4.63-6.76-4.63h-4.52V106Zm.8,15.57c5.09,0,7.93-1.83,7.93-5.73,0-3.64-2.75-5.23-7.93-5.23h-5.19v11Z"/><path class="cls-2" d="M216.61,113.32c0-8.67,5.89-13.67,12.38-13.67s12.38,5,12.38,13.67S235.48,127,229,127,216.61,122,216.61,113.32Zm18.49,0c0-5.21-2.29-8.69-6.11-8.69s-6.11,3.48-6.11,8.69S225.17,122,229,122,235.1,118.54,235.1,113.32Z"/><path class="cls-2" d="M249.54,100.28h5l.46,4.65h.17c1.86-3.4,4.61-5.28,7.4-5.28a6.62,6.62,0,0,1,2.95.53l-1.06,5.3a8.64,8.64,0,0,0-2.67-.43c-2.08,0-4.58,1.42-6.15,5.39v15.88h-6.11Z"/><path class="cls-2" d="M271.43,100.28h5l.46,4.65h.17c1.86-3.4,4.61-5.28,7.4-5.28a6.62,6.62,0,0,1,2.95.53l-1.06,5.3a8.64,8.64,0,0,0-2.67-.43c-2.08,0-4.58,1.42-6.15,5.39v15.88h-6.11Z"/><path class="cls-2" d="M290.55,119.32c0-5.57,4.62-8.48,15.31-9.62-.09-2.8-1.21-5.13-4.73-5.13a14.37,14.37,0,0,0-7.32,2.56l-2.24-4.07a20.3,20.3,0,0,1,10.68-3.41c6.51,0,9.71,4,9.71,11.26v15.41h-5l-.47-2.88h-.17c-2.33,2-5,3.52-8.08,3.52A7.3,7.3,0,0,1,290.55,119.32Zm15.31,0v-5.85c-7.06.89-9.42,2.74-9.42,5.37,0,2.3,1.57,3.3,3.76,3.3S303.93,121.13,305.86,119.34Z"/><polygon class="cls-3" points="104.95 100.6 104.95 75.6 176.64 75.6 176.64 45.47 104.95 45.47 104.95 21.09 67.89 61.09 104.95 100.6"/></g></g></svg>