<svg xmlns="http://www.w3.org/2000/svg" viewBox="0 0 193.46 210"><defs><style>.cls-1{fill:#d1eeef;}.cls-2{fill:#006fbc;}</style></defs><g id="Layer_2" data-name="Layer 2"><g id="Layer_1-2" data-name="Layer 1"><rect class="cls-1" width="193.46" height="210" rx="44.98"/><path class="cls-2" d="M52.44,147.44,63,133c7.48,7.13,16.62,13.31,29.3,13.31,14,0,24.19-8.84,24.19-23.87,0-14.79-9.3-23.24-23.09-23.24-8,0-12.52,2.11-20,7L62.6,99.32l3.78-61.44h67V57H86.08L83.4,87a35.27,35.27,0,0,1,16.54-4c21.51,0,39.39,12.13,39.39,38.81,0,27.32-21,42.89-44.11,42.89C74.89,164.74,61.73,156.68,52.44,147.44Z" transform="translate(0 -4.37)"/></g></g></svg>