<svg xmlns="http://www.w3.org/2000/svg" viewBox="0 0 478.36 201.9"><defs><style>.cls-1{fill:#006fbc;}.cls-2{fill:#84f1f1;}</style></defs><g id="Layer_2" data-name="Layer 2"><g id="Layer_1-2" data-name="Layer 1"><rect class="cls-1" width="478.36" height="201.9" rx="44.98"/><path class="cls-2" d="M115.45,68h33.84v8.4H125.42V90.82h20.23v8.39H125.42v16.65h24.73v8.4h-34.7Z"/><path class="cls-2" d="M160.1,119.41l4.61-6.3c3.75,2.93,7.37,4.71,11.66,4.71,4.61,0,6.77-2.16,6.77-5,0-3.55-4.57-5.13-9.08-6.85-5.54-2.08-11.87-5.26-11.87-12.31,0-7.33,5.92-12.63,15.38-12.63a22.76,22.76,0,0,1,14,5.06l-4.54,6.09c-3-2.17-5.94-3.68-9.26-3.68-4.25,0-6.26,2-6.26,4.68,0,3.33,4.27,4.61,8.84,6.29,5.71,2.13,12.11,4.89,12.11,12.76,0,7.26-5.74,13.11-16.41,13.11A26.4,26.4,0,0,1,160.1,119.41Z"/><path class="cls-2" d="M202,103.17C202,89.1,212,81,223.2,81a18.07,18.07,0,0,1,12.35,4.75l-4.81,6.43c-2.24-2-4.37-3.09-7-3.09-6.81,0-11.53,5.64-11.53,14.1s4.65,14,11.22,14a13.91,13.91,0,0,0,8.74-3.65l4,6.53a20.84,20.84,0,0,1-13.79,5.2C210.85,125.29,202,117.17,202,103.17Z"/><path class="cls-2" d="M248,82h8.12l.76,7.54h.27c3-5.51,7.48-8.57,12-8.57a10.84,10.84,0,0,1,4.78.86l-1.72,8.6a14.41,14.41,0,0,0-4.34-.69c-3.37,0-7.43,2.31-10,8.74v25.77H248Z"/><path class="cls-2" d="M282.35,69c0-3.34,2.62-5.61,6.13-5.61s6.12,2.27,6.12,5.61-2.62,5.61-6.12,5.61S282.35,72.28,282.35,69Zm1.14,13h9.9v42.25h-9.9Z"/><path class="cls-2" d="M318.4,119.82h-.27l-.86,4.44h-7.81V63.51h9.91V79.23l-.28,7c3.53-3.1,7.86-5.27,12.2-5.27C341.85,81,348,89.44,348,102.43c0,14.5-8.63,22.86-18,22.86C326.07,125.29,322,123.33,318.4,119.82Zm19.37-17.23c0-8.43-2.75-13.42-9.19-13.42-3.06,0-6,1.55-9.21,4.75v19.67a13,13,0,0,0,8.46,3.51C333.47,117.1,337.77,112.15,337.77,102.59Z"/><path class="cls-2" d="M358.53,103.17C358.53,89.44,368.06,81,378,81c11.42,0,17.44,8.26,17.44,20.06a25.9,25.9,0,0,1-.43,4.81H368.2c.82,7.5,5.64,11.77,12.45,11.77a18,18,0,0,0,9.8-3.06l3.37,6.15a26.17,26.17,0,0,1-14.48,4.58C367.68,125.29,358.53,117.1,358.53,103.17Zm28.34-4.06c0-6.5-2.89-10.46-8.66-10.46-4.92,0-9.26,3.68-10.12,10.46Z"/></g></g></svg>