<svg xmlns="http://www.w3.org/2000/svg" viewBox="0 0 193.46 210"><defs><style>.cls-1{fill:#d1eeef;}.cls-2{fill:#006fbc;}</style></defs><g id="Layer_2" data-name="Layer 2"><g id="Layer_1-2" data-name="Layer 1"><rect class="cls-1" width="193.46" height="210" rx="44.98"/><path class="cls-2" d="M57.09,150.65,69.3,137a27.7,27.7,0,0,0,20,9.39c16.38,0,29.54-12.6,29.54-50,0-30.75-9.89-43.59-24.11-43.59C84.34,52.75,76,61.16,76,76.39c0,14.67,7.33,22.22,19.78,22.22,7.32,0,16-4.23,23.16-15.49l.94,15.8c-7.17,9.94-18.86,16-28.28,16C70,114.89,55,102.37,55,76.39,55,51.5,73,35.53,94.43,35.53c24.5,0,45.37,18.94,45.37,60.81,0,48.29-23.55,68.4-49.23,68.4A45.12,45.12,0,0,1,57.09,150.65Z" transform="translate(0 -4.37)"/></g></g></svg>