<svg xmlns="http://www.w3.org/2000/svg" viewBox="0 0 243.39 101.19"><defs><style>.cls-1{fill:#0071ba;}.cls-2{fill:#89f2f1;}</style></defs><g id="Layer_2" data-name="Layer 2"><g id="Textos_y_botones" data-name="Textos y botones"><rect class="cls-1" width="243.39" height="101.19" rx="27.78"/><path class="cls-2" d="M99.82,60.7l3.65-4.29a13.91,13.91,0,0,0,9.2,4c4,0,6.16-1.8,6.16-4.55,0-2.91-2.28-3.84-5.49-5.2l-4.82-2.09c-3.48-1.45-7.14-4.21-7.14-9.37,0-5.63,5-10,11.86-10a15.46,15.46,0,0,1,10.88,4.51l-3.22,4a11.35,11.35,0,0,0-7.66-3c-3.35,0-5.53,1.56-5.53,4.14,0,2.78,2.69,3.81,5.61,5l4.77,2c4.2,1.75,7.13,4.41,7.13,9.53,0,5.72-4.75,10.5-12.68,10.5A18.18,18.18,0,0,1,99.82,60.7Z"/><path class="cls-2" d="M133.2,31.23l8-9.42,4.27,4.13-9.13,8.36Zm.09,7.47h6.22V65.23h-6.22Z"/></g></g></svg>