<svg xmlns="http://www.w3.org/2000/svg" viewBox="0 0 243.39 101.19"><defs><style>.cls-1{fill:#0071ba;}.cls-2{fill:#89f2f1;}</style></defs><g id="Layer_2" data-name="Layer 2"><g id="Textos_y_botones" data-name="Textos y botones"><rect class="cls-1" width="243.39" height="101.19" rx="27.78"/><path class="cls-2" d="M91.66,29.91h6.43l11,19.85,3.65,7.54h.21c-.3-3.65-.8-8.12-.8-12V29.91h6V65.23h-6.44l-11-19.88L97,37.84h-.22c.3,3.74.8,8,.8,11.92V65.23h-6Z"/><path class="cls-2" d="M127,52c0-8.84,6-13.93,12.62-13.93S152.18,43.15,152.18,52s-6,13.89-12.61,13.89S127,60.78,127,52Zm18.84,0c0-5.32-2.34-8.86-6.22-8.86s-6.22,3.54-6.22,8.86,2.33,8.81,6.22,8.81S145.79,57.3,145.79,52Z"/></g></g></svg>