<svg xmlns="http://www.w3.org/2000/svg" viewBox="0 0 263.99 101.19"><defs><style>.cls-1{fill:#d5f0f0;}.cls-2{fill:#0071ba;}</style></defs><g id="Layer_2" data-name="Layer 2"><g id="Textos_y_botones" data-name="Textos y botones"><rect class="cls-1" width="263.99" height="101.19" rx="28.93"/><path class="cls-2" d="M60.59,29.91h6.26V65.23H60.59Z"/><path class="cls-2" d="M77.44,38.7h5.1L83,42.29h.17c2.38-2.31,5.08-4.23,8.71-4.23,5.68,0,8.16,3.84,8.16,10.54V65.23H93.83V49.4c0-4.37-1.25-6-4.12-6-2.34,0-3.87,1.15-6,3.31V65.23H77.44Z"/><path class="cls-2" d="M108,70.05c0-2.24,1.39-4.19,3.83-5.66v-.22a5,5,0,0,1-2.4-4.43,6.4,6.4,0,0,1,2.94-4.94v-.22a8.82,8.82,0,0,1-3.5-7c0-6.09,4.92-9.52,10.47-9.52a11.8,11.8,0,0,1,3.93.64h9.49v4.63h-4.84a7,7,0,0,1,1.51,4.45c0,5.89-4.47,9-10.09,9a10,10,0,0,1-3.58-.71,3,3,0,0,0-1.3,2.54c0,1.49,1.08,2.4,4.3,2.4h4.72c6.34,0,9.71,2,9.71,6.55,0,5.22-5.49,9.35-14.15,9.35C112.73,77,108,74.69,108,70.05Zm19.18-1.43c0-2.05-1.64-2.66-4.67-2.66h-3.64a14.45,14.45,0,0,1-3.59-.36,4.4,4.4,0,0,0-2,3.5c0,2.41,2.59,3.82,6.76,3.82S127.2,70.91,127.2,68.62Zm-3.24-21c0-3.33-2-5.23-4.6-5.23s-4.6,1.88-4.6,5.23,2,5.34,4.6,5.34S124,51,124,47.58Z"/><path class="cls-2" d="M140.08,58.4V27.08h6.22V58.73c0,1.53.69,2.07,1.34,2.07a3.58,3.58,0,0,0,1-.11l.78,4.65a8.82,8.82,0,0,1-3.29.54C141.7,65.88,140.08,63,140.08,58.4Z"/><path class="cls-2" d="M155.12,52c0-8.62,6-13.93,12.23-13.93,7.17,0,11,5.18,11,12.59a16,16,0,0,1-.27,3H161.19c.52,4.71,3.54,7.39,7.82,7.39a11.33,11.33,0,0,0,6.16-1.92L177.28,63a16.41,16.41,0,0,1-9.09,2.88C160.87,65.88,155.12,60.74,155.12,52Zm17.8-2.55c0-4.08-1.81-6.57-5.44-6.57-3.09,0-5.81,2.31-6.35,6.57Zm-8.77-18.21,8-9.42,4.28,4.13-9.14,8.36Z"/><path class="cls-2" d="M183.77,62.18l2.9-4c2.35,1.84,4.63,3,7.32,3,2.9,0,4.26-1.36,4.26-3.18,0-2.22-2.88-3.21-5.71-4.29-3.47-1.31-7.45-3.31-7.45-7.74,0-4.6,3.72-7.92,9.66-7.92a14.31,14.31,0,0,1,8.81,3.17l-2.85,3.82a9.93,9.93,0,0,0-5.81-2.31c-2.67,0-3.93,1.28-3.93,2.94,0,2.1,2.68,2.9,5.55,4,3.58,1.34,7.6,3.07,7.6,8,0,4.55-3.61,8.23-10.3,8.23A16.61,16.61,0,0,1,183.77,62.18Z"/></g></g></svg>