<svg xmlns="http://www.w3.org/2000/svg" viewBox="0 0 244.66 483.7"><defs><style>.cls-1{fill:#0071ba;}.cls-2{fill:#d5f0f0;}</style></defs><g id="Layer_2" data-name="Layer 2"><g id="Textos_y_botones" data-name="Textos y botones"><path class="cls-1" d="M101.13,9.5h6.26V44.82h-6.26Z" transform="translate(0 -1.4)"/><path class="cls-1" d="M118,18.29h5.09l.48,3.59h.17c2.38-2.31,5.08-4.23,8.71-4.23,5.68,0,8.16,3.84,8.16,10.54V44.82h-6.22V29c0-4.37-1.25-6-4.13-6-2.33,0-3.86,1.15-6,3.31V44.82H118Z" transform="translate(0 -1.4)"/><path class="cls-1" d="M148.56,49.64c0-2.24,1.38-4.19,3.83-5.66v-.22a5,5,0,0,1-2.4-4.43,6.41,6.41,0,0,1,2.93-4.94v-.22a8.84,8.84,0,0,1-3.49-7c0-6.09,4.92-9.52,10.47-9.52a12.11,12.11,0,0,1,3.93.64h9.49v4.63h-4.84A7,7,0,0,1,170,27.37c0,5.89-4.47,9.05-10.09,9.05a10.16,10.16,0,0,1-3.58-.7,3,3,0,0,0-1.3,2.53c0,1.49,1.08,2.4,4.3,2.4H164c6.34,0,9.71,2,9.71,6.55,0,5.22-5.49,9.35-14.15,9.35C153.27,56.55,148.56,54.28,148.56,49.64Zm19.18-1.43c0-2.05-1.64-2.66-4.67-2.66h-3.64a14.45,14.45,0,0,1-3.59-.36,4.41,4.41,0,0,0-2.05,3.5c0,2.42,2.59,3.82,6.76,3.82S167.74,50.5,167.74,48.21Zm-3.24-21c0-3.32-2-5.22-4.6-5.22s-4.6,1.88-4.6,5.22,2,5.34,4.6,5.34S164.5,30.54,164.5,27.17Z" transform="translate(0 -1.4)"/><path class="cls-1" d="M180.62,38V6.67h6.22V38.32c0,1.53.69,2.07,1.34,2.07a3.93,3.93,0,0,0,1-.1l.78,4.64a8.82,8.82,0,0,1-3.29.54C182.24,45.47,180.62,42.62,180.62,38Z" transform="translate(0 -1.4)"/><path class="cls-1" d="M195.66,31.58c0-8.62,6-13.93,12.23-13.93,7.17,0,11,5.18,11,12.59a16,16,0,0,1-.27,3H201.73c.52,4.71,3.54,7.39,7.82,7.39a11.27,11.27,0,0,0,6.15-1.92l2.12,3.87a16.51,16.51,0,0,1-9.09,2.87C201.41,45.47,195.66,40.33,195.66,31.58ZM213.46,29c0-4.08-1.82-6.57-5.45-6.57-3.08,0-5.81,2.32-6.35,6.57Zm-8.77-18.21,8-9.42,4.28,4.13-9.14,8.36Z" transform="translate(0 -1.4)"/><path class="cls-1" d="M224.31,41.78l2.9-4c2.35,1.84,4.63,3,7.32,3,2.89,0,4.25-1.36,4.25-3.17,0-2.23-2.87-3.22-5.7-4.3-3.48-1.31-7.45-3.31-7.45-7.74,0-4.6,3.71-7.92,9.65-7.92a14.32,14.32,0,0,1,8.82,3.17l-2.85,3.83a9.94,9.94,0,0,0-5.81-2.32c-2.67,0-3.94,1.28-3.94,2.94,0,2.1,2.68,2.9,5.56,3.95,3.58,1.34,7.6,3.07,7.6,8,0,4.56-3.61,8.23-10.3,8.23A16.64,16.64,0,0,1,224.31,41.78Z" transform="translate(0 -1.4)"/><rect class="cls-2" y="382.51" width="243.39" height="101.19" rx="27.78"/><path class="cls-1" d="M99.82,444.61l3.65-4.29a13.91,13.91,0,0,0,9.2,4c4,0,6.16-1.8,6.16-4.55,0-2.91-2.28-3.84-5.49-5.2l-4.82-2.09c-3.48-1.45-7.14-4.21-7.14-9.37,0-5.63,5-10,11.86-10a15.46,15.46,0,0,1,10.88,4.51l-3.22,4a11.35,11.35,0,0,0-7.66-3c-3.35,0-5.53,1.56-5.53,4.14,0,2.78,2.69,3.81,5.61,5l4.77,2c4.2,1.75,7.13,4.41,7.13,9.53,0,5.72-4.75,10.5-12.68,10.5A18.18,18.18,0,0,1,99.82,444.61Z" transform="translate(0 -1.4)"/><path class="cls-1" d="M133.2,415.14l8-9.42,4.27,4.13-9.13,8.36Zm.09,7.47h6.22v26.53h-6.22Z" transform="translate(0 -1.4)"/></g></g></svg>