<svg xmlns="http://www.w3.org/2000/svg" viewBox="0 0 263.99 101.19"><defs><style>.cls-1{fill:#d5f0f0;}.cls-2{fill:#0071ba;}</style></defs><g id="Layer_2" data-name="Layer 2"><g id="Textos_y_botones" data-name="Textos y botones"><rect class="cls-1" width="263.99" height="101.19" rx="28.93"/><path class="cls-2" d="M36.83,29.91H58.08v5.27h-15v9H55.8V49.5H43.09V60H58.62v5.27H36.83Z"/><path class="cls-2" d="M64.87,62.18l2.89-4c2.36,1.84,4.63,3,7.32,3,2.9,0,4.26-1.36,4.26-3.18,0-2.22-2.87-3.21-5.7-4.29-3.48-1.31-7.46-3.31-7.46-7.74,0-4.6,3.72-7.92,9.66-7.92a14.31,14.31,0,0,1,8.81,3.17L81.8,45.05A9.9,9.9,0,0,0,76,42.74c-2.67,0-3.93,1.28-3.93,2.94,0,2.1,2.68,2.9,5.55,4,3.59,1.34,7.6,3.07,7.6,8,0,4.55-3.6,8.23-10.3,8.23A16.56,16.56,0,0,1,64.87,62.18Z"/><path class="cls-2" d="M92.94,38.7H98l.48,2.83h.17c2.24-1.92,5.08-3.47,8-3.47,6.63,0,10.44,5.31,10.44,13.5,0,9.07-5.42,14.32-11.32,14.32A10.59,10.59,0,0,1,99,63l.2,4.41v8.36H92.94Zm17.77,12.92c0-5.29-1.72-8.42-5.76-8.42-1.93,0-3.74,1-5.79,3V58.53a8.28,8.28,0,0,0,5.31,2.21C108,60.74,110.71,57.63,110.71,51.62Z"/><path class="cls-2" d="M123.48,58.1c0-5.68,4.71-8.64,15.59-9.81-.08-2.85-1.23-5.22-4.81-5.22a14.64,14.64,0,0,0-7.46,2.61l-2.28-4.15a20.69,20.69,0,0,1,10.88-3.47c6.63,0,9.89,4.08,9.89,11.47v15.7H140.2l-.48-2.94h-.17c-2.38,2-5.1,3.59-8.23,3.59A7.44,7.44,0,0,1,123.48,58.1Zm15.59,0v-6c-7.19.91-9.59,2.79-9.59,5.47,0,2.34,1.6,3.36,3.83,3.36S137.11,59.94,139.07,58.12Z"/><path class="cls-2" d="M154.93,38.7H160l.47,3.59h.17c2.38-2.31,5.08-4.23,8.71-4.23,5.68,0,8.16,3.84,8.16,10.54V65.23h-6.22V49.4c0-4.37-1.25-6-4.12-6-2.34,0-3.87,1.15-6,3.31V65.23h-6.22Zm8.62-8.51c-1.34,0-2,1.28-2.19,3.61l-4-.24c.15-4.89,2.12-7.75,6.09-7.75,3.59,0,5.25,4,7.37,4,1.31,0,2-1.31,2.16-3.6l4,.23c-.15,4.87-2.11,7.76-6.07,7.76C167.3,34.17,165.64,30.19,163.55,30.19Z"/><path class="cls-2" d="M185.58,52c0-8.84,6-13.93,12.61-13.93S210.81,43.15,210.81,52s-6,13.89-12.62,13.89S185.58,60.78,185.58,52Zm18.83,0c0-5.32-2.33-8.86-6.22-8.86S192,46.67,192,52s2.33,8.81,6.22,8.81S204.41,57.3,204.41,52Z"/><path class="cls-2" d="M218.81,58.4V27.08H225V58.73c0,1.53.69,2.07,1.34,2.07a3.55,3.55,0,0,0,1-.11l.78,4.65a8.76,8.76,0,0,1-3.28.54C220.43,65.88,218.81,63,218.81,58.4Z"/></g></g></svg>