<svg xmlns="http://www.w3.org/2000/svg" viewBox="0 0 766.02 67.19"><defs><style>.cls-1{fill:#0071ba;}</style></defs><g id="Layer_2" data-name="Layer 2"><g id="Textos_y_botones" data-name="Textos y botones"><path class="cls-1" d="M4.49,46.48c0-19.69,12.33-31.39,27.56-31.39a23.92,23.92,0,0,1,17.33,7.62l-5.7,6.88c-3.09-3.09-6.7-5.23-11.41-5.23-9.79,0-16.81,8.28-16.81,21.79,0,13.73,6.47,22,16.55,22,5.34,0,9.46-2.46,12.85-6.18l5.7,6.7a24,24,0,0,1-19,8.75C16.49,77.46,4.49,66.39,4.49,46.48Z" transform="translate(-4.49 -10.27)"/><path class="cls-1" d="M61,64.22c0-9.68,8-14.72,26.56-16.71-.14-4.86-2.09-8.9-8.2-8.9-4.49,0-8.72,2-12.7,4.45L62.74,36c5-3.13,11.37-5.92,18.55-5.92,11.3,0,16.85,7,16.85,19.54V76.36H89.46l-.81-5h-.3c-4,3.45-8.68,6.1-14,6.1C66.42,77.46,61,72.09,61,64.22Zm26.56,0V54.1c-12.25,1.54-16.33,4.74-16.33,9.31,0,4,2.72,5.74,6.51,5.74S84.2,67.34,87.54,64.25Z" transform="translate(-4.49 -10.27)"/><path class="cls-1" d="M114.56,31.17h8.68l.81,6.11h.29c4-3.94,8.65-7.21,14.83-7.21,9.68,0,13.91,6.55,13.91,18V76.36H142.49v-27c0-7.44-2.14-10.23-7-10.23-4,0-6.59,2-10.31,5.63V76.36H114.56Z" transform="translate(-4.49 -10.27)"/><path class="cls-1" d="M171.34,61.13V39.6H164.9v-8l7-.48,1.25-12.33h8.8V31.17h11.51V39.6H181.94V61.11c0,5.31,2.06,7.93,6.4,7.93a14.37,14.37,0,0,0,4.71-1l1.8,7.8a29.26,29.26,0,0,1-9.23,1.65C175.2,77.46,171.34,70.88,171.34,61.13Z" transform="translate(-4.49 -10.27)"/><path class="cls-1" d="M205.43,17.26c0-3.57,2.8-6,6.55-6s6.55,2.43,6.55,6-2.79,6-6.55,6S205.43,20.76,205.43,17.26Zm1.22,13.91h10.6V76.36h-10.6Z" transform="translate(-4.49 -10.27)"/><path class="cls-1" d="M231.67,53.8c0-14.72,9.24-23.73,19.14-23.73,5.11,0,8.35,1.91,11.84,5l-.4-7.29V11.38h10.6v65h-8.69l-.81-4.89h-.29c-3.35,3.34-8,6-12.84,6C239,77.46,231.67,68.71,231.67,53.8Zm30.58,9.83V42.58a13.35,13.35,0,0,0-9.2-3.75c-5.74,0-10.49,5.44-10.49,14.86,0,9.83,3.76,15,10.27,15C256.33,68.71,259.27,67.16,262.25,63.63Z" transform="translate(-4.49 -10.27)"/><path class="cls-1" d="M287.57,64.22c0-9.68,8-14.72,26.57-16.71-.15-4.86-2.1-8.9-8.21-8.9-4.49,0-8.72,2-12.69,4.45L289.34,36c5-3.13,11.37-5.92,18.54-5.92,11.3,0,16.86,7,16.86,19.54V76.36h-8.69l-.81-5H315c-4.05,3.45-8.69,6.1-14,6.1C293,77.46,287.57,72.09,287.57,64.22Zm26.57,0V54.1c-12.26,1.54-16.34,4.74-16.34,9.31,0,4,2.72,5.74,6.51,5.74S310.79,67.34,314.14,64.25Z" transform="translate(-4.49 -10.27)"/><path class="cls-1" d="M338.39,53.8c0-14.72,9.24-23.73,19.13-23.73,5.12,0,8.36,1.91,11.85,5l-.4-7.29V11.38h10.6v65h-8.69l-.81-4.89h-.29c-3.35,3.34-8,6-12.84,6C345.68,77.46,338.39,68.71,338.39,53.8ZM369,63.63V42.58a13.35,13.35,0,0,0-9.2-3.75c-5.74,0-10.49,5.44-10.49,14.86,0,9.83,3.76,15,10.27,15C363,68.71,366,67.16,369,63.63Z" transform="translate(-4.49 -10.27)"/><path class="cls-1" d="M416,53.8c0-14.72,9.23-23.73,19.13-23.73,5.12,0,8.35,1.91,11.85,5l-.4-7.29V11.38h10.59v65h-8.68l-.81-4.89h-.29c-3.35,3.34-8,6-12.85,6C423.32,77.46,416,68.71,416,53.8Zm30.58,9.83V42.58a13.36,13.36,0,0,0-9.2-3.75c-5.74,0-10.49,5.44-10.49,14.86,0,9.83,3.75,15,10.27,15C440.69,68.71,443.64,67.16,446.62,63.63Z" transform="translate(-4.49 -10.27)"/><path class="cls-1" d="M471.38,53.8c0-14.68,10.2-23.73,20.83-23.73,12.22,0,18.66,8.83,18.66,21.45a27.36,27.36,0,0,1-.46,5.15H481.72c.89,8,6,12.59,13.32,12.59A19.27,19.27,0,0,0,505.53,66l3.61,6.59a28,28,0,0,1-15.49,4.89C481.17,77.46,471.38,68.71,471.38,53.8Zm30.33-4.34c0-7-3.1-11.19-9.28-11.19-5.26,0-9.9,3.94-10.82,11.19Z" transform="translate(-4.49 -10.27)"/><path class="cls-1" d="M543.79,53.8c0-15,10.63-23.73,22.66-23.73a19.36,19.36,0,0,1,13.22,5.08L574.51,42c-2.39-2.1-4.67-3.31-7.5-3.31-7.29,0-12.33,6-12.33,15.08s5,15,12,15a14.84,14.84,0,0,0,9.35-3.9l4.31,7a22.33,22.33,0,0,1-14.76,5.55C553.24,77.46,543.79,68.78,543.79,53.8Z" transform="translate(-4.49 -10.27)"/><path class="cls-1" d="M591.74,17.26c0-3.57,2.79-6,6.55-6s6.55,2.43,6.55,6-2.8,6-6.55,6S591.74,20.76,591.74,17.26ZM593,31.17h10.6V76.36H593Z" transform="translate(-4.49 -10.27)"/><path class="cls-1" d="M616.46,31.65l6.63-.48H642V39.6H616.46Zm6.08-5.15c0-9.37,4.3-16.23,15-16.23a22.94,22.94,0,0,1,8.28,1.58l-2,7.91a12.8,12.8,0,0,0-4.89-1.06c-3.76,0-5.75,2.37-5.75,7.61V76.36H622.54Z" transform="translate(-4.49 -10.27)"/><path class="cls-1" d="M653.58,31.17h8.68l.81,8.06h.29c3.22-5.89,8-9.16,12.85-9.16a11.42,11.42,0,0,1,5.11.92l-1.84,9.2a15.35,15.35,0,0,0-4.64-.74c-3.6,0-7.94,2.47-10.67,9.35V76.36H653.58Z" transform="translate(-4.49 -10.27)"/><path class="cls-1" d="M686.75,64.22c0-9.68,8-14.72,26.57-16.71-.15-4.86-2.1-8.9-8.21-8.9-4.49,0-8.72,2-12.69,4.45L688.52,36c5-3.13,11.37-5.92,18.54-5.92,11.3,0,16.86,7,16.86,19.54V76.36h-8.69l-.81-5h-.29c-4,3.45-8.68,6.1-14,6.1C692.2,77.46,686.75,72.09,686.75,64.22Zm26.57,0V54.1C701.07,55.64,697,58.84,697,63.41c0,4,2.73,5.74,6.52,5.74S710,67.34,713.32,64.25Z" transform="translate(-4.49 -10.27)"/><path class="cls-1" d="M735.84,71.17l4.93-6.73c4,3.13,7.9,5,12.48,5,4.93,0,7.25-2.32,7.25-5.41,0-3.79-4.9-5.48-9.72-7.32-5.92-2.23-12.69-5.63-12.69-13.18,0-7.83,6.33-13.5,16.45-13.5a24.35,24.35,0,0,1,15,5.41L764.69,42c-3.16-2.32-6.34-3.94-9.9-3.94-4.54,0-6.69,2.17-6.69,5,0,3.57,4.56,4.93,9.45,6.73,6.11,2.28,13,5.23,13,13.65,0,7.77-6.15,14-17.56,14A28.28,28.28,0,0,1,735.84,71.17Z" transform="translate(-4.49 -10.27)"/></g></g></svg>