<svg xmlns="http://www.w3.org/2000/svg" viewBox="0 0 2734 2049"><defs><style>.cls-1{fill:#0071ba;}.cls-2{fill:#e8fff7;}.cls-3{fill:#89f2f1;}.cls-4{fill:#7ac743;}.cls-5{fill:#00c1dc;}.cls-6{fill:#fff;}.cls-7{fill:#f99c17;}.cls-8{fill:#f7ab86;}.cls-9{fill:#f95d17;}.cls-10{fill:#f9803b;}.cls-11{font-size:400px;fill:#1071b8;font-family:GrandHotel-Regular, Grand Hotel;}.cls-12{font-family:JustMeAgainDownHere, Just Me Again Down Here;}</style></defs><g id="Textos_y_botones" data-name="Textos y botones"><path class="cls-1" d="M784.14,1671.57h24.41v6H791.34V1688h14.58v6H791.34v12h17.83v6h-25Z"/><path class="cls-1" d="M814.72,1706.92l4.19-4.94a15.93,15.93,0,0,0,10.57,4.63c4.56,0,7.07-2.07,7.07-5.24,0-3.33-2.62-4.4-6.3-6L824.7,1693c-4-1.66-8.19-4.82-8.19-10.75,0-6.46,5.7-11.43,13.61-11.43a17.77,17.77,0,0,1,12.5,5.17l-3.69,4.57a13.06,13.06,0,0,0-8.81-3.49c-3.84,0-6.35,1.8-6.35,4.76,0,3.19,3.09,4.37,6.45,5.74l5.47,2.3c4.82,2,8.2,5.06,8.2,10.93,0,6.58-5.46,12.06-14.56,12.06A20.92,20.92,0,0,1,814.72,1706.92Z"/><path class="cls-1" d="M849.16,1692c0-13.27,8.3-21.16,18.57-21.16a16.08,16.08,0,0,1,11.68,5.14l-3.84,4.63a10.62,10.62,0,0,0-7.69-3.52c-6.6,0-11.33,5.58-11.33,14.68,0,9.25,4.36,14.86,11.16,14.86a11.42,11.42,0,0,0,8.65-4.17l3.85,4.51a16.19,16.19,0,0,1-12.78,5.91C857.24,1712.86,849.16,1705.39,849.16,1692Z"/><path class="cls-1" d="M887,1671.57h13.67c8.43,0,14.92,3,14.92,12,0,8.72-6.49,12.68-14.92,12.68h-6.48v15.84H887Zm12.92,18.94c5.56,0,8.58-2.3,8.58-6.92s-3-6.27-8.58-6.27h-5.73v13.19Zm-.61,3.83,5.21-4.29,12.66,22.06H909.1Z"/><path class="cls-1" d="M923.71,1671.57h7.19v40.54h-7.19Z"/><path class="cls-1" d="M941.19,1671.57h13c8.33,0,14.46,2.55,14.46,10,0,3.82-2.09,7.54-5.63,8.78v.25c4.49,1,7.78,4.14,7.78,9.62,0,8.11-6.64,11.9-15.57,11.9h-14Zm12.32,16.74c5.66,0,8.06-2.21,8.06-5.73,0-3.92-2.65-5.41-7.91-5.41h-5.28v11.14Zm1,18.2c5.95,0,9.27-2.14,9.27-6.7,0-4.26-3.22-6.12-9.27-6.12h-6.08v12.82Z"/><path class="cls-1" d="M978.2,1671.57h24.4v6H985.39V1688H1000v6H985.39v12h17.83v6h-25Z"/><path class="cls-1" d="M1012.64,727.26H1037v6h-17.21V743.7h14.58v6h-14.58v12h17.83v6h-25Z"/><path class="cls-1" d="M1043.22,762.61l4.19-4.94A15.89,15.89,0,0,0,1058,762.3c4.57,0,7.07-2.07,7.07-5.24,0-3.33-2.62-4.4-6.3-6l-5.54-2.4c-4-1.67-8.2-4.83-8.2-10.75,0-6.46,5.71-11.44,13.62-11.44a17.8,17.8,0,0,1,12.5,5.17l-3.7,4.57a13,13,0,0,0-8.8-3.49c-3.85,0-6.35,1.8-6.35,4.76,0,3.19,3.09,4.37,6.45,5.74l5.46,2.3c4.83,2,8.2,5.06,8.2,10.93,0,6.58-5.46,12.06-14.56,12.06A20.88,20.88,0,0,1,1043.22,762.61Z"/><path class="cls-1" d="M1077.65,747.67c0-13.27,8.31-21.16,18.58-21.16a16.11,16.11,0,0,1,11.68,5.14l-3.85,4.63a10.59,10.59,0,0,0-7.69-3.52c-6.59,0-11.33,5.58-11.33,14.68s4.37,14.86,11.16,14.86a11.41,11.41,0,0,0,8.66-4.17l3.84,4.51a16.17,16.17,0,0,1-12.77,5.91C1085.74,768.55,1077.65,761.08,1077.65,747.67Z"/><path class="cls-1" d="M1114.31,750V727.26h7.19v23.31c0,8.83,3.3,11.73,8.21,11.73s8.38-2.9,8.38-11.73V727.26H1145V750c0,13.32-5.91,18.53-15.3,18.53S1114.31,763.34,1114.31,750Z"/><path class="cls-1" d="M1153,747.67c0-13.27,8.31-21.16,18.58-21.16a16.11,16.11,0,0,1,11.68,5.14l-3.85,4.63a10.59,10.59,0,0,0-7.69-3.52c-6.59,0-11.33,5.58-11.33,14.68s4.37,14.86,11.16,14.86a11.41,11.41,0,0,0,8.66-4.17l3.84,4.51a16.17,16.17,0,0,1-12.77,5.91C1161.07,768.55,1153,761.08,1153,747.67Z"/><path class="cls-1" d="M1190.83,727.26H1198v16.29h16.39V727.26h7.19V767.8h-7.19v-18H1198v18h-7.19Z"/><path class="cls-1" d="M1239.87,727.26h8.43l13.22,40.54h-7.62l-6.17-21.57c-1.29-4.29-2.48-8.92-3.67-13.37h-.25c-1.12,4.49-2.31,9.08-3.6,13.37L1234,767.8h-7.34Zm-5.41,23.91h19.1v5.65h-19.1Z"/><path class="cls-2" d="M1071.72,291.42c-21.4-78-112.6-136.61-221.86-136.61-118.05,0-215,68.4-225.64,155.77a254.74,254.74,0,0,0-31-1.89c-116.08,0-210.18,78.36-210.18,175s94.1,175,210.18,175q9.21,0,18.22-.65c36,52.31,101.88,87.34,177.23,87.34,77.26,0,144.59-36.83,179.91-91.35a505.74,505.74,0,0,0,68.8,4.66c169.26,0,306.49-82.48,306.49-184.22C1343.87,379.72,1224.82,301.67,1071.72,291.42ZM765.93,388.88c.69-.79,1.39-1.58,2.11-2.37.54.67,1.07,1.35,1.61,2C768.4,388.64,767.17,388.75,765.93,388.88Z"/><path class="cls-3" d="M1110.43,284c-21.4-81.64-112.6-143-221.86-143-118,0-215,71.59-225.64,163a243.13,243.13,0,0,0-31-2c-116.08,0-210.18,82-210.18,183.18S515.85,668.4,631.93,668.4q9.21,0,18.22-.68c36,54.74,101.88,91.41,177.23,91.41,77.27,0,144.59-38.55,179.91-95.61a482.37,482.37,0,0,0,68.8,4.88c169.27,0,306.49-86.33,306.49-192.81C1382.58,376.4,1263.53,294.71,1110.43,284ZM804.64,386l2.11-2.48c.54.7,1.08,1.42,1.61,2.13C807.11,385.73,805.88,385.85,804.64,386Z"/><path class="cls-2" d="M851.6,1204.1c-21.69-83.14-114.07-145.6-224.74-145.6-119.57,0-217.79,72.9-228.56,166a243.81,243.81,0,0,0-31.4-2c-117.58,0-212.9,83.53-212.9,186.55s95.32,186.54,212.9,186.54q9.33,0,18.46-.7c36.44,55.76,103.2,93.1,179.52,93.1,78.27,0,146.46-39.26,182.24-97.37a487.19,487.19,0,0,0,69.69,5c171.46,0,310.46-87.91,310.46-196.36C1127.27,1298.23,1006.68,1215,851.6,1204.1ZM541.85,1308c.7-.84,1.41-1.69,2.13-2.53.55.71,1.09,1.44,1.63,2.17C544.35,1307.73,543.1,1307.85,541.85,1308Z"/><path class="cls-4" d="M881.15,1204.1c-21.68-83.14-114.06-145.6-224.73-145.6-119.57,0-217.79,72.9-228.56,166a243.81,243.81,0,0,0-31.4-2c-117.58,0-212.9,83.53-212.9,186.55s95.32,186.54,212.9,186.54q9.33,0,18.46-.7c36.44,55.76,103.2,93.1,179.52,93.1,78.27,0,146.46-39.26,182.24-97.37a487.19,487.19,0,0,0,69.69,5c171.46,0,310.46-87.91,310.46-196.36C1156.83,1298.23,1036.23,1215,881.15,1204.1ZM571.41,1308c.7-.84,1.41-1.69,2.13-2.53.55.71,1.09,1.44,1.63,2.17C573.91,1307.73,572.66,1307.85,571.41,1308Z"/><path class="cls-1" d="M2228.83,392.7c0-11.15,7-17.77,15.61-17.77a13.54,13.54,0,0,1,9.81,4.31l-3.23,3.9a8.89,8.89,0,0,0-6.46-3c-5.54,0-9.52,4.69-9.52,12.33s3.67,12.48,9.37,12.48a9.59,9.59,0,0,0,7.27-3.5l3.23,3.79a13.57,13.57,0,0,1-10.72,5C2235.62,410.24,2228.83,404,2228.83,392.7Z"/><path class="cls-1" d="M2257.11,392.45c0-11,6.14-17.52,15-17.52s15,6.53,15,17.52-6.15,17.79-15,17.79S2257.11,403.47,2257.11,392.45Zm23.83,0c0-7.65-3.46-12.27-8.81-12.27s-8.81,4.62-8.81,12.27,3.45,12.54,8.81,12.54S2280.94,400.09,2280.94,392.45Z"/><path class="cls-1" d="M2294,375.56h6.21l10.58,19.14,3.52,7.27h.21c-.3-3.52-.77-7.83-.77-11.62V375.56h5.75v34.05h-6.21l-10.58-19.17-3.53-7.24h-.2c.29,3.6.77,7.71.77,11.5v14.91H2294Z"/><path class="cls-1" d="M2328.16,375.56h20.58v5.08H2334.2v9.66h12.37v5.09H2334.2v14.22h-6Z"/><path class="cls-1" d="M2354.71,375.56h6.05v34.05h-6.05Z"/><path class="cls-1" d="M2367.61,392.7c0-11.15,7.06-17.77,16.12-17.77a14,14,0,0,1,10.29,4.31l-3.23,3.9a9.21,9.21,0,0,0-6.87-3c-6,0-10.1,4.69-10.1,12.33s3.6,12.48,10.43,12.48a7.64,7.64,0,0,0,4.86-1.5v-7.35h-6.42v-5h11.83v15a15.48,15.48,0,0,1-10.87,4C2374.46,410.24,2367.61,404,2367.61,392.7Z"/><path class="cls-1" d="M2401.93,394.68V375.56H2408v19.58c0,7.41,2.77,9.85,6.89,9.85s7-2.44,7-9.85V375.56h5.81v19.12c0,11.18-4.95,15.56-12.85,15.56S2401.93,405.86,2401.93,394.68Z"/><path class="cls-1" d="M2436.21,375.56h11.48c7.08,0,12.54,2.49,12.54,10.1,0,7.32-5.46,10.64-12.54,10.64h-5.44v13.31h-6Zm10.85,15.91c4.67,0,7.21-1.94,7.21-5.81s-2.54-5.27-7.21-5.27h-4.81v11.08Zm-.51,3.22,4.38-3.61,10.63,18.53h-6.79Z"/><path class="cls-1" d="M2473.39,375.56h7.08l11.11,34.05h-6.4L2480,391.49c-1.08-3.6-2.08-7.49-3.08-11.23h-.21c-.93,3.77-1.93,7.63-3,11.23l-5.23,18.12h-6.16Zm-4.54,20.09h16v4.74h-16Z"/><path class="cls-1" d="M2493.47,392.7c0-11.15,7-17.77,15.6-17.77a13.53,13.53,0,0,1,9.81,4.31l-3.22,3.9a8.91,8.91,0,0,0-6.46-3c-5.54,0-9.52,4.69-9.52,12.33s3.66,12.48,9.37,12.48a9.59,9.59,0,0,0,7.27-3.5l3.23,3.79a13.58,13.58,0,0,1-10.73,5C2500.26,410.24,2493.47,404,2493.47,392.7Z"/><path class="cls-1" d="M2525.26,375.56h6v34.05h-6Z"/><path class="cls-1" d="M2538.15,392.45c0-11,6.14-17.52,15-17.52s15,6.53,15,17.52-6.15,17.79-15,17.79S2538.15,403.47,2538.15,392.45Zm23.83,0c0-7.65-3.46-12.27-8.81-12.27s-8.81,4.62-8.81,12.27,3.45,12.54,8.81,12.54S2562,400.09,2562,392.45Zm-12.19-21.71,8.15-7,3.27,3.94-8.75,6.08Z"/><path class="cls-1" d="M2575,375.56h6.21l10.58,19.14,3.52,7.27h.21c-.3-3.52-.77-7.83-.77-11.62V375.56h5.75v34.05h-6.21l-10.58-19.17-3.53-7.24h-.2c.29,3.6.77,7.71.77,11.5v14.91H2575Z"/><path class="cls-5" d="M2449.17,180c-6.75-30.28-35.51-53-70-53-37.22,0-67.8,26.55-71.15,60.48a64.43,64.43,0,0,0-9.78-.74c-36.61,0-66.28,30.42-66.28,68s29.67,67.95,66.28,67.95c1.94,0,3.85-.09,5.75-.26,11.34,20.31,32.13,33.91,55.89,33.91,24.36,0,45.59-14.3,56.73-35.46a130.12,130.12,0,0,0,21.7,1.81c53.37,0,96.65-32,96.65-71.53C2535,214.31,2497.45,184,2449.17,180Zm-96.44,37.84.67-.92.51.79Z"/><path class="cls-6" d="M2450.61,179.62c-5.87-26-27.51-45.8-53.07-52-26.27-6.34-55.32,1.55-73.72,21.62a66.49,66.49,0,0,0-17.27,38.19l1.89-1.45a67.18,67.18,0,0,0-45.34,9.28A69.73,69.73,0,0,0,2235.67,228a71.37,71.37,0,0,0-2.8,45,69.93,69.93,0,0,0,23.32,36.11A66.34,66.34,0,0,0,2304,323.87l-1.3-.74c9.08,16.13,24.38,28.59,42.51,32.92a63.79,63.79,0,0,0,52.68-11,70.55,70.55,0,0,0,20-23.5l-1.7.69c21.48,3.6,44,2.07,64.59-5.31,16.66-6,32.28-15.85,43.09-30.06,9.73-12.8,14.42-28.87,11.81-44.85-2.69-16.5-12.95-30.78-25.89-41-15.17-11.95-33.87-19-52.91-21.67q-3.87-.56-7.76-.88c-1.93-.16-1.92,2.84,0,3,18.95,1.6,37.8,7.38,53.63,18.09,13.29,9,24.52,21.9,28.82,37.61,4.07,14.88,1.16,30.58-7.06,43.51-9,14.21-23.34,24.49-38.66,31-18.69,8-39.56,10.68-59.74,8.8q-4.57-.42-9.12-1.19a1.55,1.55,0,0,0-1.7.69c-8.26,15.59-22.38,27.85-39.52,32.57a60.74,60.74,0,0,1-50.68-8.9,67,67,0,0,1-19.83-22.11,1.48,1.48,0,0,0-1.29-.75,64.25,64.25,0,0,1-41.56-10.81,66.45,66.45,0,0,1-25.05-32.56,68.55,68.55,0,0,1-.9-42.92,66.61,66.61,0,0,1,23.69-33.68A64.08,64.08,0,0,1,2300,188.25a64.91,64.91,0,0,1,7.63.66,1.54,1.54,0,0,0,1.9-1.44c2.54-24.91,20.53-45.78,43.7-54.36,24.5-9.07,53.34-4.58,73.27,12.55a64.83,64.83,0,0,1,21.2,34.76C2448.15,182.3,2451,181.51,2450.61,179.62Z"/><path class="cls-6" d="M2354,218.62l.66-.92h-2.59c.18.26.34.53.51.79l1.3-2.26-1.18.13a1.25,1.25,0,0,0-.57.13,1.32,1.32,0,0,0-.8.8,1.22,1.22,0,0,0-.13.57l.06.4a1.45,1.45,0,0,0,.38.66l.31.24a1.5,1.5,0,0,0,.75.2l1.18-.13a1.5,1.5,0,0,0,.75-.2,1.4,1.4,0,0,0,.54-.54,1.46,1.46,0,0,0,0-1.51c-.17-.27-.33-.53-.51-.79a1.45,1.45,0,0,0-.53-.54,1.48,1.48,0,0,0-1.52,0,1.55,1.55,0,0,0-.54.54l-.66.92a1.09,1.09,0,0,0-.18.55,1.22,1.22,0,0,0,0,.6,1,1,0,0,0,.27.51,1.06,1.06,0,0,0,.42.39l.36.15a1.51,1.51,0,0,0,.79,0l.36-.15A1.4,1.4,0,0,0,2354,218.62Z"/><path class="cls-1" d="M2467.6,181.4c-6.74-30.29-35.5-53-70-53-37.23,0-67.8,26.56-71.16,60.48a65.6,65.6,0,0,0-9.77-.74c-36.61,0-66.28,30.43-66.28,68S2280.1,324,2316.71,324c1.94,0,3.85-.08,5.74-.25,11.35,20.31,32.13,33.91,55.89,33.91,24.37,0,45.6-14.3,56.74-35.47a130,130,0,0,0,21.69,1.81c53.38,0,96.66-32,96.66-71.52C2553.43,215.68,2515.88,185.38,2467.6,181.4Zm-96.43,37.84c.22-.31.44-.62.67-.92l.51.79Z"/><path class="cls-7" d="M1718.82,723.39c0-42.49,15.41-65.28,40.88-65.28s40.88,22.86,40.88,65.28-15.41,66.21-40.88,66.21S1718.82,765.87,1718.82,723.39Zm65.79,0c0-37.15-10.08-52.11-24.91-52.11s-24.91,15-24.91,52.11,10.09,53,24.91,53S1784.61,760.53,1784.61,723.39Z"/><path class="cls-8" d="M2059.94,1345.49c22.12-21.91,34.63-35.07,34.63-47,0-8.35-4.57-14.27-14-14.27-6.16,0-11.45,3.88-15.64,8.76l-5.51-5.33c6.15-6.72,12.78-11.11,22.32-11.11,13.6,0,22.09,8.53,22.09,21.53,0,13.72-12.68,27.36-30,45.49,4-.32,8.56-.63,12.37-.63h21.28v8.1h-47.54Z"/><path class="cls-8" d="M1667.46,219.06l5.93-7.65c5.51,5.67,12.65,10.71,23.37,10.71,11.12,0,19-6.45,19-16.66,0-10.81-7.49-18-29.2-18v-9c19.38,0,26-7.42,26-16.93,0-8.84-6.12-14.4-15.82-14.4-7.66,0-14.15,3.83-19.52,9.22l-6.36-7.44c7.08-6.51,15.47-11.33,26.3-11.33,15.92,0,27.38,8.4,27.38,23.08,0,10.95-6.69,18-16.63,21.61v.57c11.06,2.59,19.87,10.62,19.87,23.11,0,16.21-13.46,26-30.23,26C1682.84,231.89,1673.62,225.78,1667.46,219.06Z"/><path class="cls-9" d="M2377.92,1538.91l8.12-10.66c7.6,7.5,17.16,14.43,32.17,14.43,15.54,0,27.9-11.19,27.9-28.85,0-17.51-10.74-27.84-27.06-27.84-8.82,0-14.29,2.69-21.89,7.71l-8.74-5.51,4.21-61h63.83v14h-49.39l-3.37,37.61a38.51,38.51,0,0,1,19.58-5.25c21.75,0,39.54,12.32,39.54,39.7s-20.81,43-43,43C2399.33,1556.28,2386.8,1547.73,2377.92,1538.91Z"/><path class="cls-9" d="M116.12,995.69c0-75.16,34.17-104.05,71.67-104.05,20.2,0,34.82,8.54,45.34,19.73l-13.5,15.07a41.15,41.15,0,0,0-30.91-14.74c-27,0-49.71,21.31-49.71,84,0,45.92,15,70.85,42,70.85,18.44,0,32.72-16.34,32.72-41,0-24.35-11.51-39.67-34.8-39.67-12.21,0-27.5,7.28-40.43,26.47l-.87-19c11.83-15.7,29.42-25.54,45.36-25.54,32.59,0,53.64,19.43,53.64,57.79,0,35.77-25.39,60-55.56,60C144,1085.52,116.12,1055.67,116.12,995.69Z"/><path class="cls-9" d="M2355,800.87h-63.5v-14h82.2v10c-30.21,38.37-36.44,67.25-38.59,116.71h-17C2320.28,865.77,2329.86,835.64,2355,800.87Z"/><path class="cls-7" d="M1707.52,1068.34h-49.85v-11h64.54v7.86c-23.72,30.13-28.62,52.81-30.3,91.64h-13.32C1680.28,1119.3,1687.8,1095.64,1707.52,1068.34Z"/><path class="cls-10" d="M1085.9,1829c0-16.46,12.08-27.71,24.08-34.07v-.79c-9.49-6.55-17.81-15.94-17.81-29.3,0-19.49,15.58-32.5,36.08-32.5,22.34,0,36.06,14,36.06,33.71,0,13.28-9.73,24.68-17.59,30.57v.79c11.39,6.69,22.18,15.62,22.18,32.56,0,19-16.45,33.86-41.09,33.86C1103.65,1863.84,1085.9,1849.17,1085.9,1829Zm67.25.53c0-16.42-16.13-22.26-34.54-29.62-10.25,6.63-17.85,16-17.85,27.63,0,14,11.72,24.14,27.34,24.14C1143,1851.69,1153.15,1842.59,1153.15,1829.54Zm-3-62.6c0-12.51-8.09-22.45-22.15-22.45-11.89,0-20.7,8.1-20.7,20.36,0,15.12,14.13,21.5,29.41,27.53C1145.33,1784.7,1150.11,1776.27,1150.11,1766.94Z"/><path class="cls-10" d="M799.15,1007.88l9.15-10.22a28,28,0,0,0,21,10c18.4,0,33.71-14.45,33.71-57,0-31.14-10.18-48-28.47-48-12.51,0-22.19,11.07-22.19,27.78,0,16.51,7.81,26.9,23.6,26.9,8.28,0,18.65-4.94,27.42-18l.59,12.92c-8,10.65-19.95,17.32-30.76,17.32-22.11,0-36.38-13.18-36.38-39.19,0-24.26,17.22-40.66,37.68-40.66,25.16,0,44,20.25,44,60.92,0,51-23.18,70.57-48.61,70.57A40.57,40.57,0,0,1,799.15,1007.88Z"/><path class="cls-10" d="M164.4,329.73l6-6.74a18.43,18.43,0,0,0,13.83,6.59c12.13,0,22.23-9.53,22.23-37.56,0-20.53-6.71-31.67-18.77-31.67-8.25,0-14.64,7.3-14.64,18.31s5.15,17.74,15.57,17.74c5.45,0,12.29-3.26,18.07-11.83l.39,8.51c-5.29,7-13.15,11.42-20.28,11.42-14.58,0-24-8.69-24-25.84,0-16,11.36-26.8,24.85-26.8,16.59,0,29,13.35,29,40.16,0,33.61-15.28,46.53-32,46.53A26.76,26.76,0,0,1,164.4,329.73Z"/><path class="cls-8" d="M1313.74,1285.71H1343v-93.3h-23.24V1181.9c11.62-2,20.06-5.1,27.13-9.31h12.56v113.12h26.34v13.6h-72Z"/><text class="cls-11" transform="translate(1238.58 1869.93) scale(1.01 1)"><tspan xml:space="preserve">   </tspan><tspan class="cls-12" x="264.26" y="0">N</tspan><tspan x="437.05" y="0">úmeros</tspan></text><text/></g></svg>