<svg xmlns="http://www.w3.org/2000/svg" xmlns:xlink="http://www.w3.org/1999/xlink" viewBox="0 0 2734 2049"><defs><style>.cls-1,.cls-12{fill:none;}.cls-2{fill:#fff;}.cls-3,.cls-8{fill:#0071ba;}.cls-4{fill:#e8fff7;}.cls-5{fill:#89f2f1;}.cls-6{fill:#7ac743;}.cls-7{fill:#00c1dc;}.cls-8{font-size:281.45px;stroke:#d7de21;stroke-width:0.25px;font-family:GrandHotel-Regular, Grand Hotel;}.cls-12,.cls-8{stroke-miterlimit:10;}.cls-9{font-size:293.9px;font-family:JustMeAgainDownHere, Just Me Again Down Here;letter-spacing:0em;}.cls-10{clip-path:url(#clip-path);}.cls-11{fill:#fc9232;}.cls-12{stroke:#fc9232;stroke-width:1.28px;}.cls-13{fill:#202020;}</style><clipPath id="clip-path"><rect class="cls-1" x="2323.95" y="992.49" width="271.41" height="774.97"/></clipPath></defs><g id="Textos_y_botones" data-name="Textos y botones"><rect class="cls-2" x="-5.66" y="-15.7" width="2749.62" height="2062.21"/><path class="cls-3" d="M784.14,1671.57h24.41v6H791.34V1688h14.58v6H791.34v12h17.83v6h-25Z"/><path class="cls-3" d="M814.72,1706.92l4.19-4.94a15.93,15.93,0,0,0,10.57,4.63c4.56,0,7.07-2.07,7.07-5.24,0-3.33-2.62-4.4-6.3-6L824.7,1693c-4-1.66-8.19-4.82-8.19-10.75,0-6.46,5.7-11.43,13.61-11.43a17.77,17.77,0,0,1,12.5,5.17l-3.69,4.57a13.06,13.06,0,0,0-8.81-3.49c-3.84,0-6.35,1.8-6.35,4.76,0,3.19,3.09,4.37,6.45,5.74l5.47,2.3c4.82,2,8.2,5.06,8.2,10.93,0,6.58-5.46,12.06-14.56,12.06A20.92,20.92,0,0,1,814.72,1706.92Z"/><path class="cls-3" d="M849.16,1692c0-13.27,8.3-21.16,18.57-21.16a16.08,16.08,0,0,1,11.68,5.14l-3.84,4.63a10.62,10.62,0,0,0-7.69-3.52c-6.6,0-11.33,5.58-11.33,14.68,0,9.25,4.36,14.86,11.16,14.86a11.39,11.39,0,0,0,8.65-4.17l3.85,4.51a16.19,16.19,0,0,1-12.78,5.91C857.24,1712.86,849.16,1705.39,849.16,1692Z"/><path class="cls-3" d="M887,1671.57h13.67c8.43,0,14.92,3,14.92,12,0,8.72-6.49,12.68-14.92,12.68h-6.48v15.84H887Zm12.92,18.94c5.56,0,8.58-2.3,8.58-6.92s-3-6.27-8.58-6.27h-5.73v13.19Zm-.61,3.83,5.21-4.29,12.66,22.06H909.1Z"/><path class="cls-3" d="M923.71,1671.57h7.19v40.54h-7.19Z"/><path class="cls-3" d="M941.19,1671.57h13c8.33,0,14.46,2.55,14.46,10,0,3.82-2.09,7.54-5.63,8.78v.25c4.49,1,7.78,4.14,7.78,9.62,0,8.11-6.64,11.9-15.57,11.9h-14Zm12.32,16.73c5.66,0,8.06-2.2,8.06-5.72,0-3.92-2.65-5.41-7.91-5.41h-5.28v11.13Zm1,18.21c5.95,0,9.27-2.13,9.27-6.7,0-4.26-3.22-6.12-9.27-6.12h-6.08v12.82Z"/><path class="cls-3" d="M978.2,1671.57h24.4v6H985.39V1688H1000v6H985.39v12h17.83v6h-25Z"/><path class="cls-3" d="M1012.64,727.26H1037v6h-17.21V743.7h14.58v6h-14.58v12h17.83v6h-25Z"/><path class="cls-3" d="M1043.22,762.61l4.19-4.94A15.89,15.89,0,0,0,1058,762.3c4.56,0,7.07-2.07,7.07-5.24,0-3.33-2.62-4.4-6.3-6l-5.54-2.41c-4-1.66-8.2-4.82-8.2-10.75,0-6.46,5.71-11.43,13.62-11.43a17.8,17.8,0,0,1,12.5,5.17l-3.7,4.57a13,13,0,0,0-8.8-3.49c-3.85,0-6.35,1.8-6.35,4.76,0,3.19,3.09,4.37,6.45,5.74l5.46,2.3c4.83,2,8.2,5.06,8.2,10.93,0,6.58-5.46,12.06-14.56,12.06A20.88,20.88,0,0,1,1043.22,762.61Z"/><path class="cls-3" d="M1077.65,747.67c0-13.27,8.31-21.16,18.58-21.16a16.11,16.11,0,0,1,11.68,5.14l-3.85,4.63a10.59,10.59,0,0,0-7.69-3.52c-6.59,0-11.33,5.58-11.33,14.68s4.37,14.86,11.16,14.86a11.41,11.41,0,0,0,8.66-4.17l3.84,4.51a16.17,16.17,0,0,1-12.77,5.91C1085.74,768.55,1077.65,761.08,1077.65,747.67Z"/><path class="cls-3" d="M1114.31,750V727.26h7.19v23.31c0,8.83,3.3,11.73,8.21,11.73s8.38-2.9,8.38-11.73V727.26H1145V750c0,13.32-5.91,18.53-15.3,18.53S1114.31,763.34,1114.31,750Z"/><path class="cls-3" d="M1153,747.67c0-13.27,8.31-21.16,18.58-21.16a16.11,16.11,0,0,1,11.68,5.14l-3.85,4.63a10.59,10.59,0,0,0-7.69-3.52c-6.59,0-11.33,5.58-11.33,14.68s4.37,14.86,11.16,14.86a11.41,11.41,0,0,0,8.66-4.17l3.84,4.51a16.17,16.17,0,0,1-12.77,5.91C1161.07,768.55,1153,761.08,1153,747.67Z"/><path class="cls-3" d="M1190.83,727.26H1198v16.29h16.39V727.26h7.19V767.8h-7.19v-18H1198v18h-7.19Z"/><path class="cls-3" d="M1239.87,727.26h8.43l13.22,40.54h-7.62l-6.17-21.57c-1.29-4.29-2.48-8.92-3.67-13.37h-.25c-1.12,4.49-2.31,9.08-3.6,13.37L1234,767.8h-7.34Zm-5.41,23.91h19.1v5.65h-19.1Z"/><path class="cls-4" d="M1071.72,291.42c-21.4-78-112.6-136.61-221.86-136.61-118.05,0-215,68.4-225.64,155.77a254.74,254.74,0,0,0-31-1.89c-116.08,0-210.18,78.36-210.18,175s94.1,175,210.18,175q9.21,0,18.22-.65c36,52.31,101.88,87.34,177.23,87.34,77.26,0,144.59-36.83,179.91-91.35a505.74,505.74,0,0,0,68.8,4.66c169.26,0,306.49-82.48,306.49-184.22C1343.87,379.72,1224.82,301.67,1071.72,291.42ZM765.93,388.88c.69-.79,1.39-1.58,2.11-2.37.54.67,1.07,1.35,1.61,2C768.4,388.64,767.17,388.75,765.93,388.88Z"/><path class="cls-5" d="M1110.43,284c-21.4-81.64-112.6-143-221.86-143-118,0-215,71.59-225.64,163a243.13,243.13,0,0,0-31-2c-116.08,0-210.18,82-210.18,183.18S515.85,668.4,631.93,668.4q9.21,0,18.22-.68c36,54.74,101.88,91.41,177.23,91.41,77.27,0,144.59-38.55,179.91-95.61a482.37,482.37,0,0,0,68.8,4.88c169.27,0,306.49-86.33,306.49-192.81C1382.58,376.4,1263.53,294.71,1110.43,284ZM804.64,386l2.11-2.48c.54.7,1.08,1.42,1.61,2.13C807.11,385.73,805.88,385.85,804.64,386Z"/><path class="cls-4" d="M851.6,1204.1c-21.69-83.14-114.07-145.6-224.74-145.6-119.57,0-217.79,72.9-228.56,166a243.81,243.81,0,0,0-31.4-2c-117.58,0-212.9,83.53-212.9,186.55s95.32,186.54,212.9,186.54q9.33,0,18.46-.7c36.44,55.76,103.2,93.1,179.52,93.1,78.27,0,146.46-39.26,182.24-97.37a487.19,487.19,0,0,0,69.69,5c171.46,0,310.46-87.91,310.46-196.36C1127.27,1298.23,1006.68,1215,851.6,1204.1ZM541.85,1308c.7-.84,1.41-1.69,2.13-2.53.55.71,1.09,1.44,1.63,2.17C544.35,1307.73,543.1,1307.85,541.85,1308Z"/><path class="cls-6" d="M881.15,1204.1c-21.68-83.14-114.06-145.6-224.73-145.6-119.57,0-217.79,72.9-228.56,166a243.81,243.81,0,0,0-31.4-2c-117.58,0-212.9,83.53-212.9,186.55s95.32,186.54,212.9,186.54q9.33,0,18.46-.7c36.44,55.76,103.2,93.1,179.52,93.1,78.27,0,146.46-39.26,182.24-97.37a487.19,487.19,0,0,0,69.69,5c171.46,0,310.46-87.91,310.46-196.36C1156.83,1298.23,1036.23,1215,881.15,1204.1ZM571.41,1308c.7-.84,1.41-1.69,2.13-2.53.55.71,1.09,1.44,1.63,2.17C573.91,1307.73,572.66,1307.85,571.41,1308Z"/><path class="cls-3" d="M2225.64,389.51c0-11.14,7-17.77,15.61-17.77a13.54,13.54,0,0,1,9.81,4.31l-3.23,3.9a8.89,8.89,0,0,0-6.46-3c-5.54,0-9.52,4.69-9.52,12.33s3.67,12.48,9.37,12.48a9.61,9.61,0,0,0,7.28-3.5l3.22,3.79a13.57,13.57,0,0,1-10.72,5C2232.43,407.05,2225.64,400.78,2225.64,389.51Z"/><path class="cls-3" d="M2253.92,389.26c0-11,6.14-17.52,15-17.52s15,6.53,15,17.52-6.15,17.79-15,17.79S2253.92,400.28,2253.92,389.26Zm23.83,0c0-7.65-3.46-12.27-8.81-12.27s-8.81,4.62-8.81,12.27,3.45,12.54,8.81,12.54S2277.75,396.9,2277.75,389.26Z"/><path class="cls-3" d="M2290.81,372.37H2297l10.58,19.14,3.52,7.27h.21c-.29-3.52-.77-7.83-.77-11.62V372.37h5.75v34.05h-6.21l-10.58-19.17L2296,380h-.21c.29,3.6.77,7.71.77,11.5v14.91h-5.75Z"/><path class="cls-3" d="M2325,372.37h20.58v5.08H2331v9.66h12.37v5.09H2331v14.22h-6Z"/><path class="cls-3" d="M2351.53,372.37h6v34.05h-6Z"/><path class="cls-3" d="M2364.42,389.51c0-11.14,7.06-17.77,16.12-17.77a14,14,0,0,1,10.29,4.31l-3.23,3.9a9.18,9.18,0,0,0-6.87-3c-6,0-10.1,4.69-10.1,12.33s3.6,12.48,10.43,12.48a7.64,7.64,0,0,0,4.86-1.5V393h-6.42v-5h11.83v15a15.48,15.48,0,0,1-10.87,4C2371.27,407.05,2364.42,400.78,2364.42,389.51Z"/><path class="cls-3" d="M2398.75,391.49V372.37h6V392c0,7.41,2.77,9.85,6.89,9.85s7-2.44,7-9.85V372.37h5.81v19.12c0,11.19-5,15.56-12.85,15.56S2398.75,402.68,2398.75,391.49Z"/><path class="cls-3" d="M2433,372.37h11.48c7.08,0,12.54,2.5,12.54,10.1,0,7.32-5.46,10.64-12.54,10.64h-5.44v13.31h-6Zm10.85,15.91c4.67,0,7.21-1.94,7.21-5.81s-2.54-5.27-7.21-5.27h-4.81v11.08Zm-.51,3.22,4.38-3.6,10.63,18.52h-6.79Z"/><path class="cls-3" d="M2470.2,372.37h7.08l11.11,34.05H2482l-5.18-18.12c-1.09-3.6-2.09-7.49-3.09-11.23h-.21c-.93,3.77-1.93,7.63-3,11.23l-5.23,18.12h-6.16Zm-4.54,20.09h16v4.74h-16Z"/><path class="cls-3" d="M2490.28,389.51c0-11.14,7-17.77,15.6-17.77a13.53,13.53,0,0,1,9.81,4.31l-3.22,3.9a8.91,8.91,0,0,0-6.46-3c-5.54,0-9.52,4.69-9.52,12.33s3.66,12.48,9.37,12.48a9.59,9.59,0,0,0,7.27-3.5l3.23,3.79a13.58,13.58,0,0,1-10.73,5C2497.07,407.05,2490.28,400.78,2490.28,389.51Z"/><path class="cls-3" d="M2522.07,372.37h6v34.05h-6Z"/><path class="cls-3" d="M2535,389.26c0-11,6.14-17.52,15-17.52s15,6.53,15,17.52-6.15,17.79-15,17.79S2535,400.28,2535,389.26Zm23.83,0c0-7.65-3.46-12.27-8.81-12.27s-8.81,4.62-8.81,12.27,3.45,12.54,8.81,12.54S2558.79,396.9,2558.79,389.26Zm-12.19-21.71,8.15-7,3.27,3.94-8.75,6.08Z"/><path class="cls-3" d="M2571.85,372.37h6.21l10.58,19.14,3.52,7.27h.21c-.29-3.52-.77-7.83-.77-11.62V372.37h5.75v34.05h-6.21l-10.58-19.17L2577,380h-.21c.29,3.6.77,7.71.77,11.5v14.91h-5.75Z"/><path class="cls-7" d="M2446,176.83c-6.75-30.28-35.51-53-70-53-37.22,0-67.8,26.55-71.15,60.48a64.43,64.43,0,0,0-9.78-.74c-36.61,0-66.28,30.42-66.28,68s29.67,67.95,66.28,67.95c1.94,0,3.85-.09,5.75-.26,11.34,20.31,32.13,33.91,55.89,33.91,24.36,0,45.59-14.3,56.73-35.46a130.21,130.21,0,0,0,21.7,1.81c53.38,0,96.65-32,96.65-71.53C2531.8,211.12,2494.26,180.81,2446,176.83Zm-96.43,37.84c.21-.3.43-.61.66-.92l.51.79Z"/><path class="cls-2" d="M2447.42,176.43c-5.87-26-27.51-45.8-53.07-52-26.27-6.34-55.32,1.55-73.72,21.62a66.56,66.56,0,0,0-17.27,38.19l1.9-1.45a67.19,67.19,0,0,0-45.35,9.28,69.73,69.73,0,0,0-27.43,32.72,71.37,71.37,0,0,0-2.8,45A69.93,69.93,0,0,0,2253,305.93a66.34,66.34,0,0,0,47.83,14.75l-1.3-.74c9.08,16.13,24.38,28.59,42.51,32.92a63.82,63.82,0,0,0,52.69-11,70.64,70.64,0,0,0,20-23.5l-1.7.69c21.49,3.6,44,2.07,64.59-5.31,16.66-6,32.28-15.85,43.09-30.06,9.73-12.8,14.42-28.87,11.81-44.85-2.69-16.5-12.95-30.78-25.89-41-15.17-11.95-33.87-19-52.91-21.67-2.58-.36-5.17-.66-7.76-.88-1.93-.16-1.92,2.84,0,3,18.95,1.6,37.8,7.38,53.63,18.09,13.29,9,24.52,21.9,28.82,37.61,4.07,14.88,1.16,30.58-7.06,43.51-9,14.21-23.34,24.49-38.66,31-18.69,8-39.56,10.68-59.73,8.8q-4.59-.42-9.13-1.19a1.53,1.53,0,0,0-1.69.69c-8.27,15.59-22.39,27.85-39.53,32.58a60.78,60.78,0,0,1-50.68-8.91,67,67,0,0,1-19.83-22.11,1.48,1.48,0,0,0-1.29-.75,64.25,64.25,0,0,1-41.56-10.81,66.45,66.45,0,0,1-25.05-32.56,68.55,68.55,0,0,1-.9-42.92A66.61,66.61,0,0,1,2257,197.71a64.08,64.08,0,0,1,39.82-12.65,64.91,64.91,0,0,1,7.63.66,1.54,1.54,0,0,0,1.9-1.44c2.54-24.91,20.53-45.78,43.7-54.36,24.5-9.07,53.34-4.58,73.27,12.55a64.83,64.83,0,0,1,21.2,34.76C2445,179.11,2447.85,178.32,2447.42,176.43Z"/><path class="cls-2" d="M2350.84,215.43l.67-.92h-2.6c.18.26.34.53.51.79l1.3-2.26-1.17.13a1.27,1.27,0,0,0-.58.13,1.21,1.21,0,0,0-.49.31,1.32,1.32,0,0,0-.31.49,1.11,1.11,0,0,0-.12.57l0,.4a1.45,1.45,0,0,0,.38.66l.31.24a1.51,1.51,0,0,0,.76.2l1.17-.13a1.5,1.5,0,0,0,.75-.2,1.4,1.4,0,0,0,.54-.54,1.46,1.46,0,0,0,0-1.51l-.5-.79a1.55,1.55,0,0,0-.54-.54,1.48,1.48,0,0,0-1.52,0,1.55,1.55,0,0,0-.54.54l-.66.92a1.12,1.12,0,0,0-.18.55,1.22,1.22,0,0,0,0,.6,1.72,1.72,0,0,0,.69.9l.36.15a1.51,1.51,0,0,0,.79,0l.36-.15A1.4,1.4,0,0,0,2350.84,215.43Z"/><path class="cls-3" d="M2464.42,178.21c-6.75-30.29-35.51-53-70-53-37.22,0-67.8,26.56-71.16,60.48a65.6,65.6,0,0,0-9.77-.74c-36.61,0-66.28,30.43-66.28,68s29.67,67.95,66.28,67.95c1.94,0,3.85-.08,5.74-.25,11.35,20.31,32.13,33.91,55.9,33.91,24.36,0,45.59-14.3,56.73-35.47a130,130,0,0,0,21.69,1.81c53.38,0,96.66-32,96.66-71.52C2550.24,212.49,2512.69,182.19,2464.42,178.21ZM2368,216.05c.22-.31.44-.62.67-.92l.51.79Z"/><text class="cls-8" transform="translate(1400.18 1530.83) scale(1.01 1)"><tspan xml:space="preserve">   </tspan><tspan class="cls-9" x="185.94" y="0">N</tspan><tspan x="312.9" y="0">úmeros</tspan></text><g id="globo"><g class="cls-10"><g class="cls-10"><path class="cls-11" d="M2514.43,1296.89a198.9,198.9,0,0,1-44.86,27.76v9.41h-20.51v-10a217.32,217.32,0,0,1-48.7-33.58c-9.32-8.55-100.66-94.82-69.21-192.25,15.19-47.07,61.73-105.13,128.17-105.1,67.07,0,112.84,59.2,128.17,105.1,27,80.87-27.07,160.83-73.06,198.66"/><path class="cls-12" d="M2514.43,1296.89a198.9,198.9,0,0,1-44.86,27.76v9.41h-20.51v-10a217.32,217.32,0,0,1-48.7-33.58c-9.32-8.55-100.66-94.82-69.21-192.25,15.19-47.07,61.73-105.13,128.17-105.1,67.07,0,112.84,59.2,128.17,105.1C2614.49,1179.1,2560.42,1259.06,2514.43,1296.89Z"/><path class="cls-13" d="M2391.49,1767.25c-.13.24.14.35.64-.14l.11-.64Z"/><path class="cls-13" d="M2395.55,1764.84c.48-.69.94-1.59.29-1.53-.34.84-.59.84-.93,1.77-.5.49-1,.69-1,.49-.11.25-.88.63-1,1.07a5.7,5.7,0,0,0,2.51-2.05c.26-.09.14.15.15.25"/><path class="cls-13" d="M2437.41,1711.86l-.25.36a1.86,1.86,0,0,0,.25-.36"/><path class="cls-13" d="M2453.33,1672.89c-.08.31-.08.45,0,.47.05-.29.1-.53,0-.47"/><path class="cls-13" d="M2455.57,1666c0,.15-.08.28-.12.41a.93.93,0,0,0,.12-.41"/><path class="cls-13" d="M2437.41,1711.86l.64-.93c-.08-.14-.35.46-.64.93"/><path class="cls-13" d="M2401.7,1757.77a3.29,3.29,0,0,0-.35.5l.37-.43a.64.64,0,0,1,0-.07"/><path class="cls-13" d="M2428.39,1728.12l-.18.29a1.22,1.22,0,0,0,0,.33Z"/><path class="cls-13" d="M2420.25,1739.86c.21-.25,0-.55-.06-.75a1.25,1.25,0,0,1-.23.71c.05,0,.14.06.29,0"/><path class="cls-13" d="M2405,1756.56l-.24.32.24-.32"/><path class="cls-13" d="M2433.76,1719.42a.37.37,0,0,0,.18-.05s-.1,0-.18.05"/><path class="cls-13" d="M2449.89,1346.17s0,0,.05,0,0-.12-.05,0"/><path class="cls-13" d="M2461.31,1334.11l-.12.2a.51.51,0,0,0,.13.16Z"/><path class="cls-13" d="M2458.26,1653a.13.13,0,0,0,0,.06c0,.35,0,.15,0-.06"/><path class="cls-13" d="M2421.1,1539.41c.26,1.37-1.29-1.85-.78.17,0-.23,1.28,1.46.78-.17"/><path class="cls-13" d="M2402,1757.54l.41-.4a3.15,3.15,0,0,0-.41.4"/><path class="cls-13" d="M2420.32,1539.58h0l.06.21c0-.09,0-.14-.06-.21"/><path class="cls-13" d="M2456.87,1622.38a.86.86,0,0,0-.1.33s.07-.09.1-.33"/><path class="cls-13" d="M2458.1,1645.12l.07-.56a4.73,4.73,0,0,0-.07.56"/><path class="cls-13" d="M2453.59,1611a2.72,2.72,0,0,0-.21-.8v.14a1.4,1.4,0,0,1,.21.66"/><path class="cls-13" d="M2449.62,1599.4c0,.07,0,.16,0,.24l.16.36Z"/><path class="cls-13" d="M2429.78,1377.44a1.91,1.91,0,0,1,.56-.33c-.32,0,.52-1.56-.56.33"/><path class="cls-13" d="M2401.85,1757.91a.48.48,0,0,1,.14-.37q-.13.17-.27.3c0,.06,0,.11.13.07"/><path class="cls-13" d="M2450.73,1611.34l-.49-1.85c.12.53.3,1.19.49,1.85"/><path class="cls-13" d="M2402.45,1460.38v-.45a1.13,1.13,0,0,0,0,.45"/><path class="cls-13" d="M2448.38,1604.14a5.94,5.94,0,0,0-.15-1.1c-.06-.06-.11-.14-.17-.17Z"/><path class="cls-13" d="M2430.35,1377.11h0Z"/><path class="cls-13" d="M2436.21,1365.68c-1,1.56-.08,1-.06,1.45-1.09,1.93-.86.68-1.47,1.19-.59,1.26-.75,2.4-1.29,3.27-.11,0-.23.19-.2-.06-.41,1.45-2.18,3.75-2.63,5.45a.46.46,0,0,1-.21.13.6.6,0,0,1,.69.1c-.41.72-.51,1.47-.94,1.59a1.24,1.24,0,0,0,.21-.79l-.32.82c-.78.45.47-1.1.18-1.26-.36.77-.73,1.61-1.06,2.42a13,13,0,0,1-1,2.11c-.5,0,1.3-2.76.15-1.41.36-.57.71-1.14,1.11-1.68-1.38,1,.66-1-.7-.18-1.39,2.27-1.2,2.73-2.56,5-.06.64.41,0,.35.63-1.37,3.52-2.36,2.11-3.13,4.82a4,4,0,0,1-.8,2.91l-.16-.83c-1.14,2.31,0,1.64-1.43,3.92,0-.51.71-1.89.49-1.56-1.09,1.4-.27,1.23-.84,2.44l-.51.07c-.55,1.25-1.08,2.59-1.61,4s-1,2.83-1.52,4.24c0-.21,0-.74-.37-.14-.63,1.81-1.42,3.69-2.26,5.53s-1.56,3.72-2.31,5.41l-.12,1.45c-.12.31-.37.52-.32.16-.62,1.31.2.15.11.85-.25.77-.57.94-.5.42-.31,1.23-.65,3-1.1,4.79a28,28,0,0,1-1.57,4.74l0-.53c-.77,2,.11,2.46-.7,4.24l0-.38c-.62,2.17-1.16,4.49-1.69,6.66a39.7,39.7,0,0,1-1.51,5.9c.22.37-.08,1.45-.29,2.5s-.34,2.07,0,2.27a39,39,0,0,0-1.53,5.32c-.13,1,.33,1.5.3,2.7h-.4l.26,1.66-.55.83v1.13c.06-.45.26-.94.37-.86a12.44,12.44,0,0,1-.77,4.29l.14,4.18c-.15-.1-.18-.8-.25-1.35.31,2.23-.46.39-.14,2.44.09-.27.24.15.31.2a24.16,24.16,0,0,0-.13,5l-.27-.33a47.86,47.86,0,0,0,.19,4.86q.09,1.26.18,2.55c.08.85.17,1.71.25,2.58,0-1.25.51-1,.64,0l-.37.44c.31.63.06-1.07.49.25.07,1.29-.39.91-.59.17l.28,1.56c-.11.11-.21-.26-.38-.34.33.62-.2,2.77.41,3.64l-.11.1c.5,3.45.76,5,1.34,7.77.36,0,.49,1.1.92,1.87a52.92,52.92,0,0,0,1.08,6.79c.57,1.67.41.43.8,1.15-.32.21.37,2.61-.2,1.42a70.58,70.58,0,0,0,2.4,7.24c0-.43-.08-.89.1-.69.26.63.34,1.53.16,1.48l-.09-.16a20.35,20.35,0,0,1,1.08,3.2c.31,1.13.62,2.29.91,3.43a20.12,20.12,0,0,0,2.12,5.9l-.1-.16c.54,1,1.06,2.1,1.62,3.13.57,1.51-.61-.8-.33.38,2,3.28,2.24,5.54,3.87,8.22.08,2.62,3.67,7.72,4.56,10.89l.13-.27c.57.65.33,1,.55,1.55.12-.16-.22-.91.13-.5,3.4,6.23,6.38,13.19,9.52,19.72,1.16,2.39,1.74.8,2.77,4l-.81-.65c2.91,4.52,4.88,9.76,7.45,14.31-.21-.24-.33-.2-.54-.66.18,1.13,1.65,3.72,1.89,3.63.3.75-.13.27-.05.77.3,1.07,1.44,2.4,1.39,3,0,.11-.21-.24-.31-.42.41.6,1.25,3.1,1.31,2.33.59,1.86,1.49,3.43,1.86,5,.76.81.92,3.21,1.56,3.33-.6.06.68,3.37,1.24,4.49-.29-.35.12,1.08-.24.68.4,1.34.86,2.55,1.08,2.23,0,2.67,1.81,4.92,1.27,6.53.52,2,1.1,3.94,1.48,5.86s.78,3.79,1,5.65c-.52-.08-.56-4.11-1.14-3.87.36,1.74.75,3.1,1,4.49a26.5,26.5,0,0,1,.49,4.53c-.07.92-.25-.51-.39-.81.2,1.77.2,3.48.24,5.15s-.09,3.28,0,4.86a1.78,1.78,0,0,1-.13-.67c0,.62-.14,1.44.13,1.38l-.05-.61c.41-1,.73,2.52.86,2.65-.65-1.11-.49,3.11-1.28,1.35,0,.42.09.94.27.86-.11.6-.23.79-.37.15-.09,2.23.31,1.48.05,3.49-.13,0-.1-.43-.23-.66a10.85,10.85,0,0,1-.2,3.78c0-.11-.18.07-.1-.44-.4,2.91-.17,5.08-1.14,8.19-.32-1.05-.43,1-.93,1.09-.09.57-.16,1.15-.27,1.72l.39-.62a39.54,39.54,0,0,1-.88,4.1l.1-1.15c-.21.93-.45,1.85-.69,2.78l.63-1.51c-.19,1.55.63,0-.07,1.93a17.87,17.87,0,0,1-.93,2.15h0a8.11,8.11,0,0,1-.62,2.6c-.24.23-.44-.39-.59-.24.17.84-1,3.43-.93,4.46,0-.33-.22-.43-.3-.34l.1.7c-.33.63-.41.71-.56.54-.78,2,.81-.43-.31,1.86a2.35,2.35,0,0,1,.06-.53c-.5,1.17-.88,2.33-1.25,3.48a34.25,34.25,0,0,1-1.29,3.3c-.7.46.64-1.94,0-1.36a93.47,93.47,0,0,1-3.56,9.6l.3-.54c.43.7-1.29,2.09-1.72,3.7.13-.38-.11-.64-.09-.51-1,2-1.81,4.19-3.15,7.31l0-.46c-.72,1.11-1.69,3-2.42,4.24-.05.46-.45,1.16,0,.85-3,3.33-3.65,7.55-6.44,10.41.24-.4.46-1,.26-.71l-1.62,2.89c.38-.06.38-.27.94-.74a6.06,6.06,0,0,1-.91,2c.66-1.35-.41-.24-.9.2.14,0,.1.2.2.2-1.39,1.16.34.58-1.26,2.35l-.06-.19a18.77,18.77,0,0,1-1.32,2.32c-.51.13.41-.87.21-1.08-.75,1.11-1,2.56-2,3.33.26-.51.74-1.18,1-1.7a7.85,7.85,0,0,0-1.73,1.78l.07-.08-1.48,1.72.42-.4c-.28,1.88-1.91,2.83-2.85,5,.94-2.06,0-.48-.22-.85-.45.38-1.09,1-1,.73-.42,1-1.28,1.24-1.9,2.67-.14,0-.74.87-.82.48-.81,1.13.37-.11.42.08-1,1.93-3.64,3.48-5.27,6.13-1.62,2.1-1.64,2.76-3.22,4.67-.72.46.15-.8.15-.8a15,15,0,0,0-2.55,2.55c.11-.25-.15-.13-.52,0-.7.73-.16.81-1.25,1.59a3.52,3.52,0,0,1,.38-1.06c-.78.91-1.47,1.89-2.3,2.81-.39.07.32-.74.54-1.15-.94,1-2.5,2.59-2.6,3.12l.75-.5c-.36.35-.39,0-.16-.34.69-1,1.34-1.07,1.48-1l-.59.66c1.17-.07,2.51-2.5,3.8-3.71l-.16.9,1-1.59c.37-.17.77-.15.2.52,1.1-.71.68-.92,1.65-1.5.12,0,.1,0,0,.1l.76-1c-.09.25.42.11-.17.6,1.8-1.38,2.2-2.89,3.08-3.22l-.11.16c2-2.41-.08-.48,1.15-2.51l1.76-.52-.09-.49c.22-.24.66-.69.7-.5.58-1.08-.26,0,0-.65,1.3-.92,2.62-3.35,3.32-3.21.13-.62-1.12,1-.22-.41.83.07,1.1-1.55,2.22-2.46,0,.55-1,1.48.15.57.08-1,1.8-2.08,2.43-3.1-.33-.32,1.41-2.18,2.45-3.89.07.21,2.38-2.91,3.56-4.36l0,.09c-.2-.56.94-2.11,1.63-3.33.2.2.16.47-.16,1.18l.73-1.1a4,4,0,0,1,.59-1.49l.12.47a55.51,55.51,0,0,1,2.88-5c-.22-.28-1.7,1.06-.68-1.09.2,0,.51.09.25.67a4.26,4.26,0,0,1,.52-1l-.23,1c.64-.81.06-.58.5-1.27.21.14.47-.43.58-.23a4.64,4.64,0,0,0-.53.88,9.12,9.12,0,0,1,1.55-1.88c-.16,0-.29-.17,0-.78.84-1.53.56-.37,1.17-1.2,0-.45.76-1.33.44-1.54a1.28,1.28,0,0,1,.63-.57c.28-.88,1.94-3.75,1.11-3l-.13.19a1.21,1.21,0,0,1,.05-.14h0c1-2.79,3-5.37,4.1-8.1l.11.06a40.77,40.77,0,0,0,1.83-4.83c.21-.47.71-1,.76-.76a13.66,13.66,0,0,1,1.32-3.16c-.32,1.32.36-.36-.39,1.33a11.37,11.37,0,0,0,1.52-3.71c.07.72.86-1.07,1.08-1.87l-.67,1c.3-.89.63-1.64,1-2.4l.23.58c1.79-3.16,1.44-6.34,3.13-8.63,0-1-.83,1.77-.89.86.6-1.53,1.72-3,1.86-3.46.91-2.08.07-2.18.88-4.4-.23.25-.7.4-.35-1.32.52-1.56,1.17-1.77,1-.74-.1.38-.2.55-.24.52-.1.53-.23,1.22.11.64l-.09-.25c.4-.74,1-2.93,1.06-2.35.18-1.25-.1-.58-.42.29.76-2,.87-3.19,1.5-5.28-.16.32-.41.59-.33.25.91-3.06.05-1.43.42-3.55.48-1.16.46.54.7-1.63.41-1.28.46-.2.47.34a22.66,22.66,0,0,1,1-4.77l-.05,1.06a14.94,14.94,0,0,1,.19-1.66l-.39.55c.15-.6.23-1.12.36-1.09-.1-.65-.58.41-.66-.87.29-.79.1-2.5.54-2.73-.39,2.55.43-.24.28,1.94a8,8,0,0,1,.16-1.55c.05-.09.07.1.08.27.6-2.44-.34-1.18-.09-3.73.2.34.5-.56.48-1-.11,1-.39.46-.54-.49a12.23,12.23,0,0,0,0-2.65l-.12,1a6.59,6.59,0,0,1-.19-2.3c.18-.09.09,1,.18.63a4.69,4.69,0,0,1,.1-2.12,8,8,0,0,0,.07-2.51c.14-.82.43-.09.51-.81-.35-2,.32-2.18-.12-4.26-.25.63-.17.72-.58-.72.15,1.13.36,2.27.42,3.41-.15-.73-.33-1.45-.55-2.17a25.51,25.51,0,0,1,.26,2.79c-.27-1-.19-.93-.44-.43.47-1.44-.43-2.77-.23-4.42h.75c.19-2.5-.83-4.31-1.08-7.5v1c-.36-.38-.28-2-.63-2.94.27,0,.24-.6.31-1.07-.17.09-.42-2.3-1-2.48,0-.49,0-1,0-1.47-.49-2.54-1.39-2.69-1.92-5.09.47.64.36-.5,1,1.07-.18-.81-.35-1.54-.53-1.5,0-.51-1-2.11-.95-2.9a2.35,2.35,0,0,1-.73-1.23c0-.11.12,0,.12,0s-.6-1.33-.62-.48A16.39,16.39,0,0,0,2451,1604a18.3,18.3,0,0,1-1.33-4.33c-.69-1.66-1.64-3.61-2.27-5.11.11.06.12,0,.21.25-.65-2.17-1.18-1-2-3.43-.16-1.36.76,1.15.57.34.61-.66-1.35-2.78-1.64-4.54l.22.36c-.3-1.31-1.65-2.77-2.52-4.74,0,0,.11.07.12,0a37.72,37.72,0,0,1-3.41-5.35c.58.42.58.76.7.26-.46-.81-.36.48-1.27-1.12-.12-.62-.58-1.88-.34-2.19l.8,1.54c0-1-1-2-1.38-2.86l.23,0c-1.27-2.35-1.74-2.15-3-4.71v.33c-1.16-1.16-.36-1.29-1.4-2.51l.23-.65c-.59-.86-2.11-3-3-4.59a35.83,35.83,0,0,1,2.8,3.69,19.25,19.25,0,0,0-2.1-3.43,5,5,0,0,1,.7,1.14,16.62,16.62,0,0,1-2.79-4.12c1-.12-2.19-4.85-2.18-6.51-1.93-3.06-3-6.47-4.84-10.23-.06,1.67-.53-1.1-1.13-.54a4.92,4.92,0,0,1-.58-1.32l-.78-2.88c-.08-.73.54.77.66.62-.81-2-.08-1-.44-2.32-.14.37-.65-.53-1-1.69l.33,1.72c-1.54-2.58-.41-2.62-1.93-5.23.19.26.38.52.59.78-.71-1.37-2.08-5.26-3.18-6.46,0-.29.07-.7.35-.09-.56-1.74-1.42-3.61-2.17-5.41a29.12,29.12,0,0,1-1.59-5l.27.21a4.49,4.49,0,0,1-.73-1.92c.08,0,.25.22.18-.09a11,11,0,0,1-.93-2.57l.41.69c-.74-3.5-1.85-5.19-2.67-8.1.52-.11.17-2.91,0-4.3l.09,0c-.36-2-.79-3.76-1.15-5.45s-.85-3.34-1.14-5.25a27.55,27.55,0,0,0-.09-5.45c-.11-2.21-.19-4.6-.11-6.52-.07.59-.46-.08-.5-.77.11-.9-.4-2.5.12-2.35v.32c.51-.68.37-2.53.39-4l-.67-.25a24.64,24.64,0,0,0,.61-6.64c.11-2.26.18-4.33.72-5.31-.08-.93,0-2.06,0-3l.35.1c.45-2.5.68-3.74,1-6.85l.16.67c.3-1.73-.62-2.37-.33-4l.62-.39c.29-1.51.7-3,1.06-4.51a23.67,23.67,0,0,0,.93-4.53c.06.07.19.19.09.68.37-1.4,1.69-5.35.88-5,.48.09,1-3,1.25-4.7l.27.35a9.32,9.32,0,0,1,.31-3.49c.18-.43.4-.3.13.26.62-1.43,0-1.26.84-3l0,.73a4.63,4.63,0,0,0,.46-2.34c.2-1,1.11-2.83,1.49-2.94a3.42,3.42,0,0,1,.34-2c.16-.08.11.27.09.45,1.12-2.44,1.1-3.85,2.1-5.44a.38.38,0,0,0,.32-.2c-.82,2-1.5,3.54-1.46,3.38.31.12,1-1.45.92,0a22.64,22.64,0,0,1,1.48-5.23,1,1,0,0,1,.19-.16l0,.17a4.21,4.21,0,0,0,.35-1,12.08,12.08,0,0,0,.62-1.25c.31-.08.89-1.75,1.3-2.51-.36-.08.17-1.08-.55-.25.08-.11,0,.17-.26.69a1.62,1.62,0,0,0-.12.35v-.07c-.24.51-.49,1.2-.81,2a4.1,4.1,0,0,1,.8-2.2,12.22,12.22,0,0,1,0-1.32c1-.86,2.17-2.79,2.58-2.94.93-2.46,2.47-5.65,2.69-7.39.28-.7.58-.66.8-.86a8.06,8.06,0,0,0-.41,1.11c.54-1.4,2-3.94,1.75-4.47,1.07-1.56-.11,1.14,1-1.18l0,.37a16,16,0,0,0,1.77-3c.49-1,.91-2,1.32-2.94a22.35,22.35,0,0,1,3.59-6.19c-.25.31-.37.46-.48.49,1.76-2.69,3.54-5.48,5.25-8.3a56,56,0,0,1,5.59-8,7,7,0,0,0,1.46-2.75l.55-.1.72-1.79c1.3-2.36,3.37-3.26,4.94-6.29l-.48.19c.78-.94,2.22-3.15,2.34-2.81a1,1,0,0,1,.42-.77l.18.09,1.54-2.57c1.52-1.75.42.78,2.5-1.87.7-1,1.7-3.2,1.31-2.91s-.88,1-1.07.85l.62-1c-.34-.54-.28-1.62-2.33.36l-.91,1.79-.61.33,1-1.33a3.65,3.65,0,0,0-1.23,1.83,1.44,1.44,0,0,0-.76.46l-.72,1.88c-.33,0,.16-1-.74,0-.34.88.95-.38.17.92-.78.58-.79.23-1.28,1.25-.22,0-.15-.22.06-.6-.45.89-1.53,2.11-1.58,2.7a8,8,0,0,0-1.35,1.52c-.41.56-.76,1-1,.79a10.62,10.62,0,0,1-1.15,2.43c.41-1.74-2,2.75-2.32,2-.21,1.35-2.33,3.77-3.3,5.73a1.11,1.11,0,0,1,.22-.51c-.75,1-1.11,1.15-1.62,1.75.33.41-.61,2.07-.9,3.1-1.22,1,0-1.09-.65-1,.38.16-1.07,2.41-.51,2.17-.87.79-.66.74-1.32,1,.41.51-.49,1-.68,2-1.16,1.23-.73.05-1.56,1.68-.63.62.06-.86.06-.86m-19.16,38.8h0l.32-.84c-.07.18-.16.42-.31.84m-1.39,3.36c.17-.41.39-.91.62-1.45.16-.07.23.1.08.44,0-.22-.4.55-.7,1m5.22-6.1c-.17.55-.3.7-.4.74l.34-.94v-.08a.58.58,0,0,1,.07.28"/><path class="cls-13" d="M2420.88,1400.62a1.19,1.19,0,0,1,.08-.22l-.22.27c0,.08,0,.16,0,.23.05-.09.09-.19.13-.28"/><path class="cls-13" d="M2437.12,1712.29l0-.07a.45.45,0,0,1-.12.12l.08,0"/><polygon class="cls-13" points="2402.65 1456.31 2402.74 1456.31 2402.7 1455.98 2402.65 1456.31"/><path class="cls-13" d="M2426,1728.83a.6.6,0,0,0-.22.17,1.41,1.41,0,0,0,.22-.17"/><path class="cls-13" d="M2421,1735.84l-.81.9c.36-.38.62-.67.81-.9"/><path class="cls-13" d="M2416.91,1741a.35.35,0,0,0,0,.2h0Z"/><path class="cls-13" d="M2455.67,1645.49a2.17,2.17,0,0,0,0-.26c0-.59,0-.19,0,.26"/><path class="cls-13" d="M2451,1676.12c0-.34.06-.67.12-1-.18.53-.31.94-.12,1"/><path class="cls-13" d="M2450.78,1611.54h0a1.52,1.52,0,0,1-.06-.2Z"/><path class="cls-13" d="M2451.49,1673.71a5.91,5.91,0,0,0-.41,1.39,8.23,8.23,0,0,0,.41-1.39"/><path class="cls-13" d="M2397.41,1761.77l-.24.2s0,0,0,.07Z"/><path class="cls-13" d="M2397.18,1762l-.23.27c.12-.11.22-.21.23-.27"/><path class="cls-13" d="M2396.45,1762.86l.5-.56a1.82,1.82,0,0,0-.5.56"/><path class="cls-13" d="M2403.81,1755.86l0-.16a.18.18,0,0,0,0,.16"/><path class="cls-13" d="M2405.64,1753.94a16.46,16.46,0,0,0-1.87,1.62l0,.14c.15-.44,1.59-1.18,1.85-1.76"/><path class="cls-13" d="M2414.25,1746.75c-.5.56-1,1.1-1.53,1.64.36-.21.84-.47.2.32,2.16-1.87-.61.25,1.33-2"/><path class="cls-13" d="M2418.78,1741.48c-.68,1,.17.12.19.21.37-.68.46-.85-.19-.21"/><path class="cls-13" d="M2444.16,1698.3l.25.24c.34-.87-.11-.06-.25-.24"/><polygon class="cls-13" points="2446.22 1688.81 2445.7 1689.57 2445.83 1690.08 2446.22 1688.81"/><polygon class="cls-13" points="2450.37 1684.31 2450.28 1684.71 2450.67 1683.2 2450.37 1684.31"/><path class="cls-13" d="M2450.69,1601.33l-.28.4c.29.57.76.54.28-.4"/><path class="cls-13" d="M2435,1568.5a3.42,3.42,0,0,0-.82-1.87c.35.73.58,1.53.82,1.87"/><polygon class="cls-13" points="2405.22 1466.12 2405.32 1466.85 2405.27 1465.48 2405.22 1466.12"/></g></g></g></g></svg>