<svg xmlns="http://www.w3.org/2000/svg" viewBox="0 0 421.43 135.56"><defs><style>.cls-1{fill:#89f2f1;}.cls-2,.cls-3{fill:#0071ba;}.cls-3{stroke:#0071ba;stroke-miterlimit:10;}</style></defs><g id="Layer_2" data-name="Layer 2"><g id="Layer_3" data-name="Layer 3"><rect class="cls-1" width="421.43" height="135.56" rx="34.59"/><path class="cls-2" d="M111.16,77.6c0-7.62,4.78-12.16,10.68-12.16a9.28,9.28,0,0,1,6.72,3l-2.21,2.67a6.1,6.1,0,0,0-4.42-2c-3.79,0-6.52,3.21-6.52,8.45S117.92,86,121.83,86a6.58,6.58,0,0,0,5-2.4l2.21,2.6a9.32,9.32,0,0,1-7.35,3.39C115.81,89.61,111.16,85.32,111.16,77.6Z"/><path class="cls-2" d="M132,77.43c0-7.54,4.2-12,10.28-12s10.28,4.47,10.28,12-4.21,12.18-10.28,12.18S132,85,132,77.43Zm16.31,0c0-5.23-2.37-8.4-6-8.4s-6,3.17-6,8.4,2.37,8.59,6,8.59S148.26,82.67,148.26,77.43Z"/><path class="cls-2" d="M158.62,65.87h4.25L170.11,79l2.41,5h.15c-.2-2.41-.53-5.36-.53-8V65.87h3.93V89.18h-4.25l-7.24-13.12-2.41-5H162c.2,2.47.53,5.28.53,7.87V89.18h-3.94Z"/><path class="cls-2" d="M183.43,65.87h14.09v3.48h-10V76H196v3.48h-8.46v9.74h-4.14Z"/><path class="cls-2" d="M203,65.87h4.13V89.18H203Z"/><path class="cls-2" d="M213.29,77.6c0-7.62,4.83-12.16,11-12.16a9.63,9.63,0,0,1,7.05,3l-2.21,2.67a6.32,6.32,0,0,0-4.71-2c-4.13,0-6.91,3.21-6.91,8.45S220,86,224.68,86A5.24,5.24,0,0,0,228,85V80h-4.39v-3.4h8.1V86.84a10.6,10.6,0,0,1-7.44,2.77C218,89.61,213.29,85.32,213.29,77.6Z"/><path class="cls-2" d="M238.21,79V65.87h4.14v13.4c0,5.08,1.89,6.75,4.72,6.75s4.81-1.67,4.81-6.75V65.87h4V79c0,7.65-3.39,10.65-8.79,10.65S238.21,86.61,238.21,79Z"/><path class="cls-2" d="M263.1,65.87H271c4.85,0,8.59,1.71,8.59,6.91,0,5-3.74,7.29-8.59,7.29h-3.72v9.11H263.1Zm7.43,10.89c3.19,0,4.93-1.32,4.93-4s-1.74-3.6-4.93-3.6h-3.3v7.58ZM270.18,79l3-2.47,7.28,12.68H275.8Z"/><path class="cls-2" d="M290,65.87h4.85l7.6,23.31H298l-3.55-12.4c-.74-2.47-1.42-5.13-2.11-7.69h-.14c-.64,2.58-1.33,5.22-2.07,7.69l-3.57,12.4h-4.23Zm-3.1,13.75h11v3.24h-11Z"/><path class="cls-2" d="M305.15,77.6c0-7.62,4.77-12.16,10.67-12.16a9.28,9.28,0,0,1,6.72,3l-2.21,2.67a6.1,6.1,0,0,0-4.42-2c-3.79,0-6.52,3.21-6.52,8.45S311.9,86,315.81,86a6.58,6.58,0,0,0,5-2.4l2.21,2.6a9.32,9.32,0,0,1-7.35,3.39C309.79,89.61,305.15,85.32,305.15,77.6Z"/><path class="cls-2" d="M328.33,65.87h4.13V89.18h-4.13Z"/><path class="cls-2" d="M338.58,77.43c0-7.54,4.21-12,10.28-12s10.28,4.47,10.28,12-4.21,12.18-10.28,12.18S338.58,85,338.58,77.43Zm16.31,0c0-5.23-2.37-8.4-6-8.4s-6,3.17-6,8.4,2.37,8.59,6,8.59S354.89,82.67,354.89,77.43Zm-8.34-14.85,5.57-4.79,2.24,2.69-6,4.16Z"/><path class="cls-2" d="M365.26,65.87h4.25L376.75,79l2.41,5h.14c-.2-2.41-.53-5.36-.53-8V65.87h3.94V89.18h-4.25l-7.24-13.12-2.41-5h-.15c.2,2.47.53,5.28.53,7.87V89.18h-3.93Z"/><circle class="cls-3" cx="43.76" cy="97.69" r="9.44"/><line class="cls-3" x1="54.48" y1="97.69" x2="90.25" y2="97.69"/><circle class="cls-3" cx="83.21" cy="37.86" r="9.44"/><line class="cls-3" x1="72.49" y1="37.86" x2="36.73" y2="37.86"/><path class="cls-3" d="M74.55,67.78A9.8,9.8,0,1,1,64.75,58,9.79,9.79,0,0,1,74.55,67.78Z"/><line class="cls-3" x1="53.99" y1="67.78" x2="37.14" y2="67.78"/><line class="cls-3" x1="92.45" y1="67.78" x2="75.6" y2="67.78"/></g></g></svg>